<?xml version="1.0" standalone="no"?>
<!DOCTYPE svg PUBLIC "-//W3C//DTD SVG 1.1//EN" "http://www.w3.org/Graphics/SVG/1.1/DTD/svg11.dtd" >
<svg xmlns="http://www.w3.org/2000/svg" xmlns:xlink="http://www.w3.org/1999/xlink" version="1.1">
<metadata>
Created by FontForge 20170731 at Thu May 17 19:34:20 2012
 By Aleksey,,,
(c)2006 Designed by Alan Meeks for AlanMeeks.com. All Rights Reserved.
</metadata>
<defs>
<font id="AstoriaBold" horiz-adv-x="974" >
  <font-face 
    font-family="AstoriaBold"
    font-weight="400"
    font-stretch="normal"
    units-per-em="1000"
    panose-1="0 0 7 0 0 0 0 0 0 0"
    ascent="756"
    descent="-244"
    x-height="492"
    cap-height="699"
    bbox="-148 -235 1243 928"
    underline-thickness="20"
    underline-position="-163"
    unicode-range="U+0020-F002"
  />
<missing-glyph horiz-adv-x="500" 
d="M63 0v800h375v-800h-375zM125 63h250v675h-250v-675z" />
    <glyph glyph-name=".notdef" horiz-adv-x="500" 
d="M63 0v800h375v-800h-375zM125 63h250v675h-250v-675z" />
    <glyph glyph-name="glyph1" horiz-adv-x="0" 
 />
    <glyph glyph-name="glyph2" horiz-adv-x="230" 
 />
    <glyph glyph-name="space" unicode=" " horiz-adv-x="230" 
 />
    <glyph glyph-name="exclam" unicode="!" horiz-adv-x="377" 
d="M274 74q0 -36 -25.5 -61.5t-60.5 -25.5q-36 0 -61.5 25.5t-25.5 61.5q0 35 25.5 60.5t61.5 25.5q35 0 60.5 -25.5t25.5 -60.5zM285 699l-26 -496h-142l-25 496h193z" />
    <glyph glyph-name="quotedbl" unicode="&#x22;" horiz-adv-x="516" 
d="M239 611q0 -41 -18 -82q-32 -70 -104 -106l-32 45q57 30 66 86h-7q-72 0 -72 77q0 33 24 57t57 24q53 0 76 -47q10 -22 10 -54zM444 611q0 -41 -18 -82q-32 -70 -104 -106l-32 45q57 30 66 86h-7q-72 0 -72 77q0 33 24 57t57 24q53 0 76 -47q10 -22 10 -54z" />
    <glyph glyph-name="numbersign" unicode="#" horiz-adv-x="646" 
d="M384 393h-99l-22 -106h98zM638 507l-24 -114h-103l-23 -106h104l-24 -114h-104l-36 -173h-127l36 173h-98l-37 -173h-126l36 173h-104l24 114h104l22 106h-104l24 114h104l36 171h127l-36 -171h98l36 171h127l-35 -171h103z" />
    <glyph glyph-name="dollar" unicode="$" horiz-adv-x="516" 
d="M474 211q0 -69 -39 -117.5t-107 -67.5v-103h-133v94q-94 9 -145 44v152q28 -31 79.5 -54.5t98.5 -23.5q85 0 85 67q0 29 -35 56q-15 12 -61 37q-29 16 -81 46q-94 59 -94 158q0 142 153 180v87h133v-81q74 -10 116 -42v-139q-66 60 -157 60q-82 0 -82 -56q0 -21 19 -39
q16 -15 63 -42q37 -20 100 -57q87 -57 87 -159z" />
    <glyph glyph-name="percent" unicode="%" horiz-adv-x="870" 
d="M262 503q0 56 -17 88.5t-45 32.5t-45 -32.5t-17 -88.5q0 -55 17 -87.5t45 -32.5t45 32.5t17 87.5zM734 197q0 56 -17 88.5t-45 32.5q-29 0 -45.5 -32.5t-16.5 -88.5q0 -55 16.5 -87.5t45.5 -32.5q28 0 45 32.5t17 87.5zM377 503q0 -93 -49 -150.5t-128 -57.5
q-80 0 -128.5 57.5t-48.5 150.5q0 94 48.5 151.5t128.5 57.5q79 0 128 -57.5t49 -151.5zM694 700l-401 -700h-115l401 700h115zM849 197q0 -93 -49 -150.5t-128 -57.5q-80 0 -128.5 57.5t-48.5 150.5q0 94 48.5 151.5t128.5 57.5q79 0 128 -57.5t49 -151.5z" />
    <glyph glyph-name="ampersand" unicode="&#x26;" horiz-adv-x="713" 
d="M390 126l-153 172q-33 -31 -33 -79q0 -47 30 -77t76 -31h8h3q37 0 69 15zM367 550q0 22 -13 39.5t-37 17.5t-39.5 -17.5t-15.5 -45.5q0 -36 41 -83q64 35 64 89zM716 0h-203l-35 41q-80 -52 -207 -52q-94 0 -160 43q-84 56 -84 168q0 123 131 191q-50 69 -50 139
q0 92 64 143q56 44 139 44q82 0 135 -38q63 -44 63 -129q0 -100 -131 -173l127 -141q18 42 18 94q0 42 -11 84h149q6 -41 6 -79q0 -121 -67 -205z" />
    <glyph glyph-name="quotesingle" unicode="'" horiz-adv-x="271" 
d="M219 611q0 -41 -18 -82q-32 -70 -104 -106l-32 45q57 30 66 86h-7q-72 0 -72 77q0 33 24 57t57 24q53 0 76 -47q10 -22 10 -54z" />
    <glyph glyph-name="parenleft" unicode="(" horiz-adv-x="296" 
d="M328 -98h-120q-88 80 -141 202.5t-53 255.5t54 257q52 121 140 201h120q-145 -195 -145 -458t145 -458z" />
    <glyph glyph-name="parenright" unicode=")" horiz-adv-x="296" 
d="M277 360q0 -133 -52.5 -255.5t-140.5 -202.5h-121q145 195 145 458t-145 458h121q88 -80 140 -201q53 -124 53 -257z" />
    <glyph glyph-name="asterisk" unicode="*" horiz-adv-x="420" 
d="M378 500l-54 -95q-45 36 -73 63q3 -18 14 -97h-111q8 57 18 97q-14 -12 -77 -63l-53 95l83 35l-83 35l53 95q45 -36 77 -63q-5 18 -18 97h111q-7 -57 -14 -97q13 12 73 63l54 -95q-53 -22 -90 -35q16 -5 90 -35z" />
    <glyph glyph-name="plus" unicode="+" horiz-adv-x="556" 
d="M534 202h-193v-202h-126v202h-193v114h193v200h126v-200h193v-114z" />
    <glyph glyph-name="comma" unicode="," horiz-adv-x="280" 
d="M228 54q0 -42 -22 -85q-34 -66 -110 -80l-29 54q56 12 67 52h-4h-2q-76 0 -76 79q0 35 25.5 60t59.5 25q56 0 80 -49q11 -25 11 -56z" />
    <glyph glyph-name="hyphen" unicode="-" horiz-adv-x="362" 
d="M320 252h-278v134h278v-134z" />
    <glyph glyph-name="hyphen" unicode="&#x2010;" horiz-adv-x="362" 
d="M320 252h-278v134h278v-134z" />
    <glyph glyph-name="period" unicode="." horiz-adv-x="277" 
d="M225 73q0 -35 -25.5 -60.5t-61.5 -25.5q-35 0 -60.5 25.5t-25.5 60.5q0 36 25.5 61.5t60.5 25.5q36 0 61.5 -25.5t25.5 -61.5z" />
    <glyph glyph-name="slash" unicode="/" horiz-adv-x="301" 
d="M347 720l-265 -742h-113l265 742h113z" />
    <glyph glyph-name="zero" unicode="0" horiz-adv-x="642" 
d="M437 349q0 106 -30 168t-86 62t-86.5 -62t-30.5 -168t30.5 -167.5t86.5 -61.5t86 61.5t30 167.5zM620 349q0 -164 -82.5 -265t-216.5 -101t-216.5 101t-82.5 265t82.5 265t216.5 101t216.5 -101t82.5 -265z" />
    <glyph glyph-name="one" unicode="1" horiz-adv-x="417" 
d="M335 0h-174v544l-134 -42v123l226 74h82v-699z" />
    <glyph glyph-name="two" unicode="2" horiz-adv-x="520" 
d="M478 0h-466v67q156 153 222 272q43 77 43 137q0 47 -28 74t-76 27q-83 0 -150 -69l-11 136q79 70 212 70q112 0 174 -59.5t62 -165.5q0 -84 -46 -168t-151 -194h215v-127z" />
    <glyph glyph-name="three" unicode="3" horiz-adv-x="505" 
d="M463 205q0 -83 -63 -146q-73 -74 -200 -74q-119 0 -183 46l11 139q68 -54 153 -54q48 0 76.5 25.5t28.5 66.5q0 93 -135 93h-43v121h55q113 0 113 84q0 78 -94 78q-67 0 -136 -48l-15 128q76 50 198 50q89 0 148 -42q71 -50 71 -145q0 -66 -37 -112q-26 -32 -61 -46
q113 -39 113 -164z" />
    <glyph glyph-name="four" unicode="4" horiz-adv-x="529" 
d="M274 476l-119 -177h119v177zM522 180h-83v-180h-174v180h-273v104l281 415h166v-397h83v-122z" />
    <glyph glyph-name="five" unicode="5" horiz-adv-x="514" 
d="M477 238q0 -108 -78 -179t-193 -71q-98 0 -169 39l14 139q53 -44 125 -44q55 0 87 29t32 75q0 52 -44 80q-36 23 -87 23q-54 0 -101 -13l19 383h359v-126h-208l-6 -109h16q100 0 165 -56q69 -59 69 -170z" />
    <glyph glyph-name="six" unicode="6" horiz-adv-x="561" 
d="M368 206q0 95 -77 95q-40 0 -80 -36v-16q0 -137 82 -137q75 0 75 94zM539 223q0 -107 -77 -175q-70 -62 -168 -62q-116 0 -185 71q-77 79 -77 217q0 184 118 309q105 110 253 134l64 -116q-98 -17 -161 -71t-82 -135q41 37 114 37q83 0 139 -51q62 -58 62 -158z" />
    <glyph glyph-name="seven" unicode="7" horiz-adv-x="450" 
d="M453 699v-90l-253 -638q-89 24 -160 47l222 555h-255v126h446zM453 699v-90l-253 -638q-89 24 -160 47l222 555h-255v126h446zM453 699v-90l-253 -638q-89 24 -160 47l222 555h-255v126h446z" />
    <glyph glyph-name="eight" unicode="8" horiz-adv-x="579" 
d="M372 199q0 41 -22.5 67t-57.5 26t-58 -26t-23 -67t23 -67t58 -26t57.5 26t22.5 67zM360 509q0 38 -20 61.5t-51 23.5t-51.5 -23.5t-20.5 -61.5q0 -37 20.5 -60.5t51.5 -23.5t51 23.5t20 60.5zM542 197q0 -82 -56 -141q-68 -71 -196 -71t-197 71q-56 59 -56 141
q0 66 36 112q33 42 86 57q-39 12 -69 47q-36 43 -36 104q0 88 69 144q66 53 167 53q100 0 166 -53q69 -56 69 -144q0 -61 -36 -104q-29 -35 -69 -47q53 -15 86 -57q36 -46 36 -112z" />
    <glyph glyph-name="nine" unicode="9" horiz-adv-x="543" 
d="M334 469q0 126 -75 126q-40 0 -62 -29q-19 -25 -19 -61q0 -91 76 -91q40 0 79 35q1 10 1 20zM511 441q0 -193 -108 -317q-102 -116 -267 -139l-61 113q116 18 182 82q60 59 69 145q-41 -37 -118 -37q-82 0 -137 50q-62 55 -62 151q0 101 78 166q73 60 170 60
q113 0 183.5 -70t70.5 -204z" />
    <glyph glyph-name="colon" unicode=":" horiz-adv-x="236" 
d="M202 74q0 -36 -25.5 -61.5t-61.5 -25.5q-35 0 -60.5 25.5t-25.5 61.5q0 35 25.5 60.5t60.5 25.5q36 0 61.5 -25.5t25.5 -60.5zM202 314q0 -36 -25.5 -61.5t-61.5 -25.5q-35 0 -60.5 25.5t-25.5 61.5q0 35 25.5 60.5t60.5 25.5q36 0 61.5 -25.5t25.5 -60.5z" />
    <glyph glyph-name="semicolon" unicode=";" horiz-adv-x="239" 
d="M205 54q0 -42 -22 -85q-34 -66 -110 -80l-29 54q57 12 67 52h-4h-2q-76 0 -76 79q0 35 25.5 60t60.5 25q55 0 79 -49q11 -25 11 -56zM202 314q0 -36 -25.5 -61.5t-61.5 -25.5q-35 0 -60.5 25.5t-25.5 61.5q0 35 25.5 60.5t60.5 25.5q36 0 61.5 -25.5t25.5 -60.5z" />
    <glyph glyph-name="less" unicode="&#x3c;" horiz-adv-x="524" 
d="M502 8l-480 211v67l480 211v-100l-334 -144l334 -144v-101z" />
    <glyph glyph-name="equal" unicode="=" horiz-adv-x="557" 
d="M535 108h-513v114h513v-114zM535 295h-513v114h513v-114z" />
    <glyph glyph-name="greater" unicode="&#x3e;" horiz-adv-x="524" 
d="M502 219l-480 -211v101l334 144l-334 144v100l480 -211v-67z" />
    <glyph glyph-name="question" unicode="?" horiz-adv-x="391" 
d="M272 73q0 -36 -25 -61t-61 -25t-61.5 25t-25.5 61t25.5 61.5t61.5 25.5t61 -25.5t25 -61.5zM393 539q0 -66 -32 -121q-12 -22 -66 -88q-27 -32 -35 -49q-11 -23 -11 -54q0 -11 1 -25h-140q-5 28 -5 53q0 87 63 155q50 54 50 99q0 32 -20.5 51t-54.5 19q-54 0 -107 -47
l-13 121q70 58 177 58q89 0 141 -48t52 -124z" />
    <glyph glyph-name="at" unicode="@" horiz-adv-x="743" 
d="M447 436q-14 19 -46 19q-80 0 -105 -98q-6 -24 -6 -44q0 -61 51 -61q62 0 79 70zM721 416q0 -97 -47 -172q-56 -87 -148 -89h-4h-2q-77 0 -91 64q-37 -58 -120 -58q-61 0 -95.5 41t-34.5 104q0 18 3 37q15 105 92 161q59 43 121 43q51 0 77 -25l17 22h85l-55 -246
q-3 -15 -3 -25q0 -29 25 -29q24 0 47 26q30 34 41 103q4 26 4 50q0 91 -52 145q-57 62 -167 62q-133 0 -216 -98q-78 -92 -78 -226q0 -101 57 -162q64 -69 187 -69q102 0 178 31l20 -80q-85 -35 -201 -35q-161 0 -253 94q-86 88 -86 229q0 32 5 65q21 138 128 232
q111 96 260 96q144 0 229 -89q77 -82 77 -202z" />
    <glyph glyph-name="A" unicode="A" horiz-adv-x="725" 
d="M440 268l-78 202q-9 25 -15 59h-2q-4 -26 -15 -59v0l-73 -202h183zM739 0h-196l-58 150h-271l-54 -150h-174l279 699h186z" />
    <glyph glyph-name="B" unicode="B" horiz-adv-x="667" 
d="M462 212q0 35 -19 61q-29 38 -94 38h-87v-198h87q65 0 94 39q19 25 19 60zM425 501q0 30 -16 53q-24 33 -76 33h-71v-172h71q52 0 76 33q16 23 16 53zM645 205q0 -80 -61 -140q-68 -65 -178 -65h-328v533q0 122 -66 144v22h367q111 0 169 -59q49 -49 49 -124
q0 -47 -23 -83.5t-60 -53.5q131 -37 131 -174z" />
    <glyph glyph-name="C" unicode="C" horiz-adv-x="695" 
d="M646 39q-81 -57 -218 -57q-174 0 -287 99q-117 101 -117 268t117 269q113 98 287 98q137 0 218 -56v-149q-77 69 -191 69q-103 0 -171 -64t-68 -167q0 -102 68 -166.5t171 -64.5q114 0 191 69v-148z" />
    <glyph glyph-name="D" unicode="D" horiz-adv-x="764" 
d="M547 350q0 94 -47 151q-56 70 -170 70h-71v-439h71q114 0 170 69q47 57 47 149zM740 350q0 -146 -88 -243q-98 -107 -265 -107h-309v533q0 122 -66 144v22h375q168 0 265 -106q88 -97 88 -243z" />
    <glyph glyph-name="E" unicode="E" horiz-adv-x="590" 
d="M536 0h-458v533q0 122 -66 144v22h516v-126h-269v-157h260v-123h-260v-167h277v-126z" />
    <glyph glyph-name="F" unicode="F" horiz-adv-x="550" 
d="M513 574h-254v-158h245v-123h-245v-293h-181v533q0 122 -66 144v22h501v-125z" />
    <glyph glyph-name="G" unicode="G" horiz-adv-x="744" 
d="M697 40q-107 -58 -269 -58q-179 0 -288 92q-116 98 -116 275q0 165 118 268q114 100 286 100q166 0 242 -53v-149q-76 66 -212 66q-103 0 -172.5 -64.5t-69.5 -167.5q0 -102 68 -166.5t171 -64.5q34 0 68 6v117h-107v122h281v-323z" />
    <glyph glyph-name="H" unicode="H" horiz-adv-x="799" 
d="M725 0h-181v291h-283v-291h-181v533q0 122 -66 144v22h247v-281h283v281h181v-699z" />
    <glyph glyph-name="I" unicode="I" horiz-adv-x="331" 
d="M259 0h-181v533q0 122 -66 145v21h247v-699z" />
    <glyph glyph-name="J" unicode="J" horiz-adv-x="401" 
d="M329 211q0 -74 -12 -117q-14 -47 -50 -82q-55 -56 -165 -56q-37 0 -71 8l-19 130q20 -6 46 -6q31 0 49 8q42 18 42 93v344q0 122 -66 145v21h246v-488z" />
    <glyph glyph-name="K" unicode="K" horiz-adv-x="733" 
d="M739 0h-230l-250 326v-326h-181v533q0 122 -66 144v22h247v-298l246 298h199l-271 -313z" />
    <glyph glyph-name="L" unicode="L" horiz-adv-x="531" 
d="M529 0h-451v533q0 122 -66 144v22h247v-573h270v-126z" />
    <glyph glyph-name="M" unicode="M" horiz-adv-x="916" 
d="M844 0h-174v425l-183 -255l-55 1l-180 250v-421h-174v533q0 122 -66 144v22h235l220 -297l217 297h160v-699z" />
    <glyph glyph-name="N" unicode="N" horiz-adv-x="825" 
d="M753 0h-143l-361 429v-429h-171v533q0 122 -66 144v22h226l345 -410l-1 410h171v-699z" />
    <glyph glyph-name="O" unicode="O" horiz-adv-x="847" 
d="M629 349q0 100 -57 164t-149 64t-149 -64t-57 -164q0 -98 58 -163t148 -65q92 0 149 64t57 164zM823 349q0 -148 -97 -251q-111 -117 -305 -117q-173 0 -285 104t-112 264t112.5 264t286.5 104q177 0 288.5 -102.5t111.5 -265.5z" />
    <glyph glyph-name="P" unicode="P" horiz-adv-x="641" 
d="M434 479q0 45 -27.5 70t-76.5 25h-71v-190h71q49 0 76.5 25t27.5 70zM619 481q0 -98 -69.5 -158t-182.5 -60h-108v-263h-181v533q0 122 -66 144v22h355q113 0 182.5 -59.5t69.5 -158.5z" />
    <glyph glyph-name="Q" unicode="Q" horiz-adv-x="847" 
d="M629 349q0 100 -57 164t-149 64t-149 -64t-57 -164q0 -98 58 -163t148 -65q92 0 149 64t57 164zM823 349q0 -111 -61 -196q-68 -93 -193 -125q127 -32 250 -37l-18 -138q-482 57 -649 209q-128 116 -128 287q0 160 112.5 264t286.5 104q177 0 288.5 -102.5t111.5 -265.5z
" />
    <glyph glyph-name="R" unicode="R" horiz-adv-x="691" 
d="M410 488q0 43 -26 67t-72 24h-53v-181h53q46 0 72 24t26 66zM709 0h-193l-84 145q-54 93 -88 122q-23 19 -54 19h-31v-286h-181v533q0 122 -66 144v22h347q106 0 170 -55.5t64 -150.5q0 -51 -28.5 -95t-76.5 -64q36 -24 100 -128l24 -39z" />
    <glyph glyph-name="S" unicode="S" horiz-adv-x="554" 
d="M523 197q0 -105 -82 -162q-72 -51 -181 -51q-132 0 -208 51v164q31 -34 87 -59t109 -25q95 0 95 72q0 45 -88 92q-70 38 -107 60q-105 63 -105 173q0 10 1 19q6 91 85 141q71 45 178 45q120 0 186 -49v-151q-74 66 -175 66q-92 0 -92 -55q0 -45 91 -96q40 -22 109 -62
q97 -61 97 -173z" />
    <glyph glyph-name="T" unicode="T" horiz-adv-x="570" 
d="M586 573h-213v-573h-181v573h-208v126h602v-126z" />
    <glyph glyph-name="U" unicode="U" horiz-adv-x="795" 
d="M725 283q0 -144 -85.5 -221.5t-238.5 -77.5t-239 77.5t-86 221.5v250q0 122 -66 144v22h247v-420q0 -63 31 -104q38 -51 114 -51q67 0 106.5 40.5t39.5 114.5v420h177v-416z" />
    <glyph glyph-name="V" unicode="V" horiz-adv-x="773" 
d="M769 699l-284 -699h-176l-226 533q-29 67 -47 93q-28 39 -69 51v22h248l175 -463q9 -25 15 -58h2q4 25 15 59v-1l162 463h185z" />
    <glyph glyph-name="W" unicode="W" horiz-adv-x="1189" 
d="M1185 699l-253 -699h-157l-175 440l-173 -440h-163l-185 532q-23 64 -43 93q-27 39 -69 52v22h255l124 -410q6 -19 15 -58h2q4 26 15 58v0l162 410h145l158 -410q9 -24 15 -58h2q4 26 15 58v0l128 410h182z" />
    <glyph glyph-name="X" unicode="X" horiz-adv-x="768" 
d="M759 0h-219l-171 241l-172 -241h-208l281 380l-113 152q-53 72 -74 93q-39 40 -83 52v22h257l133 -186l130 186h199l-237 -315z" />
    <glyph glyph-name="Y" unicode="Y" horiz-adv-x="734" 
d="M730 699l-278 -400v-299h-180v294l-161 238q-51 76 -68 96q-35 39 -76 49v22h244l167 -253l160 253h192z" />
    <glyph glyph-name="Z" unicode="Z" horiz-adv-x="606" 
d="M577 0h-568v68l311 505h-301v126h549v-66l-310 -506h319v-127z" />
    <glyph glyph-name="bracketleft" unicode="[" horiz-adv-x="317" 
d="M305 -114l-243 1v927h243v-105h-92v-718h92v-105z" />
    <glyph glyph-name="backslash" unicode="\" horiz-adv-x="316" 
d="M347 -22h-113l-265 742h113z" />
    <glyph glyph-name="bracketright" unicode="]" horiz-adv-x="317" 
d="M255 -113l-243 -1v105h92v718h-92v105h243v-927z" />
    <glyph glyph-name="asciicircum" unicode="^" horiz-adv-x="600" 
d="M548 320h-118l-131 246l-133 -246h-114l199 379h95z" />
    <glyph glyph-name="underscore" unicode="_" horiz-adv-x="511" 
d="M511 -139h-511v69h511v-69z" />
    <glyph glyph-name="grave" unicode="`" horiz-adv-x="334" 
d="M282 534h-94l-136 169h153z" />
    <glyph glyph-name="a" unicode="a" horiz-adv-x="515" 
d="M290 133v91q-110 -1 -110 -73q0 -49 50 -49q44 0 60 31zM513 111v-91q-47 -32 -111 -32q-71 0 -92 52q-21 -25 -63 -40q-35 -12 -68 -12q-67 0 -110 29q-52 36 -52 111q0 88 87 136q74 41 186 44v21q0 55 -69 55q-88 0 -167 -61v129q84 52 207 52q89 0 135 -35
q61 -46 61 -159v-181q0 -29 22 -29q18 0 34 11z" />
    <glyph glyph-name="b" unicode="b" horiz-adv-x="575" 
d="M395 246q0 62 -27 98.5t-73 36.5q-47 0 -78 -27l1 -239q26 -10 60 -10q49 0 79 31q38 39 38 110zM558 254q0 -132 -93 -205q-78 -62 -185 -62q-139 0 -230 56v493q0 58 -8 85q-13 46 -55 56v22h230v-226q57 32 124 32q86 0 144 -52q73 -66 73 -199z" />
    <glyph glyph-name="c" unicode="c" horiz-adv-x="471" 
d="M439 22q-53 -35 -139 -35q-127 0 -207 74q-76 72 -76 185t76 184q80 75 207 75q86 0 139 -35v-131q-47 42 -117 42q-56 0 -93 -36.5t-37 -98.5t37 -98.5t93 -36.5q70 0 117 42v-131z" />
    <glyph glyph-name="d" unicode="d" horiz-adv-x="588" 
d="M370 145v209q-26 25 -73 25t-76.5 -38t-29.5 -99v-1q0 -57 21 -93q26 -43 79 -43q52 0 79 40zM556 0h-172q-3 16 -7 43q-52 -56 -134 -56q-99 0 -154 54q-72 72 -72 204q0 115 81 192q71 66 180 66q56 0 92 -24v57q0 58 -8 84q-13 46 -55 57v22h230v-545q0 -104 19 -154z
" />
    <glyph glyph-name="e" unicode="e" horiz-adv-x="559" 
d="M370 302q-5 100 -86 100q-80 0 -94 -100h180zM532 246q0 -18 -2 -35h-337q15 -91 102 -102q20 -2 39 -2q84 0 157 49l23 -108q-81 -61 -222 -61q-121 0 -196 67q-79 71 -79 192t78 192q75 67 197 67q116 0 178 -69t62 -190z" />
    <glyph glyph-name="f" unicode="f" horiz-adv-x="339" 
d="M362 684v-118q-22 16 -60 16q-70 0 -70 -77v-13h104v-119h-104v-373h-168v373h-62v119h62q0 113 72 171q53 42 139 42q56 0 87 -21z" />
    <glyph glyph-name="g" unicode="g" horiz-adv-x="545" 
d="M372 -66q0 25 -29.5 40t-79.5 15q-106 0 -106 -55t106 -55q50 0 79.5 15t29.5 40zM329 313q0 34 -18 55t-49 21q-30 0 -48 -21t-18 -55t18 -55t48 -21q31 0 49 21t18 55zM533 -49q0 -90 -96 -139q-76 -38 -174 -38q-131 0 -198.5 41.5t-67.5 113.5q0 42 27 76
q32 41 92 53q-57 14 -57 57q0 22 21 41t49 23q-91 37 -91 141q0 77 63 124.5t157 47.5h272v-119h-38q-36 0 -49 3q43 -23 43 -83q0 -119 -170 -144q-65 -9 -82 -12.5t-17 -18.5t18 -17.5t138 -15.5q77 -8 118.5 -44t41.5 -90z" />
    <glyph glyph-name="h" unicode="h" horiz-adv-x="582" 
d="M530 0h-168v310q0 37 -19 56q-15 15 -42 15q-54 0 -83 -54v-327h-168v536q0 58 -8 84q-13 46 -55 57v22h231v-262q48 66 145 66q167 0 167 -193v-310z" />
    <glyph glyph-name="i" unicode="i" horiz-adv-x="289" 
d="M237 0h-167v329q0 58 -8 84q-13 47 -55 57v22h230v-492zM234 623q0 -37 -26 -63t-62 -26q-37 0 -62.5 26t-25.5 63q0 36 25.5 62t62.5 26q36 0 62 -26t26 -62z" />
    <glyph glyph-name="j" unicode="j" horiz-adv-x="298" 
d="M241 4q0 -207 -187 -233l-82 107q61 6 84 40q17 26 17 80v331q0 58 -7 84q-14 46 -55 57v22h230v-488zM238 623q0 -37 -26 -63t-62 -26q-37 0 -63 26t-26 63q0 36 26 62t63 26q36 0 62 -26t26 -62z" />
    <glyph glyph-name="k" unicode="k" horiz-adv-x="565" 
d="M578 -1h-210l-151 221v-221h-167v537q0 58 -8 84q-13 46 -55 57v22h230v-382l150 175h198l-199 -215z" />
    <glyph glyph-name="l" unicode="l" horiz-adv-x="269" 
d="M217 -1h-167v537q0 58 -8 85q-14 46 -55 56v22h230v-700z" />
    <glyph glyph-name="m" unicode="m" horiz-adv-x="897" 
d="M845 0h-168v312q0 37 -16 53.5t-43 16.5q-49 0 -77 -53v-18v-311h-168v312q0 37 -16 53.5t-43 16.5q-48 0 -76 -52v-330h-168v329q0 58 -8 84q-13 46 -55 57v22h214l6 -65q46 77 146 77q114 0 150 -88q50 88 154 88q168 0 168 -193v-311z" />
    <glyph glyph-name="n" unicode="n" horiz-adv-x="603" 
d="M551 0h-168v309q0 36 -19 55q-15 15 -42 15q-55 0 -85 -55v-324h-168v329q0 58 -7 84q-14 46 -55 57v22h214l6 -71q46 84 156 84q168 0 168 -193v-312z" />
    <glyph glyph-name="o" unicode="o" horiz-adv-x="590" 
d="M399 246q0 58 -29 94.5t-75 36.5t-75 -36.5t-29 -94.5q0 -57 29 -94t75 -37t75 37t29 94zM573 246q0 -109 -71 -181q-77 -78 -209 -78q-120 0 -198 71.5t-78 187.5t79 189q78 70 199 70q122 0 199 -69q79 -72 79 -190z" />
    <glyph glyph-name="p" unicode="p" horiz-adv-x="595" 
d="M404 246v0q0 133 -95 133q-36 0 -72 -26v-230q30 -13 60 -13q55 0 83 42q24 36 24 94zM578 246q0 -107 -64 -181q-67 -78 -173 -78q-57 0 -104 22v-226h-168v546q0 58 -7 84q-13 46 -55 57v22h214l3 -40q60 53 148 53q83 0 141 -62q65 -71 65 -197z" />
    <glyph glyph-name="q" unicode="q" horiz-adv-x="595" 
d="M375 141v208q-28 31 -72 31q-48 0 -77.5 -37t-29.5 -100q0 -138 98 -138h1q50 1 80 36zM543 492v-709h-168v246q-53 -42 -127 -42q-98 0 -155 53q-71 67 -71 196q0 122 83 202q71 66 177 66q74 0 119 -45l8 33h134z" />
    <glyph glyph-name="r" unicode="r" horiz-adv-x="438" 
d="M441 470l-33 -125q-28 24 -71 24q-50 0 -76 -36q-24 -32 -24 -85v-248h-168v329q0 58 -7 84q-13 46 -55 57v22h214l5 -57q40 68 119 68q60 0 96 -33z" />
    <glyph glyph-name="s" unicode="s" horiz-adv-x="419" 
d="M395 156q0 -82 -65 -128q-57 -41 -143 -41q-101 0 -159 38v146q73 -61 150 -61q53 0 54 36v1v1q0 24 -53 45q-30 11 -84 35q-71 38 -71 118q0 14 2 29q11 63 71 99q55 31 130 31q99 0 146 -31v-128q-53 37 -120 39h-4h-3q-58 0 -58 -32q0 -19 55 -41q38 -15 80 -34
q72 -34 72 -122z" />
    <glyph glyph-name="t" unicode="t" horiz-adv-x="406" 
d="M389 24q-54 -34 -143 -34q-84 0 -131.5 44t-47.5 125l1 214h-66v49l233 215v-145h143v-119h-143v-195q0 -53 45 -60q11 -1 22 -1q48 0 87 28v-121z" />
    <glyph glyph-name="u" unicode="u" horiz-adv-x="602" 
d="M570 0h-173l-5 55q-64 -65 -158 -65q-164 0 -164 194v145q0 58 -8 84q-13 46 -55 57v22h231v-307q0 -36 19 -55q15 -15 42 -15q55 0 84 55v322h168v-338q0 -104 19 -154z" />
    <glyph glyph-name="v" unicode="v" horiz-adv-x="540" 
d="M553 492l-181 -492h-171l-133 329q-52 129 -101 141v22h218l86 -251q14 -41 18 -80q2 30 18 81l76 250h170z" />
    <glyph glyph-name="w" unicode="w" horiz-adv-x="832" 
d="M845 492l-174 -492h-159l-68 215q-15 46 -19 85q-2 -34 -18 -86l-65 -214h-156l-118 329q-45 127 -101 141v22h218l64 -243q16 -59 18 -82q3 38 18 83l80 242h140l72 -243q15 -49 18 -83q3 27 19 84l67 242h164z" />
    <glyph glyph-name="x" unicode="x" horiz-adv-x="567" 
d="M570 0h-207l-92 137l-90 -137h-200l189 259l-51 70q-94 130 -142 141v22h235l81 -120l75 120h190l-172 -233z" />
    <glyph glyph-name="y" unicode="y" horiz-adv-x="578" 
d="M586 492l-296 -707h-186l106 238l-138 306q-57 129 -105 142v21h223l84 -211q14 -35 28 -89q11 46 28 89l80 211h176z" />
    <glyph glyph-name="z" unicode="z" horiz-adv-x="460" 
d="M443 0h-431v57l188 316h-180v119h412v-58l-186 -314h197v-120z" />
    <glyph glyph-name="braceleft" unicode="{" horiz-adv-x="336" 
d="M339 -112q-34 -9 -67 -9q-8 0 -16 1q-52 2 -90 26q-70 44 -69 148v4q0 24 2 69t2 64q0 34 -4 52q-7 30 -23 43q-20 18 -64 18v90q44 0 64 18q16 13 23 43q4 18 4 52q0 19 -2 64t-2 69v4q-1 104 69 148q38 24 90 26q8 1 16 1q33 0 67 -9v-103q-13 3 -27 3q-34 0 -50 -22
q-13 -18 -13 -63q0 -19 1.5 -56.5t1.5 -56.5q0 -144 -80 -163q80 -19 80 -163q0 -19 -1.5 -56.5t-1.5 -56.5q0 -49 16 -67t47 -18q14 0 27 4v-104z" />
    <glyph glyph-name="bar" unicode="|" horiz-adv-x="205" 
d="M168 -12h-131v763h131v-763z" />
    <glyph glyph-name="braceright" unicode="}" horiz-adv-x="336" 
d="M326 304q-44 0 -65 -18q-15 -13 -22 -43q-4 -18 -4 -52q0 -19 2 -64t2 -69v-4q1 -104 -69 -148q-38 -24 -90 -26q-8 -1 -16 -1q-33 0 -67 9v104q13 -4 27 -4q34 0 50 22q13 18 13 63q0 19 -1.5 56.5t-1.5 56.5q0 144 80 163q-80 19 -80 163q0 19 1.5 56.5t1.5 56.5
q0 49 -16 67t-47 18q-14 0 -27 -3v103q34 9 67 9q8 0 16 -1q52 -2 90 -26q70 -44 69 -148v-4q0 -24 -2 -69t-2 -64q0 -34 4 -52q7 -30 22 -43q21 -18 65 -18v-90z" />
    <glyph glyph-name="asciitilde" unicode="~" horiz-adv-x="491" 
d="M439 384q0 -142 -121 -142q-43 0 -120 32q-13 5 -24 5q-26 0 -26 -27q0 -5 1 -10h-95q-2 16 -2 31q0 142 121 142q43 0 120 -32q13 -5 24 -5q26 0 26 27q0 5 -1 10h96q1 -16 1 -31z" />
    <glyph glyph-name="nonbreakingspace" unicode="&#xa0;" horiz-adv-x="219" 
 />
    <glyph glyph-name="exclamdown" unicode="&#xa1;" horiz-adv-x="377" 
d="M285 -196h-193l26 497h142zM276 430q0 -36 -25.5 -61.5t-60.5 -25.5q-36 0 -61.5 25.5t-25.5 61.5t25.5 61t61.5 25q35 0 60.5 -25t25.5 -61z" />
    <glyph glyph-name="cent" unicode="&#xa2;" horiz-adv-x="472" 
d="M440 21q-38 -25 -94 -32v-86h-133v93q-69 16 -120 64q-76 72 -76 185t76 185q51 48 120 64v98h133v-91q56 -7 94 -32v-131q-48 42 -118 42q-56 0 -93 -36.5t-37 -98.5t37 -98.5t93 -36.5q70 0 118 42v-131z" />
    <glyph glyph-name="sterling" unicode="&#xa3;" horiz-adv-x="585" 
d="M543 0h-512v81q50 17 82 65t32 113q0 11 -1 24h-109v123h87q-9 46 -9 92q0 83 64 145q73 69 192 69q113 0 172 -47l-21 -127q-60 47 -118 47q-49 0 -80.5 -27.5t-31.5 -76.5q0 -30 11 -75h180v-123h-162q-1 -96 -58 -157h282v-126z" />
    <glyph glyph-name="currency" unicode="&#xa4;" horiz-adv-x="680" 
d="M648 670l-47 -119q-52 30 -119 30q-154 0 -207 -126h288l-36 -95h-271q0 -1 -1 -4v-3q0 -18 3 -39h251l-37 -95h-181q60 -95 191 -95q71 0 127 30v-140q-63 -26 -153 -26q-132 0 -228 60.5t-134 170.5h-102v95h82q-1 20 -1 39v3.5v3.5h-81v95h93q31 124 130 193t241 69
q118 0 192 -47z" />
    <glyph glyph-name="yen" unicode="&#xa5;" horiz-adv-x="739" 
d="M727 699l-192 -253h123v-102h-200v-55h200v-102h-200v-187h-177v187h-196v102h196v55h-196v102h119l-192 253h210l154 -230l158 230h193z" />
    <glyph glyph-name="brokenbar" unicode="&#xa6;" horiz-adv-x="204" 
d="M162 -12h-120v282h120v-282zM162 468h-120v282h120v-282z" />
    <glyph glyph-name="section" unicode="&#xa7;" horiz-adv-x="497" 
d="M317 317v2q0 34 -55 54l-32 12q-48 -10 -49 -50l-1 -4v-1q0 -35 55 -55q8 -3 32 -11q49 10 50 50v3zM445 340v-6q-1 -47 -32 -82q-27 -30 -61 -39q73 -38 73 -120q0 -81 -67 -123q-54 -34 -129 -34q-95 0 -143 36v124q54 -51 127 -51q69 0 69 49q0 34 -49 53
q-36 14 -87 34q-94 43 -94 130v3v6q1 46 32 80q26 27 60 36q-72 38 -72 120q0 80 69 123q54 33 123 33q92 0 140 -36v-123q-53 50 -124 50q-65 0 -65 -48q0 -35 49 -53q36 -14 87 -34q94 -43 94 -125v-3z" />
    <glyph glyph-name="dieresis" unicode="&#xa8;" horiz-adv-x="515" 
d="M222 616q0 -28 -20 -48t-48 -20q-29 0 -48.5 20t-19.5 48q0 29 19.5 48.5t48.5 19.5q28 0 48 -19.5t20 -48.5zM420 616q0 -28 -19.5 -48t-48.5 -20q-28 0 -48 20t-20 48q0 29 20 48.5t48 19.5q29 0 48.5 -19.5t19.5 -48.5z" />
    <glyph glyph-name="copyright" unicode="&#xa9;" horiz-adv-x="798" 
d="M547 172q-47 -33 -127 -33q-101 0 -166 57q-68 60 -68 159t68 158q65 58 166 58q80 0 127 -34v-88q-45 41 -111 41q-60 0 -99.5 -37.5t-39.5 -97.5q0 -61 39.5 -98.5t99.5 -37.5q66 0 111 41v-88zM691 349q0 123 -85.5 210.5t-206.5 87.5t-206.5 -87.5t-85.5 -210.5
q0 -124 85.5 -211.5t206.5 -87.5t206.5 87.5t85.5 211.5zM768 349q0 -152 -108 -259t-261 -107t-261 107t-108 259q0 151 108 258t261 107t261 -107t108 -258z" />
    <glyph glyph-name="ordfeminine" unicode="&#xaa;" horiz-adv-x="352" 
d="M198 439v66h-2q-30 0 -52 -14.5t-22 -39.5q0 -35 35 -35q29 0 41 23zM360 422v-66q-33 -23 -81 -23q-52 0 -67 38q-30 -38 -92 -38q-118 0 -118 102q0 64 62 99q53 30 134 32v15q0 41 -51 41q-61 0 -118 -45v93q61 39 147 39q143 0 143 -142v-131q0 -22 16 -22q14 0 25 8
z" />
    <glyph glyph-name="guillemotleft" unicode="&#xab;" horiz-adv-x="572" 
d="M308 0h-145l-141 235l141 235h145l-127 -235zM530 0h-144l-142 235l142 235h144l-127 -235z" />
    <glyph glyph-name="logicalnot" unicode="&#xac;" horiz-adv-x="559" 
d="M537 88h-129v200h-386v118h515v-318z" />
    <glyph glyph-name="minus" unicode="&#xad;" horiz-adv-x="556" 
d="M534 202h-512v114h512v-114z" />
    <glyph glyph-name="minus" unicode="&#x2212;" horiz-adv-x="556" 
d="M534 202h-512v114h512v-114z" />
    <glyph glyph-name="registered" unicode="&#xae;" horiz-adv-x="798" 
d="M448 436q0 54 -56 54h-25v-107h25q56 0 56 53zM580 147h-103q-12 40 -31 86q-23 55 -40 72q-12 11 -30 11h-9v-169h-101v315q0 73 -38 86v13h188q60 0 96.5 -33t36.5 -89q0 -71 -64 -94q26 -18 51 -76q31 -69 44 -122zM691 350q0 123 -85.5 210.5t-206.5 87.5
t-206.5 -87.5t-85.5 -210.5q0 -124 85.5 -211.5t206.5 -87.5t206.5 87.5t85.5 211.5zM768 350q0 -152 -108 -259t-261 -107t-261 107t-108 259q0 151 108 258t261 107t261 -107t108 -258z" />
    <glyph glyph-name="macron" unicode="&#xaf;" horiz-adv-x="375" 
d="M323 566h-271v91h271v-91z" />
    <glyph glyph-name="macron" unicode="&#x2c9;" horiz-adv-x="375" 
d="M323 566h-271v91h271v-91z" />
    <glyph glyph-name="degree" unicode="&#xb0;" horiz-adv-x="386" 
d="M265 550q0 33 -21 55t-51 22q-31 0 -52 -22t-21 -55q0 -34 21 -56t52 -22q30 0 51 22t21 56zM364 550q0 -70 -49 -116.5t-122 -46.5q-74 0 -122.5 46.5t-48.5 116.5q0 69 48.5 116t122.5 47q73 0 122 -47t49 -116z" />
    <glyph glyph-name="plusminus" unicode="&#xb1;" horiz-adv-x="556" 
d="M534 0h-512v115h512v-115zM534 318h-193v-157h-126v157h-193v114h193v200h126v-200h193v-114z" />
    <glyph glyph-name="twosuperior" unicode="&#xb2;" horiz-adv-x="301" 
d="M284 299h-279v45q91 87 129 152q24 42 24 75q0 52 -56 52l-3 1h-1q-45 0 -86 -47l-7 89q50 43 126 43q66 0 103 -32q40 -35 40 -100q0 -84 -109 -196h119v-82z" />
    <glyph glyph-name="threesuperior" unicode="&#xb3;" horiz-adv-x="281" 
d="M269 419q0 -47 -36 -84q-43 -45 -121 -45q-67 0 -107 27l8 93q39 -36 87 -36q25 0 40.5 13t15.5 33q0 47 -72 47h-26v78h28q65 0 65 40t-51 40q-37 0 -76 -31l-11 83q44 31 116 31q53 0 88 -25q43 -29 43 -85q0 -60 -50 -88q59 -26 59 -91z" />
    <glyph glyph-name="acute" unicode="&#xb4;" horiz-adv-x="515" 
d="M434 703l-135 -169h-95l78 169h152z" />
    <glyph glyph-name="mu" unicode="&#xb5;" horiz-adv-x="637" 
d="M580 0h-173l-5 53q-50 -63 -127 -63q-20 0 -38 5l8 -162h-165v497q0 58 -8 84q-13 45 -55 56v22h231v-308q0 -36 19 -56q15 -15 42 -15q55 0 85 56v323h168v-338q0 -104 18 -154z" />
    <glyph glyph-name="mu" unicode="&#x3bc;" horiz-adv-x="637" 
d="M580 0h-173l-5 53q-50 -63 -127 -63q-20 0 -38 5l8 -162h-165v497q0 58 -8 84q-13 45 -55 56v22h231v-308q0 -36 19 -56q15 -15 42 -15q55 0 85 56v323h168v-338q0 -104 18 -154z" />
    <glyph glyph-name="paragraph" unicode="&#xb6;" horiz-adv-x="489" 
d="M447 -44h-107v645h-74v-645h-107v310q-75 14 -121 72.5t-46 141.5q0 95 59.5 157t151.5 62h244v-743z" />
    <glyph glyph-name="periodcentered" unicode="&#xb7;" horiz-adv-x="252" 
d="M213 354q0 -36 -25.5 -61.5t-61.5 -25.5t-61.5 25.5t-25.5 61.5t25.5 61.5t61.5 25.5t61.5 -25.5t25.5 -61.5z" />
    <glyph glyph-name="periodcentered" unicode="&#x2219;" horiz-adv-x="252" 
d="M213 354q0 -36 -25.5 -61.5t-61.5 -25.5t-61.5 25.5t-25.5 61.5t25.5 61.5t61.5 25.5t61.5 -25.5t25.5 -61.5z" />
    <glyph glyph-name="cedilla" unicode="&#xb8;" horiz-adv-x="281" 
d="M229 -101q0 -42 -36 -64q-29 -19 -74 -19q-39 0 -67 14v69q23 -17 51 -17q32 0 32 23q0 20 -28 20q-12 0 -23 -5l-14 14l32 72h77l-21 -43q71 -4 71 -64z" />
    <glyph glyph-name="onesuperior" unicode="&#xb9;" horiz-adv-x="225" 
d="M193 298h-111v302l-77 -24v80l135 43h53v-401z" />
    <glyph glyph-name="ordmasculine" unicode="&#xba;" horiz-adv-x="393" 
d="M269 519q0 41 -20.5 66.5t-52.5 25.5t-52 -25.5t-20 -66.5q0 -40 20 -65.5t52 -25.5t52.5 25.5t20.5 65.5zM399 519q0 -79 -52 -132q-56 -56 -152 -56q-87 0 -144 52t-57 136q0 85 57 137t145 52q89 0 146 -51.5t57 -137.5z" />
    <glyph glyph-name="guillemotright" unicode="&#xbb;" horiz-adv-x="572" 
d="M328 235l-142 -235h-144l126 235l-126 235h144zM550 235l-141 -235h-145l127 235l-127 235h145z" />
    <glyph glyph-name="onequarter" unicode="&#xbc;" horiz-adv-x="676" 
d="M516 283q-5 -13 -14 -26q-42 -60 -46 -64q-8 -11 -14 -18h72v75q0 19 2 33zM193 299h-111v302l-77 -24v80l135 43h53v-401zM576 699l-404 -700h-115l404 700h115zM664 101h-49v-102h-108v102h-163v61l164 239h107v-221h49v-79z" />
    <glyph glyph-name="onehalf" unicode="&#xbd;" horiz-adv-x="718" 
d="M193 298h-111v302l-77 -24v80l135 43h53v-401zM576 699l-403 -699h-115l403 699h115zM701 0h-279v45q92 87 129 152q24 42 24 75q0 51 -56 52h-2h-2q-45 0 -85 -47l-8 90q50 43 126 43q66 0 104.5 -33.5t38.5 -98.5q0 -84 -109 -197h119v-81z" />
    <glyph glyph-name="threequarters" unicode="&#xbe;" horiz-adv-x="696" 
d="M536 283q-5 -13 -14 -26q-42 -60 -46 -64q-8 -11 -14 -18h72v75q0 19 2 33zM269 419q0 -47 -36 -84q-43 -45 -121 -45q-67 0 -107 27l8 93q39 -36 87 -36q25 0 40.5 13t15.5 33q0 47 -72 47h-26v78h28q65 0 65 40t-51 40q-37 0 -76 -31l-11 83q44 31 116 31q53 0 88 -25
q43 -29 43 -85q0 -60 -50 -88q59 -26 59 -91zM608 699l-402 -699h-116l403 699h115zM684 101h-49v-102h-108v102h-163v61l164 239h107v-221h49v-79z" />
    <glyph glyph-name="questiondown" unicode="&#xbf;" horiz-adv-x="432" 
d="M386 -151q-70 -58 -177 -58q-89 0 -141 48t-52 125q0 66 32 121q12 21 66 87q27 33 35 50q11 22 11 54q0 11 -1 24h140q5 -28 5 -53q0 -86 -63 -154q-50 -55 -50 -99q0 -33 20.5 -51.5t54.5 -18.5q54 0 107 46zM310 429q0 -36 -25.5 -61t-61.5 -25t-61 25t-25 61t25 61.5
t61 25.5t61.5 -25.5t25.5 -61.5z" />
    <glyph glyph-name="Agrave" unicode="&#xc0;" horiz-adv-x="743" 
d="M449 268l-78 202q-9 25 -15 59h-2q-4 -26 -15 -59v0l-73 -202h183zM748 0h-196l-58 150h-271l-54 -150h-174l279 699h186zM415 735h-100l-142 178h160z" />
    <glyph glyph-name="Aacute" unicode="&#xc1;" horiz-adv-x="733" 
d="M444 268l-78 202q-9 25 -15 59h-2q-4 -26 -15 -59v0l-73 -202h183zM743 0h-196l-58 150h-271l-54 -150h-174l279 699h186zM556 913l-143 -178h-99l81 178h161z" />
    <glyph glyph-name="Acircumflex" unicode="&#xc2;" horiz-adv-x="733" 
d="M444 268l-78 202q-9 25 -15 59h-2q-4 -26 -15 -59v0l-73 -202h183zM743 0h-196l-58 150h-271l-54 -150h-174l279 699h186zM526 740h-101l-64 66l-61 -66h-98l120 166h80z" />
    <glyph glyph-name="Atilde" unicode="&#xc3;" horiz-adv-x="743" 
d="M449 268l-78 202q-9 25 -15 59h-2q-4 -26 -15 -59v0l-73 -202h183zM748 0h-196l-58 150h-271l-54 -150h-174l279 699h186zM528 868q0 -117 -100 -117q-36 0 -100 26q-10 5 -19 5q-22 0 -22 -23q0 -4 1 -8h-79q-1 13 -1 25q0 118 100 118q35 0 99 -26q11 -5 20 -5
q21 0 21 23v8h78q2 -13 2 -26z" />
    <glyph glyph-name="Adieresis" unicode="&#xc4;" horiz-adv-x="725" 
d="M442 268l-78 202q-9 25 -15 59h-2q-4 -26 -15 -59v0l-73 -202h183zM741 0h-196l-58 150h-271l-54 -150h-174l279 699h186zM326 822q0 -30 -21 -51t-50 -21q-30 0 -51 21t-21 51q0 29 21 50t51 21q29 0 50 -21t21 -50zM535 822q0 -30 -20.5 -51t-50.5 -21t-51 21t-21 51
q0 29 21 50t51 21t50.5 -21t20.5 -50z" />
    <glyph glyph-name="Aring" unicode="&#xc5;" horiz-adv-x="725" 
d="M440 269l-78 202q-9 24 -15 58h-2q-4 -25 -15 -58v0l-73 -202h183zM394 828q0 14 -9.5 24.5t-23.5 10.5t-23.5 -10.5t-9.5 -24.5t9.5 -24.5t23.5 -10.5t23.5 10.5t9.5 24.5zM739 1h-196l-58 150h-271l-54 -150h-174l279 699h186zM466 828q0 -42 -30.5 -71t-74.5 -29
t-74.5 29t-30.5 71t30.5 71t74.5 29t74.5 -29t30.5 -71z" />
    <glyph glyph-name="AE" unicode="&#xc6;" horiz-adv-x="943" 
d="M450 526l-2 1q-11 -33 -52 -110v0l-77 -143h126v137q0 58 5 115zM889 0h-444v156h-190l-85 -156l-190 -1l413 700h488v-126h-255v-157h246v-123h-246v-167h263v-126z" />
    <glyph glyph-name="Ccedilla" unicode="&#xc7;" horiz-adv-x="695" 
d="M646 44q-73 -51 -192 -56l-19 -40q70 -4 70 -64q0 -42 -35 -64q-30 -19 -74 -19q-40 0 -68 14v70q23 -18 52 -18q31 0 31 23q0 20 -28 20q-11 0 -22 -5l-15 14l32 71q-156 15 -253 109q-101 99 -101 253q0 167 117 268q112 96 287 96q137 0 218 -56v-149q-77 69 -191 69
q-104 0 -171.5 -63t-67.5 -165t67.5 -165.5t171.5 -63.5q114 0 191 69v-148z" />
    <glyph glyph-name="Egrave" unicode="&#xc8;" horiz-adv-x="590" 
d="M538 0h-458v533q0 122 -66 144v22h516v-126h-269v-157h260v-123h-260v-167h277v-126zM361 735h-99l-143 178h161z" />
    <glyph glyph-name="Eacute" unicode="&#xc9;" horiz-adv-x="590" 
d="M538 0h-458v533q0 122 -66 144v22h516v-126h-269v-157h260v-123h-260v-167h277v-126zM371 735h-99l-143 178h161z" />
    <glyph glyph-name="Ecircumflex" unicode="&#xca;" horiz-adv-x="590" 
d="M538 0h-458v533q0 122 -66 144v22h516v-126h-269v-157h260v-123h-260v-167h277v-126zM456 740h-101l-63 66l-61 -66h-99l120 166h81z" />
    <glyph glyph-name="Edieresis" unicode="&#xcb;" horiz-adv-x="590" 
d="M538 0h-458v533q0 122 -66 144v22h516v-126h-269v-157h260v-123h-260v-167h277v-126zM257 822q0 -30 -21 -51t-50 -21q-30 0 -51 21t-21 51q0 29 21 50t51 21q29 0 50 -21t21 -50zM467 822q0 -30 -21 -51t-51 -21t-51 21t-21 51q0 29 21 50t51 21t51 -21t21 -50z" />
    <glyph glyph-name="Igrave" unicode="&#xcc;" horiz-adv-x="379" 
d="M309 0h-181v533q0 122 -66 145v21h247v-699zM254 735h-99l-143 178h161z" />
    <glyph glyph-name="Iacute" unicode="&#xcd;" horiz-adv-x="409" 
d="M261 0h-181v533q0 122 -66 145v21h247v-699zM337 913l-142 -178h-100l82 178h160z" />
    <glyph glyph-name="Icircumflex" unicode="&#xce;" horiz-adv-x="408" 
d="M298 0h-181v533q0 122 -66 145v21h247v-699zM350 740h-100l-64 66l-61 -66h-99l120 166h81z" />
    <glyph glyph-name="Idieresis" unicode="&#xcf;" horiz-adv-x="436" 
d="M302 0h-181v533q0 122 -66 145v21h247v-699zM155 822q0 -30 -21 -51t-50 -21q-30 0 -51 21t-21 51q0 29 21 50t51 21q29 0 50 -21t21 -50zM364 822q0 -30 -20.5 -51t-50.5 -21t-51 21t-21 51q0 29 21 50t51 21t50.5 -21t20.5 -50z" />
    <glyph glyph-name="Eth" unicode="&#xd0;" horiz-adv-x="795" 
d="M579 350q0 93 -46 151q-57 70 -171 70h-71v-176h138v-107h-138v-157h71q114 0 171 69q46 57 46 150zM773 349q0 -146 -88 -242q-97 -106 -266 -106l-308 -1v288h-74v107h74v138q0 121 -66 144l-1 22h375q169 0 266 -107q88 -96 88 -243z" />
    <glyph glyph-name="Ntilde" unicode="&#xd1;" horiz-adv-x="825" 
d="M755 0h-143l-361 429v-429h-171v533q0 122 -66 144v22h226l345 -410l-1 410h171v-699zM545 868q0 -117 -100 -117q-35 0 -99 26q-11 5 -20 5q-21 0 -21 -23q0 -4 1 -8h-79q-2 13 -2 25q0 118 100 118q36 0 100 -26q10 -5 19 -5q22 0 22 23q0 3 -1 8h79q1 -13 1 -26z" />
    <glyph glyph-name="Ograve" unicode="&#xd2;" horiz-adv-x="847" 
d="M629 349q0 100 -57 164t-149 64t-149 -64t-57 -164q0 -98 58 -163t148 -65q92 0 149 64t57 164zM823 349q0 -148 -97 -251q-111 -117 -305 -117q-173 0 -285 104t-112 264t112.5 264t286.5 104q177 0 288.5 -102.5t111.5 -265.5zM469 735h-99l-143 178h161z" />
    <glyph glyph-name="Oacute" unicode="&#xd3;" horiz-adv-x="847" 
d="M629 349q0 100 -57 164t-149 64t-149 -64t-57 -164q0 -98 58 -163t148 -65q92 0 149 64t57 164zM823 349q0 -148 -97 -251q-111 -117 -305 -117q-173 0 -285 104t-112 264t112.5 264t286.5 104q177 0 288.5 -102.5t111.5 -265.5zM617 913l-143 -178h-99l81 178h161z" />
    <glyph glyph-name="Ocircumflex" unicode="&#xd4;" horiz-adv-x="847" 
d="M629 349q0 100 -57 164t-149 64t-149 -64t-57 -164q0 -98 58 -163t148 -65q92 0 149 64t57 164zM823 349q0 -148 -97 -251q-111 -117 -305 -117q-173 0 -285 104t-112 264t112.5 264t286.5 104q177 0 288.5 -102.5t111.5 -265.5zM583 740h-101l-64 66l-60 -66h-99
l120 166h80z" />
    <glyph glyph-name="Otilde" unicode="&#xd5;" horiz-adv-x="847" 
d="M629 349q0 100 -57 164t-149 64t-149 -64t-57 -164q0 -98 58 -163t148 -65q92 0 149 64t57 164zM823 349q0 -148 -97 -251q-111 -117 -305 -117q-173 0 -285 104t-112 264t112.5 264t286.5 104q177 0 288.5 -102.5t111.5 -265.5zM574 858q0 -117 -99 -117q-36 0 -100 26
q-10 5 -20 5q-21 0 -21 -23q0 -4 1 -8h-79q-2 13 -2 25q0 118 100 118q36 0 100 -26q10 -5 20 -5q21 0 21 23q0 3 -1 8h79q1 -13 1 -26z" />
    <glyph glyph-name="Odieresis" unicode="&#xd6;" horiz-adv-x="847" 
d="M631 349q0 100 -57 164t-149 64t-149 -64t-57 -164q0 -98 58 -163t148 -65q92 0 149 64t57 164zM825 349q0 -148 -97 -251q-111 -117 -305 -117q-173 0 -285 104t-112 264t112.5 264t286.5 104q177 0 288.5 -102.5t111.5 -265.5zM391 822q0 -30 -21 -51t-50 -21
q-30 0 -51 21t-21 51q0 29 21 50t51 21q29 0 50 -21t21 -50zM600 822q0 -30 -21 -51t-50 -21q-30 0 -51 21t-21 51q0 29 21 50t51 21q29 0 50 -21t21 -50z" />
    <glyph glyph-name="multiply" unicode="&#xd7;" horiz-adv-x="624" 
d="M582 76l-86 -91l-184 185l-184 -185l-86 91l181 183l-181 183l86 91l184 -185l184 185l86 -91l-182 -183z" />
    <glyph glyph-name="Oslash" unicode="&#xd8;" horiz-adv-x="847" 
d="M518 555q-43 23 -95 23q-91 0 -148.5 -64t-57.5 -164q0 -71 32 -127zM630 350q0 73 -32 128l-270 -333q44 -23 95 -23q92 0 149.5 64t57.5 164zM823 350q0 -148 -97 -251q-111 -117 -305 -117q-105 0 -192 41l-61 -75l-88 66l57 70q-113 105 -113 266q0 160 112.5 264
t286.5 104q107 0 195 -40l53 65l88 -66l-49 -60q113 -103 113 -267z" />
    <glyph glyph-name="Ugrave" unicode="&#xd9;" horiz-adv-x="795" 
d="M725 283q0 -144 -85.5 -221.5t-238.5 -77.5q-154 0 -239.5 77.5t-85.5 221.5v250q0 122 -66 144v22h246v-420q0 -63 31 -104q38 -51 115 -51q67 0 106.5 40.5t39.5 114.5v420h177v-416zM453 735h-99l-143 178h161z" />
    <glyph glyph-name="Uacute" unicode="&#xda;" horiz-adv-x="795" 
d="M725 283q0 -144 -85.5 -221.5t-238.5 -77.5t-239 77.5t-86 221.5v250q0 122 -66 144v22h247v-420q0 -63 31 -104q38 -51 114 -51q67 0 106.5 40.5t39.5 114.5v420h177v-416zM575 913l-143 -178h-99l81 178h161z" />
    <glyph glyph-name="Ucircumflex" unicode="&#xdb;" horiz-adv-x="795" 
d="M725 283q0 -144 -85.5 -221.5t-238.5 -77.5t-239 77.5t-86 221.5v250q0 122 -66 144v22h247v-420q0 -63 31 -104q38 -51 114 -51q67 0 106.5 40.5t39.5 114.5v420h177v-416zM561 740h-100l-64 66l-61 -66h-98l119 166h81z" />
    <glyph glyph-name="Udieresis" unicode="&#xdc;" horiz-adv-x="795" 
d="M727 283q0 -144 -85.5 -221.5t-238.5 -77.5t-239 77.5t-86 221.5v250q0 122 -66 144v22h247v-420q0 -63 31 -104q38 -51 114 -51q67 0 106.5 40.5t39.5 114.5v420h177v-416zM361 822q0 -30 -21 -51t-51 -21q-29 0 -50 21t-21 51q0 29 21 50t50 21q30 0 51 -21t21 -50z
M570 822q0 -30 -21 -51t-50 -21q-30 0 -51 21t-21 51q0 29 21 50t51 21q29 0 50 -21t21 -50z" />
    <glyph glyph-name="Yacute" unicode="&#xdd;" horiz-adv-x="746" 
d="M712 699l-278 -400v-299h-180v294l-161 238q-51 76 -68 96q-35 39 -76 49v22h244l167 -253l160 253h192zM531 913l-142 -178h-100l82 178h160z" />
    <glyph glyph-name="Thorn" unicode="&#xde;" horiz-adv-x="681" 
d="M469 374q0 45 -27.5 70t-76.5 25h-71v-190h71q49 0 76.5 25t27.5 70zM654 376q0 -98 -69 -158t-183 -60h-108v-158h-181v533q0 122 -66 145v21h247v1v-106h108q114 0 183 -59.5t69 -158.5z" />
    <glyph glyph-name="germandbls" unicode="&#xdf;" horiz-adv-x="605" 
d="M583 210q0 -94 -63 -156.5t-157 -62.5q-53 0 -94 12v118q22 -8 46 -8q43 0 68.5 27t25.5 73q0 50 -29.5 77t-90.5 27q-10 0 -20 -1v118h13q47 0 69 19.5t22 57.5q0 36 -19.5 57t-51.5 21q-77 0 -77 -91v-498h-168v505q0 95 76 151q69 51 172 51q105 0 170 -44
q74 -50 74 -145q0 -103 -78 -135q112 -41 112 -173z" />
    <glyph glyph-name="agrave" unicode="&#xe0;" horiz-adv-x="515" 
d="M290 133v91q-110 -1 -110 -73q0 -49 50 -49q44 0 60 31zM513 111v-91q-47 -32 -111 -32q-71 0 -92 52q-21 -25 -63 -40q-35 -12 -68 -12q-67 0 -110 29q-52 36 -52 111q0 88 87 136q74 41 186 44v21q0 55 -69 55q-88 0 -167 -61v129q84 52 207 52q89 0 135 -35
q61 -46 61 -159v-181q0 -29 22 -29q18 0 34 11zM303 534h-94l-136 169h153z" />
    <glyph glyph-name="aacute" unicode="&#xe1;" horiz-adv-x="515" 
d="M290 133v91q-110 -1 -110 -73q0 -49 50 -49q44 0 60 31zM513 111v-91q-47 -32 -111 -32q-71 0 -92 52q-21 -25 -63 -40q-35 -12 -68 -12q-67 0 -110 29q-52 36 -52 111q0 88 87 136q74 41 186 44v21q0 55 -69 55q-88 0 -167 -61v129q84 52 207 52q89 0 135 -35
q61 -46 61 -159v-181q0 -29 22 -29q18 0 34 11zM434 703l-135 -169h-95l78 169h152z" />
    <glyph glyph-name="acircumflex" unicode="&#xe2;" horiz-adv-x="515" 
d="M290 133v91q-110 -1 -110 -73q0 -49 50 -49q44 0 60 31zM513 111v-91q-47 -32 -111 -32q-71 0 -92 52q-21 -25 -63 -40q-35 -12 -68 -12q-67 0 -110 29q-52 36 -52 111q0 88 87 136q74 41 186 44v21q0 55 -69 55q-88 0 -167 -61v129q84 52 207 52q89 0 135 -35
q61 -46 61 -159v-181q0 -29 22 -29q18 0 34 11zM411 538h-96l-60 64l-58 -64h-94l114 158h77z" />
    <glyph glyph-name="atilde" unicode="&#xe3;" horiz-adv-x="515" 
d="M290 133v91q-110 -1 -110 -73q0 -49 50 -49q44 0 60 31zM513 111v-91q-47 -32 -111 -32q-71 0 -92 52q-21 -25 -63 -40q-35 -12 -68 -12q-67 0 -110 29q-52 36 -52 111q0 88 87 136q74 41 186 44v21q0 55 -69 55q-88 0 -167 -61v129q84 52 207 52q89 0 135 -35
q61 -46 61 -159v-181q0 -29 22 -29q18 0 34 11zM401 661q0 -110 -90 -112h-5h-2q-32 0 -92 25q-10 4 -19 4q-20 0 -20 -21v-8h-75q-1 13 -1 24q0 110 90 112h5h2q32 0 93 -25q10 -4 18 -4q20 0 20 21v8h75q1 -12 1 -24z" />
    <glyph glyph-name="adieresis" unicode="&#xe4;" horiz-adv-x="515" 
d="M290 133v91q-110 -1 -110 -73q0 -49 50 -49q44 0 60 31zM513 111v-91q-47 -32 -111 -32q-71 0 -92 52q-21 -25 -63 -40q-35 -12 -68 -12q-67 0 -110 29q-52 36 -52 111q0 88 87 136q74 41 186 44v21q0 55 -69 55q-88 0 -167 -61v129q84 52 207 52q89 0 135 -35
q61 -46 61 -159v-181q0 -29 22 -29q18 0 34 11zM222 616q0 -28 -20 -48t-48 -20q-29 0 -48.5 20t-19.5 48q0 29 19.5 48.5t48.5 19.5q28 0 48 -19.5t20 -48.5zM420 616q0 -28 -19.5 -48t-48.5 -20q-28 0 -48 20t-20 48q0 29 20 48.5t48 19.5q29 0 48.5 -19.5t19.5 -48.5z
" />
    <glyph glyph-name="aring" unicode="&#xe5;" horiz-adv-x="515" 
d="M290 133v91q-110 -1 -110 -73q0 -49 50 -49q44 0 60 31zM513 111v-91q-47 -32 -111 -32q-71 0 -92 52q-21 -25 -63 -40q-35 -12 -68 -12q-67 0 -110 29q-52 36 -52 111q0 88 87 136q74 41 186 44v21q0 55 -69 55q-88 0 -167 -61v129q84 52 207 52q89 0 135 -35
q61 -46 61 -159v-181q0 -29 22 -29q18 0 34 11zM281 622q0 33 -31 33t-31 -33q0 -32 31 -32t31 32zM349 622q0 -39 -29 -67t-70 -28q-42 0 -71 28t-29 67q0 40 29 67.5t71 27.5q41 0 70 -27.5t29 -67.5z" />
    <glyph glyph-name="ae" unicode="&#xe6;" horiz-adv-x="818" 
d="M293 144q-8 25 -8 66q0 8 1 16h-2q-42 0 -72.5 -20t-30.5 -53q0 -48 49 -48q44 0 63 39zM628 302q-7 100 -86 100q-78 0 -94 -100h180zM791 246q0 -18 -2 -35h-338q5 -41 33 -68.5t69 -33.5q20 -2 40 -2q83 0 156 49l23 -108q-81 -61 -221 -61q-135 0 -200 76
q-69 -73 -172 -73q-67 0 -110 29q-52 36 -52 111q0 88 85 137q72 40 184 44v20q0 56 -70 56q-83 0 -162 -62v129q84 53 203 53q95 0 137 -45q60 44 157 44q116 0 178 -69.5t62 -190.5z" />
    <glyph glyph-name="ccedilla" unicode="&#xe7;" horiz-adv-x="472" 
d="M440 21q-49 -32 -127 -35l-16 -33q70 -5 70 -64q0 -42 -35 -65q-30 -18 -74 -18q-40 0 -67 14v69q23 -17 51 -17q31 0 31 22q0 21 -27 21q-12 0 -23 -6l-14 14l29 67q-85 14 -145 70q-76 72 -76 185t76 184q80 75 207 75q86 0 140 -35v-131q-48 42 -118 42
q-56 0 -93 -36.5t-37 -98.5t37 -98.5t93 -36.5q70 0 118 42v-131z" />
    <glyph glyph-name="egrave" unicode="&#xe8;" horiz-adv-x="559" 
d="M370 302q-5 100 -86 100q-80 0 -94 -100h180zM532 246q0 -18 -2 -35h-337q15 -91 102 -102q20 -2 39 -2q84 0 157 49l23 -108q-81 -61 -222 -61q-121 0 -196 67q-79 71 -79 192t78 192q75 67 197 67q116 0 178 -69t62 -190zM327 534h-94l-136 169h153z" />
    <glyph glyph-name="eacute" unicode="&#xe9;" horiz-adv-x="559" 
d="M370 302q-5 100 -86 100q-80 0 -94 -100h180zM532 246q0 -18 -2 -35h-337q15 -91 102 -102q20 -2 39 -2q84 0 157 49l23 -108q-81 -61 -222 -61q-121 0 -196 67q-79 71 -79 192t78 192q75 67 197 67q116 0 178 -69t62 -190zM473 703l-135 -169h-94l77 169h152z" />
    <glyph glyph-name="ecircumflex" unicode="&#xea;" horiz-adv-x="559" 
d="M370 302q-5 100 -86 100q-80 0 -94 -100h180zM532 246q0 -18 -2 -35h-337q15 -91 102 -102q20 -2 39 -2q84 0 157 49l23 -108q-81 -61 -222 -61q-121 0 -196 67q-79 71 -79 192t78 192q75 67 197 67q116 0 178 -69t62 -190zM446 538h-96l-61 64l-57 -64h-94l114 158h76z
" />
    <glyph glyph-name="edieresis" unicode="&#xeb;" horiz-adv-x="559" 
d="M370 302q-5 100 -86 100q-80 0 -94 -100h180zM532 246q0 -18 -2 -35h-337q15 -91 102 -102q20 -2 39 -2q84 0 157 49l23 -108q-81 -61 -222 -61q-121 0 -196 67q-79 71 -79 192t78 192q75 67 197 67q116 0 178 -69t62 -190zM256 616q0 -28 -20 -48t-49 -20q-28 0 -48 20
t-20 48q0 29 20 48.5t48 19.5q29 0 49 -19.5t20 -48.5zM454 616q0 -28 -20 -48t-48 -20t-48 20t-20 48q0 29 20 48.5t48 19.5t48 -19.5t20 -48.5z" />
    <glyph glyph-name="igrave" unicode="&#xec;" horiz-adv-x="304" 
d="M247 0h-167v329q0 58 -8 84q-13 47 -55 57v22h230v-492zM200 534h-94l-136 169h153z" />
    <glyph glyph-name="iacute" unicode="&#xed;" horiz-adv-x="294" 
d="M237 0h-167v329q0 58 -8 84q-13 47 -55 57v22h230v-492zM313 703l-136 -169h-94l77 169h153z" />
    <glyph glyph-name="icircumflex" unicode="&#xee;" horiz-adv-x="326" 
d="M269 0h-168v329q0 58 -7 84q-14 47 -55 57v22h230v-492zM319 538h-96l-60 64l-58 -64h-94l114 158h77z" />
    <glyph glyph-name="idieresis" unicode="&#xef;" horiz-adv-x="304" 
d="M247 0h-167v329q0 58 -8 84q-13 47 -55 57v22h230v-492zM112 616q0 -28 -20 -48t-48 -20t-48 20t-20 48q0 29 20 48.5t48 19.5t48 -19.5t20 -48.5zM311 616q0 -28 -20 -48t-48 -20t-48 20t-20 48q0 29 20 48.5t48 19.5t48 -19.5t20 -48.5z" />
    <glyph glyph-name="eth" unicode="&#xf0;" horiz-adv-x="595" 
d="M392 228q0 54 -28.5 88t-73.5 34t-73 -34t-28 -88t28 -88t73 -34t73.5 34t28.5 88zM577 321q0 -75 -22 -142q-63 -192 -266 -192q-118 0 -193 63q-78 66 -78 173q0 105 70.5 174.5t174.5 69.5t154 -57q-13 84 -86 132l-96 -58l-77 68l56 35q-49 10 -101 10h-3h-7l60 117
q111 -3 193 -37l71 45l77 -75l-51 -30q48 -44 83 -111q41 -81 41 -185z" />
    <glyph glyph-name="ntilde" unicode="&#xf1;" horiz-adv-x="603" 
d="M551 0h-168v309q0 36 -19 55q-15 15 -42 15q-55 0 -85 -55v-324h-168v329q0 58 -7 84q-14 46 -55 57v22h214l6 -71q46 84 156 84q168 0 168 -193v-312zM433 661q0 -110 -90 -112h-5h-2q-32 0 -92 25q-10 4 -19 4q-20 0 -20 -21v-8h-74q-2 13 -2 24q0 110 90 112h5h3
q31 0 92 -25q10 -4 18 -4q21 0 21 21q0 4 -1 8h75q1 -12 1 -24z" />
    <glyph glyph-name="ograve" unicode="&#xf2;" horiz-adv-x="590" 
d="M399 246q0 58 -29 94.5t-75 36.5t-75 -36.5t-29 -94.5q0 -57 29 -94t75 -37t75 37t29 94zM573 246q0 -109 -71 -181q-77 -78 -209 -78q-120 0 -198 71.5t-78 187.5t79 189q78 70 199 70q122 0 199 -69q79 -72 79 -190zM349 534h-94l-135 169h152z" />
    <glyph glyph-name="oacute" unicode="&#xf3;" horiz-adv-x="590" 
d="M399 246q0 58 -29 94.5t-75 36.5t-75 -36.5t-29 -94.5q0 -57 29 -94t75 -37t75 37t29 94zM573 246q0 -109 -71 -181q-77 -78 -209 -78q-120 0 -198 71.5t-78 187.5t79 189q78 70 199 70q122 0 199 -69q79 -72 79 -190zM480 703l-136 -169h-94l77 169h153z" />
    <glyph glyph-name="ocircumflex" unicode="&#xf4;" horiz-adv-x="590" 
d="M399 246q0 58 -29 94.5t-75 36.5t-75 -36.5t-29 -94.5q0 -57 29 -94t75 -37t75 37t29 94zM573 246q0 -109 -71 -181q-77 -78 -209 -78q-120 0 -198 71.5t-78 187.5t79 189q78 70 199 70q122 0 199 -69q79 -72 79 -190zM449 538h-96l-61 64l-57 -64h-94l114 158h77z" />
    <glyph glyph-name="otilde" unicode="&#xf5;" horiz-adv-x="590" 
d="M399 246q0 58 -29 94.5t-75 36.5t-75 -36.5t-29 -94.5q0 -57 29 -94t75 -37t75 37t29 94zM573 246q0 -109 -71 -181q-77 -78 -209 -78q-120 0 -198 71.5t-78 187.5t79 189q78 70 199 70q122 0 199 -69q79 -72 79 -190zM435 661q0 -110 -90 -112h-5h-2q-32 0 -93 25
q-10 4 -18 4q-20 0 -20 -21v-8h-75q-1 13 -1 24q0 110 90 112h5h2q32 0 92 -25q10 -4 19 -4q20 0 20 21v8h75q1 -12 1 -24z" />
    <glyph glyph-name="odieresis" unicode="&#xf6;" horiz-adv-x="590" 
d="M399 246q0 58 -29 94.5t-75 36.5t-75 -36.5t-29 -94.5q0 -57 29 -94t75 -37t75 37t29 94zM573 246q0 -109 -71 -181q-77 -78 -209 -78q-120 0 -198 71.5t-78 187.5t79 189q78 70 199 70q122 0 199 -69q79 -72 79 -190zM256 616q0 -28 -20 -48t-48 -20q-29 0 -48.5 20
t-19.5 48q0 29 19.5 48.5t48.5 19.5q28 0 48 -19.5t20 -48.5zM455 616q0 -28 -20 -48t-49 -20q-28 0 -48 20t-20 48q0 29 20 48.5t48 19.5q29 0 49 -19.5t20 -48.5z" />
    <glyph glyph-name="divide" unicode="&#xf7;" horiz-adv-x="556" 
d="M364 75q0 -34 -24.5 -58.5t-59.5 -24.5q-34 0 -58.5 24.5t-24.5 58.5q0 35 24.5 59.5t58.5 24.5q35 0 59.5 -24.5t24.5 -59.5zM534 202h-512v115h512v-115zM364 443q0 -35 -24.5 -59t-59.5 -24q-34 0 -58.5 24t-24.5 59q0 34 24.5 58.5t58.5 24.5q35 0 59.5 -24.5
t24.5 -58.5z" />
    <glyph glyph-name="oslash" unicode="&#xf8;" horiz-adv-x="580" 
d="M394 245q0 22 -5 44l-135 -168q18 -7 36 -7q46 0 75 36.5t29 94.5zM325 369q-18 7 -35 7q-46 0 -75 -36.5t-29 -94.5q0 -21 5 -43zM568 245q0 -109 -71 -181q-77 -78 -209 -78q-65 0 -122 24l-47 -59l-76 66l39 49q-70 71 -70 179q0 116 78.5 187.5t199.5 71.5
q67 0 124 -23l47 58l75 -65l-38 -48q70 -71 70 -181z" />
    <glyph glyph-name="ugrave" unicode="&#xf9;" horiz-adv-x="602" 
d="M570 0h-173l-5 55q-64 -65 -158 -65q-164 0 -164 194v145q0 58 -8 84q-13 46 -55 57v22h231v-307q0 -36 19 -55q15 -15 42 -15q55 0 84 55v322h168v-338q0 -104 19 -154zM349 534h-94l-136 169h153z" />
    <glyph glyph-name="uacute" unicode="&#xfa;" horiz-adv-x="602" 
d="M570 0h-173l-5 55q-64 -65 -158 -65q-164 0 -164 194v145q0 58 -8 84q-13 46 -55 57v22h231v-307q0 -36 19 -55q15 -15 42 -15q55 0 84 55v322h168v-338q0 -104 19 -154zM469 703l-135 -169h-94l77 169h152z" />
    <glyph glyph-name="ucircumflex" unicode="&#xfb;" horiz-adv-x="602" 
d="M570 0h-173l-5 55q-64 -65 -158 -65q-164 0 -164 194v145q0 58 -8 84q-13 46 -55 57v22h231v-307q0 -36 19 -55q15 -15 42 -15q55 0 84 55v322h168v-338q0 -104 19 -154zM450 538h-96l-60 64l-58 -64h-94l114 158h77z" />
    <glyph glyph-name="udieresis" unicode="&#xfc;" horiz-adv-x="602" 
d="M570 0h-173l-5 55q-64 -65 -158 -65q-164 0 -164 194v145q0 58 -8 84q-13 46 -55 57v22h231v-307q0 -36 19 -55q15 -15 42 -15q55 0 84 55v322h168v-338q0 -104 19 -154zM277 616q0 -28 -20 -48t-48 -20q-29 0 -48.5 20t-19.5 48q0 29 19.5 48.5t48.5 19.5q28 0 48 -19.5
t20 -48.5zM475 616q0 -28 -19.5 -48t-48.5 -20q-28 0 -48 20t-20 48q0 29 20 48.5t48 19.5q29 0 48.5 -19.5t19.5 -48.5z" />
    <glyph glyph-name="yacute" unicode="&#xfd;" horiz-adv-x="578" 
d="M568 492l-296 -707h-186l106 238l-138 306q-57 129 -105 142v21h223l84 -211q14 -35 28 -89q11 46 28 89l80 211h176zM452 703l-136 -169h-94l77 169h153z" />
    <glyph glyph-name="thorn" unicode="&#xfe;" horiz-adv-x="616" 
d="M425 245v0q0 133 -95 133q-36 0 -72 -26v-230q29 -13 60 -13q55 0 83 42q24 36 24 94zM599 245q0 -107 -64 -181q-68 -78 -173 -78q-57 0 -104 21v-225h-168v754q0 58 -8 84q-13 46 -55 57v21h231l-1 -237q56 42 136 42q83 0 140 -61q66 -71 66 -197z" />
    <glyph glyph-name="ydieresis" unicode="&#xff;" horiz-adv-x="594" 
d="M594 492l-296 -707h-186l106 238l-138 306q-57 129 -105 142v21h223l84 -211q14 -35 28 -89q11 46 28 89l80 211h176zM276 616q0 -28 -20 -48t-48 -20q-29 0 -48.5 20t-19.5 48q0 29 19.5 48.5t48.5 19.5q28 0 48 -19.5t20 -48.5zM475 616q0 -28 -20 -48t-49 -20
q-28 0 -48 20t-20 48q0 29 20 48.5t48 19.5q29 0 49 -19.5t20 -48.5z" />
    <glyph glyph-name="dotlessi" unicode="&#x131;" horiz-adv-x="299" 
d="M242 0h-167v329q0 58 -8 84q-13 47 -55 57v22h230v-492z" />
    <glyph glyph-name="Lslash" unicode="&#x141;" horiz-adv-x="562" 
d="M550 0h-451v230l-72 -42v130l72 42v173q0 122 -67 144v22h247v-233l160 94v-130l-160 -94v-210h271v-126z" />
    <glyph glyph-name="lslash" unicode="&#x142;" horiz-adv-x="338" 
d="M336 474l-92 -67v-407h-167v286l-68 -49v110l68 49v140q0 58 -8 85q-13 46 -55 56v22h230v-182l92 67v-110z" />
    <glyph glyph-name="OE" unicode="&#x152;" horiz-adv-x="1065" 
d="M552 161v377q-53 40 -129 40q-91 0 -148.5 -64t-57.5 -164q0 -98 58 -163t148 -65q77 0 129 39zM1011 0h-468q-63 -19 -132 -19q-172 0 -279.5 104t-107.5 265t108 264.5t281 103.5q63 0 129 -19h460v-126h-269v-157h260v-123h-260v-167h278v-126z" />
    <glyph glyph-name="oe" unicode="&#x153;" horiz-adv-x="929" 
d="M399 246q0 57 -29 94t-75 37t-75 -37t-29 -94q0 -58 29 -95t75 -37t75 37t29 95zM740 301q-8 100 -86 100q-79 0 -94 -100h180zM902 245q0 -18 -2 -35h-337q13 -87 99 -102q20 -3 41 -3q89 0 158 50l23 -108q-81 -61 -212 -61q-118 0 -189 74q-69 -74 -190 -74
q-120 0 -198 71.5t-78 188.5q0 116 78.5 187.5t199.5 71.5q117 0 186 -70q72 69 181 69q116 0 178 -69t62 -190z" />
    <glyph glyph-name="Scaron" unicode="&#x160;" horiz-adv-x="563" 
d="M505 197q0 -105 -82 -162q-72 -51 -181 -51q-132 0 -208 51v164q31 -34 87 -59t109 -25q95 0 95 72q0 45 -88 92q-70 38 -107 60q-105 63 -105 173q0 10 1 19q6 91 85 141q71 45 178 45q120 0 186 -49v-151q-74 66 -175 66q-92 0 -92 -55q0 -45 91 -96q40 -22 109 -62
q97 -61 97 -173zM446 906l-120 -166h-81l-123 166h101l64 -67l60 67h99z" />
    <glyph glyph-name="scaron" unicode="&#x161;" horiz-adv-x="420" 
d="M377 156q0 -82 -65 -128q-57 -41 -143 -41q-101 0 -159 38v146q73 -61 150 -61q53 0 54 36v1v1q0 24 -53 45q-30 11 -84 35q-71 38 -71 118q0 14 2 29q11 63 71 99q55 31 130 31q99 0 146 -31v-128q-53 37 -120 39h-4h-3q-58 0 -58 -32q0 -19 55 -41q38 -15 80 -34
q72 -34 72 -122zM353 696l-114 -158h-76l-117 158h96l60 -63l58 63h93z" />
    <glyph glyph-name="Ydieresis" unicode="&#x178;" horiz-adv-x="734" 
d="M730 699l-278 -400v-299h-180v294l-161 238q-51 76 -68 96q-35 39 -76 49v22h244l167 -253l160 253h192zM337 822q0 -30 -21 -51t-50 -21q-30 0 -51 21t-21 51q0 29 21 50t51 21q29 0 50 -21t21 -50zM547 822q0 -30 -21 -51t-51 -21t-51 21t-21 51q0 29 21 50t51 21
t51 -21t21 -50z" />
    <glyph glyph-name="Zcaron" unicode="&#x17d;" horiz-adv-x="606" 
d="M559 0h-568v68l311 505h-301v126h549v-66l-310 -506h319v-127zM444 906l-120 -166h-81l-123 166h101l63 -67l61 67h99z" />
    <glyph glyph-name="zcaron" unicode="&#x17e;" horiz-adv-x="460" 
d="M425 0h-431v57l188 316h-180v119h412v-58l-186 -314h197v-120zM371 696l-114 -158h-76l-117 158h95l61 -63l57 63h94z" />
    <glyph glyph-name="florin" unicode="&#x192;" horiz-adv-x="524" 
d="M527 687l-20 -113q-19 19 -53 19h-1q-55 -1 -68 -72l-3 -18h90l-19 -115h-90l-69 -410q-13 -72 -34 -111t-59 -67q-49 -35 -116 -35q-59 0 -88 28l19 113q20 -18 54 -18v0h1q56 0 68 72l72 428h-65l20 115h64q12 71 34 112q20 37 59 65q49 35 116 35q59 0 88 -28z" />
    <glyph glyph-name="circumflex" unicode="&#x2c6;" horiz-adv-x="412" 
d="M360 538h-96l-61 64l-57 -64h-94l114 158h77z" />
    <glyph glyph-name="caron" unicode="&#x2c7;" horiz-adv-x="412" 
d="M360 693l-114 -158h-77l-117 158h96l60 -64l58 64h94z" />
    <glyph glyph-name="breve" unicode="&#x2d8;" horiz-adv-x="352" 
d="M300 679q0 -59 -34.5 -96t-89.5 -37t-89.5 37t-34.5 96h80q0 -49 44 -49t44 49h80z" />
    <glyph glyph-name="dotaccent" unicode="&#x2d9;" horiz-adv-x="281" 
d="M229 623q0 -37 -26 -63t-63 -26q-36 0 -62 26t-26 63q0 36 26 62t62 26q37 0 63 -26t26 -62z" />
    <glyph glyph-name="ring" unicode="&#x2da;" horiz-adv-x="303" 
d="M183 622q0 33 -32 33q-31 0 -31 -33q0 -32 31 -32q32 0 32 32zM251 622q0 -39 -29 -67t-71 -28q-41 0 -70 28t-29 67q0 40 29 67.5t70 27.5q42 0 71 -27.5t29 -67.5z" />
    <glyph glyph-name="ogonek" unicode="&#x2db;" horiz-adv-x="316" 
d="M264 -123q-24 -71 -117 -71q-34 0 -60 17q-35 24 -35 70q0 25 19 52q29 39 92 60h76q-97 -50 -97 -113q0 -33 30 -33q28 0 39 32z" />
    <glyph glyph-name="tilde" unicode="&#x2dc;" horiz-adv-x="408" 
d="M356 661q0 -110 -90 -112h-5h-2q-32 0 -92 25q-10 4 -19 4q-20 0 -20 -21v-8h-75q-1 13 -1 24q0 110 90 112h5h2q32 0 93 -25q9 -4 18 -4q20 0 20 21v8h75q1 -12 1 -24z" />
    <glyph glyph-name="hungarumlaut" unicode="&#x2dd;" horiz-adv-x="492" 
d="M254 700l-126 -159h-76l74 159h128zM440 700l-126 -159h-76l74 159h128z" />
    <glyph glyph-name="Delta" unicode="&#x394;" 
 />
    <glyph glyph-name="Delta" unicode="&#x2206;" 
 />
    <glyph glyph-name="Omega" unicode="&#x3a9;" 
 />
    <glyph glyph-name="Omega" unicode="&#x2126;" 
 />
    <glyph glyph-name="pi" unicode="&#x3c0;" 
 />
    <glyph glyph-name="endash" unicode="&#x2013;" horiz-adv-x="510" 
d="M505 224h-500v90h500v-90z" />
    <glyph glyph-name="emdash" unicode="&#x2014;" horiz-adv-x="1010" 
d="M1005 224h-1000v90h1000v-90z" />
    <glyph glyph-name="quoteleft" unicode="&#x2018;" horiz-adv-x="235" 
d="M196 504q0 -33 -24 -57t-57 -24q-54 0 -76 47q-10 22 -10 54q0 41 18 82q31 70 103 106l32 -45q-56 -30 -66 -86h8q72 0 72 -77z" />
    <glyph glyph-name="quoteright" unicode="&#x2019;" horiz-adv-x="235" 
d="M196 611q0 -41 -18 -82q-32 -70 -104 -106l-32 45q57 30 66 86h-7q-72 0 -72 77q0 33 24 57t57 24q53 0 76 -47q10 -22 10 -54z" />
    <glyph glyph-name="quotesinglbase" unicode="&#x201a;" horiz-adv-x="266" 
d="M214 57q0 -40 -18 -81q-32 -70 -104 -107l-32 45q57 31 66 87h-7q-72 0 -72 76q0 34 24 58t57 24q53 0 76 -48q10 -22 10 -54z" />
    <glyph glyph-name="quotedblleft" unicode="&#x201c;" horiz-adv-x="440" 
d="M196 504q0 -33 -24 -57t-57 -24q-54 0 -76 47q-10 22 -10 54q0 41 18 82q31 70 103 106l32 -45q-56 -30 -66 -86h8q72 0 72 -77zM401 504q0 -33 -24 -57t-57 -24q-54 0 -76 47q-10 22 -10 54q0 41 18 82q31 70 103 106l32 -45q-56 -30 -66 -86h8q72 0 72 -77z" />
    <glyph glyph-name="quotedblright" unicode="&#x201d;" horiz-adv-x="440" 
d="M196 611q0 -41 -18 -82q-32 -70 -104 -106l-32 45q57 30 66 86h-7q-72 0 -72 77q0 33 24 57t57 24q53 0 76 -47q10 -22 10 -54zM401 611q0 -41 -18 -82q-32 -70 -104 -106l-32 45q57 30 66 86h-7q-72 0 -72 77q0 33 24 57t57 24q53 0 76 -47q10 -22 10 -54z" />
    <glyph glyph-name="quotedblbase" unicode="&#x201e;" horiz-adv-x="471" 
d="M214 57q0 -40 -18 -81q-32 -70 -104 -107l-32 45q57 31 66 87h-7q-72 0 -72 76q0 34 24 58t57 24q53 0 76 -48q10 -22 10 -54zM419 57q0 -40 -18 -81q-32 -70 -104 -107l-32 45q57 31 66 87h-7q-72 0 -72 76q0 34 24 58t57 24q53 0 76 -48q10 -22 10 -54z" />
    <glyph glyph-name="dagger" unicode="&#x2020;" horiz-adv-x="618" 
d="M541 365l-173 14l16 -589h-151l17 588l-173 -13v116l171 -14l-16 232h153l-16 -232l172 14v-116z" />
    <glyph glyph-name="daggerdbl" unicode="&#x2021;" horiz-adv-x="613" 
d="M536 8l-172 14l16 -232h-153l16 232l-171 -14v116l173 -14l-17 133l17 136l-173 -14v116l171 -14l-16 232h153l-16 -232l172 14v-116l-173 14l17 -136l-17 -133l173 14v-116z" />
    <glyph glyph-name="bullet" unicode="&#x2022;" horiz-adv-x="347" 
d="M295 286q0 -50 -35.5 -85.5t-86.5 -35.5q-50 0 -85.5 35.5t-35.5 85.5q0 51 35.5 86.5t85.5 35.5q51 0 86.5 -35.5t35.5 -86.5z" />
    <glyph glyph-name="ellipsis" unicode="&#x2026;" horiz-adv-x="857" 
d="M225 73q0 -35 -25.5 -60.5t-61.5 -25.5q-35 0 -60.5 25.5t-25.5 60.5q0 36 25.5 61.5t60.5 25.5q36 0 61.5 -25.5t25.5 -61.5zM515 73q0 -35 -25.5 -60.5t-61.5 -25.5q-35 0 -60.5 25.5t-25.5 60.5q0 36 25.5 61.5t60.5 25.5q36 0 61.5 -25.5t25.5 -61.5zM805 73
q0 -35 -25.5 -60.5t-61.5 -25.5q-35 0 -60.5 25.5t-25.5 60.5q0 36 25.5 61.5t60.5 25.5q36 0 61.5 -25.5t25.5 -61.5z" />
    <glyph glyph-name="perthousand" unicode="&#x2030;" horiz-adv-x="1265" 
d="M256 503q0 56 -17 88.5t-45 32.5t-45 -32.5t-17 -88.5q0 -55 17 -87.5t45 -32.5t45 32.5t17 87.5zM728 197q0 56 -17 88.5t-45 32.5q-29 0 -45.5 -32.5t-16.5 -88.5q0 -55 16.5 -87.5t45.5 -32.5q28 0 45 32.5t17 87.5zM1128 197q0 56 -17 88.5t-45 32.5
q-29 0 -45.5 -32.5t-16.5 -88.5q0 -55 16.5 -87.5t45.5 -32.5q28 0 45 32.5t17 87.5zM371 503q0 -93 -49 -150.5t-128 -57.5t-128 57.5t-49 150.5q0 94 49 151.5t128 57.5t128 -57.5t49 -151.5zM690 700l-402 -700h-115l402 700h115zM843 197q0 -93 -49 -150.5t-128 -57.5
q-80 0 -128.5 57.5t-48.5 150.5q0 94 48.5 151.5t128.5 57.5q79 0 128 -57.5t49 -151.5zM1243 197q0 -93 -49 -150.5t-128 -57.5q-80 0 -128.5 57.5t-48.5 150.5q0 94 48.5 151.5t128.5 57.5q79 0 128 -57.5t49 -151.5z" />
    <glyph glyph-name="guilsinglleft" unicode="&#x2039;" horiz-adv-x="350" 
d="M318 0h-145l-141 235l141 235h145l-127 -235z" />
    <glyph glyph-name="guilsinglright" unicode="&#x203a;" horiz-adv-x="350" 
d="M318 235l-142 -235h-144l126 235l-126 235h144z" />
    <glyph glyph-name="fraction" unicode="&#x2044;" horiz-adv-x="222" 
d="M370 699l-403 -699h-115l403 699h115z" />
    <glyph glyph-name="trademark" unicode="&#x2122;" horiz-adv-x="943" 
d="M388 620h-126v-351h-116v351h-124v79h366v-79zM921 269h-112v251q-54 -76 -108 -153h-34l-104 151v-249h-113v328q0 73 -39 87v15h149l129 -180q128 180 129 180h103v-430z" />
    <glyph glyph-name="partialdiff" unicode="&#x2202;" 
 />
    <glyph glyph-name="product" unicode="&#x220f;" 
 />
    <glyph glyph-name="summation" unicode="&#x2211;" 
 />
    <glyph glyph-name="radical" unicode="&#x221a;" 
 />
    <glyph glyph-name="infinity" unicode="&#x221e;" horiz-adv-x="716" 
d="M291 348q-60 60 -99 60q-26 0 -43.5 -16.5t-17.5 -43.5t17.5 -44t43.5 -17q39 0 99 61zM585 348q0 27 -17.5 43.5t-43.5 16.5q-39 0 -99 -60q60 -61 99 -61q26 0 43.5 17t17.5 44zM694 348q0 -70 -46 -112t-113 -42q-88 0 -177 88q-88 -88 -177 -88q-66 0 -111 41
q-48 43 -48 113t48 113q45 40 111 40q89 0 177 -88q89 88 177 88q67 0 112 -40q47 -43 47 -113z" />
    <glyph glyph-name="integral" unicode="&#x222b;" 
 />
    <glyph glyph-name="approxequal" unicode="&#x2248;" 
 />
    <glyph glyph-name="approxequal" unicode="&#x22f2;" 
 />
    <glyph glyph-name="notequal" unicode="&#x2260;" horiz-adv-x="547" 
d="M525 170h-292l-84 -127l-89 44l55 83h-93v114h169l48 73h-217v114h292l84 126l89 -43l-55 -83h93v-114h-169l-48 -73h217v-114z" />
    <glyph glyph-name="lessequal" unicode="&#x2264;" horiz-adv-x="548" 
d="M525 0h-503v114h503v-114zM526 164l-484 196v89l484 197v-123l-318 -118l318 -119v-122z" />
    <glyph glyph-name="greaterequal" unicode="&#x2265;" horiz-adv-x="548" 
d="M526 0h-503v114h503v-114zM506 360l-484 -196v122l318 119l-318 118v123l484 -197v-89z" />
    <glyph glyph-name="lozenge" unicode="&#x25ca;" 
 />
    <glyph glyph-name="apple" unicode="&#xf000;" 
 />
    <glyph glyph-name="fi" unicode="&#xf001;" horiz-adv-x="632" 
d="M401 556q-32 26 -82 26q-88 0 -88 -77v-13h99v-119h-99v-374h-169v374h-60v119h61q0 114 81 172q60 42 149 42q61 0 108 -27v-123zM580 0h-167v329q0 58 -8 84q-13 47 -55 57v22h230v-492z" />
    <glyph glyph-name="fl" unicode="&#xf002;" horiz-adv-x="574" 
d="M522 0h-166v570q-16 12 -56 12q-69 0 -69 -76v-14h89v-119h-89v-373h-169v373h-60v119h61q0 114 85 171q63 43 165 43q119 0 209 -50v-656z" />
    <glyph glyph-name=".null" 
 />
    <glyph glyph-name="HT" 
 />
    <glyph glyph-name="LF" 
 />
    <glyph glyph-name="nonmarkingreturn" 
 />
    <glyph glyph-name="DLE" 
 />
    <glyph glyph-name="DC1" horiz-adv-x="1004" 
 />
    <glyph glyph-name="DC2" 
 />
    <glyph glyph-name="DC3" 
 />
    <glyph glyph-name="DC4" 
 />
    <glyph glyph-name="RS" 
 />
    <glyph glyph-name="US" 
 />
    <glyph glyph-name="DEL" 
 />
  </font>
</defs>
</svg>
