<?xml version="1.0" standalone="no"?>
<!DOCTYPE svg PUBLIC "-//W3C//DTD SVG 1.1//EN" "http://www.w3.org/Graphics/SVG/1.1/DTD/svg11.dtd" >
<svg xmlns="http://www.w3.org/2000/svg" xmlns:xlink="http://www.w3.org/1999/xlink" version="1.1">
<metadata>
Created by FontForge 20170731 at Thu May 17 19:59:59 2007
 By Aleksey,,,
Copyright  1997, 2001, Berthold LLC. All rights reserved. Akzidenz-Grotesk is a trademark of Berthold Types Limited.
</metadata>
<defs>
<font id="AkzidenzGroteskBQ-Ext" horiz-adv-x="729" >
  <font-face 
    font-family="Akzidenz-Grotesk BQ Extended"
    font-weight="500"
    font-stretch="normal"
    units-per-em="1000"
    panose-1="0 0 0 0 0 0 0 0 0 0"
    ascent="800"
    descent="-200"
    x-height="488"
    cap-height="706"
    bbox="-104 -235 1470 929"
    underline-thickness="75"
    underline-position="-324"
    unicode-range="U+0020-2122"
  />
<missing-glyph horiz-adv-x="500" 
 />
    <glyph glyph-name=".notdef" horiz-adv-x="500" 
 />
    <glyph glyph-name=".null" horiz-adv-x="0" 
 />
    <glyph glyph-name="nonmarkingreturn" horiz-adv-x="333" 
 />
    <glyph glyph-name="space" unicode=" " horiz-adv-x="333" 
 />
    <glyph glyph-name="exclam" unicode="!" horiz-adv-x="292" 
d="M218 400l-28 -221h-44l-29 220v291h101v-290zM218 0h-100v100h100v-100z" />
    <glyph glyph-name="quotedbl" unicode="&#x22;" horiz-adv-x="350" 
d="M322 743l-33 -290h-38l-34 290h105zM133 743l-33 -290h-38l-34 290h105z" />
    <glyph glyph-name="numbersign" unicode="#" horiz-adv-x="749" 
d="M710 409h-179l-9 -97h176v-71h-183l-23 -241h-78l26 241h-141l-26 -241h-74l23 241h-182v71h190l9 97h-186v74h192l21 223h78l-22 -223h140l21 223h76l-22 -223h173v-74zM455 409h-140l-10 -97h141z" />
    <glyph glyph-name="dollar" unicode="$" horiz-adv-x="771" 
d="M738 206q-2 -119 -103 -177q-31 -18 -70.5 -27.5t-66 -12t-74.5 -4.5v-119h-77v120q-60 4 -90 10q-135 28 -204 107q-13 14 -32 43l96 36q21 -26 32 -37t42 -30t73 -30q29 -8 55 -12q5 -1 14.5 -2t14.5 -1v255q-156 11 -217 51q-73 49 -72 134q0 105 91 160q42 25 87 34
t111 14v97h79l1 -99q38 -2 69 -7q126 -21 195 -92q12 -12 29 -37l-95 -36q-12 15 -22 24q-48 46 -137 63q-25 4 -41 5l1 -225q19 -1 64 -5q74 -7 126 -25t86 -64q35 -48 35 -111zM348 416v225q-88 -7 -131 -29q-63 -32 -62 -90q0 -32 20 -54q22 -24 60 -34.5t113 -17.5z
M642 202q0 44 -26 69q-23 23 -66 33t-125 17l1 -253q4 0 12.5 0.5t13.5 0.5q98 7 145 42q45 34 45 91z" />
    <glyph glyph-name="percent" unicode="%" horiz-adv-x="1042" 
d="M1012 221q0 -119 -77 -183q-28 -23 -61 -34q-29 -8 -65 -8q-34 0 -60 8q-66 20 -108 86q-31 54 -31 129q0 89 49 152q57 75 155 75q70 0 126 -47q72 -63 72 -178zM760 670l-432 -682l-49 30l432 683zM428 469q0 -119 -77 -183q-28 -24 -61 -34q-28 -9 -65 -9q-34 0 -60 8
q-67 19 -108 87q-31 56 -31 128q0 90 49 153q59 74 155 74q73 0 126 -47q72 -63 72 -177zM941 220q0 99 -60 145q-31 22 -71 22q-36 0 -65 -20q-65 -46 -65 -150q0 -85 39 -123.5t91 -38.5q65 1 98 49t33 116zM358 467q-1 102 -61 145q-32 23 -70 23q-36 0 -65 -21
q-65 -45 -65 -150q1 -85 39.5 -123.5t89.5 -38.5q66 0 99 48.5t33 116.5z" />
    <glyph glyph-name="ampersand" unicode="&#x26;" horiz-adv-x="771" 
d="M745 4q-32 -9 -49 -9q-20 0 -39 6q-25 8 -96 58q-26 -16 -39 -23q-99 -54 -220 -54q-158 0 -227 95q-36 49 -36 108q0 55 25 91q12 19 28.5 34t43.5 28.5t37.5 18t45.5 17.5q7 3 10 4q-19 18 -28.5 28t-25 42.5t-15.5 67.5q0 41 17 73q20 35 62.5 61t111.5 25
q65 0 109 -27q15 -9 29 -22.5t28.5 -42.5t14.5 -63q0 -94 -93 -146q-20 -10 -57 -24q85 -85 131 -124l50 -43l24 39q8 12 13.5 24.5t8.5 21t5 21t2.5 17t1.5 16.5t1 14l86 2q-3 -38 -10 -67q-15 -63 -69 -141q10 -9 25 -20q44 -31 94 -25v-81zM436 518q0 39 -24.5 63
t-63.5 24q-37 0 -64 -23t-27 -60q0 -30 23 -63q20 -28 48 -50q7 1 19 5q89 30 89 104zM493 115q-72 64 -106 97q-20 19 -55.5 55.5t-46.5 47.5l-39 -12q-106 -36 -106 -110q0 -31 19 -63q18 -27 58 -47t99 -20q76 0 148 34q16 8 29 18z" />
    <glyph glyph-name="quotesingle" unicode="'" horiz-adv-x="161" 
d="M133 743l-33 -290h-38l-34 290h105z" />
    <glyph glyph-name="parenleft" unicode="(" horiz-adv-x="333" 
d="M325 -110l-32 -31q-103 82 -151 146q-103 136 -103 306q0 134 67.5 250t182.5 194l29 -30q-95 -96 -138 -183.5t-43 -211.5q0 -199 103 -346q31 -44 85 -94z" />
    <glyph glyph-name="parenright" unicode=")" horiz-adv-x="333" 
d="M295 300q0 -132 -68.5 -246.5t-182.5 -192.5l-29 30q95 96 138.5 183t43.5 210q0 200 -104 348q-31 44 -85 94l32 31q107 -87 151 -146q104 -138 104 -311z" />
    <glyph glyph-name="asterisk" unicode="*" horiz-adv-x="349" 
d="M323 583l-104 -37l63 -83l-48 -37l-66 85l-59 -85l-50 36l59 85l-100 28l17 57l102 -27v103h62v-105l103 34z" />
    <glyph glyph-name="plus" unicode="+" horiz-adv-x="772" 
d="M680 253h-245v-228h-98v228h-245v86h245v226h98v-226h245v-86z" />
    <glyph glyph-name="comma" unicode="," horiz-adv-x="250" 
d="M180 -19q0 -58 -25.5 -86t-83.5 -29v55q26 3 35.5 13t9.5 36v30h-45v108h109v-127z" />
    <glyph glyph-name="hyphen" unicode="-" horiz-adv-x="385" 
d="M350 259h-315v82h315v-82z" />
    <glyph glyph-name="period" unicode="." horiz-adv-x="250" 
d="M179 0h-110v109h110v-109z" />
    <glyph glyph-name="slash" unicode="/" horiz-adv-x="417" 
d="M411 706l-312 -706h-88l310 706h90z" />
    <glyph glyph-name="zero" unicode="0" horiz-adv-x="708" 
d="M676 340q0 -27 -3.5 -55.5t-15 -77.5t-42.5 -95t-78 -78q-76 -50 -175 -50q-105 0 -177 53q-13 10 -45 42q-62 70 -81 181q-8 52 -8 88q0 149 80 248q82 104 231 106q109 0 183 -56q33 -25 56 -55q75 -99 75 -251zM576 341q0 110 -41 180q-15 28 -40 49q-56 53 -134 51
q-66 -3 -113 -40q-96 -75 -96 -245q0 -76 25 -137q11 -28 25 -47q58 -87 162 -87q87 0 145 64q67 75 67 212z" />
    <glyph glyph-name="one" unicode="1" horiz-adv-x="708" 
d="M429 0h-99v537q-40 -18 -75 -24t-116 -9v68q44 1 73.5 7t63.5 25q22 11 46 36q19 22 32 47h75v-687z" />
    <glyph glyph-name="two" unicode="2" horiz-adv-x="708" 
d="M640 0h-564v94q10 5 54 26.5t67 33.5q75 40 145 83q34 21 62 41q57 41 88 80t31 95q0 75 -51.5 118.5t-128.5 43.5q-99 0 -146 -63q-15 -19 -22.5 -43.5t-9.5 -42t-3 -48.5l-97 15q5 51 8 66q16 82 87 138q79 61 187 61q102 0 174 -50q47 -32 74.5 -84t27.5 -109
q0 -86 -56 -154q-26 -32 -73.5 -66t-74.5 -49.5t-88 -47.5q-20 -11 -56 -29l-82 -35q19 2 55 6q30 2 45 2h347v-82z" />
    <glyph glyph-name="three" unicode="3" horiz-adv-x="708" 
d="M648 195q0 -80 -59 -136q-78 -73 -232 -73q-38 0 -76 5q-101 13 -156 59q-27 23 -43 49q-18 28 -35 87l94 22q8 -39 22 -62q49 -79 196 -79q96 1 141.5 39t44.5 95q0 47 -30 80q-27 30 -81 37t-160 4l-1 75q69 -2 118 2q74 8 104 40q23 26 23 61t-21 65q-41 59 -147 59
q-61 0 -102 -21t-60 -49q-17 -25 -22 -64l-92 17q11 44 21 65q62 129 253 129q115 0 188 -45q84 -52 84 -148q0 -75 -55 -115q-19 -13 -49 -23q14 -5 37 -17q96 -53 95 -158z" />
    <glyph glyph-name="four" unicode="4" horiz-adv-x="708" 
d="M655 166h-118v-166h-94v166h-400v79l415 443h78v-443h119v-79zM446 565q-26 -32 -52 -61l-243 -259h292v229q0 1 3 91z" />
    <glyph glyph-name="five" unicode="5" horiz-adv-x="708" 
d="M657 251q0 -113 -83 -186q-89 -79 -226 -79q-91 1 -154.5 31.5t-96.5 69.5q-31 36 -50 92l94 20q20 -45 45 -70q63 -63 169 -63q55 0 98 18q48 21 76 64t28 96q0 69 -44 113q-56 55 -151 55q-56 0 -108 -22.5t-84 -64.5q-10 -13 -17 -27l-77 15l20 375h528l-5 -85h-448
l-11 -183q23 19 44 31q74 41 170 41q21 0 46 -3.5t66 -14t79 -38.5t62 -70q30 -52 30 -115z" />
    <glyph glyph-name="six" unicode="6" horiz-adv-x="708" 
d="M679 229q0 -65 -31 -119q-13 -22 -36 -45q-63 -62 -162 -77q-27 -4 -62 -4q-109 0 -185 50q-44 29 -73 69q-65 89 -65 235q0 59 12 109q31 141 148 208q77 46 179 46q35 0 61 -6q77 -13 141 -62q36 -29 67 -71l-93 -35l-30 36q-60 57 -154 57q-108 0 -173 -73
q-53 -57 -65 -149q-4 -31 -4 -68q13 30 30 49q75 82 213 81q123 0 202 -62q80 -63 80 -169zM584 223q0 54 -33.5 91.5t-80 52.5t-97.5 13q-66 -2 -108 -27t-61 -57q-20 -34 -20 -73q0 -43 23 -78q18 -27 47 -45t61 -24.5t48 -8t30 -1.5q84 0 134 38q57 43 57 119z" />
    <glyph glyph-name="seven" unicode="7" horiz-adv-x="708" 
d="M628 688l-1 -65q-41 -38 -71 -74q-137 -165 -188 -390q-14 -62 -25 -159h-109q8 55 13 85.5t27 105.5t54 146q47 94 85 148q29 41 97 118h-430v85h548z" />
    <glyph glyph-name="eight" unicode="8" horiz-adv-x="708" 
d="M654 191q0 -51 -23 -92q-23 -40 -72 -70q-78 -45 -212 -45q-152 0 -231 68q-65 56 -65 139q0 92 76 142q19 12 68 28q-25 7 -43 17q-78 43 -78 133q0 58 35 103q67 87 248 87q18 0 52 -2q119 -10 178 -76q41 -44 41 -109q0 -56 -30 -95q-25 -33 -96 -59q48 -11 70 -24
q39 -22 60.5 -61t21.5 -84zM528 507q0 32 -15 56q-40 65 -175 61h-10q-11 -1 -23.5 -3t-28 -4.5t-31 -8.5t-27.5 -14q-18 -10 -30 -32q-14 -24 -14 -53q0 -115 180 -115q87 0 130.5 31t43.5 82zM555 190q0 39 -24 71q-47 61 -203 56q-117 -2 -157 -57q-21 -26 -21 -65
q0 -55 41 -87q53 -41 169 -41q85 0 130 24q65 34 65 99z" />
    <glyph glyph-name="nine" unicode="9" horiz-adv-x="708" 
d="M655 358q0 -150 -62 -242q-25 -36 -63 -65q-86 -67 -209 -67q-145 0 -234 92q-31 33 -50 74l89 36q1 -1 4.5 -8t9 -16t9.5 -15q60 -83 171 -83q88 1 149.5 47.5t84.5 131.5q6 23 11 84q-42 -42 -88 -64q-73 -36 -157 -36q-70 0 -130 23q-22 6 -50 24q-24 13 -53 45
q-51 59 -51 141q0 73 39 128q31 45 98 79t166 34q161 0 241 -94q75 -85 75 -249zM546 466q0 41 -20 74q-20 34 -67 58.5t-117 23.5q-90 0 -147 -42q-60 -43 -60 -118q0 -36 15 -64q48 -93 184 -93q88 0 151 45q32 25 46 52q15 30 15 64z" />
    <glyph glyph-name="colon" unicode=":" horiz-adv-x="292" 
d="M219 386h-109v108h109v-108zM220 0h-109v107h109v-107z" />
    <glyph glyph-name="semicolon" unicode=";" horiz-adv-x="292" 
d="M220 388h-109v109h109v-109zM220 -19q0 -44 -14 -70.5t-52 -38.5q-7 -2 -21.5 -3.5t-21.5 -3.5v55q26 3 35.5 13.5t9.5 35.5v31h-45v108h109v-127z" />
    <glyph glyph-name="less" unicode="&#x3c;" horiz-adv-x="772" 
d="M643 23l-542 228v97l542 234v-97l-433 -182l433 -179v-101z" />
    <glyph glyph-name="equal" unicode="=" horiz-adv-x="772" 
d="M678 352h-584v86h584v-86zM678 150h-584v86h584v-86z" />
    <glyph glyph-name="greater" unicode="&#x3e;" horiz-adv-x="772" 
d="M671 257l-541 -234l-1 96l434 182l-433 180v100l541 -227v-97z" />
    <glyph glyph-name="question" unicode="?" horiz-adv-x="667" 
d="M636 504q0 -46 -21 -81q-15 -27 -43.5 -48.5t-48 -30.5t-60.5 -26q-73 -30 -93 -52q-19 -21 -19 -85h-74v38q0 37 4 56q4 20 13.5 34.5t25.5 25.5t27.5 17t34.5 15q67 29 88 41q64 38 64 103q0 35 -19 64q-23 35 -67.5 53.5t-91.5 18.5q-54 0 -101.5 -23t-74.5 -67
q-16 -27 -28 -70l-88 17q25 85 64 129q51 57 138 79q41 11 95 11q155 0 232 -98q43 -55 43 -121zM364 0h-101v101h101v-101z" />
    <glyph glyph-name="at" unicode="@" horiz-adv-x="909" 
d="M869 416q0 -132 -79 -239t-176 -107q-88 0 -90 86q-33 -36 -59 -54q-46 -31 -99 -31q-66 0 -104 44t-38 121q0 111 70 196t162 85q89 0 126 -84l16 62h75l-47 -193q-21 -85 -21 -120q0 -52 33 -52q20 0 45 16q55 36 91 115t36 161q0 107 -78 172t-206 65
q-175 0 -298.5 -122t-123.5 -294q0 -139 98.5 -225.5t255.5 -86.5q92 0 180 33q52 19 89 41.5t97 71.5l36 -41q-63 -52 -102 -76t-96 -46q-100 -38 -202 -38q-185 0 -301 101t-116 262q0 197 141.5 335t343.5 138q154 0 247.5 -81.5t93.5 -214.5zM554 347v10q0 44 -25 70.5
t-65 26.5q-61 0 -107.5 -65.5t-46.5 -151.5q0 -47 23.5 -74.5t63.5 -27.5q60 0 108.5 65.5t48.5 146.5z" />
    <glyph glyph-name="A" unicode="A" horiz-adv-x="833" 
d="M834 0h-116l-86 174h-434l-86 -174h-113l366 706h107zM589 255l-173 350l-176 -350h349z" />
    <glyph glyph-name="B" unicode="B" horiz-adv-x="896" 
d="M838 197q0 -59 -30 -105q-21 -32 -52 -52.5t-72.5 -28t-69.5 -9.5t-76 -2h-453v706h453q35 0 53 -1q121 -8 174 -70q38 -46 38 -112q0 -93 -70 -132l-29 -13q52 -17 84 -50q50 -50 50 -131zM699 516q0 57 -47 87q-35 22 -115 22h-351v-217h369q30 0 47.5 1.5t40.5 12
t37 30.5q19 27 19 64zM733 206q0 41 -20 69q-23 33 -58 42.5t-87 9.5h-382v-245h382q102 0 142 50q24 32 23 74z" />
    <glyph glyph-name="C" unicode="C" horiz-adv-x="917" 
d="M887 193q-27 -48 -50 -76q-115 -135 -360 -135q-161 0 -272 71q-24 16 -48 37q-32 32 -52 64q-56 85 -56 204q0 124 62 210q17 26 51 56q41 35 82 55q95 48 231 48q159 0 266 -65q42 -27 73 -59q31 -33 58 -81l-107 -23q-10 17 -19 31q-26 35 -63 58q-80 51 -204 51
q-136 0 -219 -59q-18 -11 -40 -36q-65 -70 -65 -185q0 -105 56 -178q64 -84 197 -106q34 -5 81 -5q170 0 253 91q21 22 39 54z" />
    <glyph glyph-name="D" unicode="D" horiz-adv-x="875" 
d="M823 358q0 -79 -30.5 -152t-88.5 -122q-45 -38 -107 -57.5t-108.5 -23t-121.5 -3.5h-282v706h351q39 0 59 -1q102 -3 183 -56q72 -47 108.5 -123.5t36.5 -167.5zM721 362q-1 91 -46 160t-130 91q-38 10 -109 10h-250v-538h206q19 0 55 2q118 4 189 66q85 75 85 209z" />
    <glyph glyph-name="E" unicode="E" horiz-adv-x="792" 
d="M762 0h-677v706h651v-87h-551v-210h537v-84h-537v-238h577v-87z" />
    <glyph glyph-name="F" unicode="F" horiz-adv-x="750" 
d="M713 619h-529v-226h509v-83h-509v-310h-99v706h628v-87z" />
    <glyph glyph-name="G" unicode="G" horiz-adv-x="917" 
d="M848 0h-87v97q-27 -27 -47 -41q-39 -27 -107 -49.5t-154 -22.5q-67 0 -125 15.5t-98.5 41.5t-66.5 50t-45 50q-69 92 -69 214q0 109 58 197q21 31 46 55q124 116 318 116q130 0 236 -55q58 -30 95 -71q22 -24 42 -60l-98 -30q-23 32 -38 47q-91 83 -230 83
q-71 0 -135 -22q-87 -30 -137 -97t-50 -159q0 -48 17 -98t47 -86q29 -35 68 -59t78 -33t63.5 -12t45.5 -3q78 0 150.5 33.5t110.5 95.5q20 33 28 91h-311v84h395v-372z" />
    <glyph glyph-name="H" unicode="H" horiz-adv-x="917" 
d="M828 0h-101v334h-541v-334h-102v706h101v-288h541v288h102v-706z" />
    <glyph glyph-name="I" unicode="I" horiz-adv-x="271" 
d="M186 0h-102v706h102v-706z" />
    <glyph glyph-name="J" unicode="J" horiz-adv-x="708" 
d="M621 240q0 -77 -16 -116q-30 -71 -108.5 -106t-164.5 -35q-48 0 -100 11q-41 9 -75 26.5t-53.5 34.5t-36.5 42.5t-23.5 40t-15.5 37.5l102 19q30 -65 72 -92q47 -30 121 -30q87 0 139 32q31 22 45 51q14 31 14 88v463h100v-466z" />
    <glyph glyph-name="K" unicode="K" horiz-adv-x="833" 
d="M854 0h-134l-319 380l-219 -161v-219h-97v706h99v-376l509 376h147l-357 -266z" />
    <glyph glyph-name="L" unicode="L" horiz-adv-x="646" 
d="M654 0h-569v706h100v-620h469v-86z" />
    <glyph glyph-name="M" unicode="M" horiz-adv-x="1000" 
d="M934 0h-95l5 606l-289 -606h-94l-288 606l5 -606h-94v706h138l288 -598l288 598h136v-706z" />
    <glyph glyph-name="N" unicode="N" horiz-adv-x="917" 
d="M829 0h-98l-553 584l2 -584h-96v706h103l549 -583l-3 583h96v-706z" />
    <glyph glyph-name="O" unicode="O" horiz-adv-x="958" 
d="M906 343q0 -145 -92 -240q-47 -49 -131 -85.5t-203 -36.5q-53 0 -108 9q-187 27 -273 165q-51 83 -51 190q0 136 71 225q19 25 51 51q122 102 304 102q122 0 219 -45q95 -44 151 -124q62 -90 62 -211zM805 353q0 68 -26 123q-21 46 -59 79t-73.5 48.5t-78.5 24t-64 9.5
t-42 0q-154 -5 -239 -90q-40 -40 -59 -95q-16 -47 -16 -103q0 -98 51 -167q22 -29 56 -53q86 -61 227 -61q66 0 119 14q76 20 126.5 69t68.5 123q9 42 9 79z" />
    <glyph glyph-name="P" unicode="P" horiz-adv-x="812" 
d="M798 490q0 -103 -74 -159q-29 -22 -65 -33t-62 -13t-73 -2h-339v-283h-102v706h432q18 0 54 -2q85 -8 132 -36q37 -23 61 -57q36 -53 36 -121zM689 496q0 45 -25 76q-19 23 -50.5 35t-53.5 13.5t-61 1.5h-315v-255h326q35 0 57 2t50 13.5t46 33.5q26 31 26 80z" />
    <glyph glyph-name="Q" unicode="Q" horiz-adv-x="979" 
d="M948 9l-51 -73l-166 93q-34 -14 -52 -20q-85 -27 -192 -27q-198 0 -319 100q-32 26 -60 66q-59 86 -59 194q0 113 54 198q24 37 62 72q125 111 326 111q147 0 255 -63q48 -27 91 -73q90 -98 90 -234q0 -122 -67 -211q-18 -24 -50 -54zM826 350q0 132 -90 209
q-96 83 -260 79q-173 -6 -257 -96q-36 -39 -54 -93q-15 -47 -15 -99q0 -43 10 -79q23 -93 105 -147q89 -58 225 -58q153 0 238 68q20 16 42 42q56 74 56 174z" />
    <glyph glyph-name="R" unicode="R" horiz-adv-x="896" 
d="M896 0h-131l-239 283h-341v-283h-101v706h481q71 0 112 -11q71 -19 110 -71t39 -125q0 -134 -114 -181q-31 -12 -77 -19zM722 495q0 38 -18 69q-20 36 -51.5 47t-80.5 11h-388v-256h349q37 0 60.5 2t54 14.5t48.5 35.5q26 31 26 77z" />
    <glyph glyph-name="S" unicode="S" horiz-adv-x="812" 
d="M763 213q0 -69 -36 -118q-63 -88 -208 -105q-56 -7 -102 -7q-99 0 -182 21q-42 11 -76 25q-39 17 -74 43q-36 28 -66 71l93 38q10 -12 15 -17q36 -36 97 -61q83 -34 200 -34q128 0 192 48q48 37 48 95q0 61 -60 87q-15 7 -36.5 12t-53 9t-48.5 6t-53.5 5t-38.5 3
q-115 9 -166 21t-87 45q-50 46 -50 118q0 108 98 160q84 46 233 46q171 0 275 -67q21 -14 32 -24q8 -6 46 -51l-92 -37q-23 23 -43 37q-85 59 -217 59q-94 0 -154 -23q-42 -16 -60 -42t-18 -53q0 -25 12 -44q12 -18 34.5 -29.5t36 -13.5t45.5 -6q42 -5 120.5 -12t113.5 -11
q78 -9 122 -29t71 -54q37 -48 37 -111z" />
    <glyph glyph-name="T" unicode="T" horiz-adv-x="708" 
d="M691 622h-289v-622h-100v622h-288v84h677v-84z" />
    <glyph glyph-name="U" unicode="U" horiz-adv-x="896" 
d="M808 281q0 -85 -20 -132q-38 -91 -131.5 -128.5t-208.5 -37.5q-164 0 -263 69q-45 31 -71 78q-30 56 -30 161v415h101v-419q0 -44 4 -66q5 -30 17.5 -52.5t23 -31.5t27.5 -20q75 -47 192 -47q132 0 200 50q29 22 42 51q16 33 16 103v432h101v-425z" />
    <glyph glyph-name="V" unicode="V" horiz-adv-x="771" 
d="M772 706l-333 -706h-101l-339 706h111l280 -595l272 595h110z" />
    <glyph glyph-name="W" unicode="W" horiz-adv-x="1104" 
d="M1102 706l-233 -706h-111l-208 578l-209 -578h-114l-230 706h107l184 -595l218 595h89l217 -592l184 592h106z" />
    <glyph glyph-name="X" unicode="X" horiz-adv-x="854" 
d="M854 0h-141l-290 309l-288 -309h-137l361 374l-317 332h138l244 -267l247 267h137l-323 -331z" />
    <glyph glyph-name="Y" unicode="Y" horiz-adv-x="812" 
d="M811 706l-358 -433v-273h-99v275l-352 431h129l273 -346l279 346h128z" />
    <glyph glyph-name="Z" unicode="Z" horiz-adv-x="771" 
d="M735 0h-705v84l553 536h-511v86h653v-83l-554 -535h564v-88z" />
    <glyph glyph-name="bracketleft" unicode="[" horiz-adv-x="375" 
d="M341 689h-122v-766h120v-76h-219v918h221v-76z" />
    <glyph glyph-name="backslash" unicode="\" horiz-adv-x="417" 
d="M411 0h-90l-310 706h88z" />
    <glyph glyph-name="bracketright" unicode="]" horiz-adv-x="375" 
d="M255 -153h-221v76h122v766h-120v76h219v-918z" />
    <glyph glyph-name="asciicircum" unicode="^" horiz-adv-x="772" 
d="M644 286h-105l-151 316l-155 -316h-105l214 420h98z" />
    <glyph glyph-name="underscore" unicode="_" horiz-adv-x="500" 
d="M510 -214h-520v75h520v-75z" />
    <glyph glyph-name="grave" unicode="`" horiz-adv-x="375" 
d="M284 551h-65l-128 137h125z" />
    <glyph glyph-name="a" unicode="a" horiz-adv-x="688" 
d="M681 0q-70 -5 -84 -5q-29 0 -48.5 7t-28.5 21.5t-12 25.5t-5 29q-11 -18 -23 -29q-69 -67 -210 -67q-24 0 -69 5q-80 13 -124 62q-38 44 -38 101q0 55 27.5 86.5t58.5 44.5q32 14 83 18t155 5l139 1q0 24 -0.5 33t-4 27t-13 29t-25.5 20q-38 20 -119 20q-107 0 -151 -35
q-10 -8 -22 -29l-96 9q6 24 22 48q23 33 63 50q64 26 179 26q79 0 139 -15q65 -15 93 -53q24 -32 24 -102v-178q0 -50 4 -63q10 -29 51 -29q8 0 35 3v-66zM503 231h-179q-114 0 -149 -17q-41 -19 -41 -63q0 -39 36.5 -67.5t104.5 -28.5q27 0 63 6q107 16 147 90q14 27 18 80
z" />
    <glyph glyph-name="b" unicode="b" 
d="M683 245q0 -94 -53 -159q-81 -99 -244 -99q-93 0 -159 32q-34 17 -54 36v-55h-95v706h95v-275q24 22 58 38q69 33 154 33q54 0 99 -13q93 -26 146 -88t53 -156zM585 243q0 81 -59 132q-64 56 -163 51q-44 -1 -90 -21q-106 -46 -106 -165q0 -41 16 -74q16 -34 45.5 -56.5
t64 -30.5t53 -10.5t34.5 -2.5q76 0 128 33q77 51 77 144z" />
    <glyph glyph-name="c" unicode="c" horiz-adv-x="688" 
d="M662 130q-3 -5 -11 -17.5t-12 -18.5q-33 -44 -94 -75q-79 -36 -180 -36q-183 0 -266 98q-56 66 -56 166q0 78 41 135q25 30 30 35q89 85 254 85q117 0 194 -48q32 -18 57 -46q18 -20 38 -54l-91 -26q-14 24 -30 40q-61 59 -168 59q-86 0 -148 -42q-76 -52 -76 -146
q0 -49 24 -88q23 -37 73.5 -64.5t127.5 -27.5q103 0 165 51q17 14 37 44z" />
    <glyph glyph-name="d" unicode="d" 
d="M649 0h-95l-1 64q-18 -16 -32 -25q-74 -48 -186 -48q-113 0 -189 56q-37 26 -69 76.5t-32 124.5q0 108 79 178q85 74 214 74q96 0 171 -40q25 -14 45 -29v275h95v-706zM559 249q0 77 -50 122q-59 53 -167 53q-48 0 -92 -18q-106 -45 -106 -166q0 -49 22 -85
q20 -34 65.5 -60t115.5 -26q54 0 104.5 18t77.5 56q30 42 30 106z" />
    <glyph glyph-name="e" unicode="e" horiz-adv-x="688" 
d="M643 233h-501q6 -39 16.5 -64t34.5 -48q63 -60 163 -60q99 0 156 61q12 13 30 45l91 -25q-12 -26 -25 -44q-34 -49 -96 -78q-73 -35 -169 -35q-126 0 -212 69t-87 194q0 46 17 91q14 37 38.5 65.5t48 44.5t52.5 28t46 15.5t34 6.5q28 5 61 5q159 0 245 -109
q47 -59 55 -125q2 -13 2 -37zM536 304q-23 65 -72 97q-25 16 -52 24q-26 8 -65 8q-125 0 -183 -92q-10 -15 -19 -37h391z" />
    <glyph glyph-name="f" unicode="f" horiz-adv-x="313" 
d="M315 705l-1 -85q-27 9 -58 9q-61 0 -73 -40q-4 -12 -4 -34v-67h134v-65h-134v-423h-94v424h-79v64h80v54q0 51 8 79q26 91 144 91q33 0 77 -7z" />
    <glyph glyph-name="g" unicode="g" 
d="M649 28q0 -68 -10 -98q-16 -54 -66 -85q-82 -54 -231 -54q-103 0 -169 27q-20 7 -41 21q-16 11 -30 26q-32 37 -36 104l100 4q1 -43 29 -65q48 -37 158 -37q151 0 191 73q14 25 14 78v56q-26 -21 -47 -34q-78 -49 -184 -49q-19 0 -42 3t-60 12t-74 32.5t-62 57.5
q-45 61 -45 143q0 51 16 94q14 37 37.5 66t52.5 45.5t55.5 27t56.5 15t45 5.5t31 1q104 0 181 -41q8 -5 39 -26v58h91v-460zM556 250q0 40 -19 76q-26 49 -80 72.5t-115 21.5q-84 -2 -141.5 -48t-57.5 -128q0 -35 12 -63q15 -36 43 -60t61 -32.5t51.5 -11t35.5 -2.5
q76 0 130 34q80 52 80 141z" />
    <glyph glyph-name="h" unicode="h" 
d="M648 0h-95v250q0 60 -13 91q-19 42 -65 62t-98 20q-80 0 -138 -38q-26 -17 -47 -41q-11 -13 -20 -28v-316h-95v706h96v-271q18 14 28 20q75 48 191 48q100 0 159 -38t81 -91q16 -37 16 -107v-267z" />
    <glyph glyph-name="i" unicode="i" horiz-adv-x="250" 
d="M170 570h-94v96h94v-96zM172 0h-95v488h95v-488z" />
    <glyph glyph-name="j" unicode="j" horiz-adv-x="250" 
d="M172 569h-95v96h95v-96zM172 -24q0 -54 -6 -78q-26 -101 -156 -101q-32 1 -84 11v89q40 -14 70 -14q62 0 77 48q5 15 5 39v518h94v-512z" />
    <glyph glyph-name="k" unicode="k" horiz-adv-x="688" 
d="M705 0h-140l-256 236l-134 -103v-133h-97v706h97v-471l307 253h147l-245 -192z" />
    <glyph glyph-name="l" unicode="l" horiz-adv-x="250" 
d="M171 0h-94v706h94v-706z" />
    <glyph glyph-name="m" unicode="m" horiz-adv-x="1167" 
d="M1085 0h-95v247q0 67 -13 95q-14 31 -53.5 54t-101.5 23q-69 0 -116 -26.5t-64 -58.5q-14 -27 -14 -80v-254h-95v251q0 45 -7 72q-9 33 -31 54.5t-49.5 29.5t-43 10t-31.5 2q-84 0 -146 -47q-24 -17 -38 -42q-14 -27 -14 -82v-248h-96v488h96v-67q13 13 37 31
q73 47 179 47q105 0 165 -46q18 -14 41 -43q18 20 39 35q79 55 198 55q78 0 145.5 -31t93.5 -95q14 -36 14 -111v-263z" />
    <glyph glyph-name="n" unicode="n" 
d="M649 0h-94v258q0 51 -13 80q-36 83 -168 83q-49 0 -95 -16q-72 -29 -94 -87q-12 -31 -12 -86v-232h-95v488h95v-59q40 33 74 47q63 26 144 26q89 0 153.5 -33t88.5 -89q16 -38 16 -116v-264z" />
    <glyph glyph-name="o" unicode="o" 
d="M682 242q0 -71 -34 -126q-32 -52 -103 -91.5t-180 -39.5q-73 0 -131 17q-18 5 -37 13t-48 27.5t-50.5 43t-37.5 63t-16 85.5q0 74 38 135q28 44 70.5 73t87.5 40t71 14.5t50 3.5q103 0 179 -36q27 -12 50 -31q21 -17 41 -40q50 -61 50 -151zM587 244q0 47 -23 85
q-56 93 -206 93q-99 -2 -158 -53q-59 -50 -59 -129q0 -52 29 -92q62 -84 200 -84q78 0 137 38q80 50 80 142z" />
    <glyph glyph-name="p" unicode="p" 
d="M681 248q0 -91 -51 -157q-78 -100 -228 -100q-130 0 -206 55q-6 4 -24 22v-263h-95v683h95v-52q12 12 48 31q66 33 163 33q87 0 148 -29t93 -66q16 -18 30 -43q27 -50 27 -114zM578 251q0 64 -39 108t-103 60q-30 6 -63 6q-90 0 -146 -46q-60 -49 -60 -138q0 -52 23 -88
q26 -42 78.5 -64t108.5 -22q43 0 85 15q37 14 62 36.5t35.5 48.5t14.5 45.5t4 38.5z" />
    <glyph glyph-name="q" unicode="q" 
d="M648 -197h-94v246q-37 -24 -43 -27q-70 -37 -167 -37q-119 0 -200 57q-100 69 -100 196q0 122 88.5 191.5t212.5 69.5q91 0 164 -39q21 -11 44 -29v57h95v-685zM561 245q0 48 -21 86q-21 37 -69 65t-122 26q-128 -2 -180 -92q-24 -40 -24 -89q0 -79 57 -130
q59 -52 155 -52q88 0 146 49.5t58 136.5z" />
    <glyph glyph-name="r" unicode="r" horiz-adv-x="417" 
d="M417 401q-40 11 -75 11q-130 0 -161 -85q-8 -24 -8 -63v-264h-95v488h94l1 -55q15 15 27 23q68 46 161 46q24 0 56 -8v-93z" />
    <glyph glyph-name="s" unicode="s" horiz-adv-x="667" 
d="M621 147q0 -38 -16 -67q-20 -35 -59.5 -58t-86 -30t-68.5 -8.5t-39 -1.5h-1q-220 0 -333 102l82 54q26 -21 50 -34q81 -42 196 -42q90 0 135 24q39 20 39 55q0 29 -31 45q-19 10 -52.5 15t-98.5 9.5t-103 8.5q-85 10 -125 39q-46 34 -46 94q0 80 78 120q68 35 193 35
q131 0 224 -49q40 -22 60 -42l-83 -46q-83 57 -208 57q-98 0 -138 -29q-21 -16 -21 -38q0 -25 24 -38q10 -6 25.5 -10t41.5 -7.5t45.5 -5t58 -4.5t58.5 -5q102 -8 142 -34q57 -38 57 -109z" />
    <glyph glyph-name="t" unicode="t" horiz-adv-x="333" 
d="M322 423h-139v-261q0 -21 2 -38q5 -47 66 -47q6 0 69 7l-1 -84q-54 -7 -94 -7q-75 0 -107 31q-17 17 -22.5 40t-5.5 71v288h-83v65h85v169h94v-169h136v-65z" />
    <glyph glyph-name="u" unicode="u" 
d="M646 0h-93l-1 61q-23 -20 -50 -37q-67 -41 -164 -41q-46 0 -92 11q-113 23 -151 103q-20 41 -20 135v256h94v-246q0 -64 13 -96q12 -28 37.5 -46t57 -24t45 -7.5t27.5 -1.5q70 0 119 26t68 59q15 26 15 78v258h95v-488z" />
    <glyph glyph-name="v" unicode="v" horiz-adv-x="604" 
d="M603 488l-252 -488h-106l-246 488h105l194 -392l197 392h108z" />
    <glyph glyph-name="w" unicode="w" horiz-adv-x="896" 
d="M892 488l-198 -488h-108l-150 395l-142 -395h-108l-187 488h103l138 -391l137 391h118l145 -394l149 394h103z" />
    <glyph glyph-name="x" unicode="x" horiz-adv-x="625" 
d="M628 0h-135l-177 197l-185 -197h-133l250 257l-222 231h132l156 -171l159 171h128l-221 -230z" />
    <glyph glyph-name="y" unicode="y" horiz-adv-x="604" 
d="M603 489l-276 -536q-15 -30 -27.5 -48t-33.5 -37.5t-52 -28.5t-73 -9q-51 1 -111 12v86q68 -15 100 -15q43 0 67.5 18.5t50.5 65.5l-248 492h108l191 -394l198 394h106z" />
    <glyph glyph-name="z" unicode="z" horiz-adv-x="604" 
d="M580 0h-556v79l403 330l-372 -1v80h506v-74l-402 -331l421 1v-84z" />
    <glyph glyph-name="braceleft" unicode="{" horiz-adv-x="344" 
d="M315 -155h-65q-77 0 -111 37q-16 16 -22 39q-8 29 -8 83v165q0 49 -12 69q-10 16 -26.5 22.5t-55.5 8.5v74q45 2 63 13q11 6 19 18q13 22 13 69v165q0 58 7 83q20 77 133 77h65v-69l-36 -1q-41 -2 -54 -15q-9 -11 -12 -22q-4 -12 -4 -27v-195q0 -51 -15 -79
q-7 -15 -23 -28q-16 -14 -53 -25q37 -13 53 -27q37 -28 37 -106v-196q0 -12 5 -27q11 -37 66 -37h36v-69z" />
    <glyph glyph-name="bar" unicode="|" horiz-adv-x="229" 
d="M164 -153h-99v918h99v-918z" />
    <glyph glyph-name="braceright" unicode="}" horiz-adv-x="344" 
d="M328 269q-45 -2 -63 -13q-11 -6 -19 -18q-13 -22 -13 -69v-165q0 -58 -7 -83q-20 -77 -133 -77h-65v69l36 1q40 2 54 15q9 11 12 22q4 12 4 27v195q0 51 15 79q7 15 23 28q16 14 53 25q-37 13 -53 27q-37 28 -37 106v196q0 12 -5 27q-11 37 -66 37h-36v69h65
q77 0 111 -37q16 -16 22 -39q8 -29 8 -83v-165q0 -49 12 -69q10 -16 26.5 -22.5t55.5 -8.5v-74z" />
    <glyph glyph-name="asciitilde" unicode="~" 
d="M605 295q-65 -80 -138 -80q-38 0 -106 35t-102 35q-17 0 -30.5 -4.5t-26.5 -17t-18 -19t-20 -26.5l-40 71q56 85 132 85q40 0 114 -35t99 -35q49 0 98 62z" />
    <glyph glyph-name="exclamdown" unicode="&#xa1;" horiz-adv-x="292" 
d="M171 590h-101v101h101v-101zM171 0h-100v296l28 215h43l29 -213v-298z" />
    <glyph glyph-name="cent" unicode="&#xa2;" horiz-adv-x="688" 
d="M662 130q-44 -78 -108.5 -107t-151.5 -38v-105h-71v104q-78 3 -136 27.5t-89.5 63t-46.5 79t-16 84.5q-1 64 23.5 114t66.5 80.5t91.5 47t106.5 20.5v90h71v-89q104 -12 158.5 -45t96.5 -103l-92 -26q-26 48 -66 68t-97 30v-365l6 1q6 1 15.5 2.5t21.5 4.5t25.5 8
t27.5 11t27.5 16t23.5 21q10 10 21 30zM331 60v365q-102 -15 -146 -70t-42 -117q2 -63 45.5 -114t142.5 -64z" />
    <glyph glyph-name="sterling" unicode="&#xa3;" 
d="M707 230q0 -30 -1 -45q-5 -111 -69 -162q-42 -35 -105 -35q-34 0 -68.5 11.5t-57 23.5t-59.5 36q-3 -3 -12 -11.5t-15 -13.5q-62 -47 -150 -47q-74 0 -113 43q-27 30 -27 71q0 29 14 54q32 60 123 60q60 0 136 -35q0 12 -2 34q-3 32 -17 54t-43 54h-179v68h124
q-54 66 -54 132q0 92 73 147q74 56 197 56q95 0 156.5 -33.5t91.5 -78.5q26 -40 38 -115l-96 -22q-6 90 -69 133q-50 35 -123 35q-88 0 -134 -47q-33 -33 -33 -78q0 -39 39 -87q4 -5 12.5 -14t11.5 -12q2 -2 6.5 -7.5t6.5 -8.5h208v-69h-159q35 -66 35 -118q0 -17 -10 -67
q6 -4 17.5 -11t17.5 -10q58 -33 88 -37q9 -1 18 -1q32 0 53 19q17 15 26 41t10 44t1 49h93zM279 108q-3 1 -12.5 7t-15.5 9q-43 21 -85 21q-15 0 -26 -4q-32 -11 -32 -38q1 -24 22.5 -34.5t46.5 -10.5q59 0 102 50z" />
    <glyph glyph-name="currency" unicode="&#xa4;" horiz-adv-x="705" 
d="M657 566l-79 -75q51 -75 51 -151q0 -81 -52 -153l79 -77l-67 -63l-79 77q-48 -29 -81 -39t-78 -10t-78.5 10.5t-76.5 38.5l-81 -76l-66 63l80 76q-51 72 -51 153q0 83 52 151l-80 75l67 64l79 -75q73 49 158 49q87 0 157 -49l80 76zM535 338q0 79 -51.5 131.5
t-129.5 52.5q-77 0 -130 -52.5t-53 -129.5q0 -79 53 -131t132 -52q76 0 127.5 52t51.5 129z" />
    <glyph glyph-name="yen" unicode="&#xa5;" horiz-adv-x="812" 
d="M811 701l-256 -308h152v-73h-213l-41 -50v-9l254 -1v-75h-254v-185h-99v185h-254v74h254v14l-39 47h-215v73h155l-253 308h129l277 -349l275 349h128z" />
    <glyph glyph-name="brokenbar" unicode="&#xa6;" horiz-adv-x="229" 
d="M164 387h-99v378h99v-378zM164 -153h-99v378h99v-378z" />
    <glyph glyph-name="section" unicode="&#xa7;" horiz-adv-x="792" 
d="M734 255q0 -106 -109 -173q28 -40 28 -87q0 -39 -18 -71q-58 -101 -241 -101q-155 0 -336 92l72 81q118 -78 268 -78q22 0 43 2.5t45 9.5t39 23t15 39q0 49 -77 70q-42 12 -63 17q-10 2 -62.5 13t-80.5 19q-45 13 -54 16q-147 55 -147 178q0 111 113 179q-37 39 -37 89
q0 44 26 76t68 47.5t82 22.5t81 7q178 0 309 -90l-59 -77q-110 76 -260 76q-137 0 -137 -65q0 -17 16 -33q6 -6 16 -11.5t25 -10.5t29 -9.5t32.5 -9t29.5 -7.5t28.5 -6.5t20.5 -4.5q41 -8 89 -21q206 -53 206 -202zM635 248q0 71 -94 102q-33 11 -140 36t-161 51
q-82 -51 -82 -118q0 -29 14.5 -51t40 -34.5t49 -20t53.5 -14.5q7 -1 10 -2q20 -5 74 -15.5t91 -21t70 -26.5q75 50 75 114z" />
    <glyph glyph-name="dieresis" unicode="&#xa8;" horiz-adv-x="375" 
d="M368 569h-98v103h98v-103zM104 569h-97v103h97v-103z" />
    <glyph glyph-name="copyright" unicode="&#xa9;" horiz-adv-x="840" 
d="M776 354q0 -151 -103 -254t-254 -103q-148 0 -251.5 104t-103.5 252q0 149 104 252.5t253 103.5t252 -103.5t103 -251.5zM737 352q0 135 -92 228t-225 93q-131 0 -224 -94t-93 -227t92 -226t225 -93q132 0 224.5 93t92.5 226zM631 281q-21 -70 -74.5 -108t-132.5 -38
q-99 0 -160 58t-61 153q0 98 64.5 161t165.5 63q74 0 124 -33t70 -96l-68 -17q-34 86 -126 86q-72 0 -115.5 -43.5t-43.5 -115.5q0 -69 42 -111.5t111 -42.5q52 0 88 25.5t49 71.5z" />
    <glyph glyph-name="ordfeminine" unicode="&#xaa;" horiz-adv-x="479" 
d="M478 356q-45 -5 -57 -5q-25 0 -40.5 9t-20.5 18.5t-10 27.5q-16 -14 -20 -17q-58 -44 -147 -44h-10.5t-22 2.5t-31.5 6t-32.5 12.5t-30.5 21.5t-21 33t-9 45.5q0 107 143 107h179v13q0 26 -6 37q-20 35 -110 35q-95 0 -113 -45l-72 7q9 26 15 34q22 32 60.5 45t102.5 13
q134 0 173 -49q18 -21 18 -62v-158q0 -39 31 -39q16 0 31 3v-51zM349 522q-12 -2 -18 -2q-15 -2 -45 -2h-71q-34 0 -47.5 -0.5t-31.5 -6t-27 -17.5q-10 -12 -10 -28q0 -31 24 -48t70 -17q27 0 63 9t57 26q14 12 23 28q13 22 13 58z" />
    <glyph glyph-name="guillemotleft" unicode="&#xab;" horiz-adv-x="500" 
d="M448 54l-203 159v86l203 158v-63l-128 -139l128 -137v-64zM247 54l-203 159v85l203 159v-65l-128 -137l128 -137v-64z" />
    <glyph glyph-name="logicalnot" unicode="&#xac;" horiz-adv-x="772" 
d="M681 7h-99l1 246h-526v86h624v-332z" />
    <glyph glyph-name="registered" unicode="&#xae;" horiz-adv-x="840" 
d="M776 354q0 -151 -103 -254t-254 -103q-148 0 -251.5 104t-103.5 252q0 149 104 252.5t253 103.5t252 -103.5t103 -251.5zM738 352q0 135 -92 228t-226 93q-131 0 -224 -94t-93 -227t92 -226t225 -93q132 0 225 93t93 226zM611 147h-84l-124 175h-68v-175h-70v416h151
q104 0 137 -20q45 -28 45 -96q0 -53 -26 -81t-87 -40zM528 444q0 31 -19 47q-18 13 -75 13h-98v-122h96q52 0 74 15t22 47z" />
    <glyph glyph-name="macron" unicode="&#xaf;" horiz-adv-x="375" 
d="M368 569h-361v76h361v-76z" />
    <glyph glyph-name="degree" unicode="&#xb0;" horiz-adv-x="354" 
d="M338 594q0 -67 -47 -114.5t-114 -47.5t-114 47.5t-47 114.5t47 114t114 47q68 0 114.5 -46.5t46.5 -114.5zM256 596q0 33 -23 56t-56 23t-56 -23t-23 -56q0 -32 23.5 -55.5t55.5 -23.5q33 0 56 23t23 56z" />
    <glyph glyph-name="plusminus" unicode="&#xb1;" horiz-adv-x="772" 
d="M680 381h-245v-224h-98v224h-245v86h245v220h98v-220h245v-86zM680 0h-588v86h588v-86z" />
    <glyph glyph-name="twosuperior" unicode="&#xb2;" horiz-adv-x="458" 
d="M410 246h-363v68q80 35 155 80.5t96 69.5q31 34 31 74q0 34 -28 65.5t-83 30.5q-14 -1 -29.5 -5t-35.5 -14.5t-32.5 -33.5t-12.5 -56q0 -3 0.5 -7t0.5 -7l-70 10q0 38 12 69q17 44 61 72.5t110 28.5q89 0 133.5 -48.5t44.5 -104.5q0 -49 -32 -92q-31 -40 -99.5 -80
t-128.5 -65q38 5 41 5h229v-60z" />
    <glyph glyph-name="threesuperior" unicode="&#xb3;" horiz-adv-x="458" 
d="M417 373q0 -59 -48.5 -96t-138.5 -37q-128 0 -177 73q-13 19 -24 64l67 16q6 -31 12 -41q32 -52 126 -52q69 0 95 33q15 19 15 43q0 25 -12 42q-16 21 -46.5 26.5t-90.5 5.5h-21v54h33q34 0 50 1t34 7.5t28 19.5q10 12 10 33q0 30 -28 50.5t-75 20.5q-76 0 -103 -49
q-9 -17 -9 -42l-67 14q0 2 2 11t6.5 22.5t9.5 22.5q41 75 155 78q52 1 93.5 -14.5t62.5 -40.5q26 -31 26 -71q0 -48 -41 -76q-13 -9 -22 -9q37 -11 57.5 -42.5t20.5 -66.5z" />
    <glyph glyph-name="acute" unicode="&#xb4;" horiz-adv-x="375" 
d="M285 688l-129 -137h-66l70 137h125z" />
    <glyph glyph-name="mu" unicode="&#xb5;" horiz-adv-x="742" 
d="M736 0q-16 -2 -17 -2q-47 -4 -58 -4q-50 0 -73.5 17t-28.5 57q-89 -85 -209 -85q-108 0 -181 54v-232h-94v683h94v-246q0 -63 11 -92q16 -40 59.5 -61.5t106.5 -21.5q101 0 165 54q29 25 36 58q4 16 4 45v263h95v-359q0 -35 12.5 -50t43.5 -15q22 0 34 3v-66z" />
    <glyph glyph-name="paragraph" unicode="&#xb6;" horiz-adv-x="636" 
d="M542 641h-34v-807h-69v807h-149v-807h-70v487q-46 11 -74 29q-78 48 -78 156q0 89 56 145q56 55 171 55h247v-65z" />
    <glyph glyph-name="periodcentered" unicode="&#xb7;" horiz-adv-x="250" 
d="M179 188h-110v109h110v-109z" />
    <glyph glyph-name="cedilla" unicode="&#xb8;" horiz-adv-x="375" 
d="M297 -130q-1 -36 -33 -62.5t-95 -26.5q-51 0 -91 10l18 47q2 0 12 -2.5t22.5 -4t23.5 -1.5q25 0 39 7q19 10 19 30q0 12 -10 20q-20 17 -79 12l43 110h57l-25 -63h6q7 -1 11.5 -1.5t12.5 -1.5t14.5 -3.5t14.5 -6t14.5 -9.5t12.5 -13q13 -18 13 -41z" />
    <glyph glyph-name="onesuperior" unicode="&#xb9;" horiz-adv-x="458" 
d="M284 246h-70v338q-38 -17 -112 -17h-9v49q56 1 87 18.5t51 54.5h53v-443z" />
    <glyph glyph-name="ordmasculine" unicode="&#xba;" horiz-adv-x="500" 
d="M468 530q0 -17 -3.5 -34.5t-14 -43.5t-37 -49.5t-65.5 -38.5q-45 -16 -96 -16q-109 0 -166 53t-57 125q0 31 11 61.5t33.5 59.5t66 47t100.5 18h11q111 0 164 -56t53 -126zM397 532q0 47 -36.5 84t-108.5 37q-35 0 -66 -10q-42 -14 -63.5 -45t-21.5 -69q0 -47 37 -83
t109 -37q77 -1 113.5 36t36.5 87z" />
    <glyph glyph-name="guillemotright" unicode="&#xbb;" horiz-adv-x="500" 
d="M454 212l-202 -159v64l128 138l-128 137v65l202 -159v-86zM253 213l-202 -161v64l129 139l-129 137v64l202 -160v-83z" />
    <glyph glyph-name="onequarter" unicode="&#xbc;" horiz-adv-x="1042" 
d="M1013 104h-86v-104h-67v104h-255v57l267 281h55v-279h86v-59zM760 670l-432 -682l-49 30l432 683zM284 246h-70v338q-38 -17 -112 -17h-9v49q56 1 87 18.5t51 54.5h53v-443zM866 361q-8 -13 -18 -26l-164 -173h176v141q0 10 6 58z" />
    <glyph glyph-name="onehalf" unicode="&#xbd;" horiz-adv-x="1042" 
d="M994 0h-364v69q79 35 153.5 80t97.5 69q31 36 31 75q0 34 -27.5 65t-83.5 30q-19 0 -41 -6.5t-45 -33t-23 -69.5v-14l-69 10q0 42 11 70q18 43 61.5 71.5t109.5 28.5q90 0 134 -48.5t44 -104.5q0 -53 -32 -92q-31 -40 -101.5 -81t-126.5 -63q30 4 41 4h230v-60zM716 670
l-432 -682l-49 30l431 683zM284 246h-70v338q-38 -17 -112 -17h-9v49q56 1 87 18.5t51 54.5h53v-443z" />
    <glyph glyph-name="threequarters" unicode="&#xbe;" horiz-adv-x="1042" 
d="M1013 104h-86v-104h-67v104h-255v57l267 281h55v-279h86v-59zM804 670l-432 -682l-49 30l432 683zM417 373q0 -59 -48.5 -96t-138.5 -37q-128 0 -177 73q-13 19 -24 64l67 16q6 -31 12 -41q32 -52 126 -52q69 0 95 33q15 19 15 43q0 25 -12 42q-16 21 -46.5 26.5
t-90.5 5.5h-21v54h33q34 0 50 1t34 7.5t28 19.5q10 12 10 33q0 30 -28 50.5t-75 20.5q-76 0 -103 -49q-9 -17 -9 -42l-67 14q0 2 2 11t6.5 22.5t9.5 22.5q41 75 155 78q52 1 93.5 -14.5t62.5 -40.5q26 -31 26 -71q0 -48 -41 -76q-13 -9 -22 -9q37 -11 57.5 -42.5t20.5 -66.5
zM866 361q-8 -13 -18 -26l-164 -173h176v141q0 10 6 58z" />
    <glyph glyph-name="questiondown" unicode="&#xbf;" horiz-adv-x="667" 
d="M401 606h-101v100h101v-100zM599 202q-20 -80 -63 -128q-50 -57 -136 -79q-50 -12 -97 -12q-155 0 -232 98q-44 55 -44 122q0 45 21 80q12 20 28 36t41 30t37.5 19.5t45.5 19.5q75 31 94 52q18 22 18 85h74v-38q0 -58 -14 -85q-17 -32 -78 -58q-79 -33 -106 -49
q-58 -36 -58 -100q0 -35 19 -64q23 -35 67 -53.5t91 -18.5q55 0 101.5 23t74.5 67q16 27 28 70z" />
    <glyph glyph-name="Agrave" unicode="&#xc0;" horiz-adv-x="833" 
d="M468 755h-66l-120 126h125zM834 0h-116l-86 174h-434l-86 -174h-113l366 706h107zM589 255l-173 350l-176 -350h349z" />
    <glyph glyph-name="Aacute" unicode="&#xc1;" horiz-adv-x="833" 
d="M557 878l-126 -125h-65l64 125h127zM834 0h-116l-86 174h-434l-86 -174h-113l366 706h107zM589 255l-173 350l-176 -350h349z" />
    <glyph glyph-name="Acircumflex" unicode="&#xc2;" horiz-adv-x="833" 
d="M578 753h-82l-81 69l-82 -70h-79l107 125h107zM834 0h-116l-86 174h-434l-86 -174h-113l366 706h107zM589 255l-173 350l-176 -350h349z" />
    <glyph glyph-name="Atilde" unicode="&#xc3;" horiz-adv-x="833" 
d="M609 815q-26 -18 -40 -27.5t-36 -18.5t-40 -9q-25 0 -77 20t-78 20q-30 0 -73 -34l-36 44q75 61 121 61q26 0 77 -20t76 -20q27 0 71 29zM834 0h-116l-86 174h-434l-86 -174h-113l366 706h107zM589 255l-173 350l-176 -350h349z" />
    <glyph glyph-name="Adieresis" unicode="&#xc4;" horiz-adv-x="833" 
d="M590 774h-98v103h98v-103zM327 774h-97v103h97v-103zM834 0h-116l-86 174h-434l-86 -174h-113l366 706h107zM589 255l-173 350l-176 -350h349z" />
    <glyph glyph-name="Aring" unicode="&#xc5;" horiz-adv-x="833" 
d="M530 834q0 -18 -8 -36q-10 -23 -37 -41.5t-70 -18.5q-25 0 -48 7q-32 10 -51 34t-19 57q0 24 10 41q28 50 108 52q21 0 43 -6q33 -9 53 -32.5t19 -56.5zM834 0h-116l-86 174h-434l-86 -174h-113l366 706h107zM469 835q0 10 -5 20q-14 28 -52 27q-29 -1 -42 -16.5
t-13 -31.5q0 -12 7 -23q14 -24 51 -24q22 0 38 13t16 35zM589 255l-173 350l-176 -350h349z" />
    <glyph glyph-name="AE" unicode="&#xc6;" horiz-adv-x="1125" 
d="M1094 0h-570v170h-294l-113 -170h-117l486 706h602v-86h-464v-212h436v-82h-436v-238h470v-88zM525 252v361l-241 -361h241z" />
    <glyph glyph-name="Ccedilla" unicode="&#xc7;" horiz-adv-x="917" 
d="M887 193q-40 -70 -80 -106q-41 -37 -94 -60.5t-105.5 -31.5t-74.5 -10t-42 -2l-11 -32q66 0 95 -34q17 -20 17 -49q0 -47 -41 -75t-112 -28q-37 0 -90 10l20 51q43 -10 65 -10q30 0 48.5 11.5t18.5 30.5q0 42 -67 42q-11 0 -31 -2l30 86q-80 7 -130 23
q-125 41 -188.5 133t-65.5 209q-3 179 121 281q48 39 97 60q91 37 208 37q164 0 271 -68q30 -19 71 -60q33 -37 55 -77l-107 -23q-29 49 -58 72q-82 68 -228 68q-64 0 -120 -15.5t-103 -47t-74 -87t-27 -129.5q0 -52 15.5 -99t50.5 -92t103 -72t162 -27q176 0 260 95
q8 10 15.5 20.5t13 19t6.5 10.5z" />
    <glyph glyph-name="Egrave" unicode="&#xc8;" horiz-adv-x="792" 
d="M468 755h-66l-120 126h125zM762 0h-677v706h651v-87h-551v-210h537v-84h-537v-238h577v-87z" />
    <glyph glyph-name="Eacute" unicode="&#xc9;" horiz-adv-x="792" 
d="M557 878l-126 -125h-65l64 125h127zM762 0h-677v706h651v-87h-551v-210h537v-84h-537v-238h577v-87z" />
    <glyph glyph-name="Ecircumflex" unicode="&#xca;" horiz-adv-x="792" 
d="M578 753h-82l-81 69l-82 -70h-79l107 125h107zM762 0h-677v706h651v-87h-551v-210h537v-84h-537v-238h577v-87z" />
    <glyph glyph-name="Edieresis" unicode="&#xcb;" horiz-adv-x="792" 
d="M589 773h-97v103h97v-103zM326 774h-97v103h97v-103zM762 0h-677v706h651v-87h-551v-210h537v-84h-537v-238h577v-87z" />
    <glyph glyph-name="Igrave" unicode="&#xcc;" horiz-adv-x="271" 
d="M186 755h-65l-120 126h125zM186 0h-102v706h102v-706z" />
    <glyph glyph-name="Iacute" unicode="&#xcd;" horiz-adv-x="271" 
d="M276 878l-126 -125h-65l64 125h127zM186 0h-102v706h102v-706z" />
    <glyph glyph-name="Icircumflex" unicode="&#xce;" horiz-adv-x="271" 
d="M297 753h-82l-81 69l-82 -70h-79l107 125h107zM186 0h-102v706h102v-706z" />
    <glyph glyph-name="Idieresis" unicode="&#xcf;" horiz-adv-x="271" 
d="M308 773h-97v103h97v-103zM45 774h-97v103h97v-103zM186 0h-102v706h102v-706z" />
    <glyph glyph-name="Eth" unicode="&#xd0;" horiz-adv-x="875" 
d="M823 363q2 -116 -57 -207q-28 -45 -69 -76.5t-76.5 -46.5t-89.5 -23t-82.5 -9t-81.5 -1h-282v343h-85v68h85v295h351q92 0 138 -12q123 -31 185.5 -123t63.5 -208zM721 356q1 86 -41 159t-133 98q-36 10 -111 10h-250v-212h324v-68h-324v-258h206q99 0 153 17
q90 29 132.5 98t43.5 156z" />
    <glyph glyph-name="Ntilde" unicode="&#xd1;" horiz-adv-x="917" 
d="M651 815q-26 -18 -40 -27.5t-36 -18.5t-40 -9q-26 0 -78 20t-78 20q-29 0 -72 -34l-36 44q75 61 121 61q25 0 76 -20t77 -20q27 0 71 29zM829 0h-98l-553 584l2 -584h-96v706h103l549 -583l-3 583h96v-706z" />
    <glyph glyph-name="Ograve" unicode="&#xd2;" horiz-adv-x="958" 
d="M530 755h-66l-120 126h125zM906 343q0 -145 -92 -240q-47 -49 -131 -85.5t-203 -36.5q-53 0 -108 9q-187 27 -273 165q-51 83 -51 190q0 136 71 225q19 25 51 51q122 102 304 102q122 0 219 -45q95 -44 151 -124q62 -90 62 -211zM805 353q0 68 -26 123q-21 46 -59 79
t-73.5 48.5t-78.5 24t-64 9.5t-42 0q-154 -5 -239 -90q-40 -40 -59 -95q-16 -47 -16 -103q0 -98 51 -167q22 -29 56 -53q86 -61 227 -61q66 0 119 14q76 20 126.5 69t68.5 123q9 42 9 79z" />
    <glyph glyph-name="Oacute" unicode="&#xd3;" horiz-adv-x="958" 
d="M620 878l-126 -125h-65l64 125h127zM906 343q0 -145 -92 -240q-47 -49 -131 -85.5t-203 -36.5q-53 0 -108 9q-187 27 -273 165q-51 83 -51 190q0 136 71 225q19 25 51 51q122 102 304 102q122 0 219 -45q95 -44 151 -124q62 -90 62 -211zM805 353q0 68 -26 123
q-21 46 -59 79t-73.5 48.5t-78.5 24t-64 9.5t-42 0q-154 -5 -239 -90q-40 -40 -59 -95q-16 -47 -16 -103q0 -98 51 -167q22 -29 56 -53q86 -61 227 -61q66 0 119 14q76 20 126.5 69t68.5 123q9 42 9 79z" />
    <glyph glyph-name="Ocircumflex" unicode="&#xd4;" horiz-adv-x="958" 
d="M640 753h-82l-80 69l-83 -70h-79l108 125h107zM906 343q0 -145 -92 -240q-47 -49 -131 -85.5t-203 -36.5q-53 0 -108 9q-187 27 -273 165q-51 83 -51 190q0 136 71 225q19 25 51 51q122 102 304 102q122 0 219 -45q95 -44 151 -124q62 -90 62 -211zM805 353q0 68 -26 123
q-21 46 -59 79t-73.5 48.5t-78.5 24t-64 9.5t-42 0q-154 -5 -239 -90q-40 -40 -59 -95q-16 -47 -16 -103q0 -98 51 -167q22 -29 56 -53q86 -61 227 -61q66 0 119 14q76 20 126.5 69t68.5 123q9 42 9 79z" />
    <glyph glyph-name="Otilde" unicode="&#xd5;" horiz-adv-x="958" 
d="M671 815q-75 -55 -115 -55q-26 0 -78 20t-78 20q-30 0 -72 -34l-36 44q75 61 120 61q26 0 77 -20t76 -20q26 0 72 29zM906 343q0 -145 -92 -240q-47 -49 -131 -85.5t-203 -36.5q-53 0 -108 9q-187 27 -273 165q-51 83 -51 190q0 136 71 225q19 25 51 51q122 102 304 102
q122 0 219 -45q95 -44 151 -124q62 -90 62 -211zM805 353q0 68 -26 123q-21 46 -59 79t-73.5 48.5t-78.5 24t-64 9.5t-42 0q-154 -5 -239 -90q-40 -40 -59 -95q-16 -47 -16 -103q0 -98 51 -167q22 -29 56 -53q86 -61 227 -61q66 0 119 14q76 20 126.5 69t68.5 123q9 42 9 79
z" />
    <glyph glyph-name="Odieresis" unicode="&#xd6;" horiz-adv-x="958" 
d="M650 772h-97v103h97v-103zM387 772h-97v103h97v-103zM906 343q0 -145 -92 -240q-47 -49 -131 -85.5t-203 -36.5q-53 0 -108 9q-187 27 -273 165q-51 83 -51 190q0 136 71 225q19 25 51 51q122 102 304 102q122 0 219 -45q95 -44 151 -124q62 -90 62 -211zM805 353
q0 68 -26 123q-21 46 -59 79t-73.5 48.5t-78.5 24t-64 9.5t-42 0q-154 -5 -239 -90q-40 -40 -59 -95q-16 -47 -16 -103q0 -98 51 -167q22 -29 56 -53q86 -61 227 -61q66 0 119 14q76 20 126.5 69t68.5 123q9 42 9 79z" />
    <glyph glyph-name="multiply" unicode="&#xd7;" horiz-adv-x="772" 
d="M629 137l-72 -70l-175 165l-171 -166l-64 60l171 166l-177 166l72 70l177 -166l171 166l64 -60l-171 -166z" />
    <glyph glyph-name="Oslash" unicode="&#xd8;" horiz-adv-x="979" 
d="M944 656l-98 -77q7 -11 21 -31q59 -94 58 -193q0 -158 -111 -262q-118 -110 -320 -110q-132 0 -229 45q-25 11 -68 39l-101 -80l-45 60l88 69q-87 107 -87 236q0 155 108 258q120 114 324 114q139 0 244 -55q26 -13 62 -40l108 86zM827 355q0 78 -32 135q-5 9 -22 32
l-503 -397q37 -21 63 -31q70 -27 155 -27q130 0 220 56q119 76 119 232zM719 574q-23 16 -39 24q-79 42 -193 42q-112 0 -185.5 -38.5t-107.5 -90.5q-44 -65 -44 -158q0 -82 37 -145q12 -19 25 -35z" />
    <glyph glyph-name="Ugrave" unicode="&#xd9;" horiz-adv-x="896" 
d="M499 755h-66l-120 126h125zM808 281q0 -85 -20 -132q-38 -91 -131.5 -128.5t-208.5 -37.5q-164 0 -263 69q-45 31 -71 78q-30 56 -30 161v415h101v-419q0 -44 4 -66q5 -30 17.5 -52.5t23 -31.5t27.5 -20q75 -47 192 -47q132 0 200 50q29 22 42 51q16 33 16 103v432h101
v-425z" />
    <glyph glyph-name="Uacute" unicode="&#xda;" horiz-adv-x="896" 
d="M588 878l-126 -125h-65l65 125h126zM808 281q0 -85 -20 -132q-38 -91 -131.5 -128.5t-208.5 -37.5q-164 0 -263 69q-45 31 -71 78q-30 56 -30 161v415h101v-419q0 -44 4 -66q5 -30 17.5 -52.5t23 -31.5t27.5 -20q75 -47 192 -47q132 0 200 50q29 22 42 51q16 33 16 103
v432h101v-425z" />
    <glyph glyph-name="Ucircumflex" unicode="&#xdb;" horiz-adv-x="896" 
d="M609 753h-82l-81 69l-82 -70h-79l107 125h107zM808 281q0 -85 -20 -132q-38 -91 -131.5 -128.5t-208.5 -37.5q-164 0 -263 69q-45 31 -71 78q-30 56 -30 161v415h101v-419q0 -44 4 -66q5 -30 17.5 -52.5t23 -31.5t27.5 -20q75 -47 192 -47q132 0 200 50q29 22 42 51
q16 33 16 103v432h101v-425z" />
    <glyph glyph-name="Udieresis" unicode="&#xdc;" horiz-adv-x="896" 
d="M621 774h-98v103h98v-103zM358 774h-98v103h98v-103zM808 281q0 -85 -20 -132q-38 -91 -131.5 -128.5t-208.5 -37.5q-164 0 -263 69q-45 31 -71 78q-30 56 -30 161v415h101v-419q0 -44 4 -66q5 -30 17.5 -52.5t23 -31.5t27.5 -20q75 -47 192 -47q132 0 200 50
q29 22 42 51q16 33 16 103v432h101v-425z" />
    <glyph glyph-name="Yacute" unicode="&#xdd;" horiz-adv-x="812" 
d="M547 878l-126 -125h-65l64 125h127zM811 706l-358 -433v-273h-99v275l-352 431h129l273 -346l279 346h128z" />
    <glyph glyph-name="Thorn" unicode="&#xde;" horiz-adv-x="812" 
d="M798 374q0 -105 -74 -161q-29 -22 -68 -33.5t-64 -13t-68 -1.5h-339v-165h-102v706h101v-117h330q37 0 61.5 -2t60.5 -9.5t66.5 -27t54.5 -50.5q41 -52 41 -126zM689 377q0 46 -24 77q-19 23 -49 35t-52.5 13.5t-64.5 1.5h-315v-254h326q66 0 101.5 12t58.5 46
q19 30 19 69z" />
    <glyph glyph-name="germandbls" unicode="&#xdf;" 
d="M681 231q0 -180 -133 -226q-43 -15 -101 -15q-26 0 -66 5l-7 1q-8 1 -13 2.5t-14.5 3.5t-17 5t-17.5 7.5t-18.5 10t-16.5 12.5t-15 16.5t-12 20.5q-11 23 -13 87h94q0 -16 1 -23q5 -39 32 -57q28 -18 74 -18q56 0 90 24q55 37 55 135q0 93 -41 129q-29 25 -77.5 30.5
t-142.5 1.5v74q134 -2 172 19q42 24 42 74q0 37 -26 59q-41 36 -154 36q-94 0 -141 -34q-21 -14 -30 -32q-14 -23 -14 -91v-488h-96v492q0 77 14 111q50 117 274 117q112 0 177 -26q17 -7 32 -17q66 -44 66 -118q0 -79 -63 -110q-6 -3 -36 -13q36 -9 61 -22q81 -45 81 -183z
" />
    <glyph glyph-name="agrave" unicode="&#xe0;" horiz-adv-x="688" 
d="M410 551h-64l-128 137h126zM681 0q-70 -5 -84 -5q-29 0 -48.5 7t-28.5 21.5t-12 25.5t-5 29q-11 -18 -23 -29q-69 -67 -210 -67q-24 0 -69 5q-80 13 -124 62q-38 44 -38 101q0 55 27.5 86.5t58.5 44.5q32 14 83 18t155 5l139 1q0 24 -0.5 33t-4 27t-13 29t-25.5 20
q-38 20 -119 20q-107 0 -151 -35q-10 -8 -22 -29l-96 9q6 24 22 48q23 33 63 50q64 26 179 26q79 0 139 -15q65 -15 93 -53q24 -32 24 -102v-178q0 -50 4 -63q10 -29 51 -29q8 0 35 3v-66zM503 231h-179q-114 0 -149 -17q-41 -19 -41 -63q0 -39 36.5 -67.5t104.5 -28.5
q27 0 63 6q107 16 147 90q14 27 18 80z" />
    <glyph glyph-name="aacute" unicode="&#xe1;" horiz-adv-x="688" 
d="M494 688l-129 -137h-66l69 137h126zM681 0q-70 -5 -84 -5q-29 0 -48.5 7t-28.5 21.5t-12 25.5t-5 29q-11 -18 -23 -29q-69 -67 -210 -67q-24 0 -69 5q-80 13 -124 62q-38 44 -38 101q0 55 27.5 86.5t58.5 44.5q32 14 83 18t155 5l139 1q0 24 -0.5 33t-4 27t-13 29
t-25.5 20q-38 20 -119 20q-107 0 -151 -35q-10 -8 -22 -29l-96 9q6 24 22 48q23 33 63 50q64 26 179 26q79 0 139 -15q65 -15 93 -53q24 -32 24 -102v-178q0 -50 4 -63q10 -29 51 -29q8 0 35 3v-66zM503 231h-179q-114 0 -149 -17q-41 -19 -41 -63q0 -39 36.5 -67.5
t104.5 -28.5q27 0 63 6q107 16 147 90q14 27 18 80z" />
    <glyph glyph-name="acircumflex" unicode="&#xe2;" horiz-adv-x="688" 
d="M506 552h-82l-81 76l-77 -77h-82l106 138h107zM681 0q-70 -5 -84 -5q-29 0 -48.5 7t-28.5 21.5t-12 25.5t-5 29q-11 -18 -23 -29q-69 -67 -210 -67q-24 0 -69 5q-80 13 -124 62q-38 44 -38 101q0 55 27.5 86.5t58.5 44.5q32 14 83 18t155 5l139 1q0 24 -0.5 33t-4 27
t-13 29t-25.5 20q-38 20 -119 20q-107 0 -151 -35q-10 -8 -22 -29l-96 9q6 24 22 48q23 33 63 50q64 26 179 26q79 0 139 -15q65 -15 93 -53q24 -32 24 -102v-178q0 -50 4 -63q10 -29 51 -29q8 0 35 3v-66zM503 231h-179q-114 0 -149 -17q-41 -19 -41 -63q0 -39 36.5 -67.5
t104.5 -28.5q27 0 63 6q107 16 147 90q14 27 18 80z" />
    <glyph glyph-name="atilde" unicode="&#xe3;" horiz-adv-x="688" 
d="M534 610q-75 -55 -116 -55q-25 0 -77 20t-78 20q-20 0 -34.5 -8t-38.5 -27l-35 45q27 21 41.5 31t36.5 20t42 10q30 0 81 -21q48 -20 70 -20q29 0 74 30zM681 0q-70 -5 -84 -5q-29 0 -48.5 7t-28.5 21.5t-12 25.5t-5 29q-11 -18 -23 -29q-69 -67 -210 -67q-24 0 -69 5
q-80 13 -124 62q-38 44 -38 101q0 55 27.5 86.5t58.5 44.5q32 14 83 18t155 5l139 1q0 24 -0.5 33t-4 27t-13 29t-25.5 20q-38 20 -119 20q-107 0 -151 -35q-10 -8 -22 -29l-96 9q6 24 22 48q23 33 63 50q64 26 179 26q79 0 139 -15q65 -15 93 -53q24 -32 24 -102v-178
q0 -50 4 -63q10 -29 51 -29q8 0 35 3v-66zM503 231h-179q-114 0 -149 -17q-41 -19 -41 -63q0 -39 36.5 -67.5t104.5 -28.5q27 0 63 6q107 16 147 90q14 27 18 80z" />
    <glyph glyph-name="adieresis" unicode="&#xe4;" horiz-adv-x="688" 
d="M528 568h-97v103h97v-103zM265 567h-97v104h97v-104zM681 0q-70 -5 -84 -5q-29 0 -48.5 7t-28.5 21.5t-12 25.5t-5 29q-11 -18 -23 -29q-69 -67 -210 -67q-24 0 -69 5q-80 13 -124 62q-38 44 -38 101q0 55 27.5 86.5t58.5 44.5q32 14 83 18t155 5l139 1q0 24 -0.5 33
t-4 27t-13 29t-25.5 20q-38 20 -119 20q-107 0 -151 -35q-10 -8 -22 -29l-96 9q6 24 22 48q23 33 63 50q64 26 179 26q79 0 139 -15q65 -15 93 -53q24 -32 24 -102v-178q0 -50 4 -63q10 -29 51 -29q8 0 35 3v-66zM503 231h-179q-114 0 -149 -17q-41 -19 -41 -63
q0 -39 36.5 -67.5t104.5 -28.5q27 0 63 6q107 16 147 90q14 27 18 80z" />
    <glyph glyph-name="aring" unicode="&#xe5;" horiz-adv-x="688" 
d="M469 643q0 -21 -7 -36q-10 -23 -37 -41t-71 -18q-25 0 -48 7q-31 10 -50.5 33.5t-19.5 56.5q0 25 11 41q29 52 107 52q20 0 43 -6q32 -9 52 -32.5t20 -56.5zM681 0q-70 -5 -84 -5q-29 0 -48.5 7t-28.5 21.5t-12 25.5t-5 29q-11 -18 -23 -29q-69 -67 -210 -67q-24 0 -69 5
q-80 13 -124 62q-38 44 -38 101q0 55 27.5 86.5t58.5 44.5q32 14 83 18t155 5l139 1q0 24 -0.5 33t-4 27t-13 29t-25.5 20q-38 20 -119 20q-107 0 -151 -35q-10 -8 -22 -29l-96 9q6 24 22 48q23 33 63 50q64 26 179 26q79 0 139 -15q65 -15 93 -53q24 -32 24 -102v-178
q0 -50 4 -63q10 -29 51 -29q8 0 35 3v-66zM408 644q0 10 -5 21q-15 27 -52 26q-29 -1 -42 -16.5t-13 -31.5q0 -11 7 -23q14 -24 51 -24q22 0 38 13t16 35zM503 231h-179q-114 0 -149 -17q-41 -19 -41 -63q0 -39 36.5 -67.5t104.5 -28.5q27 0 63 6q107 16 147 90q14 27 18 80
z" />
    <glyph glyph-name="ae" unicode="&#xe6;" horiz-adv-x="1146" 
d="M1100 234h-496q5 -44 19 -70q29 -52 83.5 -76.5t107.5 -24.5q103 0 159 66q4 5 8.5 11.5t7.5 11t5.5 8.5t2.5 5l90 -23q-19 -38 -36 -58q-44 -52 -109.5 -75t-127.5 -23q-136 0 -220 72q-13 10 -34 34q-32 -33 -49 -45q-85 -63 -223 -64q-146 -1 -209 69q-39 43 -39 103
q0 49 25 83q30 41 76.5 54.5t130.5 13.5h239q0 64 -42.5 92.5t-135.5 30.5q-136 2 -171 -67l-95 11q12 31 23 46q59 81 239 81q144 0 211 -48q15 -12 33 -32q24 22 27 24q75 58 195 58q126 0 211 -67.5t94 -200.5zM988 305q-14 53 -60 88.5t-125 35.5q-114 0 -170 -73
q-12 -17 -26 -51h381zM510 234h-154q-144 0 -170 -11q-25 -10 -38 -30q-12 -17 -12 -40q0 -95 159 -95q150 0 197 87q13 24 18 89z" />
    <glyph glyph-name="ccedilla" unicode="&#xe7;" horiz-adv-x="688" 
d="M662 130q-19 -32 -32 -47q-64 -73 -182 -93q-5 -1 -61 -6l-16 -38q20 -1 30.5 -3t27.5 -10t28 -22q13 -17 13 -42q-2 -39 -35 -63.5t-92 -24.5q-37 0 -92 10l19 47q41 -8 58 -8q35 0 52 18q6 6 6 19q0 33 -62 33q-18 0 -27 -1l33 85q-9 0 -21 0.5t-44.5 7t-61 17.5
t-62.5 34.5t-56 56.5q-41 61 -42 142q0 88 48 148q87 112 277 112q179 0 265 -111q7 -8 24 -37l-91 -26q-15 29 -42 49.5t-49.5 30t-51.5 14.5t-37 5h-17q-90 0 -158 -49t-67 -142q1 -46 22 -81.5t55 -55.5t71.5 -30t75.5 -10q101 0 162 48q22 19 41 47z" />
    <glyph glyph-name="egrave" unicode="&#xe8;" horiz-adv-x="688" 
d="M410 551h-64l-128 137h126zM643 233h-501q6 -39 16.5 -64t34.5 -48q63 -60 163 -60q99 0 156 61q12 13 30 45l91 -25q-12 -26 -25 -44q-34 -49 -96 -78q-73 -35 -169 -35q-126 0 -212 69t-87 194q0 46 17 91q14 37 38.5 65.5t48 44.5t52.5 28t46 15.5t34 6.5q28 5 61 5
q159 0 245 -109q47 -59 55 -125q2 -13 2 -37zM536 304q-23 65 -72 97q-25 16 -52 24q-26 8 -65 8q-125 0 -183 -92q-10 -15 -19 -37h391z" />
    <glyph glyph-name="eacute" unicode="&#xe9;" horiz-adv-x="688" 
d="M494 688l-129 -137h-66l69 137h126zM643 233h-501q6 -39 16.5 -64t34.5 -48q63 -60 163 -60q99 0 156 61q12 13 30 45l91 -25q-12 -26 -25 -44q-34 -49 -96 -78q-73 -35 -169 -35q-126 0 -212 69t-87 194q0 46 17 91q14 37 38.5 65.5t48 44.5t52.5 28t46 15.5t34 6.5
q28 5 61 5q159 0 245 -109q47 -59 55 -125q2 -13 2 -37zM536 304q-23 65 -72 97q-25 16 -52 24q-26 8 -65 8q-125 0 -183 -92q-10 -15 -19 -37h391z" />
    <glyph glyph-name="ecircumflex" unicode="&#xea;" horiz-adv-x="688" 
d="M506 552h-82l-81 76l-77 -77h-82l106 138h107zM643 233h-501q6 -39 16.5 -64t34.5 -48q63 -60 163 -60q99 0 156 61q12 13 30 45l91 -25q-12 -26 -25 -44q-34 -49 -96 -78q-73 -35 -169 -35q-126 0 -212 69t-87 194q0 46 17 91q14 37 38.5 65.5t48 44.5t52.5 28t46 15.5
t34 6.5q28 5 61 5q159 0 245 -109q47 -59 55 -125q2 -13 2 -37zM536 304q-23 65 -72 97q-25 16 -52 24q-26 8 -65 8q-125 0 -183 -92q-10 -15 -19 -37h391z" />
    <glyph glyph-name="edieresis" unicode="&#xeb;" horiz-adv-x="688" 
d="M519 569h-97v103h97v-103zM256 569h-97v103h97v-103zM643 233h-501q6 -39 16.5 -64t34.5 -48q63 -60 163 -60q99 0 156 61q12 13 30 45l91 -25q-12 -26 -25 -44q-34 -49 -96 -78q-73 -35 -169 -35q-126 0 -212 69t-87 194q0 46 17 91q14 37 38.5 65.5t48 44.5t52.5 28
t46 15.5t34 6.5q28 5 61 5q159 0 245 -109q47 -59 55 -125q2 -13 2 -37zM536 304q-23 65 -72 97q-25 16 -52 24q-26 8 -65 8q-125 0 -183 -92q-10 -15 -19 -37h391z" />
    <glyph glyph-name="igrave" unicode="&#xec;" horiz-adv-x="250" 
d="M192 551h-65l-127 137h125zM172 0h-95v488h95v-488z" />
    <glyph glyph-name="iacute" unicode="&#xed;" horiz-adv-x="250" 
d="M275 688l-129 -137h-66l69 137h126zM172 0h-95v488h95v-488z" />
    <glyph glyph-name="icircumflex" unicode="&#xee;" horiz-adv-x="250" 
d="M287 552h-81l-82 76l-76 -77h-82l105 138h108zM172 0h-95v488h95v-488z" />
    <glyph glyph-name="idieresis" unicode="&#xef;" horiz-adv-x="250" 
d="M301 569h-97v103h97v-103zM38 569h-98v103h98v-103zM172 0h-95v488h95v-488z" />
    <glyph glyph-name="eth" unicode="&#xf0;" 
d="M683 269q0 -113 -65 -185q-39 -44 -90 -68q-66 -31 -163 -31q-128 0 -205 49q-27 16 -51 42q-63 63 -64 156q-1 74 38 135q36 57 108 95t171 38q118 0 187 -59q-21 46 -73 104q-13 14 -48 42l-197 -49l-23 48l165 42q-19 13 -51.5 32.5t-49.5 30.5l103 24q38 -22 65 -40
q6 -4 15.5 -11.5t15.5 -11.5l146 37l27 -48l-122 -30q36 -36 55 -58q108 -131 106 -284zM587 243q0 50 -26 90q-60 91 -203 89q-38 0 -74 -9q-65 -17 -103 -62.5t-40 -105.5q-1 -50 24 -89q59 -92 204 -92q51 0 99 17.5t83.5 60t35.5 101.5z" />
    <glyph glyph-name="ntilde" unicode="&#xf1;" 
d="M555 610q-75 -55 -116 -55q-25 0 -77 20t-78 20q-20 0 -34.5 -8t-38.5 -27l-35 45q28 22 41.5 31.5t36 19.5t42.5 10q30 0 81 -21q48 -20 70 -20q14 0 27 4.5t20.5 9t26.5 16.5zM649 0h-94v258q0 51 -13 80q-36 83 -168 83q-49 0 -95 -16q-72 -29 -94 -87
q-12 -31 -12 -86v-232h-95v488h95v-59q40 33 74 47q63 26 144 26q89 0 153.5 -33t88.5 -89q16 -38 16 -116v-264z" />
    <glyph glyph-name="ograve" unicode="&#xf2;" 
d="M431 551h-64l-128 137h126zM682 242q0 -71 -34 -126q-32 -52 -103 -91.5t-180 -39.5q-73 0 -131 17q-18 5 -37 13t-48 27.5t-50.5 43t-37.5 63t-16 85.5q0 74 38 135q28 44 70.5 73t87.5 40t71 14.5t50 3.5q103 0 179 -36q27 -12 50 -31q21 -17 41 -40q50 -61 50 -151z
M587 244q0 47 -23 85q-56 93 -206 93q-99 -2 -158 -53q-59 -50 -59 -129q0 -52 29 -92q62 -84 200 -84q78 0 137 38q80 50 80 142z" />
    <glyph glyph-name="oacute" unicode="&#xf3;" 
d="M515 688l-129 -137h-66l69 137h126zM682 242q0 -71 -34 -126q-32 -52 -103 -91.5t-180 -39.5q-73 0 -131 17q-18 5 -37 13t-48 27.5t-50.5 43t-37.5 63t-16 85.5q0 74 38 135q28 44 70.5 73t87.5 40t71 14.5t50 3.5q103 0 179 -36q27 -12 50 -31q21 -17 41 -40
q50 -61 50 -151zM587 244q0 47 -23 85q-56 93 -206 93q-99 -2 -158 -53q-59 -50 -59 -129q0 -52 29 -92q62 -84 200 -84q78 0 137 38q80 50 80 142z" />
    <glyph glyph-name="ocircumflex" unicode="&#xf4;" 
d="M527 552h-82l-81 76l-77 -77h-82l105 138h108zM682 242q0 -71 -34 -126q-32 -52 -103 -91.5t-180 -39.5q-73 0 -131 17q-18 5 -37 13t-48 27.5t-50.5 43t-37.5 63t-16 85.5q0 74 38 135q28 44 70.5 73t87.5 40t71 14.5t50 3.5q103 0 179 -36q27 -12 50 -31q21 -17 41 -40
q50 -61 50 -151zM587 244q0 47 -23 85q-56 93 -206 93q-99 -2 -158 -53q-59 -50 -59 -129q0 -52 29 -92q62 -84 200 -84q78 0 137 38q80 50 80 142z" />
    <glyph glyph-name="otilde" unicode="&#xf5;" 
d="M555 610q-75 -55 -116 -55q-25 0 -77 20t-78 20q-20 0 -34.5 -8t-38.5 -27l-35 45q28 22 41.5 31.5t36 19.5t42.5 10q30 0 81 -21q48 -20 70 -20q14 0 27 4.5t20.5 9t26.5 16.5zM682 242q0 -71 -34 -126q-32 -52 -103 -91.5t-180 -39.5q-73 0 -131 17q-18 5 -37 13
t-48 27.5t-50.5 43t-37.5 63t-16 85.5q0 74 38 135q28 44 70.5 73t87.5 40t71 14.5t50 3.5q103 0 179 -36q27 -12 50 -31q21 -17 41 -40q50 -61 50 -151zM587 244q0 47 -23 85q-56 93 -206 93q-99 -2 -158 -53q-59 -50 -59 -129q0 -52 29 -92q62 -84 200 -84q78 0 137 38
q80 50 80 142z" />
    <glyph glyph-name="odieresis" unicode="&#xf6;" 
d="M538 567h-97v103h97v-103zM275 566h-97v103h97v-103zM682 242q0 -71 -34 -126q-32 -52 -103 -91.5t-180 -39.5q-73 0 -131 17q-18 5 -37 13t-48 27.5t-50.5 43t-37.5 63t-16 85.5q0 74 38 135q28 44 70.5 73t87.5 40t71 14.5t50 3.5q103 0 179 -36q27 -12 50 -31
q21 -17 41 -40q50 -61 50 -151zM587 244q0 47 -23 85q-56 93 -206 93q-99 -2 -158 -53q-59 -50 -59 -129q0 -52 29 -92q62 -84 200 -84q78 0 137 38q80 50 80 142z" />
    <glyph glyph-name="divide" unicode="&#xf7;" horiz-adv-x="772" 
d="M440 404h-109v107h109v-107zM701 253h-630v87h630v-87zM441 78h-109v107h109v-107z" />
    <glyph glyph-name="oslash" unicode="&#xf8;" 
d="M682 240q0 -57 -27 -110q-39 -75 -120 -109.5t-175 -34.5q-104 0 -175 36q-10 5 -45 28l-71 -52l-41 57l60 44q-1 2 -7 11t-9 14q-29 52 -29 117q0 92 62 162q89 99 259 99q94 0 166 -33q16 -7 39 -21l71 50l38 -54l-57 -43q19 -24 23 -30q38 -61 38 -131zM592 245
q0 32 -8.5 54t-28.5 54l-341 -250q26 -16 29 -17q50 -25 125 -25q97 0 159 49q19 16 32 34q33 44 33 101zM499 396q-67 31 -136 31q-92 0 -150 -40q-27 -17 -46 -43q-34 -43 -34 -102q0 -36 14 -71q4 -9 13 -20z" />
    <glyph glyph-name="ugrave" unicode="&#xf9;" 
d="M431 551h-64l-128 137h126zM646 0h-93l-1 61q-23 -20 -50 -37q-67 -41 -164 -41q-46 0 -92 11q-113 23 -151 103q-20 41 -20 135v256h94v-246q0 -64 13 -96q12 -28 37.5 -46t57 -24t45 -7.5t27.5 -1.5q70 0 119 26t68 59q15 26 15 78v258h95v-488z" />
    <glyph glyph-name="uacute" unicode="&#xfa;" 
d="M515 688l-129 -137h-66l69 137h126zM646 0h-93l-1 61q-23 -20 -50 -37q-67 -41 -164 -41q-46 0 -92 11q-113 23 -151 103q-20 41 -20 135v256h94v-246q0 -64 13 -96q12 -28 37.5 -46t57 -24t45 -7.5t27.5 -1.5q70 0 119 26t68 59q15 26 15 78v258h95v-488z" />
    <glyph glyph-name="ucircumflex" unicode="&#xfb;" 
d="M527 552h-82l-81 76l-77 -77h-82l105 138h108zM646 0h-93l-1 61q-23 -20 -50 -37q-67 -41 -164 -41q-46 0 -92 11q-113 23 -151 103q-20 41 -20 135v256h94v-246q0 -64 13 -96q12 -28 37.5 -46t57 -24t45 -7.5t27.5 -1.5q70 0 119 26t68 59q15 26 15 78v258h95v-488z" />
    <glyph glyph-name="udieresis" unicode="&#xfc;" 
d="M535 568h-98v103h98v-103zM271 567h-97v103h97v-103zM646 0h-93l-1 61q-23 -20 -50 -37q-67 -41 -164 -41q-46 0 -92 11q-113 23 -151 103q-20 41 -20 135v256h94v-246q0 -64 13 -96q12 -28 37.5 -46t57 -24t45 -7.5t27.5 -1.5q70 0 119 26t68 59q15 26 15 78v258h95
v-488z" />
    <glyph glyph-name="yacute" unicode="&#xfd;" horiz-adv-x="604" 
d="M452 688l-129 -137h-66l70 137h125zM603 489l-276 -536q-15 -30 -27.5 -48t-33.5 -37.5t-52 -28.5t-73 -9q-51 1 -111 12v86q68 -15 100 -15q43 0 67.5 18.5t50.5 65.5l-248 492h108l191 -394l198 394h106z" />
    <glyph glyph-name="thorn" unicode="&#xfe;" 
d="M681 242q-2 -77 -44.5 -141t-124.5 -93q-48 -17 -111 -17q-53 0 -112.5 14t-98.5 45l-18 18v-263h-95v901h95v-270q20 16 41 27q69 37 171 37q119 0 209.5 -67t87.5 -191zM578 250q0 42 -16.5 75.5t-42 52t-46.5 28.5t-40 14q-26 5 -59 5q-31 0 -61 -6q-23 -5 -44.5 -15
t-46 -28.5t-39.5 -52t-16 -77.5q-1 -41 12.5 -73.5t37 -50.5t47.5 -30.5t51 -17t40.5 -6t23.5 -1.5q85 1 142 48.5t57 134.5z" />
    <glyph glyph-name="ydieresis" unicode="&#xff;" horiz-adv-x="604" 
d="M478 569h-97v103h97v-103zM215 569h-97v103h97v-103zM603 489l-276 -536q-15 -30 -27.5 -48t-33.5 -37.5t-52 -28.5t-73 -9q-51 1 -111 12v86q68 -15 100 -15q43 0 67.5 18.5t50.5 65.5l-248 492h108l191 -394l198 394h106z" />
    <glyph glyph-name="OE" unicode="&#x152;" horiz-adv-x="1146" 
d="M1113 0h-526q-100 -10 -151 -10q-157 0 -257 77q-45 34 -75 80q-26 41 -41 95q-15 51 -15 112q0 178 127 278q106 84 272 84q58 0 130 -10h532v-88h-428v-214h399v-82h-399v-235h432v-87zM585 87v533q-76 17 -133 17q-179 0 -258 -123q-44 -70 -44 -163q0 -167 128 -239
q75 -42 171 -42q51 0 136 17z" />
    <glyph glyph-name="oe" unicode="&#x153;" horiz-adv-x="1146" 
d="M1099 233h-480q3 -56 36 -98q57 -71 164 -71q83 0 137 48q15 12 26 28q10 13 15 25l90 -24q-8 -18 -23 -41q-42 -60 -112 -88q-58 -25 -137 -25q-36 0 -68 6q-78 13 -136 58q-16 11 -36 31q-74 -74 -173 -90q-39 -6 -71 -6q-123 0 -206 69.5t-83 190.5q0 88 53 153
q86 103 240 103q114 0 192 -55q10 -7 19 -15t16.5 -15.5t9.5 -8.5q23 23 37 34q79 59 194 59q111 0 184 -53q66 -45 94 -121q15 -39 18 -94zM988 304q-5 17 -11 29q-23 48 -69 72t-102 24q-100 0 -151 -64q-19 -23 -30 -61h363zM533 241q0 96 -77 149q-54 36 -124 32
q-35 0 -72 -13q-49 -17 -78.5 -52t-37 -62.5t-7.5 -54.5q0 -30 12 -62q12 -31 33.5 -53t42 -33t46.5 -17.5t39.5 -7.5t27.5 -1q104 0 159 68q36 44 36 107z" />
    <glyph glyph-name="Scaron" unicode="&#x160;" horiz-adv-x="812" 
d="M568 876l-109 -124h-106l-109 126h82l80 -71l82 69h80zM763 209q-1 -73 -43 -123q-83 -103 -303 -103q-236 0 -351 104q-28 26 -47 56l92 38q56 -65 145 -89t177 -23q104 2 167 38t64 102q0 58 -54 87q-19 11 -54 18t-66 10t-91.5 8t-98.5 9q-68 8 -89 13
q-67 16 -104 59.5t-36 106.5q1 101 88.5 152.5t240.5 51.5q226 0 328 -109q3 -3 27 -33l-92 -37q-18 18 -36 32q-82 64 -223 64q-161 0 -212 -61q-23 -28 -21 -61q1 -26 17 -46q5 -6 10 -11t11.5 -8.5t11.5 -6.5t13.5 -5.5t13 -4t13.5 -3l12 -2t13 -1.5t11 -1
q48 -6 114.5 -11.5t106 -9.5t84 -13t75.5 -28t53 -49q35 -48 33 -110z" />
    <glyph glyph-name="scaron" unicode="&#x161;" horiz-adv-x="667" 
d="M491 692l-105 -138h-108l-107 137h80l81 -76l78 77h81zM621 148q0 -36 -14 -64t-38 -45.5t-51.5 -29.5t-60 -17.5t-57 -7.5t-48.5 -2q-222 0 -334 102l82 55q25 -21 48 -33q80 -44 198 -44q73 0 123.5 18.5t50.5 59.5q0 20 -11.5 33.5t-40 20t-47 9t-59.5 5.5q-9 1 -13 1
q-9 1 -27 2q-75 6 -111 10.5t-76 23t-58 51.5q-13 25 -13 59q1 35 16 61.5t40.5 42.5t52.5 26.5t61 14.5t55 5.5t45 1.5q136 0 231 -53q36 -20 54 -38l-83 -46q-87 59 -214 57q-99 0 -133 -30q-20 -17 -20 -37q0 -22 27 -40q14 -9 77.5 -17t133.5 -13.5t78 -6.5
q136 -23 136 -135z" />
    <glyph glyph-name="Ydieresis" unicode="&#x178;" horiz-adv-x="812" 
d="M579 773h-97v103h97v-103zM316 774h-98v103h98v-103zM811 706l-358 -433v-273h-99v275l-352 431h129l273 -346l279 346h128z" />
    <glyph glyph-name="florin" unicode="&#x192;" horiz-adv-x="313" 
d="M363 696l-10 -85q-39 9 -57 9q-53 0 -76 -36q-7 -12 -10 -38l-7 -65h134l-8 -65h-134l-47 -416q-4 -37 -5 -44.5t-5.5 -33.5t-8 -33.5t-11 -23.5t-17.5 -25.5t-24 -19.5q-40 -29 -105 -29q-25 0 -76 7l9 85q35 -9 58 -9q26 0 43.5 6.5t26 20.5t11 24t5.5 27q2 10 3.5 27
t1.5 21l48 416h-80l7 65h81l6 51q0 3 1.5 16.5t6.5 35t11 34.5q40 85 152 85q25 0 76 -7z" />
    <glyph glyph-name="circumflex" unicode="&#x2c6;" horiz-adv-x="375" 
d="M348 552h-81l-82 76l-76 -77h-82l105 138h108z" />
    <glyph glyph-name="tilde" unicode="&#x2dc;" horiz-adv-x="375" 
d="M378 610q-45 -32 -69 -43.5t-47 -11.5q-26 0 -78 20t-78 20q-19 0 -33.5 -7.5t-39.5 -27.5l-36 45q27 21 41.5 31t37 20t42.5 10q31 0 80 -21q50 -20 71 -20q28 0 73 30z" />
    <glyph glyph-name="endash" unicode="&#x2013;" horiz-adv-x="626" 
d="M591 259h-556v82h556v-82z" />
    <glyph glyph-name="emdash" unicode="&#x2014;" horiz-adv-x="932" 
d="M897 259h-862v82h862v-82z" />
    <glyph glyph-name="quoteleft" unicode="&#x2018;" horiz-adv-x="250" 
d="M172 469h-110v128q0 44 14 70t53 38q7 2 21.5 3.5t21.5 3.5v-55q-26 -3 -35.5 -13t-9.5 -36v-31h45v-108z" />
    <glyph glyph-name="quoteright" unicode="&#x2019;" horiz-adv-x="250" 
d="M185 577q0 -44 -14 -70t-53 -38q-7 -2 -21.5 -3.5t-21.5 -3.5v55q26 3 35.5 13t9.5 36v31h-45v109h110v-129z" />
    <glyph glyph-name="quotesinglbase" unicode="&#x201a;" horiz-adv-x="250" 
d="M180 -19q0 -58 -25.5 -86t-83.5 -29v55q26 3 35.5 13t9.5 36v30h-45v108h109v-127z" />
    <glyph glyph-name="quotedblleft" unicode="&#x201c;" horiz-adv-x="437" 
d="M365 469h-110v128q0 44 14 70t53 38q7 2 21.5 3.5t21.5 3.5v-55q-26 -3 -35.5 -13t-9.5 -36v-31h45v-108zM179 469h-110v128q0 44 14 70t53 38q7 2 21.5 3.5t21.5 3.5v-55q-26 -3 -35.5 -13t-9.5 -36v-31h45v-108z" />
    <glyph glyph-name="quotedblright" unicode="&#x201d;" horiz-adv-x="437" 
d="M364 578q0 -58 -26 -86t-84 -29v55q26 3 35.5 13t9.5 36v30h-45v109h110v-128zM177 578q0 -58 -25.5 -86t-83.5 -29v55q26 3 35.5 13t9.5 36v30h-45v109h109v-128z" />
    <glyph glyph-name="quotedblbase" unicode="&#x201e;" horiz-adv-x="437" 
d="M365 -19q0 -44 -14 -70.5t-53 -38.5q-8 -2 -22.5 -4t-20.5 -3v55q27 3 36.5 13t9.5 36v31h-46v108h110v-127zM180 -19q0 -58 -25.5 -86t-83.5 -29v55q26 3 35.5 13t9.5 36v30h-45v108h109v-127z" />
    <glyph glyph-name="dagger" unicode="&#x2020;" horiz-adv-x="604" 
d="M564 401h-215v-525h-95v525h-217v79h217v226h95v-225h215v-80z" />
    <glyph glyph-name="daggerdbl" unicode="&#x2021;" horiz-adv-x="604" 
d="M564 82h-215v-207h-94v207h-217v72h217v290h-217v73h217v189h94v-189h215v-73h-215v-290h215v-72z" />
    <glyph glyph-name="bullet" unicode="&#x2022;" horiz-adv-x="333" 
d="M282 238h-232v230h232v-230z" />
    <glyph glyph-name="ellipsis" unicode="&#x2026;" horiz-adv-x="1000" 
d="M883 0h-99v97h99v-97zM550 0h-98v97h98v-97zM215 0h-99v97h99v-97z" />
    <glyph glyph-name="perthousand" unicode="&#x2030;" horiz-adv-x="1500" 
d="M1470 221q0 -91 -53 -158t-147 -67q-95 0 -147.5 62.5t-54.5 153.5q0 128 83 193q49 39 118 41q76 1 129 -47q18 -15 30 -33q42 -60 42 -145zM1012 221q0 -91 -53 -158t-148 -67t-147 62.5t-54 153.5q0 128 83 193q49 39 118 41q74 1 129 -47q16 -15 30 -33
q42 -60 42 -145zM760 670l-432 -682l-49 30l432 683zM428 469q0 -91 -53 -158.5t-147 -67.5q-95 0 -147.5 62.5t-54.5 154.5q0 127 83 192q52 41 118 41q74 1 129 -47q14 -11 30 -33q42 -60 42 -144zM1400 219q0 82 -38.5 125t-92.5 43q-19 0 -32 -4q-42 -12 -70 -54.5
t-29 -107.5q-1 -42 10.5 -77.5t42.5 -62t78 -26.5q68 0 99.5 50t31.5 114zM941 219q0 82 -38.5 125t-91.5 43q-19 0 -32 -4q-42 -12 -70 -54.5t-29 -107.5q-2 -66 30 -116t101 -50q67 0 98.5 50t31.5 114zM358 467q0 82 -38.5 125t-92.5 43q-15 0 -32 -5
q-42 -11 -69.5 -53.5t-28.5 -108.5t30.5 -116t99.5 -50q46 0 77 27t42.5 62.5t11.5 75.5z" />
    <glyph glyph-name="guilsinglleft" unicode="&#x2039;" horiz-adv-x="292" 
d="M243 54l-202 159v86l202 158v-63l-128 -139l128 -137v-64z" />
    <glyph glyph-name="guilsinglright" unicode="&#x203a;" horiz-adv-x="292" 
d="M250 212l-203 -159v64l129 138l-129 137v65l203 -159v-86z" />
    <glyph glyph-name="Euro" unicode="&#x20ac;" horiz-adv-x="933" 
d="M880 608l-48 -92q-17 25 -58.5 54t-82.5 43q-71 25 -170 25q-169 0 -242 -87q-41 -50 -54 -111h575l-30 -62h-552q0 -27 3 -50h523l-30 -61h-484q57 -197 309 -197q67 0 139 18t119 47q33 21 66 54v-124q-139 -83 -331 -83q-169 0 -277 75t-133 210h-91l33 61h49
q-1 10 -1 23q0 3 2 27h-83l33 62h56q26 136 133.5 211t277.5 75q116 0 208.5 -31t140.5 -87z" />
    <glyph glyph-name="trademark" unicode="&#x2122;" horiz-adv-x="687" 
d="M624 374h-57l5 268l-85 -268h-50l-85 272l7 -272h-57v332h79l83 -264l79 264h81v-332zM274 657h-104v-283h-59v283h-107v49h270v-49z" />
    </font>
</defs>
</svg>
