<?xml version="1.0" standalone="no"?>
<!DOCTYPE svg PUBLIC "-//W3C//DTD SVG 1.1//EN" "http://www.w3.org/Graphics/SVG/1.1/DTD/svg11.dtd" >
<svg xmlns="http://www.w3.org/2000/svg" xmlns:xlink="http://www.w3.org/1999/xlink" version="1.1">
<metadata>
Created by FontForge 20170731 at Thu May 17 19:59:59 2007
 By Aleksey,,,
Copyright  1997, 2001, Berthold LLC. All rights reserved. Akzidenz-Grotesk is a trademark of Berthold Types Limited.
</metadata>
<defs>
<font id="AkzidenzGroteskBQ-Italic" horiz-adv-x="542" >
  <font-face 
    font-family="Akzidenz-Grotesk BQ"
    font-weight="500"
    font-style="italic"
    font-stretch="normal"
    units-per-em="1000"
    panose-1="0 0 0 0 0 0 0 0 0 0"
    ascent="800"
    descent="-200"
    x-height="471"
    cap-height="706"
    bbox="-99 -237 1304.22 947"
    underline-thickness="75"
    underline-position="-324"
    slope="-13"
    unicode-range="U+0020-2122"
  />
<missing-glyph horiz-adv-x="500" 
 />
    <glyph glyph-name=".notdef" horiz-adv-x="500" 
 />
    <glyph glyph-name=".null" horiz-adv-x="0" 
 />
    <glyph glyph-name="nonmarkingreturn" horiz-adv-x="333" 
 />
    <glyph glyph-name="space" unicode=" " horiz-adv-x="271" 
 />
    <glyph glyph-name="exclam" unicode="!" horiz-adv-x="271" 
d="M329 706l-54 -233l-78 -247h-47l37 259l51 221h91zM200 110l-26 -110h-99l25 110h100z" />
    <glyph glyph-name="quotedbl" unicode="&#x22;" horiz-adv-x="347" 
d="M439 743l-95 -294h-32l39 294h88zM270 743l-96 -294h-32l40 294h88z" />
    <glyph glyph-name="numbersign" unicode="#" horiz-adv-x="667" 
d="M695 491l-14 -77h-148l-35 -108h139l-14 -77h-150l-73 -229h-79l73 229h-111l-73 -229h-81l75 229h-138l13 77h149l35 108h-142l14 77h152l68 214h80l-68 -214h110l69 214h78l-67 -214h138zM453 414h-111l-35 -108h112z" />
    <glyph glyph-name="dollar" unicode="$" horiz-adv-x="667" 
d="M690 529l-91 -22q-10 92 -85 127q-11 5 -35 11l-52 -242q9 -4 34 -14.5t39 -17.5q91 -41 115 -115q8 -24 8 -50q0 -39 -13 -74q-24 -61 -93 -104.5t-184 -40.5l-22 -94h-68l22 98q-115 22 -165 93q-41 59 -41 151l92 18q-6 -84 34 -133q30 -37 97 -58l65 282
q-81 30 -129 71q-23 23 -34 43q-16 29 -16 64q0 61 39 111q46 57 129 77q17 4 37.5 6.5t37.5 3t18 0.5l18 77h67l-18 -81q48 -11 62 -16q77 -32 109 -90q16 -27 23 -81zM413 649q-70 -8 -104 -31q-14 -10 -24 -22q-12 -15 -15 -26q-9 -22 -9 -41q0 -32 24 -54q32 -27 81 -42
zM532 200q0 41 -33 71q-11 9 -20.5 14.5t-25.5 12.5t-23 10q-14 6 -20 10l-60 -261q97 0 149 59q33 36 33 84z" />
    <glyph glyph-name="percent" unicode="%" horiz-adv-x="917" 
d="M908 265q0 -22 -7 -60q-27 -118 -91 -172q-49 -41 -108 -41q-42 0 -75 23q-64 43 -64 151q0 69 25 137t74 108q46 38 107 38q39 0 68 -17.5t42 -40t20.5 -52t8.5 -46t0 -28.5zM700 669l-362 -698l-44 23l363 697zM435 489q-1 -27 -5.5 -57.5t-28.5 -85.5t-63 -89
q-51 -41 -109 -41q-42 0 -74 22q-64 43 -64 151q0 69 25 137.5t74 108.5q46 38 106 38q45 0 76 -22q34 -24 49.5 -69t13.5 -93zM847 267q0 71 -16 99q-9 17 -27 28t-36 10q-32 0 -63 -27q-41 -35 -61.5 -99t-20.5 -126q0 -67 36 -97q22 -18 46 -18q29 0 57 23q68 53 85 207z
M375 490q2 68 -16 100q-21 37 -63 37q-55 0 -95 -62q-50 -81 -50 -187q0 -73 39 -102q18 -15 43 -15q47 0 87 54q22 30 37.5 81.5t17.5 93.5z" />
    <glyph glyph-name="ampersand" unicode="&#x26;" horiz-adv-x="625" 
d="M614 237q-58 -84 -116 -136q23 -14 34 -19t55 -20l-18 -74q-68 16 -136 62q-89 -59 -186 -59q-52 0 -88 14q-48 19 -76 59.5t-28 91.5q0 75 67 151q27 30 53 50q8 6 23.5 16.5t19.5 13.5q-9 81 -9 90q0 53 19 103.5t57 79.5q46 35 103 35q13 0 30.5 -3t45.5 -17t43 -38
q18 -27 18 -61q0 -62 -59 -120q-9 -9 -19.5 -17.5t-17.5 -13.5t-24 -15.5t-24 -14.5t-33.5 -19.5t-37.5 -21.5q40 -89 79 -142q23 -31 52 -60q51 47 108 126zM447 577q0 21 -13 34t-24 16t-21 3q-45 0 -73 -45q-27 -41 -27 -105q0 -9 5 -54q26 13 31 16q40 21 79 59
q43 42 43 76zM372 107q-19 20 -35 41q-56 71 -96 165l-6 -5q-6 -4 -10 -7t-11.5 -9.5t-13 -12.5t-13 -14.5t-13.5 -16.5t-12 -19t-9.5 -21.5t-6 -22.5t-2.5 -25q0 -26 10 -47q25 -50 93 -50q44 0 91 23q21 10 34 21z" />
    <glyph glyph-name="quotesingle" unicode="'" horiz-adv-x="177" 
d="M270 743l-96 -294h-32l40 294h88z" />
    <glyph glyph-name="parenleft" unicode="(" horiz-adv-x="315" 
d="M477 756q-7 -4 -15.5 -10t-9.5 -7q-109 -78 -173 -169q-110 -160 -110 -368q0 -145 56 -248q18 -34 50 -72l-44 -42q-149 155 -149 371q0 195 105 352q61 91 154 166q46 37 105 71z" />
    <glyph glyph-name="parenright" unicode=")" horiz-adv-x="315" 
d="M315 428q0 -195 -104 -352q-65 -96 -154 -166q-40 -32 -105 -71l-31 44q17 12 24 18q111 78 173 168q111 162 111 368q0 143 -57 249q-18 34 -49 71l44 42q148 -154 148 -371z" />
    <glyph glyph-name="asterisk" unicode="*" horiz-adv-x="349" 
d="M421 549l-110 -11l43 -96l-56 -24l-44 97l-77 -69l-41 46l77 69l-91 51l30 52l93 -51l24 101l60 -14l-24 -102l108 9z" />
    <glyph glyph-name="plus" unicode="+" horiz-adv-x="724" 
d="M681 340l-18 -77h-225l-52 -230h-88l53 230h-224l18 77h224l52 228h88l-53 -228h225z" />
    <glyph glyph-name="comma" unicode="," horiz-adv-x="229" 
d="M152 110q-18 -146 -95 -264h-49q50 88 64 154h-41l26 110h95z" />
    <glyph glyph-name="hyphen" unicode="-" horiz-adv-x="370" 
d="M368 338l-17 -76h-281l18 76h280z" />
    <glyph glyph-name="period" unicode="." horiz-adv-x="229" 
d="M157 110l-22 -110h-101l23 110h100z" />
    <glyph glyph-name="slash" unicode="/" horiz-adv-x="313" 
d="M385 706l-287 -706h-80l289 706h78z" />
    <glyph glyph-name="zero" unicode="0" horiz-adv-x="583" 
d="M594 401q0 -39 -10 -91q-36 -183 -148 -269q-73 -53 -152 -53q-101 0 -159 78q-49 68 -49 182q0 101 36.5 202t105.5 163q45 38 100 55q33 9 67 9q69 0 119 -37q49 -37 70.5 -102.5t19.5 -136.5zM508 402q6 58 -9 115q-6 22 -19 43q-7 10 -17 20.5t-32 21.5t-47 11
q-50 0 -97 -40q-61 -51 -93 -150.5t-32 -192.5q0 -105 55 -151q30 -27 71 -27q46 0 93.5 37.5t80.5 115.5q42 101 46 197z" />
    <glyph glyph-name="one" unicode="1" horiz-adv-x="583" 
d="M476 677l-156 -677h-83l120 518q-11 -7 -24 -12q-49 -18 -104 -18q-25 0 -51 3l16 68l10 -1h20.5t24.5 0.5t28.5 3.5t26.5 7q67 25 90 108h82z" />
    <glyph glyph-name="two" unicode="2" horiz-adv-x="583" 
d="M565 505q0 -108 -87 -208q-29 -34 -64 -64q-33 -28 -96 -68q-49 -33 -103 -62q-11 -5 -71 -33l358 5l-17 -75h-455l20 86q28 14 63 35q18 11 52 33q8 5 23 14.5t22 14.5q67 44 109 77q51 40 85 82q72 83 72 161q0 27 -10 49q-26 57 -98 57q-32 0 -61 -15
q-31 -17 -55.5 -53.5t-23.5 -94.5q0 -12 3 -42l-91 19q0 34 4 65q15 107 99 156q58 33 126 33q99 0 153 -57q22 -22 32 -50q11 -28 11 -65z" />
    <glyph glyph-name="three" unicode="3" horiz-adv-x="583" 
d="M564 508q0 -50 -28.5 -90t-75.5 -60q-26 -10 -71 -15q37 -6 61 -18q39 -19 60 -55.5t21 -82.5q0 -55 -28 -98q-21 -34 -55 -56.5t-70 -31t-57 -11t-38 -2.5q-38 0 -78 10q-111 29 -146 129q-10 30 -14 73l90 10q0 -22 10 -55q12 -38 46.5 -69t99.5 -31q43 0 76 16
q42 20 58 54.5t16 62.5q0 69 -64 101q-26 13 -56 16.5t-101 5.5l17 68q9 -2 35 -2.5t70.5 6t71.5 22.5q13 7 25 17.5t25 35t13 52.5q0 45 -29 71q-29 29 -83 29q-36 0 -63 -12.5t-42 -33t-22.5 -37t-10.5 -32.5q-2 -10 -3 -22t-1 -13l-92 17q14 64 35 100q59 100 200 100
q122 0 173 -80q25 -38 25 -89z" />
    <glyph glyph-name="four" unicode="4" horiz-adv-x="583" 
d="M554 254l-17 -72h-91l-42 -182h-79l42 182h-308l16 72l397 423h82l-91 -423h91zM464 580l-292 -326h212z" />
    <glyph glyph-name="five" unicode="5" horiz-adv-x="583" 
d="M587 665l-17 -71h-307l-55 -208q21 21 33 31.5t47 25t76 14.5q86 -1 138 -55.5t52 -140.5q0 -85 -49 -158.5t-128 -100.5q-41 -14 -94 -14q-102 0 -166 56q-61 52 -70 144l82 12q8 -49 30 -83q42 -62 122 -62q42 0 80 19q39 20 73 66t34 118q0 33 -9 55q-27 75 -108 75
q-64 0 -115 -47q-10 -9 -29 -33l-90 15l94 342h376z" />
    <glyph glyph-name="six" unicode="6" horiz-adv-x="583" 
d="M621 517l-85 -17q-3 27 -11 43q-28 64 -106 64q-29 0 -53 -9q-70 -23 -122 -106q-32 -52 -49 -106q-7 -21 -15 -65q75 127 198 127q74 0 128 -43q66 -56 66 -157q0 -54 -21 -106q-10 -24 -25 -46.5t-41.5 -49t-69.5 -42.5t-96 -16q-79 0 -135 42q-29 23 -49 54
q-41 68 -41 172q0 128 63 245q28 52 64.5 88.5t73.5 54.5t67.5 25.5t59.5 7.5q61 0 112.5 -30t74.5 -84q7 -17 12 -46zM489 245q0 34 -9 59q-25 75 -114 75q-63 0 -113 -44q-28 -25 -44.5 -63.5t-16.5 -77.5q0 -54 29 -92q36 -47 102 -47q38 0 70 17q30 16 51 42t29.5 53.5
t12 45.5t3.5 32z" />
    <glyph glyph-name="seven" unicode="7" horiz-adv-x="583" 
d="M576 665q-5 -45 -18 -82q-7 -21 -18 -44t-22 -41t-33 -55.5t-40 -68.5q-123 -219 -163 -374h-100q8 28 28 84q49 129 131 266q12 19 34.5 54t28.5 44q8 12 22 36q29 48 36 64q4 8 7 19t5 20l3 9h-255l-29 -125h-76l45 194h414z" />
    <glyph glyph-name="eight" unicode="8" horiz-adv-x="583" 
d="M574 513q0 -94 -78 -141q-20 -11 -49 -21q20 -7 38 -18q67 -42 67 -129q0 -52 -26 -99q-68 -117 -235 -117q-90 0 -146 38q-75 48 -75 138q0 61 29 101.5t61 60.5q24 16 57 25q-28 12 -48 36q-31 36 -31 88q0 48 24 92q20 37 51 61.5t65 33.5t54.5 12t40.5 3q43 0 78 -10
q16 -5 33 -13.5t39.5 -25.5t36.5 -47t14 -68zM490 509q0 51 -36 76.5t-87 25.5q-42 0 -77 -19q-37 -20 -53 -53t-16 -58q0 -45 32 -73q31 -28 90 -28q60 0 101 33q46 36 46 96zM468 203q0 26 -12 49q-14 25 -44 46t-78 21q-66 0 -115 -33q-65 -47 -65 -118q0 -56 42 -87
t99 -31q34 0 63 10q48 16 79 54.5t31 88.5z" />
    <glyph glyph-name="nine" unicode="9" horiz-adv-x="583" 
d="M575 418q0 -105 -41.5 -210.5t-118.5 -162.5q-78 -57 -169 -57q-66 0 -121.5 32t-74.5 92q-5 14 -8 40l82 9q4 -18 11 -34q33 -69 116 -69q62 0 114 39q51 38 86 115q16 35 35 124q-19 -30 -29 -42q-65 -79 -169 -79q-44 0 -78 14q-43 19 -78 63t-35 120q0 48 14 91
q9 26 24 51.5t43 55.5t74 48.5t104 18.5q41 0 75 -12q61 -20 102.5 -80t41.5 -167zM479 482q-2 28 -9 47q-13 39 -45 60.5t-73 21.5q-99 0 -147 -93q-25 -54 -25 -104q0 -56 27 -89q33 -41 94 -41q32 0 70 15q80 34 101 120q8 36 7 63z" />
    <glyph glyph-name="colon" unicode=":" horiz-adv-x="271" 
d="M280 492l-25 -111h-98l25 111h98zM199 111l-26 -111h-99l26 111h99z" />
    <glyph glyph-name="semicolon" unicode=";" horiz-adv-x="271" 
d="M280 492l-25 -110h-101l26 110h100zM197 109q-9 -67 -34 -140t-60 -124h-50q46 89 63 155h-42l25 109h98z" />
    <glyph glyph-name="less" unicode="&#x3c;" horiz-adv-x="724" 
d="M690 584l-23 -94l-427 -189l341 -189l-20 -86l-412 236l21 90z" />
    <glyph glyph-name="equal" unicode="=" horiz-adv-x="724" 
d="M692 428l-18 -77h-526l19 77h525zM649 240l-18 -76h-526l18 76h526z" />
    <glyph glyph-name="greater" unicode="&#x3e;" horiz-adv-x="724" 
d="M639 339l-21 -90l-520 -232l23 95l427 188l-341 190l20 85z" />
    <glyph glyph-name="question" unicode="?" 
d="M595 524q0 -38 -10 -67q-15 -46 -52 -78t-85 -46q-18 -4 -45 -8l-34 -149h-78l50 215q106 -1 145 62q20 32 20 71q0 29 -14 57q-29 60 -111 60q-80 0 -122 -60q-30 -44 -30 -100l-87 14q0 20 5 40q16 70 65 116q62 62 167 62q104 0 163 -61q31 -31 45 -70q8 -27 8 -58z
M361 112l-25 -112h-93l26 112h92z" />
    <glyph glyph-name="at" unicode="@" horiz-adv-x="862" 
d="M845 436q0 -112 -54 -215q-36 -70 -87.5 -110.5t-104.5 -40.5q-76 0 -78 85q-23 -29 -47 -48q-46 -36 -98 -36q-58 0 -92 41t-34 112q0 113 68 203t153 90q41 0 71 -24q24 -19 41 -60l17 62h68l-38 -150l-12 -50l-12 -58q-10 -50 -10 -66q0 -41 29 -41q16 0 39.5 17
t43.5 44q37 50 58 114t21 128q0 104 -64 164.5t-174 60.5q-107 0 -203 -60.5t-153 -162t-57 -215.5q0 -131 87 -210t231 -79q104 0 199 47q40 21 72 43q28 20 68 56l30 -41q-165 -160 -371 -160q-81 0 -156.5 28t-122.5 76q-93 93 -93 238q0 133 65 247t175.5 180.5
t239.5 66.5q130 0 207.5 -75t77.5 -201zM556 356q0 44 -22 71t-58 27q-56 0 -101.5 -69t-45.5 -154q0 -44 20.5 -69.5t56.5 -25.5q55 0 100 64t49 148q0 2 0.5 4t0.5 4z" />
    <glyph glyph-name="A" unicode="A" horiz-adv-x="667" 
d="M607 0h-91l-25 222h-268l-128 -222h-95l409 706h108zM483 295l-35 353l-183 -353h218z" />
    <glyph glyph-name="B" unicode="B" horiz-adv-x="708" 
d="M706 542q0 -111 -105 -156q-26 -11 -68 -18q53 -5 83 -27q58 -46 58 -122q0 -39 -14 -73q-17 -44 -58.5 -84.5t-116.5 -54.5q-39 -7 -104 -7h-324l163 706h233q40 0 60 -1t54 -6t59 -19t44 -36q36 -43 36 -102zM615 538q0 74 -68 92q-15 4 -39 4h-217l-53 -227h195
q6 0 17.5 0.5t17.5 0.5q78 5 116 46q31 32 31 84zM582 224q0 26 -8 45q-18 40 -73 57q-25 7 -60 7h-220l-60 -259h200q102 0 142 18q27 11 48 38q31 37 31 94z" />
    <glyph glyph-name="C" unicode="C" horiz-adv-x="771" 
d="M777 505l-89 -17q-7 24 -14 40t-24 42t-46.5 44t-69.5 27q-35 8 -65 8q-81 0 -145 -40q-35 -22 -60 -54q-30 -36 -55.5 -99.5t-26.5 -145.5q0 -113 54 -179q56 -72 172 -72q102 0 169 57q25 21 44 46q34 44 49 83l89 -12q-26 -62 -61 -107q-107 -139 -294 -139
q-71 0 -129 21q-34 13 -63.5 33.5t-59.5 55t-47.5 90t-17.5 125.5q0 83 26 157q42 118 136.5 184.5t220.5 66.5q208 0 285 -155q14 -29 22 -60z" />
    <glyph glyph-name="D" unicode="D" horiz-adv-x="729" 
d="M732 433q0 -84 -25 -163.5t-81 -147.5t-134 -98q-29 -11 -60.5 -16.5t-52.5 -6.5t-63 -1h-258l163 706h210q93 0 149 -20q74 -26 116 -99q36 -64 36 -154zM644 432q0 83 -32 131q-8 11 -14 17q-50 54 -165 54h-141l-129 -562h153q20 0 60 2q102 8 166 78
q42 46 66.5 109.5t30 101.5t5.5 69z" />
    <glyph glyph-name="E" unicode="E" horiz-adv-x="625" 
d="M678 706l-17 -75h-370l-54 -233h339l-16 -70h-339l-59 -253h420l-17 -75h-509l163 706h459z" />
    <glyph glyph-name="F" unicode="F" horiz-adv-x="562" 
d="M675 706l-17 -74h-367l-53 -230h342l-17 -72h-342l-76 -330h-88l163 706h455z" />
    <glyph glyph-name="G" unicode="G" horiz-adv-x="792" 
d="M797 504l-94 -12q-52 153 -208 153q-29 0 -53 -4q-81 -13 -141 -67q-113 -104 -113 -272q0 -99 47 -164q56 -79 172 -79q76 0 137.5 34.5t94.5 100.5q18 37 30 99h-265l16 73h345l-84 -366h-80l20 88q-26 -41 -79 -68q-66 -33 -150 -33q-108 0 -180 53q-48 34 -83 98.5
t-35 163.5q0 161 89 272q56 69 138.5 107.5t172.5 38.5q47 0 94 -12q96 -25 153 -93q39 -46 56 -111z" />
    <glyph glyph-name="H" unicode="H" horiz-adv-x="750" 
d="M785 706l-163 -706h-87l78 337h-390l-78 -337h-87l163 706h87l-68 -295h390l68 295h87z" />
    <glyph glyph-name="I" unicode="I" horiz-adv-x="271" 
d="M306 706l-163 -706h-86l163 706h86z" />
    <glyph glyph-name="J" unicode="J" horiz-adv-x="437" 
d="M477 706l-112 -485q-27 -119 -62 -164q-52 -70 -166 -70q-61 0 -120 19l19 85q2 -1 4.5 -2.5t4 -2t3.5 -1.5l4 -2q48 -16 85 -16q20 0 40 5q43 13 66 53q21 35 41 125l105 456h88z" />
    <glyph glyph-name="K" unicode="K" horiz-adv-x="646" 
d="M766 706l-335 -267l194 -439h-96l-168 384l-158 -125l-60 -259h-85l163 706h85l-77 -332l419 332h118z" />
    <glyph glyph-name="L" unicode="L" 
d="M497 76l-17 -76h-423l163 706h88l-146 -630h335z" />
    <glyph glyph-name="M" unicode="M" horiz-adv-x="833" 
d="M868 706l-163 -706h-84l153 600l-343 -600h-95l-67 611l-127 -611h-84l163 706h105l72 -632l366 632h104z" />
    <glyph glyph-name="N" unicode="N" horiz-adv-x="729" 
d="M763 706l-163 -706h-91l-234 613l-133 -613h-85l163 706h95l231 -611l133 611h84z" />
    <glyph glyph-name="O" unicode="O" horiz-adv-x="792" 
d="M793 393q-4 -173 -106 -285q-78 -86 -189 -111q-42 -10 -91 -10q-119 0 -197 62q-114 91 -114 259q0 171 100 289q38 44 86 73q84 50 195 50q159 0 244 -102q36 -43 54.5 -104t17.5 -121zM700 400q1 159 -106 220q-52 30 -117 30q-128 0 -206 -97q-33 -41 -53 -98
t-23.5 -89t-3.5 -59q0 -53 16 -99q23 -70 77.5 -110.5t128.5 -40.5q100 0 178 70q47 42 73.5 105t31 99t4.5 69z" />
    <glyph glyph-name="P" unicode="P" horiz-adv-x="646" 
d="M705 526q0 -123 -103 -183q-34 -19 -73 -30q-47 -12 -122 -12h-194l-69 -301h-88l163 706h285q114 0 166 -68q35 -44 35 -112zM617 525q0 18 -5 37q-15 47 -62 62q-21 7 -53 7h-207l-60 -256h158q49 0 73.5 1.5t61 15.5t60.5 41q34 39 34 92z" />
    <glyph glyph-name="Q" unicode="Q" horiz-adv-x="792" 
d="M768 399q0 -148 -79 -259q-11 -16 -33 -39l90 -72l-63 -60l-96 76q-11 -9 -30 -19q-78 -39 -168 -39q-120 0 -202 74q-102 89 -102 250q0 150 87 267q34 45 76.5 76t84 44t70.5 17.5t56 4.5q85 0 153 -35q27 -14 51.5 -35t49.5 -54.5t40 -84.5t15 -112zM675 399
q0 79 -27 137q-17 37 -43.5 62t-55 35.5t-49 14t-40.5 3.5q-23 0 -48.5 -4.5t-65.5 -24t-70 -51.5q-47 -50 -71.5 -122t-24.5 -145q0 -68 20 -117q16 -40 42.5 -68t56.5 -40t52 -17t42 -5q43 0 100 22t104 79q78 96 78 241z" />
    <glyph glyph-name="R" unicode="R" horiz-adv-x="667" 
d="M706 527q-2 -68 -34 -117q-41 -61 -128 -84q-13 -3 -34 -7l122 -319h-96l-114 307h-207l-71 -307h-87l163 706h285q80 0 125 -29q52 -32 68 -94q8 -32 8 -56zM617 528q0 48 -32 76q-32 27 -85 27h-210l-58 -250h203q108 0 153 60q29 38 29 87z" />
    <glyph glyph-name="S" unicode="S" horiz-adv-x="667" 
d="M691 530l-87 -21q-6 39 -22 68q-43 75 -150 75q-88 0 -136 -44q-34 -34 -34 -77q0 -24 13 -42q13 -20 37 -33.5t75 -33.5l81 -32q50 -20 78 -39q78 -53 78 -142q0 -77 -47 -133q-44 -54 -128 -77q-48 -12 -107 -12q-114 0 -188 46q-39 27 -55 51q-37 52 -38 144l94 18
q-4 -69 24 -116q18 -31 59 -54.5t104 -22.5q79 0 125 30q24 15 41 39q25 35 25 74q0 43 -34 74q-19 17 -77 40l-86 34q-21 8 -61 28q-107 53 -106 151q0 51 25 92q50 80 174 99q54 6 68 6q134 0 201 -68q14 -15 26 -35q26 -42 28 -87z" />
    <glyph glyph-name="T" unicode="T" 
d="M660 706l-17 -76h-216l-145 -630h-89l150 630h-218l17 76h518z" />
    <glyph glyph-name="U" unicode="U" horiz-adv-x="708" 
d="M754 706l-98 -424q0 -1 -3.5 -14.5t-7.5 -28.5t-9.5 -34t-13 -39t-15.5 -35q-59 -115 -190 -138q-33 -6 -71 -6q-87 0 -141 32t-77 76q-21 42 -21 100q0 56 23 155l82 356h88l-85 -365q-3 -12 -6.5 -34t-4.5 -29q-7 -44 -7 -67q0 -45 12 -74q14 -31 48.5 -53t93.5 -22
q65 0 110 26q18 12 32 26q28 29 46.5 74t37.5 130l89 388h88z" />
    <glyph glyph-name="V" unicode="V" horiz-adv-x="583" 
d="M692 706l-389 -706h-93l-68 706h89l46 -604l321 604h94z" />
    <glyph glyph-name="W" unicode="W" horiz-adv-x="1000" 
d="M1111 706l-375 -706h-81l-53 613l-312 -613h-89l-73 706h85l57 -594l306 594h85l56 -594l302 594h92z" />
    <glyph glyph-name="X" unicode="X" horiz-adv-x="583" 
d="M685 706l-296 -349l149 -357h-93l-120 294l-241 -294h-103l314 369l-138 337h91l109 -273l224 273h104z" />
    <glyph glyph-name="Y" unicode="Y" horiz-adv-x="583" 
d="M707 706l-359 -399l-70 -307h-89l73 317l-121 389h89l95 -319l276 319h106z" />
    <glyph glyph-name="Z" unicode="Z" horiz-adv-x="583" 
d="M646 706l-18 -79l-512 -550h450l-18 -77h-549l21 90l502 537h-383l18 79h489z" />
    <glyph glyph-name="bracketleft" unicode="[" horiz-adv-x="277" 
d="M410 779l-14 -59h-104l-186 -805h104l-14 -59h-184l213 923h185z" />
    <glyph glyph-name="backslash" unicode="\" horiz-adv-x="375" 
d="M341 0h-80l-132 706h78z" />
    <glyph glyph-name="bracketright" unicode="]" horiz-adv-x="277" 
d="M338 779l-213 -923h-184l14 60h104l185 805h-104l14 58h184z" />
    <glyph glyph-name="asciicircum" unicode="^" horiz-adv-x="724" 
d="M634 287h-87l-79 338l-233 -338h-98l297 419h91z" />
    <glyph glyph-name="underscore" unicode="_" horiz-adv-x="500" 
d="M447 -139l-17 -75h-520l18 75h519z" />
    <glyph glyph-name="grave" unicode="`" horiz-adv-x="292" 
d="M220 531h-53l-95 152h101z" />
    <glyph glyph-name="a" unicode="a" horiz-adv-x="500" 
d="M470 69l-15 -65q-28 -7 -47 -7q-17 0 -29 4q-34 10 -40 47q-1 8 1 21q-13 -20 -20 -27q-52 -52 -144 -52q-74 0 -107 36t-33 81q0 35 18 68q33 64 130 85q30 6 96 15t99 16q10 45 10 62q0 67 -91 67q-40 0 -64 -13q-40 -21 -51 -82l-89 8q10 29 21.5 49t34.5 45.5
t62.5 39t92.5 13.5q70 0 114 -29q23 -14 36 -33q15 -21 15 -55q0 -23 -9 -63l-43 -185q-4 -18 -4 -29q0 -17 12 -22q6 -2 13 -2q12 0 31 7zM365 230q-65 -8 -101 -14q-68 -11 -104 -36q-37 -26 -37 -66q0 -26 19 -45.5t61 -19.5q23 0 53 10t48 24q34 27 48 91z" />
    <glyph glyph-name="b" unicode="b" horiz-adv-x="562" 
d="M542 283q0 -62 -24 -126t-66 -105q-66 -61 -166 -61q-87 0 -122 46q-14 17 -23 50l-20 -87h-77l164 706h76l-70 -305q15 21 25 30q52 49 130 49q66 0 112 -40q61 -54 61 -157zM463 281q1 71 -39 107q-30 27 -78 27q-39 0 -80.5 -23t-66.5 -81q-29 -65 -29 -136
q0 -69 35 -97t78 -28q70 0 117 54q28 31 45 81.5t18 95.5z" />
    <glyph glyph-name="c" unicode="c" horiz-adv-x="509" 
d="M509 340l-74 -17q-4 18 -9 29.5t-17 29.5t-34.5 27.5t-53.5 9.5q-41 0 -73 -20q-43 -26 -69 -74.5t-31 -79t-5 -54.5q0 -59 25.5 -94t58.5 -45q17 -6 40 -6q20 0 36 4q53 15 82 59q6 9 21 44l82 -11q-18 -43 -47 -76q-37 -43 -79.5 -60.5t-100.5 -17.5q-40 0 -76 11
q-49 16 -86 59.5t-37 127.5q0 86 34 151q15 29 36 54q77 92 192 92q35 0 68 -9q40 -12 69.5 -37.5t41.5 -62.5q3 -8 6 -34z" />
    <glyph glyph-name="d" unicode="d" horiz-adv-x="562" 
d="M616 706l-163 -706h-77l14 64q-21 -28 -46 -44q-45 -29 -101 -29q-31 0 -51 5q-65 14 -97 68.5t-32 125.5q0 49 16 102q27 86 90 137t152 51q65 0 106 -33q17 -14 26 -31q5 -9 10 -36l76 326h77zM436 293q2 77 -48 108q-28 17 -64 17q-76 0 -124 -62q-55 -67 -55 -163
q0 -69 33 -105q31 -36 85 -36q57 0 99 42q34 33 53.5 89.5t20.5 109.5z" />
    <glyph glyph-name="e" unicode="e" horiz-adv-x="521" 
d="M500 290q0 -31 -6 -63h-353q-12 -110 53 -154q34 -24 78 -24q66 2 106 48q15 18 28 48l75 -13q-10 -23 -19 -38q-26 -41 -76.5 -73.5t-129.5 -32.5q-36 0 -69 10q-63 20 -94 71t-31 120q0 29 4.5 60t28 83t63.5 88q68 63 164 63q82 0 130 -49q48 -52 48 -144zM422 285
q4 43 -10 75q-10 25 -30.5 40t-35.5 18.5t-29 3.5q-24 0 -44 -8q-51 -17 -85 -64q-12 -15 -21 -34q-2 -5 -11 -31h266z" />
    <glyph glyph-name="f" unicode="f" horiz-adv-x="271" 
d="M366 704l-14 -60q-21 4 -37 4q-13 0 -24 -6q-14 -10 -25 -56l-27 -115h84l-13 -60h-85l-95 -411h-76l95 411h-75l14 60h74l29 124q9 41 22 65q30 55 94 55q37 0 59 -11z" />
    <glyph glyph-name="g" unicode="g" 
d="M541 471l-102 -445q-35 -154 -101 -205q-55 -41 -138 -41q-106 0 -156 59q-31 37 -31 86q0 8 3 32l80 9q-6 -23 -6 -36q0 -22 12 -43q31 -47 101 -47q83 0 120 72q20 36 45 136q-2 -2 -5.5 -5t-6.5 -5.5t-6 -4.5q-51 -42 -119 -42q-52 0 -91 26q-39 25 -58.5 71.5
t-19.5 97.5q0 38 12 84q21 83 63.5 129.5t89.5 65.5q40 15 85 15q35 0 57 -8q49 -16 81 -70l15 69h76zM419 298q0 58 -23 87q-13 13 -23 19q-23 14 -55 14q-41 0 -80 -24q-31 -20 -52.5 -52.5t-29.5 -67t-10.5 -54.5t-2.5 -34q0 -72 33.5 -103t77.5 -31q75 0 124 83
q14 26 27 74q13 52 14 89z" />
    <glyph glyph-name="h" unicode="h" 
d="M513 372q0 -33 -11 -77l-68 -295h-79l70 304q7 28 7 47q0 33 -21.5 50.5t-55.5 17.5q-26 0 -54 -10q-54 -21 -89 -79q-13 -22 -20 -43q-5 -12 -17 -63l-52 -224h-78l163 706h78l-73 -315q16 26 41 47q53 45 126 45q80 0 114 -49q19 -29 19 -62z" />
    <glyph glyph-name="i" unicode="i" horiz-adv-x="229" 
d="M285 706l-21 -90h-82l21 90h82zM229 471l-108 -471h-80l109 471h79z" />
    <glyph glyph-name="j" unicode="j" horiz-adv-x="229" 
d="M286 706l-21 -89h-79l20 89h80zM232 471l-127 -547q-3 -15 -11 -45q-16 -47 -24 -60q-30 -47 -114 -47q-25 0 -53 4l15 64q18 -2 32 -2q40 0 55 22q9 15 20 63l131 548h76z" />
    <glyph glyph-name="k" unicode="k" horiz-adv-x="479" 
d="M536 471l-242 -190l180 -281h-96l-145 231l-74 -57l-40 -174h-78l163 706h78l-100 -431l249 196h105z" />
    <glyph glyph-name="l" unicode="l" horiz-adv-x="229" 
d="M282 706l-163 -706h-78l163 706h78z" />
    <glyph glyph-name="m" unicode="m" horiz-adv-x="792" 
d="M762 370q0 -25 -15 -95l-64 -275h-77l64 276q14 62 14 80q0 32 -21 48.5t-53 16.5q-35 0 -67 -19q-35 -21 -51.5 -52.5t-28.5 -81.5l-62 -268h-77l55 240q22 99 22 113q0 46 -35 61q-16 7 -36 7q-28 0 -52 -13q-18 -9 -40.5 -31t-37.5 -56q-12 -25 -24 -77l-56 -244h-77
l109 471h77l-18 -76q22 29 35 41q49 47 120 47q34 0 63 -15t41 -44q6 -14 8 -29q25 31 41 44q51 44 124 44q47 0 81 -26q38 -27 38 -87z" />
    <glyph glyph-name="n" unicode="n" 
d="M510 363q0 -28 -11 -79l-66 -284h-78l67 291q7 29 7 54q0 36 -22 55.5t-59 19.5q-79 0 -123 -59q-29 -36 -51 -129l-54 -232h-79l109 471h79l-15 -68q76 80 161 80q24 0 51 -9q12 -4 23.5 -10.5t26.5 -19.5t24.5 -34t9.5 -47z" />
    <glyph glyph-name="o" unicode="o" 
d="M522 282q3 -109 -63 -196q-75 -98 -199 -98q-41 0 -77 13q-47 18 -84 64.5t-37 129.5q0 103 54 179q27 38 71 68q64 41 139 41q43 0 79 -15q112 -45 117 -186zM442 291q0 33 -10 58q-13 34 -41 53.5t-64 19.5q-35 0 -70 -17q-56 -27 -85.5 -87.5t-29.5 -128.5
q0 -86 51 -120q31 -21 67 -21q24 0 57 12t60 42q33 36 50 87t15 102z" />
    <glyph glyph-name="p" unicode="p" 
d="M526 293q0 -83 -28 -143t-63 -94q-37 -37 -83 -53q-36 -12 -74 -12q-83 0 -122 57q-8 12 -16 33l-69 -296h-77l158 686h78l-14 -59q55 68 140 68q29 0 54 -8q116 -35 116 -179zM448 294q0 34 -10 59q-13 30 -40 47t-61 17q-36 0 -74.5 -22t-63.5 -77q-32 -71 -32 -151
q0 -37 11 -58q10 -20 34.5 -37t62.5 -17q39 0 76 24q33 21 54.5 54t29.5 68.5t10.5 55.5t2.5 37z" />
    <glyph glyph-name="q" unicode="q" 
d="M541 471l-158 -686h-77l64 280q-8 -10 -12 -16q-47 -58 -127 -58q-40 0 -70 15q-98 45 -98 181q0 100 48 177q76 116 200 116q78 0 112 -41q14 -17 22 -50l19 82h77zM421 322q-2 44 -30.5 70t-73.5 26q-64 0 -111 -52q-61 -68 -61 -180q1 -69 32.5 -100t72.5 -31
q22 0 44 8q55 19 86 79q17 32 30 87.5t11 92.5z" />
    <glyph glyph-name="r" unicode="r" horiz-adv-x="313" 
d="M366 479l-17 -75q-17 3 -42 0q-48 -8 -80 -47q-34 -40 -58 -136l-51 -221h-76l108 471h77l-19 -83q12 20 13 22q10 14 30.5 32t35.5 25q28 13 61 13q3 0 9 -0.5t9 -0.5z" />
    <glyph glyph-name="s" unicode="s" horiz-adv-x="479" 
d="M458 359q0 -7 -1 -18l-76 -13q3 9 3 27q0 16 -7 28q-23 42 -84 42q-41 0 -70 -16q-37 -20 -37 -56q0 -6 1.5 -12t5 -11t6 -8.5t8.5 -7.5l9 -6t11 -5.5t10.5 -4.5t11 -4t9.5 -4l77 -30q2 -1 31 -14q72 -33 72 -102q0 -71 -59 -116q-52 -40 -148 -40q-40 0 -69 7
q-16 4 -32 10.5t-37 21t-34 41.5t-13 63q0 15 3 31l80 13q-6 -36 -6 -40q0 -44 31 -68q28 -20 81 -20q71 0 102 37q17 20 17 46q0 23 -16 38t-55 30l-83 32l-40 20q-57 35 -57 93q0 43 29 78q54 62 160 62q122 0 155 -73q11 -22 11 -51z" />
    <glyph glyph-name="t" unicode="t" horiz-adv-x="271" 
d="M321 471l-13 -61h-84l-59 -258q-11 -51 -11 -60q0 -30 35 -30q8 0 54 8l-14 -59q-15 -6 -16 -6q-20 -8 -60 -8q-78 0 -78 67q0 24 11 73l64 273h-76l14 61h75l35 149h75l-35 -149h83z" />
    <glyph glyph-name="u" unicode="u" 
d="M543 471l-109 -471h-75l17 74q-19 -22 -26 -28q-61 -55 -146 -55q-32 0 -57 9q-73 26 -73 102q0 17 15 89l64 280h79l-65 -280q-10 -42 -10 -69q0 -19 6 -31q20 -35 78 -35q69 0 114 47q8 8 14.5 18t11.5 17.5t10 20.5t7.5 19t6.5 22t5 20.5t5 23t5 20.5l48 207h75z" />
    <glyph glyph-name="v" unicode="v" horiz-adv-x="458" 
d="M516 471l-291 -471h-83l-46 471h74l32 -389l228 389h86z" />
    <glyph glyph-name="w" unicode="w" horiz-adv-x="750" 
d="M806 471l-273 -471h-77l-32 384l-204 -384h-77l-46 471h75l31 -385l201 385h77l34 -385l208 385h83z" />
    <glyph glyph-name="x" unicode="x" horiz-adv-x="437" 
d="M503 471l-217 -237l68 -234h-77l-46 180l-160 -180h-94l227 245l-67 226h76l46 -171l153 171h91z" />
    <glyph glyph-name="y" unicode="y" horiz-adv-x="458" 
d="M509 471l-356 -602q-22 -36 -36 -52q-24 -30 -50.5 -39t-70.5 -9q-26 0 -50 3l16 68q24 -2 37 -2q21 0 36 6q6 2 12 5.5t11 8.5l8.5 8.5t8 10.5t6.5 10.5t6.5 11t6.5 10.5l58 99l-53 463h78l37 -376l208 376h87z" />
    <glyph glyph-name="z" unicode="z" horiz-adv-x="458" 
d="M479 471l-17 -74l-345 -329h299l-16 -68h-401l15 63l356 340h-266l15 68h360z" />
    <glyph glyph-name="braceleft" unicode="{" horiz-adv-x="281" 
d="M413 783l-14 -58h-17q-40 0 -57 -16q-9 -9 -15 -22q-10 -21 -21 -71l-39 -167q-16 -66 -40 -95.5t-72 -39.5q57 -20 57 -80q0 -23 -8 -58l-36 -158q-12 -52 -12 -64q0 -44 56 -44h16l-13 -58h-38q-48 0 -74.5 25.5t-26.5 69.5q0 25 12 78l37 156q8 32 8 51q0 26 -15 38.5
t-53 17.5l13 60q38 1 59 11q19 10 29.5 29.5t21.5 65.5l37 161q16 66 26 91q10 24 31 45q19 18 40.5 23.5t68.5 7.5z" />
    <glyph glyph-name="bar" unicode="|" horiz-adv-x="236" 
d="M304 779l-213 -922h-80l212 922h81z" />
    <glyph glyph-name="braceright" unicode="}" horiz-adv-x="281" 
d="M309 347l-14 -60q-36 -1 -59 -12q-20 -10 -30.5 -29t-20.5 -65l-37 -162q-13 -58 -26 -90q-11 -26 -31 -45t-42 -25.5t-67 -6.5h-39l14 58h17q40 0 57 16q9 9 15 22q9 18 21 70l39 167q16 66 40 96t72 40q-57 19 -57 79q0 23 8 58l36 158q12 52 12 64q0 45 -56 45h-16
l13 57h38q48 0 74.5 -25t26.5 -70q0 -24 -12 -77l-37 -157q-8 -30 -8 -50q0 -27 15 -39.5t54 -16.5z" />
    <glyph glyph-name="asciitilde" unicode="~" horiz-adv-x="724" 
d="M701 315q-48 -47 -88 -70q-51 -29 -97 -29q-47 0 -114 38l-32 18q-52 30 -96 30q-18 0 -35 -6q-12 -4 -24.5 -12.5t-22.5 -17t-36 -32.5l-12 -11l-40 67q43 44 67 61q53 38 113 38q26 0 40 -5q26 -7 68 -28l57 -29q49 -25 73 -25q35 0 71 23q26 16 68 56z" />
    <glyph glyph-name="exclamdown" unicode="&#xa1;" horiz-adv-x="271" 
d="M290 706l-26 -111h-99l26 111h99zM213 480l-38 -260l-51 -220h-89l56 232l76 248h46z" />
    <glyph glyph-name="cent" unicode="&#xa2;" horiz-adv-x="500" 
d="M518 339l-74 -18q-18 80 -76 91l-78 -361q83 0 124 103l83 -10q-13 -37 -45 -76q-67 -77 -176 -77l-21 -92h-65l21 95q-40 11 -54 20q-88 51 -88 174q0 100 49.5 172t111.5 100q35 15 94 20l18 80h60l-18 -80q54 -7 91 -47t43 -94zM309 416q-33 -6 -49 -13
q-46 -23 -77 -80.5t-31 -135.5q0 -75 43 -112q7 -6 31 -18z" />
    <glyph glyph-name="sterling" unicode="&#xa3;" horiz-adv-x="720" 
d="M788 545l-89 -17q6 39 -10 64q-36 54 -112 54q-49 0 -82.5 -22t-49.5 -47q-13 -19 -26 -54q-7 -21 -11 -42t-10 -57t-13 -69h175l-15 -64l-175 -1q-14 -78 -61 -168l87 -41q12 -5 33 -9q15 -5 33 -5q38 0 64 29q17 19 30 65l85 -10q-9 -32 -13 -42q-25 -54 -62 -82
q-43 -33 -105 -33q-66 1 -140 40q-31 13 -55 29q-16 -18 -26 -25q-58 -44 -124 -44q-51 0 -84 24q-30 21 -30 63q0 23 12 42q13 21 45 37.5t77 16.5q37 0 109 -26q14 28 21 52.5t21 87.5h-160l15 64h160q3 16 12 73t16 88q6 23 11.5 38.5t19.5 43t39.5 50t61.5 38.5
q59 27 126 27q74 -1 118.5 -27.5t63.5 -63.5q13 -27 18 -77zM205 98q-48 17 -81 17q-32 0 -48 -12q-11 -7 -11 -19q0 -6 5 -14q13 -16 44 -16q38 1 73 26q6 5 18 18z" />
    <glyph glyph-name="currency" unicode="&#xa4;" horiz-adv-x="673" 
d="M698 556l-80 -69q34 -54 34 -117q0 -111 -74 -197l65 -78l-62 -53l-65 77q-73 -42 -154 -42q-49 0 -83 12t-74 43l-82 -69l-50 60l81 68q-36 65 -36 125q0 57 23 112q17 43 52 79l-66 78l62 54l64 -76q75 41 152 41q91 0 162 -55l80 68zM571 360q0 76 -46.5 122
t-123.5 46q-86 0 -143 -59.5t-57 -148.5q0 -73 46 -121t117 -48q87 0 147 60.5t60 148.5z" />
    <glyph glyph-name="yen" unicode="&#xa5;" horiz-adv-x="610" 
d="M711 674l-261 -283h134l-15 -65h-181l-32 -35l-2 -9h205l-15 -64h-205l-50 -218h-87l50 218h-185l14 64h186l4 21l-4 23h-176l16 65h134l-96 283h89l99 -307l272 307h106z" />
    <glyph glyph-name="brokenbar" unicode="&#xa6;" horiz-adv-x="236" 
d="M306 779l-93 -402h-82l92 402h83zM186 259l-93 -402h-83l93 402h83z" />
    <glyph glyph-name="section" unicode="&#xa7;" horiz-adv-x="604" 
d="M578 282q0 -40 -20.5 -75t-54.5 -57q-21 -14 -58 -27q51 -46 51 -109q0 -77 -54 -118.5t-134 -41.5q-59 0 -129.5 25t-117.5 61l19 82q124 -98 228 -98q43 0 75 22.5t32 63.5q0 33 -31.5 58.5t-76 45t-89.5 41.5t-76.5 59t-31.5 87q0 59 36 99t95 58q-50 48 -50 108
q0 68 52.5 110t121.5 42q112 0 202 -63l-17 -78q-96 68 -180 68q-40 0 -68.5 -20t-28.5 -58q0 -23 13 -41t28 -26t40 -18q42 -17 80 -34q70 -30 107 -66t37 -100zM501 267q0 62 -87 102q-17 8 -50.5 23t-50.5 23q-52 -2 -89 -26.5t-37 -72.5q0 -58 94 -102l98 -46
q50 0 86 25.5t36 73.5z" />
    <glyph glyph-name="dieresis" unicode="&#xa8;" horiz-adv-x="292" 
d="M300 653l-23 -101h-91l23 101h91zM106 653l-23 -101h-91l23 101h91z" />
    <glyph glyph-name="copyright" unicode="&#xa9;" horiz-adv-x="840" 
d="M826 352q0 -146 -104.5 -250t-252.5 -104t-251.5 104t-103.5 253t103.5 252t252.5 103t252.5 -102.5t103.5 -250.5v-5zM793 346q0 142 -92.5 237t-230.5 95q-136 0 -230.5 -94.5t-94.5 -230.5q0 -134 95 -228.5t229 -94.5q132 0 228 94t96 222zM686 435l-71 -14
q-11 54 -39.5 78t-81.5 24q-70 0 -113 -53.5t-43 -139.5q0 -68 34 -106t94 -38q47 0 78 23t51 74l66 -19q-30 -74 -79 -109t-124 -35q-85 0 -139.5 57.5t-54.5 147.5q0 111 68 185.5t170 74.5q153 0 184 -150z" />
    <glyph glyph-name="ordfeminine" unicode="&#xaa;" horiz-adv-x="354" 
d="M400 477l-11 -45q-5 -5 -29 -5q-35 0 -43 35q-30 -39 -90 -39q-34 -1 -59.5 19t-25.5 55q0 28 16 49q12 16 35.5 27t42 14.5t51.5 8t43 6.5l11 2q5 20 5 30q0 15 -5 22q-14 17 -45 17q-38 0 -56 -30q-3 -5 -8 -25l-57 4q8 24 16 37q35 53 109 53q35 0 67 -16.5t32 -53.5
q0 -16 -5 -38l-21 -90q-6 -24 -6 -32q0 -12 11 -12t22 7zM332 561l-11 -1q-37 -3 -61.5 -8.5t-43.5 -19.5t-19 -35q0 -35 44 -35q47 0 72 37q5 7 12 34q1 5 3 14t4 14z" />
    <glyph glyph-name="guillemotleft" unicode="&#xab;" horiz-adv-x="396" 
d="M425 473l-21 -94l-90 -58l61 -66l-19 -83l-111 121l16 67zM254 475l-22 -95l-89 -58l60 -68l-19 -79l-110 119l15 66z" />
    <glyph glyph-name="logicalnot" unicode="&#xac;" horiz-adv-x="724" 
d="M679 341l-77 -335h-88l58 256h-477l18 79h566z" />
    <glyph glyph-name="registered" unicode="&#xae;" horiz-adv-x="840" 
d="M825 361q0 -155 -102 -259t-255 -104q-148 0 -251.5 104t-103.5 252q0 149 104 252.5t253 103.5q146 0 250.5 -103t104.5 -246zM789 347q0 140 -92 234.5t-228 94.5q-133 0 -226 -94.5t-93 -228.5t93 -227.5t226 -93.5q130 0 225 93.5t95 221.5zM646 463
q0 -115 -125 -135l68 -193h-72l-64 186h-54l-44 -186h-69l103 444h99q57 0 86 -9t47 -32q25 -32 25 -75zM576 458q0 24 -14 43q-13 18 -67 18h-50l-32 -138h58q51 0 72 13q33 21 33 64z" />
    <glyph glyph-name="macron" unicode="&#xaf;" horiz-adv-x="292" 
d="M298 630l-16 -78h-288l16 78h288z" />
    <glyph glyph-name="degree" unicode="&#xb0;" horiz-adv-x="354" 
d="M386 594q0 -67 -47.5 -114.5t-114.5 -47.5t-114 47.5t-47 114.5t47 114t114 47q68 0 115 -47t47 -114zM303 596q0 33 -23 56t-56 23t-56 -23t-23 -56q0 -32 23.5 -55.5t55.5 -23.5q33 0 56 23t23 56z" />
    <glyph glyph-name="plusminus" unicode="&#xb1;" horiz-adv-x="724" 
d="M721 433l-17 -77h-225l-50 -220h-88l50 220h-223l18 77h223l50 217h88l-50 -217h224zM640 77l-18 -77h-536l18 77h536z" />
    <glyph glyph-name="twosuperior" unicode="&#xb2;" horiz-adv-x="396" 
d="M418 559q1 -125 -175 -234q-58 -36 -96 -52l230 4l-12 -53h-303l13 59q43 24 106 64l9 5q9 6 20.5 14t28 20.5t32 26t31.5 31t27.5 35t19 38t7.5 39.5q0 29 -18 48t-48 20q-45 1 -69.5 -31t-24.5 -73q0 -7 2 -31l-63 13v12q0 47 16 80.5t41 49.5t48.5 22.5t46.5 6.5
q53 0 91.5 -28.5t39.5 -85.5z" />
    <glyph glyph-name="threesuperior" unicode="&#xb3;" horiz-adv-x="396" 
d="M417 561q0 -45 -30 -74.5t-76 -35.5q32 -8 45 -18q40 -31 40 -86q-1 -34 -16.5 -60t-40.5 -41t-51.5 -22.5t-53.5 -7.5q-116 0 -151 88q-3 9 -11 54l63 8q1 -14 4 -27.5t12 -32.5t30 -30.5t52 -12.5q53 -1 77 27t23 61q0 19 -7 33t-20.5 22t-25 13t-31 6.5t-28.5 2
t-26 0.5h-8l11 49q18 -2 24 -2q87 0 119 40q15 19 15 45q1 24 -15.5 44.5t-56.5 20.5q-42 0 -66.5 -28.5t-24.5 -70.5l-65 12q11 47 23 67q41 68 137 68q52 -1 90 -29t39 -83z" />
    <glyph glyph-name="acute" unicode="&#xb4;" horiz-adv-x="292" 
d="M248 683l-143 -150h-61l87 150h117z" />
    <glyph glyph-name="mu" unicode="&#xb5;" horiz-adv-x="547" 
d="M550 471l-83 -367q-3 -12 -3 -23q0 -25 25 -25q11 0 29 7l-15 -65q-29 -7 -50 -7q-76 0 -76 61v19q-32 -44 -65 -63t-79 -19q-71 0 -95 56l-58 -261h-82l160 687h76l-54 -234q-15 -66 -15 -95q0 -40 24 -62.5t65 -22.5q72 0 120 70q28 39 48 130l49 214h79z" />
    <glyph glyph-name="paragraph" unicode="&#xb6;" horiz-adv-x="640" 
d="M649 706l-13 -54h-34l-189 -819h-57l189 819h-145l-189 -819h-57l113 490q-56 19 -86 63.5t-30 107.5q0 50 22.5 94.5t62.5 73.5q35 25 75 34.5t112 9.5h226z" />
    <glyph glyph-name="periodcentered" unicode="&#xb7;" horiz-adv-x="200" 
d="M191 352l-27 -124h-102l28 124h101z" />
    <glyph glyph-name="cedilla" unicode="&#xb8;" horiz-adv-x="292" 
d="M220 -100q0 -30 -21.5 -53t-51.5 -32q-15 -5 -42 -5q-17 0 -33 3l6 26q62 -3 61 31q0 13 -10 21.5t-18 10.5t-24 5l80 111h36l-43 -59q27 -2 43.5 -16.5t16.5 -42.5z" />
    <glyph glyph-name="onesuperior" unicode="&#xb9;" horiz-adv-x="396" 
d="M352 673l-104 -449h-58l79 339q-36 -18 -84 -18q-8 0 -34 2l11 49q9 -1 23 -1q92 0 109 78h58z" />
    <glyph glyph-name="ordmasculine" unicode="&#xba;" horiz-adv-x="354" 
d="M406 590q0 -18 -5 -43q-12 -57 -52 -92t-93 -35q-54 0 -85.5 34t-31.5 86q0 70 41 121.5t115 50.5q42 -1 76.5 -29t34.5 -93zM354 594q0 31 -16 54t-48 23q-37 0 -68 -35t-31 -95q0 -32 16 -56t50 -24q46 0 71.5 42t25.5 91z" />
    <glyph glyph-name="guillemotright" unicode="&#xbb;" horiz-adv-x="396" 
d="M400 354l-15 -67l-164 -114l22 94l88 59l-59 68l18 78zM229 354l-16 -67l-164 -113l22 94l89 58l-61 66l19 81z" />
    <glyph glyph-name="onequarter" unicode="&#xbc;" horiz-adv-x="917" 
d="M883 170l-12 -50h-60l-27 -120h-56l28 120h-204l12 50l262 279h57l-60 -279h60zM681 669l-362 -698l-44 23l363 697zM352 673l-104 -449h-58l79 339q-36 -18 -84 -18q-8 0 -34 2l11 49q9 -1 23 -1q92 0 109 78h58zM818 377l-184 -207h133z" />
    <glyph glyph-name="onehalf" unicode="&#xbd;" horiz-adv-x="917" 
d="M890 335q0 -36 -15.5 -72t-34 -59t-49.5 -48.5t-43.5 -34t-35.5 -22.5q-52 -32 -92 -49l229 3l-12 -53h-303l13 59q41 22 98 59q36 24 61 42.5t56.5 47.5t48.5 60.5t17 63.5q0 38 -22 53t-44 16q-44 2 -69 -30.5t-25 -74.5q0 -7 2 -31l-63 13v12q0 39 11.5 68.5t28 46.5
t38 27t39.5 13.5t35 3.5q55 0 93 -28.5t38 -85.5zM658 669l-361 -698l-44 23l363 697zM352 673l-104 -449h-58l79 339q-36 -18 -84 -18q-8 0 -34 2l11 49q9 -1 23 -1q92 0 109 78h58z" />
    <glyph glyph-name="threequarters" unicode="&#xbe;" horiz-adv-x="917" 
d="M883 170l-12 -50h-60l-27 -120h-56l28 120h-204l12 50l262 279h57l-60 -279h60zM725 669l-362 -698l-44 23l363 697zM417 561q0 -45 -30 -74.5t-76 -35.5q32 -8 45 -18q40 -31 40 -86q-1 -34 -16.5 -60t-40.5 -41t-51.5 -22.5t-53.5 -7.5q-116 0 -151 88q-3 9 -11 54
l63 8q1 -14 4 -27.5t12 -32.5t30 -30.5t52 -12.5q53 -1 77 27t23 61q0 19 -7 33t-20.5 22t-25 13t-31 6.5t-28.5 2t-26 0.5h-8l11 49q18 -2 24 -2q87 0 119 40q15 19 15 45q1 24 -15.5 44.5t-56.5 20.5q-42 0 -66.5 -28.5t-24.5 -70.5l-65 12q11 47 23 67q41 68 137 68
q52 -1 90 -29t39 -83zM818 377l-184 -207h133z" />
    <glyph glyph-name="questiondown" unicode="&#xbf;" 
d="M396 706l-26 -112h-92l25 112h93zM497 209q-6 -42 -7 -46q-20 -79 -80 -124t-152 -45t-150 46q-23 19 -39 46q-25 42 -25 98q0 86 60 141q41 36 86 47q10 4 45 8l35 149h78l-50 -215q-62 -3 -95 -18.5t-51 -45.5q-20 -34 -20 -70q1 -58 36 -87q31 -29 91 -29
q44 0 80.5 21.5t54.5 60.5q7 15 17 77z" />
    <glyph glyph-name="Agrave" unicode="&#xc0;" horiz-adv-x="667" 
d="M516 770h-54l-86 125h104zM607 0h-91l-25 222h-268l-128 -222h-95l409 706h108zM483 295l-35 353l-183 -353h218z" />
    <glyph glyph-name="Aacute" unicode="&#xc1;" horiz-adv-x="667" 
d="M630 895l-145 -127h-67l87 127h125zM607 0h-91l-25 222h-268l-128 -222h-95l409 706h108zM483 295l-35 353l-183 -353h218z" />
    <glyph glyph-name="Acircumflex" unicode="&#xc2;" horiz-adv-x="667" 
d="M595 767h-67l-33 79l-78 -79h-80l129 128h72zM607 0h-91l-25 222h-268l-128 -222h-95l409 706h108zM483 295l-35 353l-183 -353h218z" />
    <glyph glyph-name="Atilde" unicode="&#xc3;" horiz-adv-x="667" 
d="M664 871q-32 -56 -64 -77q-29 -18 -61 -18q-35 0 -85 20q-57 21 -76 20q-26 0 -49 -40l-30 12q6 12 14 26q41 72 109 72q19 0 82 -21q46 -15 76 -15q33 0 57 37zM607 0h-91l-25 222h-268l-128 -222h-95l409 706h108zM483 295l-35 353l-183 -353h218z" />
    <glyph glyph-name="Adieresis" unicode="&#xc4;" horiz-adv-x="667" 
d="M629 880l-24 -103h-91l24 103h91zM435 880l-23 -103h-91l23 103h91zM607 0h-91l-25 222h-268l-128 -222h-95l409 706h108zM483 295l-35 353l-183 -353h218z" />
    <glyph glyph-name="Aring" unicode="&#xc5;" horiz-adv-x="667" 
d="M565 857q0 -37 -26.5 -63.5t-63.5 -26.5t-63.5 26.5t-26.5 63.5q0 38 26 64t64 26q37 0 63.5 -26.5t26.5 -63.5zM607 0h-91l-25 222h-268l-128 -222h-95l409 706h108zM523 856q0 20 -14 33.5t-34 13.5q-19 0 -33 -13.5t-14 -33.5t14 -34t34 -14q19 0 33 14t14 34z
M483 295l-35 353l-183 -353h218z" />
    <glyph glyph-name="AE" unicode="&#xc6;" horiz-adv-x="1062" 
d="M1069 706l-17 -74h-346l-46 -233h347l-16 -70h-348l-58 -254h423l-17 -75h-507l51 225h-240l-203 -225h-110l649 706h438zM631 615l-272 -320h193z" />
    <glyph glyph-name="Ccedilla" unicode="&#xc7;" horiz-adv-x="771" 
d="M777 505l-89 -17q-14 50 -37 81q-59 80 -181 80q-74 0 -131.5 -31.5t-90.5 -82.5t-50 -110.5t-16 -121.5q2 -111 58.5 -178t169.5 -66q134 0 215 109q34 45 45 77l89 -12q-98 -233 -334 -245l-22 -31l5 -1q5 -1 11.5 -3t11.5 -5q48 -26 48 -77q0 -39 -31 -73t-94 -35
q-14 0 -56 6l7 29q6 0 14.5 -0.5t13.5 -0.5q36 0 50 18q8 10 8 23q0 42 -75 55l71 95q-76 8 -113 21q-80 30 -132.5 102.5t-54.5 192.5q-2 112 42 205.5t133 152t208 58.5q51 0 95.5 -10.5t87.5 -33.5t75 -66.5t49 -104.5z" />
    <glyph glyph-name="Egrave" unicode="&#xc8;" horiz-adv-x="625" 
d="M495 770h-54l-86 125h104zM678 706l-17 -75h-370l-54 -233h339l-16 -70h-339l-59 -253h420l-17 -75h-509l163 706h459z" />
    <glyph glyph-name="Eacute" unicode="&#xc9;" horiz-adv-x="625" 
d="M610 895l-146 -127h-67l87 127h126zM678 706l-17 -75h-370l-54 -233h339l-16 -70h-339l-59 -253h420l-17 -75h-509l163 706h459z" />
    <glyph glyph-name="Ecircumflex" unicode="&#xca;" horiz-adv-x="625" 
d="M574 767h-67l-33 79l-78 -79h-79l129 128h71zM678 706l-17 -75h-370l-54 -233h339l-16 -70h-339l-59 -253h420l-17 -75h-509l163 706h459z" />
    <glyph glyph-name="Edieresis" unicode="&#xcb;" horiz-adv-x="625" 
d="M623 880l-24 -103h-91l24 103h91zM429 880l-23 -103h-92l24 103h91zM678 706l-17 -75h-370l-54 -233h339l-16 -70h-339l-59 -253h420l-17 -75h-509l163 706h459z" />
    <glyph glyph-name="Igrave" unicode="&#xcc;" horiz-adv-x="271" 
d="M318 770h-54l-86 125h104zM306 706l-163 -706h-86l163 706h86z" />
    <glyph glyph-name="Iacute" unicode="&#xcd;" horiz-adv-x="271" 
d="M432 895l-145 -127h-67l87 127h125zM306 706l-163 -706h-86l163 706h86z" />
    <glyph glyph-name="Icircumflex" unicode="&#xce;" horiz-adv-x="271" 
d="M397 767h-67l-33 79l-78 -79h-79l128 128h72zM306 706l-163 -706h-86l163 706h86z" />
    <glyph glyph-name="Idieresis" unicode="&#xcf;" horiz-adv-x="271" 
d="M446 880l-24 -103h-91l24 103h91zM252 880l-24 -103h-91l24 103h91zM306 706l-163 -706h-86l163 706h86z" />
    <glyph glyph-name="Eth" unicode="&#xd0;" horiz-adv-x="729" 
d="M732 427q0 -50 -12 -104t-37 -112t-72.5 -107.5t-111.5 -76.5q-65 -27 -189 -27h-252l79 345h-79l16 67h79l68 294h194q47 0 77 -2t75.5 -15t76.5 -38q24 -20 42 -46q48 -69 46 -178zM644 431q0 43 -9 76.5t-21 54.5t-34.5 36t-38 22t-43.5 10.5t-38.5 3.5h-35.5h-132
l-51 -222h185l-15 -67h-186l-62 -273h153q91 0 135 17q61 23 111.5 89.5t71.5 165.5q10 46 10 87z" />
    <glyph glyph-name="Ntilde" unicode="&#xd1;" horiz-adv-x="729" 
d="M695 871q-47 -95 -125 -95q-35 0 -85 20q-55 21 -76 20q-27 0 -48 -40l-31 12q2 3 6.5 12t7.5 14q45 72 110 72q18 0 81 -21q48 -15 76 -15q33 0 57 37zM763 706l-163 -706h-91l-234 613l-133 -613h-85l163 706h95l231 -611l133 611h84z" />
    <glyph glyph-name="Ograve" unicode="&#xd2;" horiz-adv-x="792" 
d="M578 770h-54l-85 125h103zM793 393q-4 -173 -106 -285q-78 -86 -189 -111q-42 -10 -91 -10q-119 0 -197 62q-114 91 -114 259q0 171 100 289q38 44 86 73q84 50 195 50q159 0 244 -102q36 -43 54.5 -104t17.5 -121zM700 400q1 159 -106 220q-52 30 -117 30
q-128 0 -206 -97q-33 -41 -53 -98t-23.5 -89t-3.5 -59q0 -53 16 -99q23 -70 77.5 -110.5t128.5 -40.5q100 0 178 70q47 42 73.5 105t31 99t4.5 69z" />
    <glyph glyph-name="Oacute" unicode="&#xd3;" horiz-adv-x="792" 
d="M693 895l-146 -127h-66l86 127h126zM793 393q-4 -173 -106 -285q-78 -86 -189 -111q-42 -10 -91 -10q-119 0 -197 62q-114 91 -114 259q0 171 100 289q38 44 86 73q84 50 195 50q159 0 244 -102q36 -43 54.5 -104t17.5 -121zM700 400q1 159 -106 220q-52 30 -117 30
q-128 0 -206 -97q-33 -41 -53 -98t-23.5 -89t-3.5 -59q0 -53 16 -99q23 -70 77.5 -110.5t128.5 -40.5q100 0 178 70q47 42 73.5 105t31 99t4.5 69z" />
    <glyph glyph-name="Ocircumflex" unicode="&#xd4;" horiz-adv-x="792" 
d="M657 767h-66l-34 79l-78 -79h-79l129 128h72zM793 393q-4 -173 -106 -285q-78 -86 -189 -111q-42 -10 -91 -10q-119 0 -197 62q-114 91 -114 259q0 171 100 289q38 44 86 73q84 50 195 50q159 0 244 -102q36 -43 54.5 -104t17.5 -121zM700 400q1 159 -106 220
q-52 30 -117 30q-128 0 -206 -97q-33 -41 -53 -98t-23.5 -89t-3.5 -59q0 -53 16 -99q23 -70 77.5 -110.5t128.5 -40.5q100 0 178 70q47 42 73.5 105t31 99t4.5 69z" />
    <glyph glyph-name="Otilde" unicode="&#xd5;" horiz-adv-x="792" 
d="M727 871q-54 -95 -126 -95q-35 0 -85 20q-55 21 -76 20q-25 0 -48 -40l-30 12q6 12 14 26q41 72 109 72q18 0 81 -21q48 -15 76 -15q33 0 57 37zM793 393q-4 -173 -106 -285q-78 -86 -189 -111q-42 -10 -91 -10q-119 0 -197 62q-114 91 -114 259q0 171 100 289
q38 44 86 73q84 50 195 50q159 0 244 -102q36 -43 54.5 -104t17.5 -121zM700 400q1 159 -106 220q-52 30 -117 30q-128 0 -206 -97q-33 -41 -53 -98t-23.5 -89t-3.5 -59q0 -53 16 -99q23 -70 77.5 -110.5t128.5 -40.5q100 0 178 70q47 42 73.5 105t31 99t4.5 69z" />
    <glyph glyph-name="Odieresis" unicode="&#xd6;" horiz-adv-x="792" 
d="M666 880l-23 -103h-91l23 103h91zM473 880l-24 -103h-91l24 103h91zM793 393q-4 -173 -106 -285q-78 -86 -189 -111q-42 -10 -91 -10q-119 0 -197 62q-114 91 -114 259q0 171 100 289q38 44 86 73q84 50 195 50q159 0 244 -102q36 -43 54.5 -104t17.5 -121zM700 400
q1 159 -106 220q-52 30 -117 30q-128 0 -206 -97q-33 -41 -53 -98t-23.5 -89t-3.5 -59q0 -53 16 -99q23 -70 77.5 -110.5t128.5 -40.5q100 0 178 70q47 42 73.5 105t31 99t4.5 69z" />
    <glyph glyph-name="multiply" unicode="&#xd7;" horiz-adv-x="724" 
d="M656 465l-204 -166l143 -178l-69 -56l-142 178l-201 -163l-48 59l202 164l-142 176l68 56l142 -177l204 166z" />
    <glyph glyph-name="Oslash" unicode="&#xd8;" horiz-adv-x="792" 
d="M791 400q0 -126 -60 -230q-58 -99 -154 -146q-74 -37 -164 -37q-93 0 -165 38q-14 7 -38 23l-57 -63l-49 41l60 67q-12 12 -24 31q-46 73 -46 182q0 140 67 245q28 44 68 78q101 91 253 91q107 0 190 -60l53 61l48 -44l-54 -61q72 -86 72 -216zM617 600q-13 11 -26 20
q-51 32 -115 32q-71 0 -129 -34q-25 -15 -47 -35q-30 -27 -54 -63q-62 -95 -62 -220q0 -74 36 -144zM700 391q0 92 -40 160l-399 -446q22 -17 27 -19q51 -29 119 -29q94 0 166 53q62 46 94.5 122.5t32.5 158.5z" />
    <glyph glyph-name="Ugrave" unicode="&#xd9;" horiz-adv-x="708" 
d="M537 770h-54l-86 125h104zM754 706l-98 -424q0 -1 -3.5 -14.5t-7.5 -28.5t-9.5 -34t-13 -39t-15.5 -35q-59 -115 -190 -138q-33 -6 -71 -6q-87 0 -141 32t-77 76q-21 42 -21 100q0 56 23 155l82 356h88l-85 -365q-3 -12 -6.5 -34t-4.5 -29q-7 -44 -7 -67q0 -45 12 -74
q14 -31 48.5 -53t93.5 -22q65 0 110 26q18 12 32 26q28 29 46.5 74t37.5 130l89 388h88z" />
    <glyph glyph-name="Uacute" unicode="&#xda;" horiz-adv-x="708" 
d="M651 895l-146 -127h-66l87 127h125zM754 706l-98 -424q0 -1 -3.5 -14.5t-7.5 -28.5t-9.5 -34t-13 -39t-15.5 -35q-59 -115 -190 -138q-33 -6 -71 -6q-87 0 -141 32t-77 76q-21 42 -21 100q0 56 23 155l82 356h88l-85 -365q-3 -12 -6.5 -34t-4.5 -29q-7 -44 -7 -67
q0 -45 12 -74q14 -31 48.5 -53t93.5 -22q65 0 110 26q18 12 32 26q28 29 46.5 74t37.5 130l89 388h88z" />
    <glyph glyph-name="Ucircumflex" unicode="&#xdb;" horiz-adv-x="708" 
d="M616 767h-67l-33 79l-78 -79h-80l129 128h72zM754 706l-98 -424q0 -1 -3.5 -14.5t-7.5 -28.5t-9.5 -34t-13 -39t-15.5 -35q-59 -115 -190 -138q-33 -6 -71 -6q-87 0 -141 32t-77 76q-21 42 -21 100q0 56 23 155l82 356h88l-85 -365q-3 -12 -6.5 -34t-4.5 -29
q-7 -44 -7 -67q0 -45 12 -74q14 -31 48.5 -53t93.5 -22q65 0 110 26q18 12 32 26q28 29 46.5 74t37.5 130l89 388h88z" />
    <glyph glyph-name="Udieresis" unicode="&#xdc;" horiz-adv-x="708" 
d="M657 880l-24 -103h-91l24 103h91zM464 880l-24 -103h-91l24 103h91zM754 706l-98 -424q0 -1 -3.5 -14.5t-7.5 -28.5t-9.5 -34t-13 -39t-15.5 -35q-59 -115 -190 -138q-33 -6 -71 -6q-87 0 -141 32t-77 76q-21 42 -21 100q0 56 23 155l82 356h88l-85 -365q-3 -12 -6.5 -34
t-4.5 -29q-7 -44 -7 -67q0 -45 12 -74q14 -31 48.5 -53t93.5 -22q65 0 110 26q18 12 32 26q28 29 46.5 74t37.5 130l89 388h88z" />
    <glyph glyph-name="Yacute" unicode="&#xdd;" horiz-adv-x="583" 
d="M589 895l-146 -127h-67l87 127h126zM707 706l-359 -399l-70 -307h-89l73 317l-121 389h89l95 -319l276 319h106z" />
    <glyph glyph-name="Thorn" unicode="&#xde;" horiz-adv-x="646" 
d="M675 397q0 -127 -110 -187q-36 -19 -73 -28q-43 -10 -115 -10h-194l-39 -172h-88l163 706h88l-30 -129h197q41 0 77 -11q124 -35 124 -169zM587 395q0 77 -69 100q-20 7 -51 7h-207l-60 -257h178q67 0 108 13.5t69 46.5q32 39 32 90z" />
    <glyph glyph-name="germandbls" unicode="&#xdf;" 
d="M554 571q0 -43 -16 -77q-26 -55 -84 -74q-27 -9 -69 -11q1 0 11.5 -2.5t22.5 -6t22 -8.5q73 -35 73 -140q0 -19 -3.5 -43t-14.5 -64.5t-40 -76.5t-72 -55q-51 -22 -132 -22q-42 0 -82 9l17 71q64 -11 73 -11q63 0 100 22.5t57 79.5q17 51 17 93q0 39 -18 68
q-16 25 -44.5 35.5t-83.5 12.5l17 74q93 -5 137 41q30 30 30 80q0 22 -8 39q-21 45 -83 45q-61 0 -96 -41q-33 -37 -62 -164l-103 -445h-75l113 493q12 49 19 70q22 64 52 94t70 44t83 14q73 0 122.5 -36.5t49.5 -107.5z" />
    <glyph glyph-name="agrave" unicode="&#xe0;" horiz-adv-x="500" 
d="M392 531h-53l-95 152h102zM470 69l-15 -65q-28 -7 -47 -7q-17 0 -29 4q-34 10 -40 47q-1 8 1 21q-13 -20 -20 -27q-52 -52 -144 -52q-74 0 -107 36t-33 81q0 35 18 68q33 64 130 85q30 6 96 15t99 16q10 45 10 62q0 67 -91 67q-40 0 -64 -13q-40 -21 -51 -82l-89 8
q10 29 21.5 49t34.5 45.5t62.5 39t92.5 13.5q70 0 114 -29q23 -14 36 -33q15 -21 15 -55q0 -23 -9 -63l-43 -185q-4 -18 -4 -29q0 -17 12 -22q6 -2 13 -2q12 0 31 7zM365 230q-65 -8 -101 -14q-68 -11 -104 -36q-37 -26 -37 -66q0 -26 19 -45.5t61 -19.5q23 0 53 10t48 24
q34 27 48 91z" />
    <glyph glyph-name="aacute" unicode="&#xe1;" horiz-adv-x="500" 
d="M481 683l-143 -150h-61l87 150h117zM470 69l-15 -65q-28 -7 -47 -7q-17 0 -29 4q-34 10 -40 47q-1 8 1 21q-13 -20 -20 -27q-52 -52 -144 -52q-74 0 -107 36t-33 81q0 35 18 68q33 64 130 85q30 6 96 15t99 16q10 45 10 62q0 67 -91 67q-40 0 -64 -13q-40 -21 -51 -82
l-89 8q10 29 21.5 49t34.5 45.5t62.5 39t92.5 13.5q70 0 114 -29q23 -14 36 -33q15 -21 15 -55q0 -23 -9 -63l-43 -185q-4 -18 -4 -29q0 -17 12 -22q6 -2 13 -2q12 0 31 7zM365 230q-65 -8 -101 -14q-68 -11 -104 -36q-37 -26 -37 -66q0 -26 19 -45.5t61 -19.5q23 0 53 10
t48 24q34 27 48 91z" />
    <glyph glyph-name="acircumflex" unicode="&#xe2;" horiz-adv-x="500" 
d="M478 529h-68l-45 106l-101 -106h-82l155 154h73zM470 69l-15 -65q-28 -7 -47 -7q-17 0 -29 4q-34 10 -40 47q-1 8 1 21q-13 -20 -20 -27q-52 -52 -144 -52q-74 0 -107 36t-33 81q0 35 18 68q33 64 130 85q30 6 96 15t99 16q10 45 10 62q0 67 -91 67q-40 0 -64 -13
q-40 -21 -51 -82l-89 8q10 29 21.5 49t34.5 45.5t62.5 39t92.5 13.5q70 0 114 -29q23 -14 36 -33q15 -21 15 -55q0 -23 -9 -63l-43 -185q-4 -18 -4 -29q0 -17 12 -22q6 -2 13 -2q12 0 31 7zM365 230q-65 -8 -101 -14q-68 -11 -104 -36q-37 -26 -37 -66q0 -26 19 -45.5
t61 -19.5q23 0 53 10t48 24q34 27 48 91z" />
    <glyph glyph-name="atilde" unicode="&#xe3;" horiz-adv-x="500" 
d="M508 646q-23 -43 -50 -65q-12 -11 -26 -17q-16 -6 -31 -6q-27 0 -91 26q-37 14 -46 14q-25 0 -47 -31l-29 8q8 16 16 28q38 59 92 59q13 0 25 -4t27.5 -10.5t24.5 -9.5l27 -9q16 -5 28 -5q10 0 20 5q13 5 19 11.5t15 21.5zM470 69l-15 -65q-28 -7 -47 -7q-17 0 -29 4
q-34 10 -40 47q-1 8 1 21q-13 -20 -20 -27q-52 -52 -144 -52q-74 0 -107 36t-33 81q0 35 18 68q33 64 130 85q30 6 96 15t99 16q10 45 10 62q0 67 -91 67q-40 0 -64 -13q-40 -21 -51 -82l-89 8q10 29 21.5 49t34.5 45.5t62.5 39t92.5 13.5q70 0 114 -29q23 -14 36 -33
q15 -21 15 -55q0 -23 -9 -63l-43 -185q-4 -18 -4 -29q0 -17 12 -22q6 -2 13 -2q12 0 31 7zM365 230q-65 -8 -101 -14q-68 -11 -104 -36q-37 -26 -37 -66q0 -26 19 -45.5t61 -19.5q23 0 53 10t48 24q34 27 48 91z" />
    <glyph glyph-name="adieresis" unicode="&#xe4;" horiz-adv-x="500" 
d="M493 653l-24 -101h-90l23 101h91zM299 653l-23 -101h-92l24 101h91zM470 69l-15 -65q-28 -7 -47 -7q-17 0 -29 4q-34 10 -40 47q-1 8 1 21q-13 -20 -20 -27q-52 -52 -144 -52q-74 0 -107 36t-33 81q0 35 18 68q33 64 130 85q30 6 96 15t99 16q10 45 10 62q0 67 -91 67
q-40 0 -64 -13q-40 -21 -51 -82l-89 8q10 29 21.5 49t34.5 45.5t62.5 39t92.5 13.5q70 0 114 -29q23 -14 36 -33q15 -21 15 -55q0 -23 -9 -63l-43 -185q-4 -18 -4 -29q0 -17 12 -22q6 -2 13 -2q12 0 31 7zM365 230q-65 -8 -101 -14q-68 -11 -104 -36q-37 -26 -37 -66
q0 -26 19 -45.5t61 -19.5q23 0 53 10t48 24q34 27 48 91z" />
    <glyph glyph-name="aring" unicode="&#xe5;" horiz-adv-x="500" 
d="M427 610q0 -37 -26.5 -63.5t-64.5 -26.5q-37 0 -63 26.5t-26 63.5q0 38 26.5 64t63.5 26t63.5 -26.5t26.5 -63.5zM470 69l-15 -65q-28 -7 -47 -7q-17 0 -29 4q-34 10 -40 47q-1 8 1 21q-13 -20 -20 -27q-52 -52 -144 -52q-74 0 -107 36t-33 81q0 35 18 68q33 64 130 85
q30 6 96 15t99 16q10 45 10 62q0 67 -91 67q-40 0 -64 -13q-40 -21 -51 -82l-89 8q10 29 21.5 49t34.5 45.5t62.5 39t92.5 13.5q70 0 114 -29q23 -14 36 -33q15 -21 15 -55q0 -23 -9 -63l-43 -185q-4 -18 -4 -29q0 -17 12 -22q6 -2 13 -2q12 0 31 7zM385 609q0 20 -14 33.5
t-34 13.5t-33.5 -14t-13.5 -34t14 -33.5t34 -13.5q19 0 33 14t14 34zM365 230q-65 -8 -101 -14q-68 -11 -104 -36q-37 -26 -37 -66q0 -26 19 -45.5t61 -19.5q23 0 53 10t48 24q34 27 48 91z" />
    <glyph glyph-name="ae" unicode="&#xe6;" horiz-adv-x="833" 
d="M810 284q0 -20 -4 -58h-363q-2 -22 -2 -33q0 -87 65 -126q33 -19 75 -19q67 0 106 44q13 14 31 52l77 -10q-17 -41 -38 -69q-64 -77 -181 -77q-107 0 -167 61q-13 13 -31 41q-6 -8 -18 -22q-71 -80 -181 -80q-31 0 -61 10q-84 31 -84 111q0 36 21.5 73.5t75.5 60.5
q21 9 57 17t58.5 12t70 10t52.5 7q8 48 8 61q0 54 -46 68q-15 6 -37 6q-24 -1 -44 -8q-49 -17 -68 -83l-87 13q18 39 31 57q59 80 168 80q85 0 128 -48q11 -13 23 -35q15 18 26 28q61 55 151 55q48 0 85 -16q103 -45 103 -183zM733 283q0 37 -1 44q-6 39 -30 62t-44 28
t-40 5q-53 0 -96 -33q-35 -26 -59 -78q-4 -8 -9 -28h279zM360 233q-129 -21 -167 -35q-51 -19 -67 -48q-8 -16 -7 -33q0 -19 11 -37q22 -35 77 -35q32 0 62 17.5t48 45.5q28 43 43 125z" />
    <glyph glyph-name="ccedilla" unicode="&#xe7;" horiz-adv-x="509" 
d="M509 340l-74 -17q-20 95 -113 96q-45 0 -79.5 -23.5t-54.5 -53.5q-46 -64 -45 -152q0 -56 30.5 -99.5t91.5 -44.5q68 0 111 52q5 6 10 13.5t8.5 14.5t6 12.5t3.5 9.5l2 5l82 -10q-8 -23 -23.5 -46.5t-40.5 -49t-63.5 -42t-83.5 -16.5l-23 -31q61 -10 59 -64
q-1 -28 -20 -49q-32 -37 -100 -37q-13 0 -27 2l6 27h13q48 0 48 31q0 30 -52 37l61 85l-14 1q-82 6 -125 62t-41 134q0 75 29 139q27 60 85 108.5t149 48.5q86 0 133.5 -43t50.5 -100z" />
    <glyph glyph-name="egrave" unicode="&#xe8;" horiz-adv-x="521" 
d="M402 531h-53l-94 152h101zM500 290q0 -31 -6 -63h-353q-12 -110 53 -154q34 -24 78 -24q66 2 106 48q15 18 28 48l75 -13q-10 -23 -19 -38q-26 -41 -76.5 -73.5t-129.5 -32.5q-36 0 -69 10q-63 20 -94 71t-31 120q0 29 4.5 60t28 83t63.5 88q68 63 164 63q82 0 130 -49
q48 -52 48 -144zM422 285q4 43 -10 75q-10 25 -30.5 40t-35.5 18.5t-29 3.5q-24 0 -44 -8q-51 -17 -85 -64q-12 -15 -21 -34q-2 -5 -11 -31h266z" />
    <glyph glyph-name="eacute" unicode="&#xe9;" horiz-adv-x="521" 
d="M492 683l-144 -150h-60l86 150h118zM500 290q0 -31 -6 -63h-353q-12 -110 53 -154q34 -24 78 -24q66 2 106 48q15 18 28 48l75 -13q-10 -23 -19 -38q-26 -41 -76.5 -73.5t-129.5 -32.5q-36 0 -69 10q-63 20 -94 71t-31 120q0 29 4.5 60t28 83t63.5 88q68 63 164 63
q82 0 130 -49q48 -52 48 -144zM422 285q4 43 -10 75q-10 25 -30.5 40t-35.5 18.5t-29 3.5q-24 0 -44 -8q-51 -17 -85 -64q-12 -15 -21 -34q-2 -5 -11 -31h266z" />
    <glyph glyph-name="ecircumflex" unicode="&#xea;" horiz-adv-x="521" 
d="M488 529h-67l-46 106l-100 -106h-82l155 154h72zM500 290q0 -31 -6 -63h-353q-12 -110 53 -154q34 -24 78 -24q66 2 106 48q15 18 28 48l75 -13q-10 -23 -19 -38q-26 -41 -76.5 -73.5t-129.5 -32.5q-36 0 -69 10q-63 20 -94 71t-31 120q0 29 4.5 60t28 83t63.5 88
q68 63 164 63q82 0 130 -49q48 -52 48 -144zM422 285q4 43 -10 75q-10 25 -30.5 40t-35.5 18.5t-29 3.5q-24 0 -44 -8q-51 -17 -85 -64q-12 -15 -21 -34q-2 -5 -11 -31h266z" />
    <glyph glyph-name="edieresis" unicode="&#xeb;" horiz-adv-x="521" 
d="M522 653l-23 -101h-91l24 101h90zM329 653l-24 -101h-91l23 101h92zM500 290q0 -31 -6 -63h-353q-12 -110 53 -154q34 -24 78 -24q66 2 106 48q15 18 28 48l75 -13q-10 -23 -19 -38q-26 -41 -76.5 -73.5t-129.5 -32.5q-36 0 -69 10q-63 20 -94 71t-31 120q0 29 4.5 60
t28 83t63.5 88q68 63 164 63q82 0 130 -49q48 -52 48 -144zM422 285q4 43 -10 75q-10 25 -30.5 40t-35.5 18.5t-29 3.5q-24 0 -44 -8q-51 -17 -85 -64q-12 -15 -21 -34q-2 -5 -11 -31h266z" />
    <glyph glyph-name="igrave" unicode="&#xec;" horiz-adv-x="229" 
d="M251 531h-53l-94 152h101zM228 471l-109 -471h-77l108 471h78z" />
    <glyph glyph-name="iacute" unicode="&#xed;" horiz-adv-x="229" 
d="M356 683l-143 -150h-61l87 150h117zM228 471l-109 -471h-77l108 471h78z" />
    <glyph glyph-name="icircumflex" unicode="&#xee;" horiz-adv-x="229" 
d="M342 529h-67l-46 106l-100 -106h-82l155 154h72zM228 471l-109 -471h-77l108 471h78z" />
    <glyph glyph-name="idieresis" unicode="&#xef;" horiz-adv-x="229" 
d="M377 653l-24 -101h-91l24 101h91zM183 653l-23 -101h-92l24 101h91zM228 471l-109 -471h-77l108 471h78z" />
    <glyph glyph-name="eth" unicode="&#xf0;" 
d="M536 606l-79 -21q69 -121 69 -272q0 -135 -64 -221q-30 -41 -66 -65q-58 -38 -134 -39q-94 -1 -147.5 58t-53.5 151q-1 71 31 136t93.5 107.5t137.5 42.5q48 0 76.5 -17.5t51.5 -49.5q-13 75 -54 152l-165 -45l-15 44l154 43q-45 59 -64 80l55 31q36 -43 70 -94l87 24z
M442 283q0 32 -6 54q-9 32 -35.5 58.5t-73.5 26.5q-41 0 -79 -21q-57 -33 -82 -94.5t-24 -121.5q1 -71 34.5 -103.5t81.5 -33.5q44 -1 80 22q54 32 79 94t25 119z" />
    <glyph glyph-name="ntilde" unicode="&#xf1;" 
d="M528 646q-24 -45 -49 -65q-12 -11 -26 -17q-16 -6 -31 -6q-27 0 -91 26q-37 14 -46 14q-25 0 -47 -31l-29 8q5 10 15 28q38 59 93 59q10 0 21 -2.5t17.5 -5t19.5 -8.5t19 -8q3 -1 6.5 -2.5t6.5 -2t7 -2t7 -2.5q16 -5 28 -5q10 0 20 5q5 2 8.5 4.5t6 4t5.5 5.5t4 5t5 6.5
t5 7.5zM510 363q0 -28 -11 -79l-66 -284h-78l67 291q7 29 7 54q0 36 -22 55.5t-59 19.5q-79 0 -123 -59q-29 -36 -51 -129l-54 -232h-79l109 471h79l-15 -68q76 80 161 80q24 0 51 -9q12 -4 23.5 -10.5t26.5 -19.5t24.5 -34t9.5 -47z" />
    <glyph glyph-name="ograve" unicode="&#xf2;" 
d="M412 531h-52l-95 152h102zM522 282q3 -109 -63 -196q-75 -98 -199 -98q-41 0 -77 13q-47 18 -84 64.5t-37 129.5q0 103 54 179q27 38 71 68q64 41 139 41q43 0 79 -15q112 -45 117 -186zM442 291q0 33 -10 58q-13 34 -41 53.5t-64 19.5q-35 0 -70 -17
q-56 -27 -85.5 -87.5t-29.5 -128.5q0 -86 51 -120q31 -21 67 -21q24 0 57 12t60 42q33 36 50 87t15 102z" />
    <glyph glyph-name="oacute" unicode="&#xf3;" 
d="M502 683l-143 -150h-61l87 150h117zM522 282q3 -109 -63 -196q-75 -98 -199 -98q-41 0 -77 13q-47 18 -84 64.5t-37 129.5q0 103 54 179q27 38 71 68q64 41 139 41q43 0 79 -15q112 -45 117 -186zM442 291q0 33 -10 58q-13 34 -41 53.5t-64 19.5q-35 0 -70 -17
q-56 -27 -85.5 -87.5t-29.5 -128.5q0 -86 51 -120q31 -21 67 -21q24 0 57 12t60 42q33 36 50 87t15 102z" />
    <glyph glyph-name="ocircumflex" unicode="&#xf4;" 
d="M498 529h-67l-45 106l-101 -106h-82l155 154h72zM522 282q3 -109 -63 -196q-75 -98 -199 -98q-41 0 -77 13q-47 18 -84 64.5t-37 129.5q0 103 54 179q27 38 71 68q64 41 139 41q43 0 79 -15q112 -45 117 -186zM442 291q0 33 -10 58q-13 34 -41 53.5t-64 19.5
q-35 0 -70 -17q-56 -27 -85.5 -87.5t-29.5 -128.5q0 -86 51 -120q31 -21 67 -21q24 0 57 12t60 42q33 36 50 87t15 102z" />
    <glyph glyph-name="otilde" unicode="&#xf5;" 
d="M528 646q-24 -45 -49 -65q-12 -11 -26 -17q-16 -6 -31 -6q-27 0 -91 26q-37 14 -46 14q-25 0 -47 -31l-29 8q5 10 15 28q38 59 93 59q10 0 21 -2.5t17.5 -5t19.5 -8.5t19 -8q3 -1 6.5 -2.5t6.5 -2t7 -2t7 -2.5q16 -5 28 -5q10 0 20 5q5 2 8.5 4.5t6 4t5.5 5.5t4 5t5 6.5
t5 7.5zM522 282q3 -109 -63 -196q-75 -98 -199 -98q-41 0 -77 13q-47 18 -84 64.5t-37 129.5q0 103 54 179q27 38 71 68q64 41 139 41q43 0 79 -15q112 -45 117 -186zM442 291q0 33 -10 58q-13 34 -41 53.5t-64 19.5q-35 0 -70 -17q-56 -27 -85.5 -87.5t-29.5 -128.5
q0 -86 51 -120q31 -21 67 -21q24 0 57 12t60 42q33 36 50 87t15 102z" />
    <glyph glyph-name="odieresis" unicode="&#xf6;" 
d="M511 653l-24 -101h-90l23 101h91zM318 653l-24 -101h-91l23 101h92zM522 282q3 -109 -63 -196q-75 -98 -199 -98q-41 0 -77 13q-47 18 -84 64.5t-37 129.5q0 103 54 179q27 38 71 68q64 41 139 41q43 0 79 -15q112 -45 117 -186zM442 291q0 33 -10 58q-13 34 -41 53.5
t-64 19.5q-35 0 -70 -17q-56 -27 -85.5 -87.5t-29.5 -128.5q0 -86 51 -120q31 -21 67 -21q24 0 57 12t60 42q33 36 50 87t15 102z" />
    <glyph glyph-name="divide" unicode="&#xf7;" horiz-adv-x="724" 
d="M501 509l-23 -101h-101l23 101h101zM691 341l-18 -80h-566l19 80h565zM429 191l-23 -101h-102l23 101h102z" />
    <glyph glyph-name="oslash" unicode="&#xf8;" 
d="M528 453l-45 -46q14 -20 21 -36q18 -44 18 -97q0 -34 -7 -64q-22 -105 -100 -169q-64 -53 -154 -53q-37 0 -67.5 9.5t-44.5 19.5t-31 26l-50 -48l-34 34l55 54q-4 7 -10 19q-17 40 -17 93q0 20 3.5 45.5t18.5 68.5t40 75q31 40 75 64t72.5 29.5t54.5 5.5q63 0 123 -40
l44 44zM402 397q-35 25 -77 25q-75 0 -127 -62q-60 -71 -60 -168q0 -18 6 -53zM447 287q0 37 -16 71l-266 -267q6 -8 18 -18q37 -27 80 -26q43 0 84 27q48 33 74 92t26 121z" />
    <glyph glyph-name="ugrave" unicode="&#xf9;" 
d="M402 531h-53l-94 152h101zM543 471l-109 -471h-75l17 74q-19 -22 -26 -28q-61 -55 -146 -55q-32 0 -57 9q-73 26 -73 102q0 17 15 89l64 280h79l-65 -280q-10 -42 -10 -69q0 -19 6 -31q20 -35 78 -35q69 0 114 47q8 8 14.5 18t11.5 17.5t10 20.5t7.5 19t6.5 22t5 20.5
t5 23t5 20.5l48 207h75z" />
    <glyph glyph-name="uacute" unicode="&#xfa;" 
d="M502 683l-143 -150h-61l87 150h117zM543 471l-109 -471h-75l17 74q-19 -22 -26 -28q-61 -55 -146 -55q-32 0 -57 9q-73 26 -73 102q0 17 15 89l64 280h79l-65 -280q-10 -42 -10 -69q0 -19 6 -31q20 -35 78 -35q69 0 114 47q8 8 14.5 18t11.5 17.5t10 20.5t7.5 19t6.5 22
t5 20.5t5 23t5 20.5l48 207h75z" />
    <glyph glyph-name="ucircumflex" unicode="&#xfb;" 
d="M498 529h-67l-45 106l-101 -106h-82l155 154h72zM543 471l-109 -471h-75l17 74q-19 -22 -26 -28q-61 -55 -146 -55q-32 0 -57 9q-73 26 -73 102q0 17 15 89l64 280h79l-65 -280q-10 -42 -10 -69q0 -19 6 -31q20 -35 78 -35q69 0 114 47q8 8 14.5 18t11.5 17.5t10 20.5
t7.5 19t6.5 22t5 20.5t5 23t5 20.5l48 207h75z" />
    <glyph glyph-name="udieresis" unicode="&#xfc;" 
d="M534 653l-24 -101h-91l24 101h91zM340 653l-23 -101h-92l24 101h91zM543 471l-109 -471h-75l17 74q-19 -22 -26 -28q-61 -55 -146 -55q-32 0 -57 9q-73 26 -73 102q0 17 15 89l64 280h79l-65 -280q-10 -42 -10 -69q0 -19 6 -31q20 -35 78 -35q69 0 114 47q8 8 14.5 18
t11.5 17.5t10 20.5t7.5 19t6.5 22t5 20.5t5 23t5 20.5l48 207h75z" />
    <glyph glyph-name="yacute" unicode="&#xfd;" horiz-adv-x="458" 
d="M461 683l-144 -150h-60l86 150h118zM509 471l-356 -602q-17 -29 -27 -43.5t-29 -29.5t-43 -22q-17 -5 -54 -5q-26 0 -54 3l16 68q28 -2 37 -2q35 0 53 15t42 56l58 99l-53 463h78l37 -376l208 376h87z" />
    <glyph glyph-name="thorn" unicode="&#xfe;" 
d="M526 287q-1 -66 -27.5 -134t-84.5 -115q-59 -47 -138 -47q-59 1 -89 25t-47 65l-69 -296h-77l213 921h77l-68 -294q54 68 140 68q28 0 55.5 -9t55 -29t44 -60t15.5 -95zM448 293q0 22 -4 38q-6 28 -21 47t-33 26.5t-30 10t-22 2.5q-115 0 -156 -147q-15 -52 -15 -103
q0 -34 11.5 -58t30 -34.5t34.5 -15t32 -4.5q41 0 76 23q52 35 75 96.5t22 118.5z" />
    <glyph glyph-name="ydieresis" unicode="&#xff;" horiz-adv-x="458" 
d="M491 653l-23 -101h-91l23 101h91zM297 653l-23 -101h-91l23 101h91zM509 471l-356 -602q-22 -36 -36 -52q-24 -30 -50.5 -39t-70.5 -9q-26 0 -50 3l16 68q24 -2 37 -2q21 0 36 6q6 2 12 5.5t11 8.5l8.5 8.5t8 10.5t6.5 10.5t6.5 11t6.5 10.5l58 99l-53 463h78l37 -376
l208 376h87z" />
    <glyph glyph-name="OE" unicode="&#x152;" horiz-adv-x="1104" 
d="M1122 706l-11 -73h-338l-48 -233h327l-17 -69h-326l-52 -257h402l-17 -74h-485l21 89q-25 -29 -36 -39q-68 -59 -175 -59q-52 0 -98 18q-42 17 -74.5 45.5t-50.5 61.5t-26.5 55t-13.5 42q-10 46 -10 93q1 120 44 201t99 127q96 81 223 81q103 0 168 -54q21 -17 37 -41
q7 -9 15 -31l23 117h419zM637 448q2 101 -54 153q-31 28 -69 37q-22 6 -58 6q-102 0 -176 -80q-39 -43 -59 -87q-17 -37 -26 -88q-8 -37 -8 -85q0 -116 59 -180q33 -36 75 -49q25 -9 61 -9q24 0 40 4q70 14 119 70q28 32 50 81q46 104 46 227z" />
    <glyph glyph-name="oe" unicode="&#x153;" horiz-adv-x="875" 
d="M854 291q0 -26 -7 -67h-351q-14 -106 60 -155q36 -23 73 -23q64 0 107 54q12 16 27 47l76 -12q-10 -23 -13 -28q-31 -51 -67 -77q-57 -42 -137 -42q-77 0 -134 41q-10 7 -19 15.5t-13.5 14.5t-10 13.5t-7.5 9.5q-27 -28 -48 -45q-69 -48 -140 -48q-47 0 -85 19
q-103 48 -103 185q0 113 64 198q70 92 187 92q42 0 82 -15.5t65 -44.5q9 -10 24 -36q22 26 36 39q63 57 150 57q50 0 91 -21q93 -45 93 -171zM774 283q5 37 -3 65q-10 33 -38.5 53.5t-64.5 20.5q-37 0 -74 -22q-30 -19 -51 -47t-29 -47q-4 -8 -7 -23h267zM424 294
q0 71 -44 106q-31 23 -68 23t-74 -23q-41 -26 -65 -75t-28 -78t-4 -52q0 -35 10 -65q14 -44 45 -62t58 -18q60 0 109 56q26 31 41 74t18 69t2 45z" />
    <glyph glyph-name="Scaron" unicode="&#x160;" horiz-adv-x="667" 
d="M638 895l-128 -128h-72l-56 128h65l35 -80l77 80h79zM691 530l-87 -21l-2 9q-2 9 -4.5 18.5t-7 22.5t-10.5 22q-43 71 -149 71q-78 0 -124.5 -35.5t-44.5 -86.5q0 -12 4.5 -23t9 -19t15.5 -16.5t17 -13t21 -12t19.5 -9.5t21 -8t17.5 -7l80 -32q69 -28 98 -53
q60 -51 59 -132q-1 -89 -72 -153.5t-210 -64.5q-164 0 -235 86q-46 56 -46 155l94 18v-24q0 -84 53 -126.5t135 -42.5q125 0 172 80q17 28 18 62q0 29 -12 49q-13 23 -32.5 35t-66.5 31l-86 34q-43 17 -65 30q-102 53 -102 150q0 84 69 140t197 56q174 0 233 -110
q20 -37 23 -80z" />
    <glyph glyph-name="scaron" unicode="&#x161;" horiz-adv-x="479" 
d="M521 683l-155 -153h-71l-70 153h67l46 -104l102 104h81zM458 359q0 -7 -1 -18l-76 -13q3 9 3 27q0 16 -7 28q-23 42 -84 42q-41 0 -70 -16q-37 -20 -37 -56q0 -6 1.5 -12t5 -11t6 -8.5t8.5 -7.5l9 -6t11 -5.5t10.5 -4.5t11 -4t9.5 -4l77 -30q2 -1 31 -14q72 -33 72 -102
q0 -71 -59 -116q-52 -40 -148 -40q-40 0 -69 7q-16 4 -32 10.5t-37 21t-34 41.5t-13 63q0 15 3 31l80 13q-6 -36 -6 -40q0 -44 31 -68q28 -20 81 -20q71 0 102 37q17 20 17 46q0 23 -16 38t-55 30l-83 32l-40 20q-57 35 -57 93q0 43 29 78q54 62 160 62q122 0 155 -73
q11 -22 11 -51z" />
    <glyph glyph-name="Ydieresis" unicode="&#x178;" horiz-adv-x="583" 
d="M602 880l-24 -103h-91l24 103h91zM409 880l-24 -103h-92l24 103h92zM707 706l-359 -399l-70 -307h-89l73 317l-121 389h89l95 -319l276 319h106z" />
    <glyph glyph-name="florin" unicode="&#x192;" horiz-adv-x="250" 
d="M348 669l-14 -60q-25 4 -34 4q-15 0 -24.5 -4t-15.5 -17t-7 -17l-6 -24l-27 -115h85l-14 -60h-84l-105 -453q-2 -21 -15 -60t-27 -55q-33 -37 -107 -37q-14 0 -52 4l15 65q18 -3 32 -3q21 0 34.5 5t21.5 18t11 22t8 31q1 5 2 8l105 455h-74l14 60h74l28 123q11 49 23 69
q31 49 98 49q28 0 55 -8z" />
    <glyph glyph-name="circumflex" unicode="&#x2c6;" horiz-adv-x="292" 
d="M294 529h-68l-45 106l-100 -106h-83l155 154h73z" />
    <glyph glyph-name="tilde" unicode="&#x2dc;" horiz-adv-x="292" 
d="M306 646q-23 -43 -50 -65q-12 -11 -26 -17q-16 -6 -31 -6q-27 0 -91 26q-37 14 -46 14q-25 0 -47 -31l-29 8q8 16 16 28q38 59 92 59q13 0 25 -4t27.5 -10.5t24.5 -9.5l27 -9q16 -5 28 -5q10 0 20 5q13 5 19 11.5t15 21.5z" />
    <glyph glyph-name="endash" unicode="&#x2013;" horiz-adv-x="600" 
d="M598 338l-18 -76h-510l18 76h510z" />
    <glyph glyph-name="emdash" unicode="&#x2014;" horiz-adv-x="895" 
d="M893 338l-18 -76h-805l18 76h805z" />
    <glyph glyph-name="quoteleft" unicode="&#x2018;" horiz-adv-x="229" 
d="M277 706q-51 -92 -62 -154h37l-21 -110h-97q16 130 93 264h50z" />
    <glyph glyph-name="quoteright" unicode="&#x2019;" horiz-adv-x="229" 
d="M295 706q-15 -121 -99 -267h-51q45 75 63 156h-38l26 111h99z" />
    <glyph glyph-name="quotesinglbase" unicode="&#x201a;" horiz-adv-x="229" 
d="M152 110q-18 -146 -95 -264h-49q50 88 64 154h-41l26 110h95z" />
    <glyph glyph-name="quotedblleft" unicode="&#x201c;" horiz-adv-x="354" 
d="M416 706q-47 -73 -64 -153h42l-26 -110h-97q17 132 97 263h48zM261 706q-41 -80 -60 -153h40l-26 -110h-94q17 135 93 263h47z" />
    <glyph glyph-name="quotedblright" unicode="&#x201d;" horiz-adv-x="354" 
d="M435 706q-23 -128 -98 -262h-45q41 82 61 154h-42l25 108h99zM274 706q-3 -23 -7 -43t-10.5 -41t-10 -33.5t-14 -36t-14 -32t-17.5 -38t-18 -38.5h-45q45 91 58 154h-44l25 108h97z" />
    <glyph glyph-name="quotedblbase" unicode="&#x201e;" horiz-adv-x="354" 
d="M292 111q-15 -128 -92 -263h-47q46 93 60 152h-41l26 111h94zM141 111q-18 -128 -94 -263h-48q44 82 62 152h-42l26 111h96z" />
    <glyph glyph-name="dagger" unicode="&#x2020;" horiz-adv-x="479" 
d="M542 528l-17 -74h-176l-107 -454h-78l109 454h-180l17 74h180l39 178h79l-41 -178h175z" />
    <glyph glyph-name="daggerdbl" unicode="&#x2021;" horiz-adv-x="458" 
d="M507 546l-15 -64h-147l-58 -235h146l-15 -64h-145l-42 -183h-74l40 181h-145l16 66h146l57 235h-150l16 64h151l37 160h71l-36 -160h147z" />
    <glyph glyph-name="bullet" unicode="&#x2022;" horiz-adv-x="333" 
d="M352 466l-51 -225h-228l52 225h227z" />
    <glyph glyph-name="ellipsis" unicode="&#x2026;" horiz-adv-x="1000" 
d="M868 93l-22 -93h-94l21 93h95zM534 93l-22 -93h-94l21 93h95zM200 93l-21 -93h-95l22 93h94z" />
    <glyph glyph-name="perthousand" unicode="&#x2030;" horiz-adv-x="1312" 
d="M1304 265q0 -20 -8 -64q-20 -108 -91 -168q-49 -41 -107 -41q-45 0 -76 22q-63 42 -63 152q0 69 24.5 136.5t73.5 107.5q48 39 107 39q48 0 80 -24t43 -60.5t14.5 -59.5t2.5 -40zM908 265q0 -17 -8 -60q-27 -119 -90 -172q-49 -41 -108 -41q-44 0 -75 22q-64 43 -64 152
q0 69 25 136.5t74 107.5q48 39 107 39q39 0 68 -17.5t42 -40t20.5 -52t8.5 -46t0 -28.5zM700 669l-362 -698l-44 23l363 697zM435 489q-1 -26 -5.5 -57t-28.5 -85.5t-63 -88.5q-52 -42 -109 -42q-42 0 -74 22q-64 43 -64 151q0 69 25 137t74 108q48 39 106 39q45 0 76 -22
q34 -24 49.5 -69t13.5 -93zM1243 268q0 70 -16 98q-9 17 -27 28t-36 10q-32 0 -63 -27q-41 -35 -61.5 -99t-20.5 -126q0 -67 36 -97q20 -17 46 -17q30 0 57 22q68 53 85 208zM848 268q0 68 -17 98q-9 17 -27 28t-36 10q-32 0 -63 -27q-41 -35 -61.5 -99t-20.5 -126
q0 -67 36 -97q20 -17 46 -17q30 0 57 22q69 54 86 208zM375 489q2 68 -16 100q-21 38 -63 38q-54 0 -95 -63q-50 -81 -50 -186q0 -74 39 -103q17 -14 43 -14q47 0 87 54q22 30 37.5 81t17.5 93z" />
    <glyph glyph-name="guilsinglleft" unicode="&#x2039;" horiz-adv-x="229" 
d="M254 475l-23 -96l-88 -58l60 -66l-19 -80l-110 119l15 66z" />
    <glyph glyph-name="guilsinglright" unicode="&#x203a;" horiz-adv-x="229" 
d="M235 355l-16 -69l-164 -113l22 94l89 60l-60 66l18 80z" />
    <glyph glyph-name="Euro" unicode="&#x20ac;" horiz-adv-x="772" 
d="M784 604l-48 -80q-61 118 -201 118q-197 0 -271 -202h426l-37 -62h-403q-4 -24 -6 -49h382l-38 -62h-345q8 -100 67.5 -157t158.5 -57q76 0 131.5 20t108.5 71l-27 -109q-90 -53 -216 -53q-136 0 -221.5 75t-95.5 210h-90l38 62h51q2 25 6 49h-72l38 62h47
q39 134 135.5 204t237.5 70q161 0 244 -110z" />
    <glyph glyph-name="trademark" unicode="&#x2122;" horiz-adv-x="694" 
d="M732 706l-76 -332h-54l62 261l-135 -261h-54l-19 257l-58 -257h-56l77 332h77l19 -265l142 265h75zM384 706l-11 -49h-94l-66 -283h-59l65 283h-96l11 49h250z" />
    </font>
</defs>
</svg>
