<?xml version="1.0" standalone="no"?>
<!DOCTYPE svg PUBLIC "-//W3C//DTD SVG 1.1//EN" "http://www.w3.org/Graphics/SVG/1.1/DTD/svg11.dtd" >
<svg xmlns="http://www.w3.org/2000/svg" xmlns:xlink="http://www.w3.org/1999/xlink" version="1.1">
<metadata>
Created by FontForge 20170731 at Thu May 17 20:00:03 2007
 By Aleksey,,,
Copyright  2001, Berthold LLC. All rights reserved. Akzidenz-Grotesk is a trademark of Berthold Types Limited. 
</metadata>
<defs>
<font id="AkzidenzGroteskBQ-XBoldIt" horiz-adv-x="521" >
  <font-face 
    font-family="Akzidenz-Grotesk BQ Extra"
    font-weight="700"
    font-style="italic"
    font-stretch="normal"
    units-per-em="1000"
    panose-1="0 0 0 0 0 0 0 0 0 0"
    ascent="800"
    descent="-200"
    x-height="528"
    cap-height="706"
    bbox="-105 -241 1211 930"
    underline-thickness="127"
    underline-position="-428"
    slope="-13"
    unicode-range="U+0020-2122"
  />
<missing-glyph horiz-adv-x="500" 
 />
    <glyph glyph-name=".notdef" horiz-adv-x="500" 
 />
    <glyph glyph-name=".null" horiz-adv-x="0" 
 />
    <glyph glyph-name="nonmarkingreturn" horiz-adv-x="333" 
 />
    <glyph glyph-name="space" unicode=" " horiz-adv-x="271" 
 />
    <glyph glyph-name="exclam" unicode="!" horiz-adv-x="292" 
d="M380 706l-40 -174l-98 -305h-123l45 305l40 174h176zM252 153l-35 -153h-176l35 153h176z" />
    <glyph glyph-name="quotedbl" unicode="&#x22;" horiz-adv-x="323" 
d="M448 741l-112 -288h-43l15 288h140zM278 741l-112 -288h-43l15 288h140z" />
    <glyph glyph-name="numbersign" unicode="#" horiz-adv-x="583" 
d="M663 530l-27 -124h-107l-29 -96h101l-28 -124h-113l-59 -186h-126l60 186h-99l-60 -186h-123l58 186h-97l28 124h109l29 96h-102l28 124h113l56 176h124l-55 -176h99l55 176h125l-55 -176h95zM403 406h-98l-30 -96h99z" />
    <glyph glyph-name="dollar" unicode="$" 
d="M587 584q0 -30 -9 -65l-9 -36h-185l8 34q5 22 5 33q0 32 -41 32q-24 0 -38 -16.5t-14 -45.5q0 -26 34 -55q104 -86 134 -119q43 -49 43 -108q0 -35 -10 -73q-21 -85 -74 -124q-39 -30 -97 -42q-19 -4 -57 -7l-33 -145h-108l32 145q-82 8 -119.5 39.5t-37.5 92.5
q0 35 10 75l7 29h198l-9 -35q-5 -21 -5 -35q0 -35 42 -35q29 0 41 21q17 27 17 59q0 28 -26 51l-121 106q-55 49 -55 124q0 46 17.5 91.5t47.5 77.5q29 31 64.5 44.5t96.5 17.5l28 121h108l-27 -124q142 -18 142 -128z" />
    <glyph glyph-name="percent" unicode="%" horiz-adv-x="833" 
d="M850 359q0 -27 -9 -64l-39 -167q-17 -73 -46 -98q-42 -37 -125 -37q-139 0 -139 90q0 18 10 63l38 168q4 17 9 34q13 42 37 64q42 37 125 37q139 0 139 -90zM691 706l-366 -706h-87l366 706h87zM439 628q0 -16 -10 -63l-38 -168q-16 -69 -46 -98q-42 -37 -125 -37
q-139 0 -139 90q0 28 9 64l39 167q1 6 4 17.5t4 16.5q12 41 38 64q42 37 124 37q140 0 140 -90zM733 352q0 23 -31 23q-28 0 -37 -36l-54 -233q-2 -12 -2 -16q0 -23 31 -23t38 35l53 234q2 10 2 16zM322 621q0 23 -31 23q-30 0 -38 -35l-53 -234q-2 -10 -2 -16q0 -23 31 -23
q28 0 37 36l53 233q0 2 1.5 8t1.5 8z" />
    <glyph glyph-name="ampersand" unicode="&#x26;" horiz-adv-x="604" 
d="M623 354q-23 -86 -48 -134q-23 -46 -69 -97q13 -23 34 -23h51l-23 -100h-93q-70 0 -103 19q-41 -19 -75 -25q-39 -6 -83 -6q-205 0 -205 169q0 51 21 90q20 38 54 66t105 64l38 19q-5 14 -6 17q-17 46 -22 78q-5 27 -5 44q0 75 56.5 121.5t147.5 46.5q90 0 141.5 -38
t51.5 -103q0 -70 -56 -123q-43 -41 -119 -84l36 -84q18 36 33 84zM455 560q0 16 -12 26.5t-32 10.5q-24 0 -38 -15t-14 -40q0 -13 7 -38l8 -31q39 23 57 41q24 22 24 46zM320 135l-50 130q-41 -23 -58.5 -43.5t-17.5 -45.5q0 -29 16.5 -46.5t44.5 -17.5q26 0 65 23z" />
    <glyph glyph-name="quotesingle" unicode="'" horiz-adv-x="152" 
d="M278 741l-112 -288h-43l15 288h140z" />
    <glyph glyph-name="parenleft" unicode="(" horiz-adv-x="313" 
d="M470 783l-16 -68h-25q-54 0 -77 -19q-19 -15 -28 -47q-5 -15 -19 -71l-125 -540q-10 -44 -10 -65q0 -19 8 -32q10 -15 29 -20.5t62 -6.5l-14 -62h-45q-104 0 -151.5 32.5t-47.5 103.5q0 30 11 77l118 505q12 54 19 73q22 60 58 91q45 39 116 45q21 1 56 3q20 1 41 1h40z
" />
    <glyph glyph-name="parenright" unicode=")" horiz-adv-x="313" 
d="M373 646q0 -30 -11 -77l-118 -505q-11 -46 -20 -73q-22 -61 -57 -91q-45 -38 -117 -45q-20 -1 -56 -3q-11 0 -24.5 -0.5t-15.5 -0.5h-40l16 68h25q54 0 76 19q20 17 29 47q9 26 19 71l124 540q11 48 11 65q0 20 -8 32q-10 15 -29 20.5t-62 6.5l14 62h45
q104 0 151.5 -32.5t47.5 -103.5z" />
    <glyph glyph-name="asterisk" unicode="*" horiz-adv-x="437" 
d="M504 473l-105 -10l41 -90l-112 -53l-47 100l-82 -69l-80 95l75 64l-90 51l62 108l94 -53l25 104l121 -29l-25 -105l112 11z" />
    <glyph glyph-name="plus" unicode="+" horiz-adv-x="558" 
d="M528 374l-34 -147h-106l-31 -136h-183l31 136h-108l33 147h108l33 137h183l-32 -137h106z" />
    <glyph glyph-name="comma" unicode="," horiz-adv-x="250" 
d="M213 164l-38 -164l-125 -152h-67l85 152h-65l38 164h172z" />
    <glyph glyph-name="hyphen" unicode="-" horiz-adv-x="361" 
d="M381 369l-31 -137h-302l31 137h302z" />
    <glyph glyph-name="period" unicode="." horiz-adv-x="250" 
d="M216 164l-38 -164h-174l38 164h174z" />
    <glyph glyph-name="slash" unicode="/" horiz-adv-x="333" 
d="M458 706l-340 -706h-152l343 706h149z" />
    <glyph glyph-name="zero" unicode="0" 
d="M582 576q0 -32 -11 -79l-71 -310q-25 -112 -79.5 -155t-167.5 -43q-105 0 -162.5 37t-57.5 105q0 30 15 97l69 302q22 97 75 140q61 49 175 49q102 0 158.5 -37.5t56.5 -105.5zM406 572q0 16 -12.5 25t-33.5 9q-26 0 -38.5 -12.5t-19.5 -46.5l-88 -382q-5 -20 -5 -32
q0 -34 45 -34q26 0 39 12.5t20 46.5l88 381q5 20 5 33z" />
    <glyph glyph-name="one" unicode="1" 
d="M495 706l-163 -706h-179l120 520q-21 -15 -43 -24q-29 -12 -72 -21l30 127q40 13 65 32q36 26 63 72h179z" />
    <glyph glyph-name="two" unicode="2" 
d="M584 579q0 -35 -12.5 -81t-30.5 -78q-16 -29 -63 -70q-40 -35 -91 -74l-58 -44q-44 -34 -59 -50q-18 -18 -27 -45h255l-31 -137h-465l5 27q6 32 14 60q16 61 57 111q23 29 55 56q18 15 55 43q17 13 32 25t26 20t13 10q52 40 55 42q32 27 48 44q17 18 25 54l11 46
q4 15 4 30q0 35 -43 35q-29 0 -41 -19q-7 -14 -11 -30q-3 -13 -13 -55l-14 -62h-177l22 96q23 100 80.5 143t166.5 43q212 0 212 -140z" />
    <glyph glyph-name="three" unicode="3" 
d="M582 575q0 -52 -21 -106q-19 -48 -50 -71q-21 -16 -52 -29q58 -24 58 -80q0 -31 -13 -83q-11 -47 -25 -87q-45 -131 -236 -131q-110 0 -162 32t-52 99q0 35 9 69l11 45h180l-14 -59q-5 -20 -5 -30q0 -35 44 -35q41 0 57 47q21 69 21 109q0 19 -10 25.5t-40 6.5h-62
l31 136h65q28 0 41.5 5.5t20.5 20.5q3 7 17 68q5 27 5 34q0 35 -44 35q-21 0 -33 -9q-8 -7 -12 -14q-5 -10 -13 -41l-9 -37h-173l11 44q24 98 76.5 138.5t156.5 40.5q114 0 168 -35t54 -108z" />
    <glyph glyph-name="four" unicode="4" 
d="M556 706l-97 -422h78l-31 -134h-78l-35 -150h-182l35 150h-226l31 134l301 422h204zM346 546l-172 -262h112z" />
    <glyph glyph-name="five" unicode="5" 
d="M594 706l-31 -135h-256l-41 -159q50 63 135 63q63 0 97 -29.5t34 -83.5q0 -35 -18 -111l-12 -51q-18 -75 -43 -119q-53 -91 -217 -91q-108 0 -159.5 30.5t-51.5 95.5q0 30 8 65l10 43h178l-16 -68q-3 -14 -3 -21q0 -36 46 -36q17 0 31 8q9 5 13 12q10 16 21 67l21 97
q7 35 7 41q0 36 -45 36q-22 0 -33.5 -9.5t-20.5 -35.5h-169l99 391h416z" />
    <glyph glyph-name="six" unicode="6" 
d="M588 585q0 -17 -8 -52l-8 -38h-177l11 49q2 12 2 19q0 33 -42 33q-45 0 -56 -49l-38 -162q44 56 134 56q62 0 94.5 -28.5t32.5 -82.5q0 -34 -8 -66l-16 -68q-15 -65 -40 -107q-55 -94 -215 -94q-105 0 -159.5 37.5t-54.5 110.5q0 31 14 93l64 275q16 67 37.5 105.5
t58.5 63.5q59 39 165 39q100 0 154.5 -35t54.5 -99zM347 300q0 34 -39 34q-26 0 -39.5 -12.5t-20.5 -40.5l-26 -113q-4 -17 -4 -29q0 -35 42 -35q24 0 36.5 12.5t20.5 43.5l27 115q3 13 3 25z" />
    <glyph glyph-name="seven" unicode="7" 
d="M624 706l-33 -138l-10 -10q-47 -47 -101 -126q-57 -81 -115 -186q-57 -103 -82 -181q-9 -30 -19 -65h-189q15 64 32 105q34 87 101 188q69 105 196 259l14 17h-148l-20 -87h-147l52 224h469z" />
    <glyph glyph-name="eight" unicode="8" 
d="M580 591q0 -34 -10.5 -74.5t-24.5 -65.5q-32 -53 -101 -71q76 -23 76 -96q0 -24 -12 -75q-17 -76 -35 -114q-49 -106 -236 -106q-213 0 -213 132q0 19 7 56q1 5 5 21t6 28q2 8 5.5 20.5t4.5 18.5q13 46 40.5 72.5t80.5 42.5q-59 25 -59 87q0 47 17.5 100t43.5 83
q57 68 193 68q212 0 212 -127zM406 575q0 31 -47 31q-44 0 -55 -48l-16 -66q-3 -15 -3 -24q0 -33 46 -33q27 0 38 11t19 43l14 60q4 15 4 26zM340 290q0 30 -47 30q-44 0 -55 -47l-27 -116q-3 -15 -3 -24q0 -32 46 -32q27 0 38.5 10.5t18.5 42.5l25 110q4 15 4 26z" />
    <glyph glyph-name="nine" unicode="9" 
d="M579 572q0 -32 -14 -94l-63 -274q-16 -67 -38 -106t-58 -63q-60 -40 -166 -40q-99 0 -153.5 35t-54.5 99q0 24 7 53l10 40h177l-13 -51q-2 -7 -2 -20q0 -33 43 -33q24 0 37 11.5t19 38.5l38 164q-44 -56 -133 -56q-62 0 -95 28.5t-33 82.5q0 30 9 66l15 65q14 65 39 107
q56 95 215 95q105 0 159.5 -37.5t54.5 -110.5zM402 576q0 34 -42 34q-25 0 -38 -12.5t-20 -43.5l-26 -112q-3 -13 -3 -25q0 -34 40 -34q25 0 38.5 12t20.5 41l25 110q5 23 5 30z" />
    <glyph glyph-name="colon" unicode=":" horiz-adv-x="292" 
d="M342 547l-38 -164h-174l38 164h174zM257 164l-38 -164h-174l38 164h174z" />
    <glyph glyph-name="semicolon" unicode=";" horiz-adv-x="292" 
d="M342 547l-38 -164h-174l38 164h174zM255 164l-38 -164l-125 -152h-67l85 152h-64l37 164h172z" />
    <glyph glyph-name="less" unicode="&#x3c;" horiz-adv-x="559" 
d="M551 619l-42 -179l-222 -103l182 -95l-40 -167l-317 194l37 155z" />
    <glyph glyph-name="equal" unicode="=" horiz-adv-x="559" 
d="M556 501l-32 -142h-390l32 142h390zM503 272l-32 -142h-390l32 142h390z" />
    <glyph glyph-name="greater" unicode="&#x3e;" horiz-adv-x="559" 
d="M539 426l-37 -155l-402 -195l42 179l222 103l-182 95l41 166z" />
    <glyph glyph-name="question" unicode="?" horiz-adv-x="479" 
d="M558 586q0 -105 -97 -175l-83 -59q-41 -30 -55 -56q-11 -21 -20 -70h-174q1 5 3 13.5t3 11.5q13 54 17 65q26 64 96 109l71 46q24 16 43 33q18 15 24 25q11 17 11 41q0 34 -34 34q-21 0 -32 -13t-18 -45q0 -2 -2 -9t-3 -13h-155q14 78 42 115q54 73 190 73
q173 0 173 -126zM291 150l-35 -150h-174l35 150h174z" />
    <glyph glyph-name="at" unicode="@" horiz-adv-x="870" 
d="M834 425q0 -143 -75 -252t-173 -109q-33 0 -55.5 18t-28.5 50q-54 -67 -120 -67q-61 0 -98 44.5t-37 117.5q0 114 68.5 204t154.5 90q25 0 46 -9q30 -13 54 -51l11 40h99l-47 -196q-19 -79 -19 -113q0 -22 16 -22q17 0 44 40q27 37 44 90q20 60 20 117q0 100 -56 156
t-154 56q-139 0 -240 -116t-101 -276q0 -123 67 -195q36 -38 90.5 -60t115.5 -22q158 0 309 148l51 -71q-66 -60 -123 -94q-116 -69 -245 -69q-119 0 -214 58q-154 93 -154 302q0 201 131 339t323 138q136 0 216 -77.5t80 -208.5zM533 354q0 33 -15 52t-41 19q-51 0 -86 -72
q-30 -62 -30 -117q0 -34 14.5 -54t39.5 -20q45 0 81.5 59.5t36.5 132.5z" />
    <glyph glyph-name="A" unicode="A" horiz-adv-x="562" 
d="M525 0h-192l13 159h-121l-59 -159h-203l321 706h238zM377 568l-106 -283h85z" />
    <glyph glyph-name="B" unicode="B" horiz-adv-x="542" 
d="M608 566q0 -42 -14 -81.5t-37 -62.5q-38 -39 -110 -53q99 -19 99 -120q0 -45 -15 -94.5t-38 -80.5q-36 -48 -89 -61q-51 -13 -156 -13h-248l163 706h231q47 0 77 -3q61 -5 99 -39q38 -36 38 -98zM412 536q0 19 -10.5 26.5t-38.5 7.5h-36l-34 -146h35q35 0 50 11t23 42
l9 37q2 8 2 22zM352 253q0 21 -12.5 29.5t-42.5 8.5h-35l-36 -156h28h29q19 0 36 11q14 11 21 43l9 41q3 12 3 23z" />
    <glyph glyph-name="C" unicode="C" horiz-adv-x="542" 
d="M612 572q0 -31 -7 -59l-15 -67h-195l15 65q4 19 4 33q0 35 -45 35q-24 0 -35 -10q-6 -4 -13 -16q-5 -10 -8 -22q-2 -5 -7 -30l-71 -304q-5 -21 -5 -35q0 -36 47 -36q26 0 38.5 14t20.5 51l16 70h197l-8 -38q-26 -123 -73 -170q-65 -66 -210 -66q-115 0 -170 38t-55 118
q0 38 19 119l55 236q15 64 32 99.5t45 62.5q63 60 197 60q231 0 231 -148z" />
    <glyph glyph-name="D" unicode="D" horiz-adv-x="562" 
d="M619 552q0 -32 -15 -97l-45 -194q-15 -67 -27 -103q-21 -64 -55 -99q-40 -40 -100 -51q-43 -8 -125 -8h-252l163 706h198q54 0 75 -1q72 -1 116 -28q67 -40 67 -125zM419 527q0 43 -58 43h-30l-101 -438h30q43 0 57 9q17 11 29 59l69 299q4 18 4 28z" />
    <glyph glyph-name="E" unicode="E" horiz-adv-x="437" 
d="M549 706l-32 -137h-187l-33 -143h173l-31 -135h-173l-36 -155h187l-31 -136h-386l163 706h386z" />
    <glyph glyph-name="F" unicode="F" horiz-adv-x="417" 
d="M544 706l-32 -136h-182l-33 -143h168l-31 -135h-168l-67 -292h-198l163 706h380z" />
    <glyph glyph-name="G" unicode="G" horiz-adv-x="562" 
d="M623 579q0 -24 -11 -79l-8 -38h-191l10 45q4 18 4 30q0 41 -52 41q-24 0 -39 -12t-25 -55l-73 -317q-6 -28 -6 -40q0 -41 46 -41q25 0 43 15q20 16 30 65l11 51h-61l29 125h252l-85 -369h-191l16 71q-58 -82 -152 -82q-67 0 -105.5 34t-38.5 93q0 32 10 76l71 306
q30 128 93 176q62 45 183 45q118 0 179 -36t61 -104z" />
    <glyph glyph-name="H" unicode="H" horiz-adv-x="562" 
d="M654 706l-163 -706h-198l65 282h-93l-65 -282h-200l163 706h200l-64 -278h93l64 278h198z" />
    <glyph glyph-name="I" unicode="I" horiz-adv-x="271" 
d="M363 706l-163 -706h-200l163 706h200z" />
    <glyph glyph-name="J" unicode="J" horiz-adv-x="354" 
d="M448 706l-120 -519q-2 -11 -7 -30.5t-6 -23.5q-22 -84 -77 -111q-28 -13 -60.5 -17.5t-105.5 -4.5h-94l31 135h62q23 0 37 9q15 11 24 51l118 511h198z" />
    <glyph glyph-name="K" unicode="K" horiz-adv-x="562" 
d="M675 706l-222 -345l83 -361h-203l-62 327l-75 -327h-196l163 706h196l-75 -324l188 324h203z" />
    <glyph glyph-name="L" unicode="L" horiz-adv-x="417" 
d="M411 134l-31 -134h-380l163 706h197l-132 -572h183z" />
    <glyph glyph-name="M" unicode="M" horiz-adv-x="750" 
d="M837 706l-159 -706h-167l111 485l-220 -485h-127v475l-110 -475h-165l163 706h247l-15 -466l193 466h249z" />
    <glyph glyph-name="N" unicode="N" horiz-adv-x="562" 
d="M652 706l-163 -706h-187l-36 448l-100 -448h-166l163 706h183l38 -453l102 453h166z" />
    <glyph glyph-name="O" unicode="O" horiz-adv-x="562" 
d="M616 555q0 -35 -15 -102l-54 -233q-23 -97 -53 -142q-28 -42 -85.5 -65t-134.5 -23q-105 0 -174 41q-64 37 -64 121q0 38 15 102l59 255q26 113 87.5 160.5t180.5 47.5q238 0 238 -162zM419 544q0 39 -46 39q-22 0 -36 -11q-17 -12 -25 -51l-76 -331q-4 -16 -4 -27
q0 -18 12.5 -28.5t34.5 -10.5t36 11q14 10 24 52l76 331q4 16 4 26z" />
    <glyph glyph-name="P" unicode="P" horiz-adv-x="542" 
d="M614 572q0 -32 -12 -88q-21 -93 -44 -133q-27 -48 -77 -72q-22 -11 -42 -14q-56 -10 -105 -10h-77l-59 -255h-198l163 706h231q48 0 66 -1q55 -1 89 -17q65 -30 65 -116zM419 535q0 20 -11 28t-38 8h-40l-42 -181h38q38 0 52.5 11t22.5 46l15 63q3 14 3 25z" />
    <glyph glyph-name="Q" unicode="Q" horiz-adv-x="562" 
d="M617 560q0 -36 -16 -107l-54 -233q-17 -75 -42.5 -119t-66.5 -70q-42 -27 -103 -35l-5 -24q-2 -10 -2 -15q0 -29 39 -29h53l-25 -111h-119q-62 0 -88 10q-41 16 -41 68q0 19 8 53l13 55q-132 36 -132 151q0 35 15 100l54 233q19 81 43.5 126t63.5 67q66 37 166 37
q115 0 177 -40.5t62 -116.5zM419 544q0 39 -46 39q-22 0 -36 -11q-17 -12 -25 -51l-76 -331q-4 -16 -4 -27q0 -18 12.5 -28.5t34.5 -10.5t36 11q14 10 24 52l76 331q4 16 4 26z" />
    <glyph glyph-name="R" unicode="R" horiz-adv-x="562" 
d="M616 572q0 -48 -15.5 -107t-36.5 -90q-31 -47 -102 -68l63 -307h-203l-39 289h-15l-67 -289h-201l163 706h237q48 0 84 -2q47 -1 79 -24q53 -36 53 -108zM419 532q0 19 -11.5 26.5t-39.5 7.5h-36l-33 -139h41q27 0 36 3q16 4 22 16q7 11 12 33q9 43 9 53z" />
    <glyph glyph-name="S" unicode="S" 
d="M579 558q0 -33 -15 -90h-188l12 52q3 12 3 21q0 37 -44 37q-23 0 -36 -13.5t-13 -36.5q0 -21 26 -50l17 -18l102 -105q67 -68 67 -138q0 -98 -52 -157q-64 -69 -207 -69q-117 0 -178.5 40.5t-61.5 117.5q0 43 15 98h197l-12 -49q-4 -17 -4 -30q0 -19 12.5 -29.5
t33.5 -10.5q55 0 55 75q0 14 -6 26t-36 42l-97 99q-65 67 -65 135q0 88 51 146q30 34 75 48.5t118 14.5q111 0 171 -40.5t60 -115.5z" />
    <glyph glyph-name="T" unicode="T" horiz-adv-x="500" 
d="M626 706l-31 -135h-150l-132 -571h-199l132 571h-150l31 135h499z" />
    <glyph glyph-name="U" unicode="U" horiz-adv-x="562" 
d="M656 706l-111 -486q-3 -13 -8 -32.5t-7 -26.5q-19 -73 -58 -109q-65 -61 -210 -61q-109 0 -167.5 40t-58.5 115q0 28 13 85l110 475h198l-118 -510q-5 -20 -5 -29q0 -36 47 -36q25 0 38 13t20 47l119 515h198z" />
    <glyph glyph-name="V" unicode="V" horiz-adv-x="542" 
d="M667 706l-300 -706h-271l30 706h191l-50 -544l199 544h201z" />
    <glyph glyph-name="W" unicode="W" horiz-adv-x="833" 
d="M956 706l-251 -706h-237l38 543l-206 -543h-243l73 706h175l-62 -510l188 510h216l-35 -506l170 506h174z" />
    <glyph glyph-name="X" unicode="X" 
d="M648 706l-195 -337l32 -369h-193v258l-123 -258h-201l207 369l-44 337h196l-1 -261l120 261h202z" />
    <glyph glyph-name="Y" unicode="Y" horiz-adv-x="562" 
d="M687 706l-286 -479l-53 -227h-197l53 227l-75 479h193l14 -306l154 306h197z" />
    <glyph glyph-name="Z" unicode="Z" horiz-adv-x="479" 
d="M583 706l-32 -139l-310 -430h216l-32 -137h-444l32 137l314 435h-193l31 134h418z" />
    <glyph glyph-name="bracketleft" unicode="[" horiz-adv-x="297" 
d="M440 779l-17 -72h-80l-179 -780h78l-16 -71h-239l213 923h240z" />
    <glyph glyph-name="backslash" unicode="\" horiz-adv-x="350" 
d="M323 -18h-135l-61 724l136 1z" />
    <glyph glyph-name="bracketright" unicode="]" horiz-adv-x="298" 
d="M381 780l-213 -922h-239l16 71h80l180 781h-79l16 70h239z" />
    <glyph glyph-name="asciicircum" unicode="^" horiz-adv-x="559" 
d="M575 359h-171l-23 192l-116 -192h-186l250 347h159z" />
    <glyph glyph-name="underscore" unicode="_" horiz-adv-x="500" 
d="M420 -239h-520l30 127h519z" />
    <glyph glyph-name="grave" unicode="`" horiz-adv-x="292" 
d="M276 572h-151l-109 124h201z" />
    <glyph glyph-name="a" unicode="a" horiz-adv-x="518" 
d="M540 412q0 -27 -13 -83l-61 -261q-4 -20 -4 -34q0 -18 13 -34h-213l10 43q-30 -31 -61.5 -44t-76.5 -13q-59 0 -90.5 26t-31.5 73q0 36 10 76.5t25 63.5q22 36 73 56q30 12 108 28q63 14 79 19q16 4 33 12l7 29q3 15 3 22q0 29 -36 29q-37 0 -48 -47l-7 -28h-175l9 39
q20 86 73.5 122.5t160.5 36.5q110 0 161.5 -31.5t51.5 -99.5zM320 253l-49 -18q-22 -9 -28 -12q-16 -9 -24 -26q-15 -36 -15 -68q0 -37 35 -37q21 0 35 12t24 52z" />
    <glyph glyph-name="b" unicode="b" 
d="M556 429q0 -24 -11 -73l-44 -189q-19 -80 -45 -118q-41 -60 -132 -60q-92 0 -124 74l-15 -63h-188l163 706h188l-55 -240q50 76 140 76q58 0 90.5 -30t32.5 -83zM361 390q0 36 -40 36q-37 0 -48 -48l-52 -222q-4 -15 -4 -25q0 -33 39 -33q22 0 34 12q11 10 20 47l48 210
q3 13 3 23z" />
    <glyph glyph-name="c" unicode="c" horiz-adv-x="500" 
d="M530 420q0 -28 -9 -66l-7 -30h-180l10 42q3 13 3 24q0 31 -34 31q-19 0 -31 -10q-10 -10 -19 -47l-46 -194q-1 -5 -2 -11t-2 -8q-1 -4 -1 -12q0 -30 35 -30q18 0 31 11q6 4 9 11q6 11 10 31l6 29h187l-5 -23l-4 -16l-4 -16l-3 -12q-14 -49 -47 -81q-60 -56 -191 -56
q-97 0 -149 28q-28 16 -45 47t-17 67q0 23 7 54l45 193q24 104 99 138q58 27 154 27q200 0 200 -121z" />
    <glyph glyph-name="d" unicode="d" 
d="M618 706l-163 -706h-189l14 61q-55 -72 -144 -72q-57 0 -88.5 25.5t-31.5 71.5q0 27 14 88l47 203q16 65 40 99q44 62 132 62q92 0 126 -68l54 236h189zM355 397q0 32 -38 32q-22 0 -33 -11.5t-18 -40.5l-51 -218q-4 -20 -4 -24q0 -31 37 -31q23 0 35 11.5t18 39.5
l50 217q4 20 4 25z" />
    <glyph glyph-name="e" unicode="e" horiz-adv-x="496" 
d="M533 405q0 -27 -8 -64l-25 -105h-265l-17 -69q-5 -21 -5 -29q0 -31 39 -31q21 0 32 11t18 40l6 26h180l-7 -29q-23 -93 -76 -130.5t-165 -37.5q-105 0 -163 35q-50 29 -50 101q0 35 11 82l35 147q25 105 79.5 147.5t165.5 42.5q215 0 215 -137zM359 399q0 32 -40 32
q-39 0 -49 -42l-16 -68h89l14 60q2 7 2 18z" />
    <glyph glyph-name="f" unicode="f" horiz-adv-x="345" 
d="M472 706l-24 -101h-33q-32 0 -44.5 -9.5t-19.5 -39.5l-6 -28h76l-23 -102h-77l-98 -426h-188l98 426h-72l23 102h73l11 47q18 75 45 101q19 17 44.5 23.5t77.5 6.5h137z" />
    <glyph glyph-name="g" unicode="g" 
d="M577 528l-126 -550q-16 -69 -33.5 -106t-45.5 -60q-65 -53 -187 -53q-108 0 -158.5 30.5t-50.5 95.5q0 26 8 58h180q-6 -24 -6 -34q0 -30 39 -30q33 0 46 23q5 9 12 40l26 112q-53 -65 -132 -65q-128 0 -128 114q0 33 13 88l41 174q20 85 47 121q41 53 119 53
q104 0 135 -74l14 63h187zM357 391q0 35 -41 35q-39 0 -51 -49l-50 -213q-3 -12 -3 -21q0 -33 40 -33q23 0 35 11t18 36l49 214q3 12 3 20z" />
    <glyph glyph-name="h" unicode="h" 
d="M550 436q0 -28 -11 -77l-83 -359h-190l85 370q3 12 3 22q0 30 -31 30q-39 0 -51 -50l-86 -372h-189l163 706h188l-53 -231q54 64 131 64q57 0 90.5 -28t33.5 -75z" />
    <glyph glyph-name="i" unicode="i" horiz-adv-x="250" 
d="M349 706l-29 -126h-189l29 126h189zM307 528l-121 -528h-189l121 528h189z" />
    <glyph glyph-name="j" unicode="j" horiz-adv-x="250" 
d="M348 706l-30 -126h-187l29 126h188zM307 528l-132 -572q-1 -7 -8 -31q-17 -59 -39 -81q-15 -15 -35 -22q-32 -11 -101 -11h-97l22 97h5q26 0 39 5q11 4 15.5 12.5t11.5 37.5l130 565h189z" />
    <glyph glyph-name="k" unicode="k" 
d="M588 528l-185 -240l86 -288h-194l-57 254l-59 -254h-182l163 706h182l-91 -393l147 215h190z" />
    <glyph glyph-name="l" unicode="l" horiz-adv-x="250" 
d="M348 706l-163 -706h-188l163 706h188z" />
    <glyph glyph-name="m" unicode="m" horiz-adv-x="791" 
d="M821 436q0 -23 -12 -77l-83 -359h-189l85 370q3 12 3 22q0 30 -32 30q-22 0 -34 -14t-20 -49l-83 -359h-190l85 370q3 12 3 22q0 30 -31 30q-39 0 -51 -50l-86 -372h-189l122 528h189l-13 -53q52 64 131 64q28 0 55 -9q40 -13 66 -59q64 68 149 68q58 0 91.5 -28
t33.5 -75z" />
    <glyph glyph-name="n" unicode="n" 
d="M550 436q0 -28 -11 -77l-83 -359h-190l85 370q3 12 3 22q0 30 -31 30q-39 0 -51 -50l-86 -372h-189l122 528h189l-13 -53q52 64 131 64q57 0 90.5 -28t33.5 -75z" />
    <glyph glyph-name="o" unicode="o" 
d="M544 397q0 -30 -12 -84l-31 -140q-5 -25 -14 -52q-19 -58 -64 -90q-61 -45 -174 -45q-220 0 -220 147q0 30 12 84l31 139q5 25 14 52q19 58 64 91q59 44 174 44q220 0 220 -146zM359 382q0 37 -42 37q-43 0 -55 -49l-46 -205q-2 -7 -2 -18q0 -37 42 -37q44 0 55 50
l46 204q2 7 2 18z" />
    <glyph glyph-name="p" unicode="p" 
d="M556 442q0 -27 -14 -88l-47 -204q-14 -63 -39 -98q-44 -63 -132 -63q-92 0 -126 68l-52 -225h-189l161 696h188l-14 -61q55 72 145 72q57 0 88 -25.5t31 -71.5zM362 396q0 31 -37 31q-22 0 -34 -11.5t-19 -39.5l-50 -218q-3 -15 -3 -24q0 -33 38 -33q21 0 32.5 12
t18.5 40l50 219q4 20 4 24z" />
    <glyph glyph-name="q" unicode="q" 
d="M578 528l-161 -696h-188l54 230q-50 -76 -140 -76q-58 0 -91 30t-33 83q0 23 11 73l44 188q18 77 45 118q41 60 132 60q92 0 125 -74l14 64h188zM358 397q0 33 -39 33q-21 0 -34 -13q-12 -12 -19 -46l-49 -211q-3 -14 -3 -23q0 -17 10.5 -26.5t29.5 -9.5q20 0 31.5 11.5
t17.5 37.5l51 221q4 15 4 26z" />
    <glyph glyph-name="r" unicode="r" horiz-adv-x="333" 
d="M423 534l-40 -174q-15 1 -30 1q-25 0 -41 -3q-45 -9 -61 -76l-65 -282h-189l121 528h189l-19 -84q22 43 57 66q30 19 78 24z" />
    <glyph glyph-name="s" unicode="s" horiz-adv-x="476" 
d="M519 435q0 -23 -13 -68h-178q8 29 8 45q0 30 -35 30q-20 0 -33 -13t-13 -34q0 -13 6 -22q10 -11 43 -31q3 -2 18.5 -12.5t27.5 -18.5q50 -33 69.5 -49.5t29.5 -34.5q15 -26 15 -61q0 -91 -63.5 -135t-194.5 -44q-205 0 -205 109q0 19 11 67h188q-9 -39 -9 -45
q0 -32 38 -32q20 0 32 13t12 34q0 25 -30 44l-41 26q-67 43 -105 83q-27 28 -27 72q0 91 64 139q57 45 171 45q214 0 214 -107z" />
    <glyph glyph-name="t" unicode="t" horiz-adv-x="351" 
d="M427 528l-23 -102h-78l-59 -261q-5 -20 -5 -28q0 -15 10 -21t36 -7l34 -1l-24 -108h-125q-67 0 -95.5 20.5t-28.5 67.5q0 16 9 56l64 282h-80l24 102h80l42 178h184l-42 -178h77z" />
    <glyph glyph-name="u" unicode="u" 
d="M574 528l-121 -528h-189l12 52q-54 -64 -131 -64q-57 0 -90.5 28t-33.5 75q0 25 12 77l82 360h190l-85 -370q-3 -13 -3 -23q0 -30 32 -30q38 0 50 50l86 373h189z" />
    <glyph glyph-name="v" unicode="v" horiz-adv-x="479" 
d="M566 528l-246 -528h-226l-8 528h183l-33 -377l141 377h189z" />
    <glyph glyph-name="w" unicode="w" horiz-adv-x="750" 
d="M835 528l-227 -528h-210l19 346l-145 -346h-210l22 528h184l-46 -366l143 366h183l-28 -367l126 367h189z" />
    <glyph glyph-name="x" unicode="x" horiz-adv-x="500" 
d="M577 528l-180 -259l63 -269h-189l-20 183l-98 -183h-186l183 269l-55 259h183l11 -172l100 172h188z" />
    <glyph glyph-name="y" unicode="y" horiz-adv-x="500" 
d="M586 528l-301 -583q-26 -51 -43 -73t-41 -38t-54 -25q-43 -13 -132 -13h-63l32 117h24q48 0 69.5 11t41.5 45l-32 559h182l-8 -320l135 320h190z" />
    <glyph glyph-name="z" unicode="z" horiz-adv-x="458" 
d="M508 528l-25 -107l-258 -312h203l-25 -109h-419l25 109l251 312h-152l25 107h375z" />
    <glyph glyph-name="braceleft" unicode="{" horiz-adv-x="304" 
d="M443 782l-17 -71h-11q-22 0 -37 -13q-9 -7 -15 -20q-6 -12 -14 -48l-42 -186q-13 -59 -35 -84q-28 -31 -85 -42q68 -19 68 -78q0 -21 -6 -48l-40 -175q-10 -46 -10 -60q0 -31 34 -34l13 -1l-16 -69h-52q-141 0 -141 91q0 22 8 57l42 179q7 33 7 44q0 25 -13 37t-44 16
l17 75q45 6 64 25t30 69l43 192q13 57 35 85q46 59 165 59h52z" />
    <glyph glyph-name="bar" unicode="|" horiz-adv-x="247" 
d="M353 779l-213 -923h-164l213 923h164z" />
    <glyph glyph-name="braceright" unicode="}" horiz-adv-x="304" 
d="M339 357l-17 -76q-45 -6 -64 -25t-30 -69l-43 -191q-12 -54 -35 -85q-47 -59 -165 -59h-52l17 71h11q22 0 37 13q9 8 15 19q7 14 14 49l42 186q14 60 35 83q27 31 85 43q-68 19 -68 77q0 22 6 49l40 174q10 46 10 61q0 14 -9.5 24t-24.5 10h-13l16 69h52q141 0 141 -91
q0 -21 -8 -56l-42 -179q-7 -33 -7 -44q0 -25 13 -37t44 -16z" />
    <glyph glyph-name="asciitilde" unicode="~" horiz-adv-x="559" 
d="M527 265q-37 -33 -65 -49q-36 -20 -70 -20q-33 0 -84 26l-23 12q-43 22 -70 22q-20 0 -36.5 -9.5t-49.5 -38.5l-9 -8l-21 149q25 25 49 43q40 27 83 27q17 0 29 -4q15 -4 49 -20l42 -20q35 -17 54 -17q25 0 51 16q20 11 50 39z" />
    <glyph glyph-name="exclamdown" unicode="&#xa1;" horiz-adv-x="292" 
d="M345 706l-35 -153h-176l35 153h176zM266 479l-44 -305l-40 -174h-176l40 174l98 305h122z" />
    <glyph glyph-name="cent" unicode="&#xa2;" horiz-adv-x="513" 
d="M539 420q0 -28 -9 -66l-7 -30h-180l10 42q3 13 3 24q0 31 -34 31q-21 0 -31 -10q-10 -8 -19 -47l-45 -194q-1 -5 -3 -12l-2 -7q-1 -4 -1 -12q0 -30 35 -30q27 0 40 22q2 3 10 31l7 29h187l-6 -23q-3 -10 -6 -25t-4 -19q-14 -48 -48 -81q-52 -48 -157 -55l-33 -141h-108
l33 144q-137 22 -137 138q0 23 7 54l45 193q19 83 67 120t145 44l28 120h108l-27 -123q132 -21 132 -117z" />
    <glyph glyph-name="sterling" unicode="&#xa3;" horiz-adv-x="625" 
d="M632 236l-13 -57q-23 -98 -65 -144.5t-109 -46.5q-33 0 -66 12q-30 10 -85 41q-28 -20 -46 -29q-56 -27 -118 -27q-57 0 -91 29t-34 77q0 53 39 87t101 34q33 0 71 -14q1 5 1 13q0 29 -18 87h-130l24 108h76q-13 51 -13 87q0 108 65 167t185 59q220 0 220 -138
q0 -30 -8 -64l-11 -48h-178l12 52q5 23 5 34q0 42 -47 42q-64 0 -64 -89q0 -45 18 -102h194l-25 -108h-142q7 -40 7 -66q0 -46 -25 -107q23 -5 32 -5q25 0 38.5 19t24.5 66l7 31h168zM188 108q-27 17 -43 17q-17 0 -28 -9t-11 -22q0 -22 29 -22q31 0 53 36z" />
    <glyph glyph-name="currency" unicode="&#xa4;" horiz-adv-x="720" 
d="M760 555l-91 -82q23 -54 23 -102q0 -98 -53 -177l75 -84l-129 -114l-75 85q-65 -31 -132 -31q-79 0 -143 41l-91 -82l-102 117l91 81q-24 58 -24 107q0 85 52 167l-73 84l128 113l73 -82q69 34 137 34q71 0 140 -42l92 83zM514 351q0 48 -29.5 79.5t-74.5 31.5
q-52 0 -87.5 -39t-35.5 -95q0 -48 29.5 -79.5t74.5 -31.5q51 0 87 39t36 95z" />
    <glyph glyph-name="yen" unicode="&#xa5;" horiz-adv-x="562" 
d="M692 706l-172 -285h84l-23 -100h-120l-35 -59h141l-23 -100h-153l-38 -162h-197l38 162h-155l24 100h140l-8 59h-119l23 100h81l-46 285h193l15 -309l153 309h197z" />
    <glyph glyph-name="brokenbar" unicode="&#xa6;" horiz-adv-x="247" 
d="M353 779l-94 -401h-163l93 401h164zM233 257l-93 -401h-164l94 401h163z" />
    <glyph glyph-name="section" unicode="&#xa7;" horiz-adv-x="458" 
d="M525 637l-83 -98q-81 65 -119 65q-14 0 -22.5 -7.5t-8.5 -19.5q0 -10 7.5 -19t32.5 -28l68 -50q32 -24 36 -26q15 -12 26 -24q30 -33 30 -69q0 -47 -31.5 -81.5t-84.5 -44.5q32 -25 45.5 -49.5t13.5 -56.5q0 -50 -34 -90q-47 -54 -147 -54q-123 0 -236 91l85 100
q48 -38 67 -50q44 -27 66 -27q34 0 34 31q0 12 -8 21t-34 29l-68 50q-34 25 -36 27q-11 7 -26 24q-30 35 -30 69q0 51 38 87q26 25 79 38q-26 20 -38 36q-22 31 -22 68q0 61 49 98.5t129 37.5q62 0 121 -22q50 -19 101 -56zM367 323q0 10 -8.5 19.5t-38.5 32.5l-81 61
q-46 -14 -46 -47q0 -16 23 -34q8 -8 24 -20q55 -43 82 -61q45 13 45 49z" />
    <glyph glyph-name="dieresis" unicode="&#xa8;" horiz-adv-x="292" 
d="M366 695l-28 -122h-174l28 122h174zM125 695l-27 -122h-172l28 122h171z" />
    <glyph glyph-name="copyright" unicode="&#xa9;" horiz-adv-x="833" 
d="M819 354q0 -151 -103 -254t-254 -103q-148 0 -251.5 104t-103.5 252q0 149 103.5 252.5t252.5 103.5t252.5 -103t103.5 -252zM763 352q0 130 -87 219.5t-214 89.5q-124 0 -211.5 -90.5t-87.5 -218.5t87 -217.5t212 -89.5t213 89.5t88 217.5zM647 486q0 -19 -4 -35
l-10 -41h-121l9 40q3 12 3 17q0 24 -31 24q-19 0 -26.5 -8t-13.5 -32l-46 -192q-3 -15 -3 -20q0 -23 32 -23q17 0 25.5 8.5t13.5 30.5l10 43h123l-5 -23q-17 -77 -47 -107q-42 -42 -131 -42q-143 0 -143 103q0 20 11 69l34 144q10 41 20 62.5t29 39.5q43 40 122 40
q72 0 110.5 -25.5t38.5 -72.5z" />
    <glyph glyph-name="ordfeminine" unicode="&#xaa;" horiz-adv-x="355" 
d="M428 636q0 -21 -8 -56l-40 -174q-2 -7 -2 -23q0 -13 8 -23h-138l6 29q-35 -38 -89 -38q-79 0 -79 66q0 56 22 93q15 25 48 38q17 7 70 19q18 4 51 12q5 1 22 8l4 20q0 3 0.5 6t1 5t0.5 3q0 20 -24 20t-31 -31l-4 -19h-113l6 26q14 58 48 82t103 24q71 0 104.5 -21
t33.5 -66zM285 525l-31 -11q-16 -6 -18 -7q-11 -6 -15 -17q-10 -22 -10 -41q0 -23 22 -23q16 0 24.5 8.5t13.5 30.5z" />
    <glyph glyph-name="guillemotleft" unicode="&#xab;" horiz-adv-x="375" 
d="M435 497l-36 -160l-74 -50l50 -50l-34 -149l-130 132l33 140zM252 495l-37 -160l-72 -48l49 -50l-34 -147l-128 129l34 147z" />
    <glyph glyph-name="logicalnot" unicode="&#xac;" horiz-adv-x="559" 
d="M529 374l-74 -331h-187l42 186h-239l33 145h425z" />
    <glyph glyph-name="registered" unicode="&#xae;" horiz-adv-x="833" 
d="M819 354q0 -151 -103 -254t-254 -103q-148 0 -251.5 104t-103.5 252q0 149 103.5 252.5t252.5 103.5t252.5 -103t103.5 -252zM763 352q0 130 -87 219.5t-214 89.5q-124 0 -211.5 -90.5t-87.5 -218.5t87 -217.5t212 -89.5t213 89.5t88 217.5zM652 491q0 -75 -22 -114
q-18 -32 -67 -47l43 -185h-125l-32 172h-16l-39 -172h-123l98 431h151q14 0 31 -0.5t21 -0.5q28 -1 48 -15q32 -22 32 -69zM531 468q0 12 -7 16.5t-24 4.5h-27l-21 -89h30q30 0 36 12q4 8 7 20q6 24 6 36z" />
    <glyph glyph-name="macron" unicode="&#xaf;" horiz-adv-x="292" 
d="M328 692l-21 -94h-343l21 94h343z" />
    <glyph glyph-name="degree" unicode="&#xb0;" horiz-adv-x="356" 
d="M443 572q0 -71 -50 -121.5t-121 -50.5q-72 0 -122.5 50.5t-50.5 122.5q0 71 50 121.5t120 50.5q74 0 124 -49.5t50 -123.5zM327 575q0 23 -16.5 39t-38.5 16q-23 0 -39.5 -16t-16.5 -39t16.5 -39.5t39.5 -16.5t39 16.5t16 39.5z" />
    <glyph glyph-name="plusminus" unicode="&#xb1;" horiz-adv-x="559" 
d="M556 494l-33 -147h-106l-32 -137h-183l31 137h-108l34 147h108l32 136h183l-31 -136h105zM476 147l-33 -147h-399l34 147h398z" />
    <glyph glyph-name="twosuperior" unicode="&#xb2;" horiz-adv-x="354" 
d="M429 615q0 -54 -28 -94q-8 -13 -34 -37q-24 -22 -91 -69q-50 -34 -63 -61h164l-21 -90h-306l9 39q11 43 33 78q24 36 107 95q53 38 72 52q17 13 25 29q3 6 9 28q4 13 4 25q0 26 -30 26q-19 0 -27.5 -11t-16.5 -46l-10 -47h-114l13 54q4 17 9 34q12 39 41 62q39 30 117 30
q74 0 106 -22.5t32 -74.5z" />
    <glyph glyph-name="threesuperior" unicode="&#xb3;" horiz-adv-x="354" 
d="M430 620q0 -45 -23 -84q-16 -27 -49 -38q32 -15 32 -50q0 -15 -5 -38l-7 -31q-13 -55 -36 -80q-20 -23 -58 -35q-24 -7 -71 -7q-143 0 -143 92q0 6 9 51l3 15h116l-9 -38q-2 -7 -2 -18q0 -22 30 -22q19 0 27.5 8t13.5 30l7 31q2 10 2 16q0 11 -5 18q-4 4 -11 7
q-7 2 -30 2h-35l21 90h49q25 0 34 6.5t14 27.5l4 19q1 4 1 11q0 29 -31 29q-32 0 -38 -32l-6 -30h-111l8 34q14 57 51.5 82.5t107.5 25.5q140 0 140 -92z" />
    <glyph glyph-name="acute" unicode="&#xb4;" horiz-adv-x="292" 
d="M297 696l-152 -124h-150l98 124h204z" />
    <glyph glyph-name="mu" unicode="&#xb5;" horiz-adv-x="536" 
d="M584 528l-105 -460q-4 -20 -4 -34q0 -18 12 -34h-192l7 62q-15 -38 -31 -54t-38 -16q-29 0 -39 24l-40 -183h-189l161 695h190l-86 -366q-3 -14 -3 -23q0 -30 32 -30q39 0 51 50l85 369h189z" />
    <glyph glyph-name="paragraph" unicode="&#xb6;" horiz-adv-x="580" 
d="M639 706l-23 -94h-35l-179 -779h-103l179 779h-76l-179 -779h-105l109 468q-113 54 -113 177q0 57 25 105.5t70 79.5q65 43 198 43h232z" />
    <glyph glyph-name="periodcentered" unicode="&#xb7;" horiz-adv-x="250" 
d="M263 373l-38 -164h-174l38 164h174z" />
    <glyph glyph-name="cedilla" unicode="&#xb8;" horiz-adv-x="292" 
d="M257 -101q0 -47 -44.5 -78t-111.5 -31q-29 0 -59 6l-7 53q20 -10 41 -10q22 0 36 11.5t14 29.5q0 29 -34 29q-18 0 -38 -12l-13 44l101 79h87l-51 -60q79 -1 79 -61z" />
    <glyph glyph-name="onesuperior" unicode="&#xb9;" horiz-adv-x="354" 
d="M377 706l-102 -441h-119l73 317q-29 -16 -74 -23l20 86q24 6 44 19q22 14 39 42h119z" />
    <glyph glyph-name="ordmasculine" unicode="&#xba;" horiz-adv-x="355" 
d="M437 621q0 -18 -8 -52l-22 -93l-10 -35q-12 -36 -43 -59q-40 -29 -115 -29q-67 0 -103.5 26.5t-36.5 75.5q0 18 8 53l22 93l10 35q13 38 43 59q40 29 118 29q66 0 101.5 -26.5t35.5 -76.5zM314 614q0 23 -25 23q-27 0 -34 -32l-31 -131q-2 -8 -2 -12q0 -22 25 -22
q26 0 33 31l32 132q2 8 2 11z" />
    <glyph glyph-name="guillemotright" unicode="&#xbb;" horiz-adv-x="375" 
d="M411 365l-34 -147l-187 -129l36 160l72 48l-49 50l34 147zM230 364l-32 -140l-192 -137l37 160l73 50l-50 50l35 149z" />
    <glyph glyph-name="onequarter" unicode="&#xbc;" horiz-adv-x="833" 
d="M801 442l-60 -263h51l-21 -91h-51l-21 -88h-116l21 88h-151l21 91l196 263h131zM676 706l-364 -706h-96l364 706h96zM377 706l-102 -441h-119l73 317q-29 -16 -74 -23l20 86q24 6 44 19q22 14 39 42h119zM655 312l-97 -133h67z" />
    <glyph glyph-name="onehalf" unicode="&#xbd;" horiz-adv-x="833" 
d="M830 350q0 -56 -27 -94q-12 -17 -35 -37q-23 -21 -91 -68q-49 -35 -62 -61h163l-20 -90h-307l9 39q9 43 34 77q24 36 107 95q56 40 72 53q19 16 25 29q7 22 9 28q4 20 4 25q0 25 -30 25q-20 0 -28.5 -11t-15.5 -46l-10 -46h-114l13 53q4 17 9 34q11 39 41 62
q40 31 117 31q73 0 105 -23t32 -75zM657 706l-363 -706h-96l363 706h96zM367 706l-102 -441h-119l73 317q-29 -17 -74 -23l20 86q24 6 44 19q21 13 39 42h119z" />
    <glyph glyph-name="threequarters" unicode="&#xbe;" horiz-adv-x="833" 
d="M827 442l-61 -263h51l-21 -91h-51l-20 -88h-116l20 88h-151l21 91l197 263h131zM711 706l-364 -706h-96l364 706h96zM433 620q0 -45 -23 -84q-16 -27 -49 -38q32 -15 32 -50q0 -15 -5 -38l-7 -31q-13 -55 -36 -80q-20 -23 -58 -35q-24 -7 -71 -7q-143 0 -143 92q0 6 9 51
l3 15h116l-9 -38q-2 -7 -2 -18q0 -22 30 -22q19 0 27.5 8t13.5 30l7 31q2 10 2 16q0 11 -5 18q-4 4 -11 7q-7 2 -30 2h-35l21 90h49q25 0 34 6.5t14 27.5l4 19q1 4 1 11q0 29 -31 29q-32 0 -38 -32l-6 -30h-111l8 34q14 57 51.5 82.5t107.5 25.5q140 0 140 -92zM681 312
l-98 -133h67z" />
    <glyph glyph-name="questiondown" unicode="&#xbf;" horiz-adv-x="479" 
d="M491 706l-35 -150h-174l35 150h174zM444 480q-5 -17 -6 -25q-10 -47 -17 -66q-26 -63 -96 -108l-71 -46q-24 -16 -43 -33q-18 -15 -25 -26q-10 -16 -10 -40q0 -34 34 -34q21 0 32 13t18 45q0 2 2 9t3 13h155q-14 -78 -42 -115q-54 -73 -190 -73q-173 0 -173 126
q0 108 96 175l84 59q41 30 55 56q11 21 20 70h174z" />
    <glyph glyph-name="Agrave" unicode="&#xc0;" horiz-adv-x="562" 
d="M496 765h-150l-114 111h191zM525 0h-192l13 159h-121l-59 -159h-203l321 706h238zM377 568l-106 -283h85z" />
    <glyph glyph-name="Aacute" unicode="&#xc1;" horiz-adv-x="562" 
d="M565 876l-123 -112h-149l81 112h191zM525 0h-192l13 159h-121l-59 -159h-203l321 706h238zM377 568l-106 -283h85z" />
    <glyph glyph-name="Acircumflex" unicode="&#xc2;" horiz-adv-x="562" 
d="M577 759h-144l-22 45l-35 -45h-153l99 109h202zM525 0h-192l13 159h-121l-59 -159h-203l321 706h238zM377 568l-106 -283h85z" />
    <glyph glyph-name="Atilde" unicode="&#xc3;" horiz-adv-x="562" 
d="M575 861l-2 -7q-2 -5 -3 -12t-2 -10q-6 -24 -21 -44q-34 -47 -98 -47q-9 0 -25 2q-9 2 -52 18q-36 14 -54 14q-20 0 -34 -29h-58q10 56 43 87t82 31q24 0 66 -14q29 -9 36 -12q18 -6 33 -6q24 0 35 29h54zM525 0h-192l13 159h-121l-59 -159h-203l321 706h238zM377 568
l-106 -283h85z" />
    <glyph glyph-name="Adieresis" unicode="&#xc4;" horiz-adv-x="562" 
d="M625 870l-20 -110h-165l20 110h165zM390 870l-20 -110h-166l20 110h166zM525 0h-192l13 159h-121l-59 -159h-203l321 706h238zM377 568l-106 -283h85z" />
    <glyph glyph-name="Aring" unicode="&#xc5;" horiz-adv-x="562" 
d="M506 827q0 -41 -30 -71.5t-71 -30.5q-43 0 -73.5 30t-30.5 73q0 42 30 72t73 30q42 0 72 -30t30 -73zM525 0h-192l13 159h-121l-59 -159h-203l321 706h238zM436 828q0 13 -9.5 22.5t-22.5 9.5q-14 0 -23 -9t-9 -23t9 -23.5t23 -9.5q13 0 22.5 10t9.5 23zM377 568
l-106 -283h85z" />
    <glyph glyph-name="AE" unicode="&#xc6;" horiz-adv-x="797" 
d="M890 706l-31 -135h-175l-34 -147h168l-30 -134h-169l-36 -157h198l-31 -133h-390l44 189h-138l-105 -189h-200l420 706h509zM499 600l-161 -285h95z" />
    <glyph glyph-name="Ccedilla" unicode="&#xc7;" horiz-adv-x="542" 
d="M612 572q0 -31 -7 -59l-15 -67h-195l15 65q4 19 4 33q0 35 -45 35q-24 0 -35 -10q-6 -4 -13 -16q-5 -10 -8 -22q-2 -5 -7 -30l-71 -304q-5 -21 -5 -35q0 -36 47 -36q26 0 38.5 14t20.5 51l16 70h197l-8 -38q-26 -123 -73 -170q-56 -56 -172 -65l-24 -28q79 -1 79 -61
q0 -47 -45 -78t-112 -31q-28 0 -58 6l-7 53q20 -10 40 -10q22 0 36.5 11.5t14.5 29.5q0 29 -34 29q-18 0 -39 -12l-13 44l63 49q-85 10 -124.5 47t-39.5 106q0 38 19 119l55 236q15 64 32 99.5t45 62.5q63 60 197 60q231 0 231 -148z" />
    <glyph glyph-name="Egrave" unicode="&#xc8;" horiz-adv-x="437" 
d="M446 765h-150l-114 111h191zM549 706l-32 -137h-187l-33 -143h173l-31 -135h-173l-36 -155h187l-31 -136h-386l163 706h386z" />
    <glyph glyph-name="Eacute" unicode="&#xc9;" horiz-adv-x="437" 
d="M535 876l-123 -112h-149l81 112h191zM549 706l-32 -137h-187l-33 -143h173l-31 -135h-173l-36 -155h187l-31 -136h-386l163 706h386z" />
    <glyph glyph-name="Ecircumflex" unicode="&#xca;" horiz-adv-x="437" 
d="M535 758h-143l-22 45l-35 -45h-154l99 109h202zM549 706l-32 -137h-187l-33 -143h173l-31 -135h-173l-36 -155h187l-31 -136h-386l163 706h386z" />
    <glyph glyph-name="Edieresis" unicode="&#xcb;" horiz-adv-x="437" 
d="M584 870l-19 -110h-165l19 110h165zM349 870l-19 -110h-166l19 110h166zM549 706l-32 -137h-187l-33 -143h173l-31 -135h-173l-36 -155h187l-31 -136h-386l163 706h386z" />
    <glyph glyph-name="Igrave" unicode="&#xcc;" horiz-adv-x="271" 
d="M360 765h-150l-114 111h191zM363 706l-163 -706h-200l163 706h200z" />
    <glyph glyph-name="Iacute" unicode="&#xcd;" horiz-adv-x="271" 
d="M445 876l-123 -112h-149l81 112h191zM363 706l-163 -706h-200l163 706h200z" />
    <glyph glyph-name="Icircumflex" unicode="&#xce;" horiz-adv-x="271" 
d="M441 758h-144l-21 45l-36 -45h-153l99 109h202zM363 706l-163 -706h-200l163 706h200z" />
    <glyph glyph-name="Idieresis" unicode="&#xcf;" horiz-adv-x="271" 
d="M489 870l-19 -110h-165l19 110h165zM254 870l-19 -110h-166l19 110h166zM363 706l-163 -706h-200l163 706h200z" />
    <glyph glyph-name="Eth" unicode="&#xd0;" horiz-adv-x="562" 
d="M619 552q0 -32 -15 -97l-45 -194q-15 -67 -27 -103q-21 -64 -55 -99q-40 -40 -100 -51q-43 -8 -125 -8h-252l77 334h-34l24 101h34l62 271h198q54 0 75 -1q72 -1 116 -28q67 -40 67 -125zM419 527q0 43 -58 43h-30l-31 -135h61l-23 -101h-61l-47 -202h30q43 0 57 9
q17 11 29 59l69 299q4 18 4 28z" />
    <glyph glyph-name="Ntilde" unicode="&#xd1;" horiz-adv-x="562" 
d="M603 861l-2 -7q-2 -5 -3 -12t-2 -10q-6 -24 -21 -44q-34 -47 -98 -47q-9 0 -25 2q-9 2 -52 18q-36 14 -54 14q-20 0 -34 -29h-58q10 56 43 87t82 31q23 0 66 -14q29 -9 36 -12q18 -6 33 -6q24 0 35 29h54zM652 706l-163 -706h-187l-36 448l-100 -448h-166l163 706h183
l38 -453l102 453h166z" />
    <glyph glyph-name="Ograve" unicode="&#xd2;" horiz-adv-x="562" 
d="M486 765h-150l-114 111h191zM616 555q0 -35 -15 -102l-54 -233q-23 -97 -53 -142q-28 -42 -85.5 -65t-134.5 -23q-105 0 -174 41q-64 37 -64 121q0 38 15 102l59 255q26 113 87.5 160.5t180.5 47.5q238 0 238 -162zM419 544q0 39 -46 39q-22 0 -36 -11q-17 -12 -25 -51
l-76 -331q-4 -16 -4 -27q0 -18 12.5 -28.5t34.5 -10.5t36 11q14 10 24 52l76 331q4 16 4 26z" />
    <glyph glyph-name="Oacute" unicode="&#xd3;" horiz-adv-x="562" 
d="M573 876l-123 -112h-149l81 112h191zM616 555q0 -35 -15 -102l-54 -233q-23 -97 -53 -142q-28 -42 -85.5 -65t-134.5 -23q-105 0 -174 41q-64 37 -64 121q0 38 15 102l59 255q26 113 87.5 160.5t180.5 47.5q238 0 238 -162zM419 544q0 39 -46 39q-22 0 -36 -11
q-17 -12 -25 -51l-76 -331q-4 -16 -4 -27q0 -18 12.5 -28.5t34.5 -10.5t36 11q14 10 24 52l76 331q4 16 4 26z" />
    <glyph glyph-name="Ocircumflex" unicode="&#xd4;" horiz-adv-x="562" 
d="M571 758h-143l-22 45l-35 -45h-154l99 109h202zM616 555q0 -35 -15 -102l-54 -233q-23 -97 -53 -142q-28 -42 -85.5 -65t-134.5 -23q-105 0 -174 41q-64 37 -64 121q0 38 15 102l59 255q26 113 87.5 160.5t180.5 47.5q238 0 238 -162zM419 544q0 39 -46 39q-22 0 -36 -11
q-17 -12 -25 -51l-76 -331q-4 -16 -4 -27q0 -18 12.5 -28.5t34.5 -10.5t36 11q14 10 24 52l76 331q4 16 4 26z" />
    <glyph glyph-name="Otilde" unicode="&#xd5;" horiz-adv-x="562" 
d="M582 861l-2 -7q-2 -5 -3 -12t-2 -10q-6 -24 -21 -44q-34 -47 -98 -47q-9 0 -25 2q-9 2 -52 18q-36 14 -54 14q-20 0 -34 -29h-58q10 56 43 87t82 31q24 0 66 -14q28 -9 36 -12q18 -6 33 -6q24 0 35 29h54zM616 555q0 -35 -15 -102l-54 -233q-23 -97 -53 -142
q-28 -42 -85.5 -65t-134.5 -23q-105 0 -174 41q-64 37 -64 121q0 38 15 102l59 255q26 113 87.5 160.5t180.5 47.5q238 0 238 -162zM419 544q0 39 -46 39q-22 0 -36 -11q-17 -12 -25 -51l-76 -331q-4 -16 -4 -27q0 -18 12.5 -28.5t34.5 -10.5t36 11q14 10 24 52l76 331
q4 16 4 26z" />
    <glyph glyph-name="Odieresis" unicode="&#xd6;" horiz-adv-x="562" 
d="M615 870l-20 -110h-165l20 110h165zM380 870l-20 -110h-166l20 110h166zM616 555q0 -35 -15 -102l-54 -233q-23 -97 -53 -142q-28 -42 -85.5 -65t-134.5 -23q-105 0 -174 41q-64 37 -64 121q0 38 15 102l59 255q26 113 87.5 160.5t180.5 47.5q238 0 238 -162zM419 544
q0 39 -46 39q-22 0 -36 -11q-17 -12 -25 -51l-76 -331q-4 -16 -4 -27q0 -18 12.5 -28.5t34.5 -10.5t36 11q14 10 24 52l76 331q4 16 4 26z" />
    <glyph glyph-name="multiply" unicode="&#xd7;" horiz-adv-x="558" 
d="M535 364l-103 -77l67 -95l-142 -106l-68 96l-105 -79l-90 117l110 82l-77 108l143 106l76 -108l102 74z" />
    <glyph glyph-name="Oslash" unicode="&#xd8;" horiz-adv-x="562" 
d="M659 655l-50 -51q7 -27 7 -51q0 -35 -15 -100l-54 -233q-17 -75 -42.5 -119t-66.5 -70q-30 -19 -63 -27q-52 -13 -111 -13q-128 0 -196 69l-42 -41l-48 48l60 61q-2 9 -2 27q0 35 15 99l54 233q17 76 42.5 119.5t66.5 69.5q64 41 174 41q108 0 181 -55l40 41zM421 546
q0 40 -48 40q-23 0 -39 -11q-17 -12 -26 -53l-33 -157l140 141l3 15q3 13 3 25zM387 381l-140 -141l-12 -54q-4 -22 -4 -26q0 -39 49 -39q23 0 39 11q17 12 26 53z" />
    <glyph glyph-name="Ugrave" unicode="&#xd9;" horiz-adv-x="562" 
d="M505 765h-150l-114 111h191zM656 706l-111 -486q-3 -13 -8 -32.5t-7 -26.5q-19 -73 -58 -109q-65 -61 -210 -61q-109 0 -167.5 40t-58.5 115q0 28 13 85l110 475h198l-118 -510q-5 -20 -5 -29q0 -36 47 -36q25 0 38 13t20 47l119 515h198z" />
    <glyph glyph-name="Uacute" unicode="&#xda;" horiz-adv-x="562" 
d="M589 876l-123 -112h-149l81 112h191zM656 706l-111 -486q-3 -13 -8 -32.5t-7 -26.5q-19 -73 -58 -109q-65 -61 -210 -61q-109 0 -167.5 40t-58.5 115q0 28 13 85l110 475h198l-118 -510q-5 -20 -5 -29q0 -36 47 -36q25 0 38 13t20 47l119 515h198z" />
    <glyph glyph-name="Ucircumflex" unicode="&#xdb;" horiz-adv-x="562" 
d="M585 758h-144l-21 45l-36 -45h-153l99 109h202zM656 706l-111 -486q-3 -13 -8 -32.5t-7 -26.5q-19 -73 -58 -109q-65 -61 -210 -61q-109 0 -167.5 40t-58.5 115q0 28 13 85l110 475h198l-118 -510q-5 -20 -5 -29q0 -36 47 -36q25 0 38 13t20 47l119 515h198z" />
    <glyph glyph-name="Udieresis" unicode="&#xdc;" horiz-adv-x="562" 
d="M634 870l-19 -110h-165l19 110h165zM399 870l-19 -110h-166l19 110h166zM656 706l-111 -486q-3 -13 -8 -32.5t-7 -26.5q-19 -73 -58 -109q-65 -61 -210 -61q-109 0 -167.5 40t-58.5 115q0 28 13 85l110 475h198l-118 -510q-5 -20 -5 -29q0 -36 47 -36q25 0 38 13t20 47
l119 515h198z" />
    <glyph glyph-name="Yacute" unicode="&#xdd;" horiz-adv-x="562" 
d="M597 876l-122 -112h-149l81 112h190zM687 706l-286 -479l-53 -227h-197l53 227l-75 479h193l14 -306l154 306h197z" />
    <glyph glyph-name="Thorn" unicode="&#xde;" horiz-adv-x="542" 
d="M586 452q0 -32 -12 -88q-21 -93 -44 -133q-27 -48 -77 -72q-17 -9 -42 -14q-56 -10 -105 -10h-77l-31 -135h-198l163 706h197l-27 -120h42q106 0 146 -18q65 -30 65 -116zM391 415q0 20 -11 28t-38 8h-40l-42 -181h38q38 0 52.5 11t22.5 46l15 63q3 13 3 25z" />
    <glyph glyph-name="germandbls" unicode="&#xdf;" 
d="M583 589q0 -57 -27 -129q-11 -29 -30 -45t-53 -23q35 -13 50 -30.5t15 -46.5q0 -25 -9 -61l-20 -86q-9 -38 -12 -48q-11 -48 -38 -76q-25 -26 -59.5 -37t-95.5 -11q-38 0 -83 5l18 76q4 0 10 -0.5t8 -0.5q24 0 38 10q10 7 15.5 19.5t14.5 50.5l27 113q5 19 5 39
q0 17 -11 24.5t-39 7.5h-8l26 109q38 0 49 15q7 8 12 28q16 69 16 85q0 30 -38 30q-23 0 -33.5 -11.5t-18.5 -47.5l-127 -548h-188l116 504q7 31 22 83q16 53 54 84q57 47 183 47q211 0 211 -129z" />
    <glyph glyph-name="agrave" unicode="&#xe0;" horiz-adv-x="518" 
d="M447 572h-151l-109 124h201zM540 412q0 -27 -13 -83l-61 -261q-4 -20 -4 -34q0 -18 13 -34h-213l10 43q-30 -31 -61.5 -44t-76.5 -13q-59 0 -90.5 26t-31.5 73q0 36 10 76.5t25 63.5q22 36 73 56q30 12 108 28q63 14 79 19q16 4 33 12l7 29q3 15 3 22q0 29 -36 29
q-37 0 -48 -47l-7 -28h-175l9 39q20 86 73.5 122.5t160.5 36.5q110 0 161.5 -31.5t51.5 -99.5zM320 253l-49 -18q-22 -9 -28 -12q-16 -9 -24 -26q-15 -36 -15 -68q0 -37 35 -37q21 0 35 12t24 52z" />
    <glyph glyph-name="aacute" unicode="&#xe1;" horiz-adv-x="518" 
d="M553 696l-152 -124h-149l98 124h203zM540 412q0 -27 -13 -83l-61 -261q-4 -20 -4 -34q0 -18 13 -34h-213l10 43q-30 -31 -61.5 -44t-76.5 -13q-59 0 -90.5 26t-31.5 73q0 36 10 76.5t25 63.5q22 36 73 56q30 12 108 28q63 14 79 19q16 4 33 12l7 29q3 15 3 22
q0 29 -36 29q-37 0 -48 -47l-7 -28h-175l9 39q20 86 73.5 122.5t160.5 36.5q110 0 161.5 -31.5t51.5 -99.5zM320 253l-49 -18q-22 -9 -28 -12q-16 -9 -24 -26q-15 -36 -15 -68q0 -37 35 -37q21 0 35 12t24 52z" />
    <glyph glyph-name="acircumflex" unicode="&#xe2;" horiz-adv-x="518" 
d="M526 574h-141l-25 57l-52 -57h-150l119 122h188zM540 412q0 -27 -13 -83l-61 -261q-4 -20 -4 -34q0 -18 13 -34h-213l10 43q-30 -31 -61.5 -44t-76.5 -13q-59 0 -90.5 26t-31.5 73q0 36 10 76.5t25 63.5q22 36 73 56q30 12 108 28q63 14 79 19q16 4 33 12l7 29q3 15 3 22
q0 29 -36 29q-37 0 -48 -47l-7 -28h-175l9 39q20 86 73.5 122.5t160.5 36.5q110 0 161.5 -31.5t51.5 -99.5zM320 253l-49 -18q-22 -9 -28 -12q-16 -9 -24 -26q-15 -36 -15 -68q0 -37 35 -37q21 0 35 12t24 52z" />
    <glyph glyph-name="atilde" unicode="&#xe3;" horiz-adv-x="518" 
d="M529 694q-10 -57 -41.5 -89t-78.5 -32q-12 0 -18 1q-23 3 -76 25q-26 10 -39 10q-28 0 -35 -30l-61 -1q31 117 123 117q26 0 72 -18q41 -15 57 -15q30 0 38 32h59zM540 412q0 -27 -13 -83l-61 -261q-4 -20 -4 -34q0 -18 13 -34h-213l10 43q-30 -31 -61.5 -44t-76.5 -13
q-59 0 -90.5 26t-31.5 73q0 36 10 76.5t25 63.5q22 36 73 56q30 12 108 28q63 14 79 19q16 4 33 12l7 29q3 15 3 22q0 29 -36 29q-37 0 -48 -47l-7 -28h-175l9 39q20 86 73.5 122.5t160.5 36.5q110 0 161.5 -31.5t51.5 -99.5zM320 253l-49 -18q-22 -9 -28 -12
q-16 -9 -24 -26q-15 -36 -15 -68q0 -37 35 -37q21 0 35 12t24 52z" />
    <glyph glyph-name="adieresis" unicode="&#xe4;" horiz-adv-x="518" 
d="M576 695l-28 -122h-173l28 122h173zM336 695l-28 -122h-171l28 122h171zM540 412q0 -27 -13 -83l-61 -261q-4 -20 -4 -34q0 -18 13 -34h-213l10 43q-30 -31 -61.5 -44t-76.5 -13q-59 0 -90.5 26t-31.5 73q0 36 10 76.5t25 63.5q22 36 73 56q30 12 108 28q63 14 79 19
q16 4 33 12l7 29q3 15 3 22q0 29 -36 29q-37 0 -48 -47l-7 -28h-175l9 39q20 86 73.5 122.5t160.5 36.5q110 0 161.5 -31.5t51.5 -99.5zM320 253l-49 -18q-22 -9 -28 -12q-16 -9 -24 -26q-15 -36 -15 -68q0 -37 35 -37q21 0 35 12t24 52z" />
    <glyph glyph-name="aring" unicode="&#xe5;" horiz-adv-x="518" 
d="M460 670q0 -43 -29.5 -73t-70.5 -30q-44 0 -73 29.5t-30 73.5q0 42 29.5 72t72.5 30t72 -29.5t29 -72.5zM540 412q0 -27 -13 -83l-61 -261q-4 -20 -4 -34q0 -18 13 -34h-213l10 43q-30 -31 -61.5 -44t-76.5 -13q-59 0 -90.5 26t-31.5 73q0 36 10 76.5t25 63.5
q22 36 73 56q30 12 108 28q63 14 79 19q16 4 33 12l7 29q3 15 3 22q0 29 -36 29q-37 0 -48 -47l-7 -28h-175l9 39q20 86 73.5 122.5t160.5 36.5q110 0 161.5 -31.5t51.5 -99.5zM390 670q0 14 -9 23t-22 9t-23 -10t-10 -23q0 -14 9 -23t23 -9t23 9.5t9 23.5zM320 253l-49 -18
q-22 -9 -28 -12q-16 -9 -24 -26q-15 -36 -15 -68q0 -37 35 -37q21 0 35 12t24 52z" />
    <glyph glyph-name="ae" unicode="&#xe6;" horiz-adv-x="761" 
d="M798 405q0 -27 -8 -64l-25 -105h-265l-17 -69q-5 -21 -5 -29q0 -31 39 -31q21 0 32 11t18 40l6 26h180l-7 -29q-23 -93 -77 -131t-165 -38q-89 0 -139 26q-26 13 -51 39q-64 -63 -156 -63q-144 0 -144 115q0 19 3 43q7 53 26 82q24 35 77 53q43 15 108 28q59 12 79 19
q16 4 33 12l7 29q3 15 3 22q0 29 -36 29q-37 0 -48 -47l-7 -28h-175l9 39q19 85 73 122t158 37q53 0 91 -10q18 -5 43 -16q59 25 127 25q103 0 158 -35.5t55 -101.5zM624 399q0 32 -40 32q-39 0 -49 -42l-16 -68h89l14 60q2 7 2 18zM320 253l-49 -18q-24 -9 -28 -12
q-16 -10 -24 -25q-14 -32 -14 -66q0 -40 36 -40q19 0 33 12t24 52z" />
    <glyph glyph-name="ccedilla" unicode="&#xe7;" horiz-adv-x="500" 
d="M530 420q0 -28 -9 -66l-7 -30h-180l10 42q3 13 3 24q0 31 -34 31q-19 0 -31 -10q-10 -10 -19 -47l-46 -194q-1 -5 -2 -11t-2 -8q-1 -4 -1 -12q0 -30 35 -30q18 0 31 11q6 4 9 11q5 8 6 16q1 1 4 15l6 29h187l-5 -23l-4 -16l-4 -16l-3 -12q-14 -49 -47 -81
q-45 -43 -146 -54l-26 -29q79 -1 79 -61q0 -47 -44.5 -78t-111.5 -31q-29 0 -59 6l-7 53q20 -10 41 -10q22 0 36 11.5t14 29.5q0 29 -34 29q-18 0 -38 -12l-13 44l62 49q-60 7 -93 25q-29 17 -45.5 47.5t-16.5 66.5q0 23 7 54l45 193q24 104 99 138q58 27 154 27
q200 0 200 -121z" />
    <glyph glyph-name="egrave" unicode="&#xe8;" horiz-adv-x="496" 
d="M440 572h-151l-109 124h201zM533 405q0 -27 -8 -64l-25 -105h-265l-17 -69q-5 -21 -5 -29q0 -31 39 -31q21 0 32 11t18 40l6 26h180l-7 -29q-23 -93 -76 -130.5t-165 -37.5q-105 0 -163 35q-50 29 -50 101q0 35 11 82l35 147q25 105 79.5 147.5t165.5 42.5
q215 0 215 -137zM359 399q0 32 -40 32q-39 0 -49 -42l-16 -68h89l14 60q2 7 2 18z" />
    <glyph glyph-name="eacute" unicode="&#xe9;" horiz-adv-x="496" 
d="M525 696l-152 -124h-149l98 124h203zM533 405q0 -27 -8 -64l-25 -105h-265l-17 -69q-5 -21 -5 -29q0 -31 39 -31q21 0 32 11t18 40l6 26h180l-7 -29q-23 -93 -76 -130.5t-165 -37.5q-105 0 -163 35q-50 29 -50 101q0 35 11 82l35 147q25 105 79.5 147.5t165.5 42.5
q215 0 215 -137zM359 399q0 32 -40 32q-39 0 -49 -42l-16 -68h89l14 60q2 7 2 18z" />
    <glyph glyph-name="ecircumflex" unicode="&#xea;" horiz-adv-x="496" 
d="M519 574h-141l-25 57l-52 -57h-150l119 122h188zM533 405q0 -27 -8 -64l-25 -105h-265l-17 -69q-5 -21 -5 -29q0 -31 39 -31q21 0 32 11t18 40l6 26h180l-7 -29q-23 -93 -76 -130.5t-165 -37.5q-105 0 -163 35q-50 29 -50 101q0 35 11 82l35 147q25 105 79.5 147.5
t165.5 42.5q215 0 215 -137zM359 399q0 32 -40 32q-39 0 -49 -42l-16 -68h89l14 60q2 7 2 18z" />
    <glyph glyph-name="edieresis" unicode="&#xeb;" horiz-adv-x="496" 
d="M576 695l-28 -122h-173l28 122h173zM336 695l-28 -122h-171l28 122h171zM533 405q0 -27 -8 -64l-25 -105h-265l-17 -69q-5 -21 -5 -29q0 -31 39 -31q21 0 32 11t18 40l6 26h180l-7 -29q-23 -93 -76 -130.5t-165 -37.5q-105 0 -163 35q-50 29 -50 101q0 35 11 82l35 147
q25 105 79.5 147.5t165.5 42.5q215 0 215 -137zM359 399q0 32 -40 32q-39 0 -49 -42l-16 -68h89l14 60q2 7 2 18z" />
    <glyph glyph-name="igrave" unicode="&#xec;" horiz-adv-x="250" 
d="M311 572h-151l-109 124h201zM307 528l-121 -528h-189l121 528h189z" />
    <glyph glyph-name="iacute" unicode="&#xed;" horiz-adv-x="250" 
d="M424 696l-152 -124h-149l98 124h203zM307 528l-121 -528h-189l121 528h189z" />
    <glyph glyph-name="icircumflex" unicode="&#xee;" horiz-adv-x="250" 
d="M399 574h-141l-25 57l-52 -57h-150l119 122h188zM307 528l-121 -528h-189l121 528h189z" />
    <glyph glyph-name="idieresis" unicode="&#xef;" horiz-adv-x="250" 
d="M453 695l-28 -122h-173l28 122h173zM213 695l-28 -122h-171l28 122h171zM307 528l-121 -528h-189l121 528h189z" />
    <glyph glyph-name="eth" unicode="&#xf0;" 
d="M567 630l-68 -11q47 -79 47 -183q0 -61 -14 -123l-31 -140q-5 -25 -14 -52q-19 -58 -64 -90q-61 -45 -174 -45q-220 0 -220 147q0 30 12 84l31 139q6 27 14 52q20 63 62 94q47 35 123 35q63 0 101 -30q-3 30 -7 45q-6 20 -20 43l-139 -21l-16 65l115 18q-5 7 -11.5 15
t-15.5 17t-13 14l159 29q29 -33 40 -50l89 13zM359 382q0 37 -42 37q-43 0 -55 -49l-46 -205q-2 -7 -2 -18q0 -37 42 -37q44 0 55 50l46 204q2 7 2 18z" />
    <glyph glyph-name="ntilde" unicode="&#xf1;" 
d="M525 694q-10 -57 -41.5 -89t-78.5 -32q-12 0 -18 1q-23 3 -76 25q-26 10 -39 10q-28 0 -35 -30l-61 -1q31 117 123 117q26 0 72 -18q41 -15 57 -15q30 0 38 32h59zM550 436q0 -28 -11 -77l-83 -359h-190l85 370q3 12 3 22q0 30 -31 30q-39 0 -51 -50l-86 -372h-189
l122 528h189l-13 -53q52 64 131 64q57 0 90.5 -28t33.5 -75z" />
    <glyph glyph-name="ograve" unicode="&#xf2;" 
d="M432 572h-151l-109 124h201zM544 397q0 -30 -12 -84l-31 -140q-5 -25 -14 -52q-19 -58 -64 -90q-61 -45 -174 -45q-220 0 -220 147q0 30 12 84l31 139q5 25 14 52q19 58 64 91q59 44 174 44q220 0 220 -146zM359 382q0 37 -42 37q-43 0 -55 -49l-46 -205q-2 -7 -2 -18
q0 -37 42 -37q44 0 55 50l46 204q2 7 2 18z" />
    <glyph glyph-name="oacute" unicode="&#xf3;" 
d="M530 696l-152 -124h-149l98 124h203zM544 397q0 -30 -12 -84l-31 -140q-5 -25 -14 -52q-19 -58 -64 -90q-61 -45 -174 -45q-220 0 -220 147q0 30 12 84l31 139q5 25 14 52q19 58 64 91q59 44 174 44q220 0 220 -146zM359 382q0 37 -42 37q-43 0 -55 -49l-46 -205
q-2 -7 -2 -18q0 -37 42 -37q44 0 55 50l46 204q2 7 2 18z" />
    <glyph glyph-name="ocircumflex" unicode="&#xf4;" 
d="M518 574h-141l-25 57l-52 -57h-150l119 122h188zM544 397q0 -30 -12 -84l-31 -140q-5 -25 -14 -52q-19 -58 -64 -90q-61 -45 -174 -45q-220 0 -220 147q0 30 12 84l31 139q5 25 14 52q19 58 64 91q59 44 174 44q220 0 220 -146zM359 382q0 37 -42 37q-43 0 -55 -49
l-46 -205q-2 -7 -2 -18q0 -37 42 -37q44 0 55 50l46 204q2 7 2 18z" />
    <glyph glyph-name="otilde" unicode="&#xf5;" 
d="M524 694q-10 -57 -41.5 -89t-78.5 -32q-12 0 -18 1q-23 3 -76 25q-26 10 -39 10q-28 0 -35 -30l-61 -1q31 117 123 117q26 0 72 -18q41 -15 57 -15q30 0 38 32h59zM544 397q0 -30 -12 -84l-31 -140q-5 -25 -14 -52q-19 -58 -64 -90q-61 -45 -174 -45q-220 0 -220 147
q0 30 12 84l31 139q5 25 14 52q19 58 64 91q59 44 174 44q220 0 220 -146zM359 382q0 37 -42 37q-43 0 -55 -49l-46 -205q-2 -7 -2 -18q0 -37 42 -37q44 0 55 50l46 204q2 7 2 18z" />
    <glyph glyph-name="odieresis" unicode="&#xf6;" 
d="M575 695l-28 -122h-173l28 122h173zM335 695l-28 -122h-171l28 122h171zM544 397q0 -30 -12 -84l-31 -140q-5 -25 -14 -52q-19 -58 -64 -90q-61 -45 -174 -45q-220 0 -220 147q0 30 12 84l31 139q5 25 14 52q19 58 64 91q59 44 174 44q220 0 220 -146zM359 382
q0 37 -42 37q-43 0 -55 -49l-46 -205q-2 -7 -2 -18q0 -37 42 -37q44 0 55 50l46 204q2 7 2 18z" />
    <glyph glyph-name="divide" unicode="&#xf7;" horiz-adv-x="559" 
d="M464 596l-39 -170h-162l39 170h162zM544 374l-34 -147h-425l34 147h425zM368 176l-38 -170h-162l39 170h161z" />
    <glyph glyph-name="oslash" unicode="&#xf8;" 
d="M582 490l-45 -41q9 -22 9 -47q0 -38 -12 -89l-32 -140q-10 -40 -14 -52q-17 -57 -63 -90q-62 -45 -174 -45q-127 0 -181 50l-40 -36l-41 45l48 44q-7 21 -7 43q0 34 12 85l32 139q10 40 14 52q17 56 63 91q61 44 174 44q120 0 176 -44l40 37zM365 386q0 37 -46 37
q-47 0 -59 -52l-23 -106l127 113q1 4 1 8zM342 276l-128 -116l-1 -4q-1 -4 -1 -12q0 -38 45 -38q47 0 59 52z" />
    <glyph glyph-name="ugrave" unicode="&#xf9;" 
d="M459 572h-151l-109 124h201zM574 528l-121 -528h-189l12 52q-54 -64 -131 -64q-57 0 -90.5 28t-33.5 75q0 25 12 77l82 360h190l-85 -370q-3 -13 -3 -23q0 -30 32 -30q38 0 50 50l86 373h189z" />
    <glyph glyph-name="uacute" unicode="&#xfa;" 
d="M549 696l-152 -124h-149l98 124h203zM574 528l-121 -528h-189l12 52q-54 -64 -131 -64q-57 0 -90.5 28t-33.5 75q0 25 12 77l82 360h190l-85 -370q-3 -13 -3 -23q0 -30 32 -30q38 0 50 50l86 373h189z" />
    <glyph glyph-name="ucircumflex" unicode="&#xfb;" 
d="M533 574h-141l-25 57l-52 -57h-150l119 122h188zM574 528l-121 -528h-189l12 52q-54 -64 -131 -64q-57 0 -90.5 28t-33.5 75q0 25 12 77l82 360h190l-85 -370q-3 -13 -3 -23q0 -30 32 -30q38 0 50 50l86 373h189z" />
    <glyph glyph-name="udieresis" unicode="&#xfc;" 
d="M588 695l-28 -122h-173l28 122h173zM348 695l-28 -122h-171l28 122h171zM574 528l-121 -528h-189l12 52q-54 -64 -131 -64q-57 0 -90.5 28t-33.5 75q0 25 12 77l82 360h190l-85 -370q-3 -13 -3 -23q0 -30 32 -30q38 0 50 50l86 373h189z" />
    <glyph glyph-name="yacute" unicode="&#xfd;" horiz-adv-x="500" 
d="M538 696l-152 -124h-149l98 124h203zM586 528l-301 -583q-26 -51 -43 -73t-41 -38t-54 -25q-43 -13 -132 -13h-63l32 117h24q48 0 69.5 11t41.5 45l-32 559h182l-8 -320l135 320h190z" />
    <glyph glyph-name="thorn" unicode="&#xfe;" 
d="M556 442q0 -27 -14 -88l-47 -204q-14 -63 -39 -98q-44 -63 -132 -63q-92 0 -126 68l-52 -225h-189l202 874h188l-55 -239q16 19 31 33q47 39 114 39q57 0 88 -25.5t31 -71.5zM362 396q0 31 -37 31q-22 0 -34 -11.5t-19 -39.5l-50 -218q-3 -15 -3 -24q0 -33 38 -33
q21 0 32.5 12t18.5 40l50 219q4 20 4 24z" />
    <glyph glyph-name="ydieresis" unicode="&#xff;" horiz-adv-x="500" 
d="M574 695l-28 -122h-173l28 122h173zM334 695l-28 -122h-171l28 122h171zM586 528l-301 -583q-26 -51 -43 -73t-41 -38t-54 -25q-43 -13 -132 -13h-63l32 117h24q48 0 69.5 11t41.5 45l-32 559h182l-8 -320l135 320h190z" />
    <glyph glyph-name="OE" unicode="&#x152;" horiz-adv-x="736" 
d="M829 706l-32 -139h-175l-33 -140h169l-32 -136h-168l-36 -155h199l-32 -136h-396l6 29l-7 -5q-47 -33 -117 -33t-108 36.5t-38 103.5q0 28 14 89l67 292q18 77 38 118q42 88 172 88q38 0 73 -9q26 -6 57 -29l6 26h373zM423 565q0 38 -48 38q-25 0 -37 -12.5t-20 -47.5
l-82 -358q-6 -24 -6 -36q0 -40 45 -40q20 0 33 10q17 11 28 60l83 359q4 15 4 27z" />
    <glyph glyph-name="oe" unicode="&#x153;" horiz-adv-x="773" 
d="M809 405q0 -32 -7 -64l-25 -105h-265l-17 -69q-5 -21 -5 -29q0 -31 39 -31q21 0 32 11t18 40l6 26h180l-7 -29q-23 -93 -76 -130.5t-163 -37.5q-42 0 -68 5t-67 22q-64 -27 -145 -27q-128 0 -180 55q-30 33 -30 91q0 30 12 84l31 139q5 25 14 52q19 58 64 91
q61 44 173 44q76 0 139 -28q63 27 131 27q106 0 161 -35t55 -102zM636 399q0 32 -40 32q-39 0 -49 -42l-16 -68h89l14 60q2 7 2 18zM359 382q0 37 -42 37q-43 0 -55 -49l-46 -205q-2 -7 -2 -18q0 -37 42 -37q44 0 55 50l46 204q2 7 2 18z" />
    <glyph glyph-name="Scaron" unicode="&#x160;" 
d="M550 867l-99 -109h-202l-53 109h143l22 -45l35 45h154zM579 558q0 -33 -15 -90h-188l12 52q3 12 3 21q0 37 -44 37q-23 0 -36 -13.5t-13 -36.5q0 -21 26 -50l17 -18l102 -105q67 -68 67 -138q0 -98 -52 -157q-64 -69 -207 -69q-117 0 -178.5 40.5t-61.5 117.5q0 43 15 98
h197l-12 -49q-4 -17 -4 -30q0 -19 12.5 -29.5t33.5 -10.5q55 0 55 75q0 14 -6 26t-36 42l-97 99q-65 67 -65 135q0 88 51 146q30 34 75 48.5t118 14.5q111 0 171 -40.5t60 -115.5z" />
    <glyph glyph-name="scaron" unicode="&#x161;" horiz-adv-x="476" 
d="M508 696l-119 -122h-189l-60 122h141l25 -58l52 58h150zM519 435q0 -23 -13 -68h-178q8 29 8 45q0 30 -35 30q-20 0 -33 -13t-13 -34q0 -13 6 -22q10 -11 43 -31q3 -2 18.5 -12.5t27.5 -18.5q50 -33 69.5 -49.5t29.5 -34.5q15 -26 15 -61q0 -91 -63.5 -135t-194.5 -44
q-205 0 -205 109q0 19 11 67h188q-9 -39 -9 -45q0 -32 38 -32q20 0 32 13t12 34q0 25 -30 44l-41 26q-67 43 -105 83q-27 28 -27 72q0 91 64 139q57 45 171 45q214 0 214 -107z" />
    <glyph glyph-name="Ydieresis" unicode="&#x178;" horiz-adv-x="562" 
d="M634 870l-19 -110h-165l19 110h165zM399 870l-19 -110h-166l19 110h166zM687 706l-286 -479l-53 -227h-197l53 227l-75 479h193l14 -306l154 306h197z" />
    <glyph glyph-name="florin" unicode="&#x192;" horiz-adv-x="437" 
d="M524 705l-24 -101h-41q-28 0 -40.5 -8.5t-18.5 -32.5l-9 -37h86l-22 -98h-86l-97 -424q-12 -52 -25 -79t-35 -43q-21 -16 -49 -22t-85 -6h-119l22 101h50q9 0 18 3q26 8 35 46l98 424h-82l23 98h81q9 44 10 47q13 61 43 94q21 22 49 30t84 8h134z" />
    <glyph glyph-name="circumflex" unicode="&#x2c6;" horiz-adv-x="292" 
d="M330 574h-141l-25 57l-52 -57h-150l119 122h188z" />
    <glyph glyph-name="tilde" unicode="&#x2dc;" horiz-adv-x="292" 
d="M321 694q-10 -57 -41.5 -89t-78.5 -32q-12 0 -18 1q-23 3 -76 25q-26 10 -39 10q-28 0 -35 -30l-62 -1q31 117 123 117q26 0 72 -18q41 -15 57 -15q30 0 38 32h60z" />
    <glyph glyph-name="endash" unicode="&#x2013;" horiz-adv-x="546" 
d="M566 369l-31 -137h-487l31 137h487z" />
    <glyph glyph-name="emdash" unicode="&#x2014;" horiz-adv-x="729" 
d="M749 369l-31 -137h-670l31 137h670z" />
    <glyph glyph-name="quoteleft" unicode="&#x2018;" horiz-adv-x="243" 
d="M319 706l-88 -155h72l-38 -162h-176l38 162l128 155h64z" />
    <glyph glyph-name="quoteright" unicode="&#x2019;" horiz-adv-x="247" 
d="M340 706l-37 -163l-131 -155h-66l92 155h-71l37 163h176z" />
    <glyph glyph-name="quotesinglbase" unicode="&#x201a;" horiz-adv-x="247" 
d="M216 162l-38 -162l-130 -155h-66l91 155h-71l38 162h176z" />
    <glyph glyph-name="quotedblleft" unicode="&#x201c;" horiz-adv-x="458" 
d="M534 706l-91 -155h71l-38 -162h-176l38 162l130 155h66zM319 706l-88 -155h72l-38 -162h-176l38 162l128 155h64z" />
    <glyph glyph-name="quotedblright" unicode="&#x201d;" horiz-adv-x="458" 
d="M551 706l-37 -163l-129 -155h-64l89 155h-72l37 163h176zM340 706l-37 -163l-131 -155h-66l92 155h-71l37 163h176z" />
    <glyph glyph-name="quotedblbase" unicode="&#x201e;" horiz-adv-x="458" 
d="M427 162l-38 -162l-129 -155h-63l88 155h-72l38 162h176zM216 162l-38 -162l-130 -155h-66l91 155h-71l38 162h176z" />
    <glyph glyph-name="dagger" unicode="&#x2020;" 
d="M599 533l-34 -150h-156l-88 -383h-193l88 383h-156l35 150h156l40 173h192l-39 -173h155z" />
    <glyph glyph-name="daggerdbl" unicode="&#x2021;" 
d="M603 548l-35 -149h-158l-20 -94h157l-34 -149h-158l-36 -156h-189l36 156h-158l34 149h159l21 94h-159l35 149h159l36 158h189l-37 -158h158z" />
    <glyph glyph-name="bullet" unicode="&#x2022;" horiz-adv-x="333" 
d="M370 475l-60 -257h-257l60 257h257z" />
    <glyph glyph-name="ellipsis" unicode="&#x2026;" horiz-adv-x="1000" 
d="M900 145l-33 -145h-136l34 145h135zM568 145l-33 -145h-135l33 145h135zM234 145l-34 -145h-135l34 145h135z" />
    <glyph glyph-name="perthousand" unicode="&#x2030;" horiz-adv-x="1193" 
d="M1211 359q0 -23 -10 -64l-38 -167q-10 -41 -19.5 -62t-26.5 -36q-43 -37 -125 -37q-139 0 -139 90q0 23 9 63l39 168q7 32 8 34q10 40 38 64q42 37 124 37q140 0 140 -90zM850 359q0 -27 -9 -64l-39 -167q-17 -73 -46 -98q-42 -37 -125 -37q-139 0 -139 90q0 18 10 63
l38 168q4 17 9 34q13 42 37 64q42 37 125 37q139 0 139 -90zM691 706l-366 -706h-87l366 706h87zM439 628q0 -16 -10 -63l-38 -168q-16 -69 -46 -98q-42 -37 -125 -37q-139 0 -139 90q0 28 9 64l39 167q1 6 4 17.5t4 16.5q12 41 38 64q42 37 124 37q140 0 140 -90zM1094 352
q0 23 -31 23q-29 0 -38 -36l-53 -233q-2 -12 -2 -16q0 -23 31 -23q30 0 37 35l53 234q3 15 3 16zM733 352q0 23 -31 23q-28 0 -37 -36l-54 -233q-2 -12 -2 -16q0 -23 31 -23t38 35l53 234q2 10 2 16zM322 621q0 23 -31 23q-30 0 -38 -35l-53 -234q-2 -10 -2 -16
q0 -23 31 -23q28 0 37 36l53 233q0 2 1.5 8t1.5 8z" />
    <glyph glyph-name="guilsinglleft" unicode="&#x2039;" horiz-adv-x="191" 
d="M252 495l-37 -160l-72 -48l49 -50l-34 -147l-128 129l34 147z" />
    <glyph glyph-name="guilsinglright" unicode="&#x203a;" horiz-adv-x="194" 
d="M230 364l-32 -140l-192 -137l37 160l73 50l-50 50l35 149z" />
    <glyph glyph-name="Euro" unicode="&#x20ac;" horiz-adv-x="592" 
d="M675 666l-90 -145q-30 34 -55.5 48t-60.5 14q-39 0 -62 -21q-23 -19 -39 -83l-5 -20h196l-46 -80h-168l-10 -40h148l-46 -81h-121l-2 -8q-5 -22 -5 -38q0 -80 85 -80q37 0 70 12q35 12 83 48l-40 -173q-8 -3 -21 -7.5t-18 -6.5q-61 -19 -132 -19q-105 0 -163.5 47
t-58.5 132q0 36 11 93h-78l46 81h51l11 40h-76l44 80h48l3 13q18 79 42.5 125t63.5 75q68 49 185 49q81 0 144 -21q31 -10 66 -34z" />
    <glyph glyph-name="trademark" unicode="&#x2122;" horiz-adv-x="686" 
d="M758 706l-77 -333h-95l56 226l-98 -225h-74l-1 228l-43 -228h-96l76 332h126l3 -201l89 201h134zM389 706l-19 -81h-76l-58 -251h-103l58 251h-78l19 81h257z" />
    </font>
</defs>
</svg>
