<?xml version="1.0" standalone="no"?>
<!DOCTYPE svg PUBLIC "-//W3C//DTD SVG 1.1//EN" "http://www.w3.org/Graphics/SVG/1.1/DTD/svg11.dtd" >
<svg xmlns="http://www.w3.org/2000/svg" xmlns:xlink="http://www.w3.org/1999/xlink" version="1.1">
<metadata>
Created by FontForge 20170731 at Thu May 17 20:00:00 2007
 By Aleksey,,,
Copyright  2001, Berthold LLC. All rights reserved. Akzidenz-Grotesk is a trademark of Berthold Types Limited.
</metadata>
<defs>
<font id="AkzidenzGroteskBQ-LightIt" horiz-adv-x="583" >
  <font-face 
    font-family="Akzidenz-Grotesk BQ Light"
    font-weight="300"
    font-style="italic"
    font-stretch="normal"
    units-per-em="1000"
    panose-1="0 0 0 0 0 0 0 0 0 0"
    ascent="800"
    descent="-200"
    x-height="471"
    cap-height="706"
    bbox="-89 -241 1239 906"
    underline-thickness="59"
    underline-position="-292"
    slope="-13"
    unicode-range="U+0020-2122"
  />
<missing-glyph horiz-adv-x="500" 
 />
    <glyph glyph-name=".notdef" horiz-adv-x="500" 
 />
    <glyph glyph-name=".null" horiz-adv-x="0" 
 />
    <glyph glyph-name="nonmarkingreturn" horiz-adv-x="333" 
 />
    <glyph glyph-name="space" unicode=" " horiz-adv-x="258" 
 />
    <glyph glyph-name="exclam" unicode="!" horiz-adv-x="253" 
d="M304 706l-54 -233l-72 -247h-36l43 259l51 221h68zM177 110l-26 -110h-77l25 110h78z" />
    <glyph glyph-name="quotedbl" unicode="&#x22;" horiz-adv-x="357" 
d="M446 744l-93 -291h-30l40 291h83zM274 744l-93 -291h-30l40 291h83z" />
    <glyph glyph-name="numbersign" unicode="#" horiz-adv-x="657" 
d="M683 468l-13 -57h-162l-31 -97h171l-12 -54h-175l-81 -259h-62l84 259h-101l-84 -259h-58l82 259h-167l13 54h172l30 97h-180l13 57h184l74 241h63l-76 -241h100l73 241h60l-75 -241h158zM449 411h-100l-31 -97h100z" />
    <glyph glyph-name="dollar" unicode="$" horiz-adv-x="625" 
d="M649 525l-65 -5q-16 101 -107 123l-59 -253l12 -6q64 -32 86 -48q66 -46 66 -129q0 -93 -66.5 -151t-173.5 -58q-8 0 -15 1l-20 -91h-58l22 95q-81 23 -124.5 73t-62.5 143l70 5q10 -58 29 -88q35 -58 102 -73l65 281l-18 8q-76 33 -109 75t-33 100q0 82 62 132.5
t163 50.5h20l19 81h57l-21 -87q65 -17 101 -55q33 -34 48 -80q6 -19 10 -44zM422 651h-20q-66 0 -105.5 -32t-39.5 -86q0 -40 24.5 -67.5t84.5 -55.5zM514 197q0 40 -22 66.5t-77 52.5l-13 6l-60 -264h12q73 0 116.5 38t43.5 101z" />
    <glyph glyph-name="percent" unicode="%" horiz-adv-x="875" 
d="M863 261q0 -115 -56.5 -194t-134.5 -79q-64 0 -99 44.5t-35 125.5q0 121 56.5 204t139.5 83q60 0 94.5 -46t34.5 -126v-12zM722 724l-437 -763l-38 22l435 764zM426 531q0 -115 -56.5 -194t-134.5 -79q-64 0 -99 44.5t-35 125.5q0 121 56.5 204t139.5 83q60 0 94.5 -46
t34.5 -126v-12zM814 271q0 129 -87 129q-57 0 -97.5 -69.5t-40.5 -166.5q0 -129 84 -129q41 0 68 26q32 30 52.5 89.5t20.5 120.5zM377 542q0 128 -86 128q-57 0 -98 -69.5t-41 -166.5q0 -129 84 -129q41 0 68 26q32 30 52.5 89.5t20.5 121.5z" />
    <glyph glyph-name="ampersand" unicode="&#x26;" horiz-adv-x="580" 
d="M572 242q-45 -63 -61 -82q-29 -35 -55 -59q47 -34 96 -52l-14 -61q-42 14 -72 31q-23 13 -58 42q-59 -40 -98 -55t-85 -15q-77 0 -125.5 45.5t-48.5 118.5q0 84 66 148q35 34 95 72q-12 53 -12 96q0 101 49 162.5t128 61.5q52 0 86.5 -30.5t34.5 -77.5t-29 -89
q-13 -18 -29 -33q-34 -32 -105 -77q-3 -2 -18.5 -12.5t-24.5 -15.5l-8 -5q57 -141 132 -215q38 37 50 51q23 26 61 82zM439 581q0 28 -19.5 46t-49.5 18q-50 0 -79 -46t-29 -125q0 -35 7 -68l11 7q26 17 57 39q60 41 80 67q22 29 22 62zM366 102q-33 34 -59 70
q-47 67 -79 152q-109 -70 -109 -161q0 -52 31.5 -83t84.5 -31q33 0 60 11t71 42z" />
    <glyph glyph-name="quotesingle" unicode="'" horiz-adv-x="185" 
d="M274 744l-93 -291h-30l40 291h83z" />
    <glyph glyph-name="parenleft" unicode="(" horiz-adv-x="308" 
d="M477 763l-27 -18q-113 -77 -179 -175q-110 -163 -110 -374q0 -148 59 -251q20 -34 50 -69l-34 -34q-145 139 -145 361q0 195 100 352q63 98 150 168q42 35 111 76z" />
    <glyph glyph-name="parenright" unicode=")" horiz-adv-x="308" 
d="M307 437q0 -195 -100 -352q-63 -98 -150 -168q-42 -35 -111 -76l-25 36l27 18q115 79 179 175q110 163 110 374q0 148 -59 251q-20 34 -50 69l34 35q145 -141 145 -362z" />
    <glyph glyph-name="asterisk" unicode="*" horiz-adv-x="357" 
d="M421 562l-117 -14l45 -103l-42 -19l-47 103l-79 -73l-31 35l82 75l-96 54l22 39l97 -53l25 107l46 -11l-25 -108l113 10z" />
    <glyph glyph-name="plus" unicode="+" horiz-adv-x="724" 
d="M681 323l-14 -59h-238l-55 -239h-60l55 239h-238l14 59h238l55 237h60l-55 -237h238z" />
    <glyph glyph-name="comma" unicode="," horiz-adv-x="229" 
d="M144 110q-4 -33 -9 -52q-10 -53 -24 -94q-6 -20 -27 -71q-3 -8 -24 -47h-42q16 27 31 66q5 13 13 37q8 23 14 51h-35l24 110h79z" />
    <glyph glyph-name="hyphen" unicode="-" horiz-adv-x="341" 
d="M347 324l-14 -60h-265l14 60h265z" />
    <glyph glyph-name="period" unicode="." horiz-adv-x="208" 
d="M139 108l-22 -108h-80l23 108h79z" />
    <glyph glyph-name="slash" unicode="/" horiz-adv-x="439" 
d="M565 706l-520 -706h-72l521 706h71z" />
    <glyph glyph-name="zero" unicode="0" 
d="M596 460q0 -26 -3 -52q-17 -191 -101.5 -305.5t-207.5 -114.5q-100 0 -154.5 68t-54.5 193q0 88 26 180t71 162q81 125 215 125q102 0 155.5 -65.5t53.5 -190.5zM530 457q0 101 -38 154t-111 53q-88 0 -150 -95q-41 -61 -67 -153t-26 -177q0 -181 130 -196q7 -1 23 -1
q92 0 149 91q90 141 90 324z" />
    <glyph glyph-name="one" unicode="1" 
d="M474 705l-163 -705h-66l130 559q-45 -30 -133 -30q-27 0 -46 3l12 55q9 0 18.5 -0.5t13.5 -0.5q71 0 110.5 28t57.5 91h66z" />
    <glyph glyph-name="two" unicode="2" 
d="M579 539q0 -77 -45 -153q-37 -64 -119 -138q-78 -69 -172 -128q-61 -38 -110 -63l377 5l-13 -62h-457l17 76q24 11 66 35q112 64 179 116q211 163 211 306q0 60 -35.5 95t-96.5 35q-73 0 -116.5 -51.5t-43.5 -136.5q0 -23 3 -41l-67 13q1 99 32 156q60 114 199 114
q86 0 138.5 -48.5t52.5 -129.5z" />
    <glyph glyph-name="three" unicode="3" 
d="M585 542q0 -72 -48 -121.5t-127 -57.5q138 -26 138 -161q0 -94 -69 -154t-178 -60q-63 0 -114.5 23t-79.5 63q-36 52 -42 139l67 8l1 -11q4 -42 12 -66t27 -46q46 -55 132 -55q80 0 130.5 45t50.5 115q0 37 -17 66.5t-47 43.5q-29 14 -73 18q-28 3 -105 6l13 55
q18 -2 39 -2q225 0 225 149q0 57 -37.5 91t-100.5 34q-66 0 -111.5 -47.5t-50.5 -122.5l-65 10q22 108 79.5 160t156.5 52q89 0 141.5 -47.5t52.5 -126.5z" />
    <glyph glyph-name="four" unicode="4" 
d="M563 706l-99 -453h95l-12 -56h-94l-45 -197h-63l45 197h-310l12 58l415 451h56zM489 612l-322 -358h233z" />
    <glyph glyph-name="five" unicode="5" 
d="M609 706l-14 -58h-317l-67 -244q14 16 16 18q57 62 150 62q86 0 140 -57t54 -149q0 -62 -24.5 -121.5t-65.5 -98.5q-71 -70 -184 -70q-101 0 -164 59q-59 55 -69 153l66 12q5 -45 13 -67t28 -45q49 -57 132 -57q88 0 146.5 65.5t58.5 163.5q0 71 -39.5 116t-100.5 45
q-36 0 -71 -15q-27 -12 -43.5 -28.5t-41.5 -51.5l-5 -7l-72 12l98 363h376z" />
    <glyph glyph-name="six" unicode="6" 
d="M616 548l-63 -14q-17 131 -130 131q-94 0 -160.5 -89.5t-87.5 -242.5q17 38 31.5 57.5t40.5 39.5q57 45 133 45q87 0 139.5 -57t52.5 -152q0 -118 -70.5 -198t-174.5 -80q-102 0 -159.5 74t-57.5 205q0 144 60 269q87 182 260 182q160 0 186 -170zM509 264q0 74 -37 116
t-102 42q-79 0 -134.5 -62t-55.5 -150q0 -74 41.5 -121t107.5 -47q36 0 70 16t56 44q24 31 39 76t15 86z" />
    <glyph glyph-name="seven" unicode="7" 
d="M609 706q-3 -22 -7 -46q-16 -71 -80 -175q-12 -20 -25 -41t-19.5 -32t-9.5 -15q-21 -36 -54 -103q-81 -164 -115 -294h-76q12 43 29 89q20 56 52 125q47 102 130 235q57 92 69 116q17 37 29 84h-306l-31 -131h-62l43 188h433z" />
    <glyph glyph-name="eight" unicode="8" 
d="M573 544q0 -62 -34.5 -108.5t-94.5 -66.5q93 -43 93 -154q0 -98 -69.5 -162t-175.5 -64q-98 0 -156.5 50.5t-58.5 135.5q0 72 40.5 127t108.5 75q-68 44 -68 132q0 93 61 151t160 58q91 0 142.5 -46.5t51.5 -127.5zM511 536v7q0 58 -36 91t-98 33q-72 0 -115 -42
t-43 -112q0 -55 34 -86t96 -31q70 0 116 39t46 101zM475 206q0 67 -41.5 104.5t-115.5 37.5q-76 0 -126 -47.5t-50 -120.5q0 -64 41 -102.5t109 -38.5q79 0 131 47.5t52 119.5z" />
    <glyph glyph-name="nine" unicode="9" 
d="M584 443q0 -144 -60 -272q-87 -183 -261 -183q-93 0 -143 59q-33 41 -43 111l63 14q5 -35 12 -54q13 -35 44.5 -56t73.5 -21q94 0 159.5 88.5t88.5 244.5q-16 -38 -30.5 -57.5t-40.5 -40.5q-59 -45 -133 -45q-88 0 -140.5 57t-52.5 152q0 119 70.5 198.5t176.5 79.5
q101 0 158.5 -72.5t57.5 -202.5zM513 496q0 75 -41.5 121.5t-107.5 46.5q-36 0 -70 -16t-56 -44q-24 -31 -39 -75.5t-15 -85.5q0 -75 37 -117t103 -42q78 0 133.5 62t55.5 150z" />
    <glyph glyph-name="colon" unicode=":" horiz-adv-x="258" 
d="M258 491l-22 -109h-80l23 109h79zM178 108l-22 -108h-81l23 108h80z" />
    <glyph glyph-name="semicolon" unicode=";" horiz-adv-x="258" 
d="M258 491l-22 -109h-80l23 109h79zM178 111q-2 -9 -3.5 -20.5t-3 -19l-2.5 -12.5q-9 -46 -25 -94q-6 -20 -27 -71q-10 -22 -24 -47h-42q16 27 31 66q3 8 13 37q9 24 14 51h-35l25 110h79z" />
    <glyph glyph-name="less" unicode="&#x3c;" horiz-adv-x="724" 
d="M692 571l-16 -69l-457 -208l362 -205l-14 -61l-412 236l16 68z" />
    <glyph glyph-name="equal" unicode="=" horiz-adv-x="724" 
d="M690 408l-14 -57h-525l14 57h525zM649 231l-13 -56h-526l14 56h525z" />
    <glyph glyph-name="greater" unicode="&#x3e;" horiz-adv-x="724" 
d="M633 324l-15 -67l-522 -240l16 69l457 208l-361 206l14 60z" />
    <glyph glyph-name="question" unicode="?" horiz-adv-x="509" 
d="M561 525q0 -84 -51.5 -137.5t-139.5 -60.5l-34 -151h-61l49 208h17q72 0 113.5 37.5t41.5 102.5q0 60 -37.5 97t-98.5 37q-73 0 -117 -46.5t-48 -128.5l-66 12q10 103 70 160.5t158 57.5q90 0 147 -52.5t57 -135.5zM328 112l-25 -112h-75l26 112h74z" />
    <glyph glyph-name="at" unicode="@" horiz-adv-x="896" 
d="M861 430q0 -136 -73.5 -247t-162.5 -111q-35 0 -56.5 21.5t-21.5 58.5q0 2 0.5 5.5t0.5 7.5q-66 -92 -152 -92q-57 0 -91 42t-34 113q0 112 65.5 199.5t149.5 87.5q40 0 70 -24q26 -21 47 -71l17 72h59l-35 -147l-11 -47q-12 -51 -15 -71q-7 -35 -7 -57q0 -23 9.5 -36.5
t26.5 -13.5q21 0 48 22q52 43 86 124.5t34 163.5q0 111 -68 175.5t-185 64.5q-169 0 -293.5 -132.5t-124.5 -312.5q0 -138 90.5 -222t238.5 -84q188 0 344 147l27 -32q-42 -37 -64 -54q-139 -104 -303 -104q-169 0 -273.5 96.5t-104.5 253.5q0 131 63.5 243t172 177.5
t235.5 65.5q134 0 212.5 -76t78.5 -206zM580 347q0 48 -21 81.5t-67 33.5q-60 0 -106.5 -70t-46.5 -160q0 -49 23 -77t62 -28q61 0 108.5 65.5t47.5 154.5z" />
    <glyph glyph-name="A" unicode="A" horiz-adv-x="634" 
d="M571 0h-68l-29 227h-276l-125 -227h-74l398 706h80zM468 288l-42 360l-194 -360h236z" />
    <glyph glyph-name="B" unicode="B" horiz-adv-x="657" 
d="M662 545q0 -100 -81 -149q-31 -18 -83 -28q130 -14 130 -146q0 -58 -27.5 -107.5t-76.5 -78.5q-61 -36 -172 -36h-302l162 706h218q105 0 146 -17q40 -16 63 -54.5t23 -89.5zM598 541q0 56 -35 81.5t-113 25.5h-186l-58 -250h198q38 0 47 1q47 3 81 20q30 14 48 47.5
t18 74.5zM561 218q0 58 -31 89q-17 18 -46.5 25t-86.5 7h-206l-64 -281h219q41 0 56 1q48 3 77 17q38 17 60 55.5t22 86.5z" />
    <glyph glyph-name="C" unicode="C" horiz-adv-x="745" 
d="M752 505l-66 -13q-9 34 -18 53t-28 42q-63 80 -180 80q-131 0 -209 -99q-85 -107 -85 -257q0 -126 63.5 -198.5t173.5 -72.5q91 0 160 53.5t103 149.5l66 -9q-39 -115 -129 -181t-208 -66q-140 0 -219 85t-79 235q0 121 53 222q101 191 321 191q129 0 206 -75
q28 -27 43.5 -55.5t31.5 -84.5z" />
    <glyph glyph-name="D" unicode="D" horiz-adv-x="684" 
d="M691 433q0 -97 -34 -187.5t-94 -151.5q-65 -67 -165 -85q-46 -9 -123 -9h-225l162 706h157q41 0 49 -1q89 -2 142 -26q62 -28 96.5 -92.5t34.5 -153.5zM626 436q0 89 -40 144q-27 37 -72.5 52.5t-126.5 15.5h-124l-136 -590h147q72 0 109 6q63 11 109 47q59 46 96.5 137
t37.5 188z" />
    <glyph glyph-name="E" unicode="E" horiz-adv-x="590" 
d="M640 706l-13 -58h-363l-60 -256h333l-14 -58h-332l-64 -276h413l-13 -58h-477l162 706h428z" />
    <glyph glyph-name="F" unicode="F" horiz-adv-x="544" 
d="M635 706l-15 -58h-358l-56 -251h333l-14 -59h-333l-78 -338h-64l162 706h423z" />
    <glyph glyph-name="G" unicode="G" horiz-adv-x="734" 
d="M751 504l-66 -11q-10 42 -19.5 62t-28.5 42q-29 32 -75.5 51t-99.5 19q-125 0 -210 -103t-85 -256q0 -123 63 -196t169 -73q142 0 207 125q11 19 23 56q11 37 18 79h-261l13 59h321l-79 -358h-61l21 95q-16 -25 -36 -43q-69 -65 -182 -65q-132 0 -209 83.5t-77 226.5
q0 185 106 304t270 119q102 0 170 -48q60 -41 89 -106q9 -20 19 -62z" />
    <glyph glyph-name="H" unicode="H" horiz-adv-x="719" 
d="M763 706l-163 -706h-64l79 345h-422l-80 -345h-63l162 706h64l-70 -304h423l70 304h64z" />
    <glyph glyph-name="I" unicode="I" horiz-adv-x="233" 
d="M277 706l-163 -706h-64l162 706h65z" />
    <glyph glyph-name="J" unicode="J" horiz-adv-x="381" 
d="M431 706l-112 -485q-13 -53 -16 -65q-21 -73 -54 -112q-49 -58 -142 -58q-49 0 -104 17l14 62q45 -21 94 -21q46 0 76 24q18 14 30 34q22 42 40 121l111 483h63z" />
    <glyph glyph-name="K" unicode="K" horiz-adv-x="626" 
d="M707 706l-319 -263l196 -443h-70l-176 405l-161 -130l-64 -275h-63l162 706h65l-82 -351l425 351h87z" />
    <glyph glyph-name="L" unicode="L" horiz-adv-x="529" 
d="M478 58l-13 -58h-415l162 706h64l-150 -648h352z" />
    <glyph glyph-name="M" unicode="M" horiz-adv-x="778" 
d="M822 706l-163 -706h-64l144 586l-344 -586h-75l-76 601l-130 -601h-64l162 706h80l80 -640l373 640h77z" />
    <glyph glyph-name="N" unicode="N" horiz-adv-x="671" 
d="M715 706l-163 -706h-69l-233 617l-137 -617h-63l162 706h71l230 -616l137 616h65z" />
    <glyph glyph-name="O" unicode="O" horiz-adv-x="757" 
d="M764 393q0 -75 -28.5 -153t-74.5 -132q-104 -121 -267 -121q-137 0 -217.5 86.5t-80.5 233.5q0 180 104 296.5t265 116.5q147 0 223 -89t76 -238zM698 402q0 124 -61.5 193.5t-171.5 69.5q-133 0 -215 -102q-39 -49 -62.5 -119t-23.5 -139q0 -118 64.5 -191t167.5 -73
q127 0 214.5 104.5t87.5 256.5z" />
    <glyph glyph-name="P" unicode="P" horiz-adv-x="607" 
d="M654 532q0 -107 -82 -170q-69 -52 -216 -52h-172l-70 -310h-64l162 706h226q97 0 138 -22q36 -19 57 -60t21 -92zM587 535q0 40 -16 68q-16 26 -43.5 35.5t-86.5 9.5h-179l-64 -280h155q84 0 126.5 12.5t70.5 44.5q37 43 37 110z" />
    <glyph glyph-name="Q" unicode="Q" horiz-adv-x="757" 
d="M764 400q0 -86 -32 -170t-84 -136l90 -72l-48 -45l-93 73q-23 -16 -49 -29q-72 -34 -153 -34q-137 0 -218 86.5t-81 234.5q0 128 61 235q102 177 310 177q138 0 217.5 -85.5t79.5 -234.5zM697 402q0 123 -61.5 192t-171.5 69q-132 0 -215 -102q-39 -48 -62.5 -118.5
t-23.5 -139.5q0 -118 64 -190.5t168 -72.5q128 0 215 104t87 258z" />
    <glyph glyph-name="R" unicode="R" horiz-adv-x="629" 
d="M660 532q0 -48 -21.5 -91.5t-59.5 -71.5q-22 -16 -50 -28q-32 -12 -70 -19l119 -322h-70l-111 317h-210l-73 -317h-64l162 706h250q74 0 117 -23q37 -20 59 -61t22 -90zM591 531q0 61 -34 89q-20 17 -47 22.5t-87 5.5h-159l-64 -274h190q79 0 123 22q37 18 57.5 54
t20.5 81z" />
    <glyph glyph-name="S" unicode="S" horiz-adv-x="617" 
d="M651 529l-63 -15q-6 42 -22 73q-43 79 -159 79q-80 0 -128 -35.5t-48 -94.5q0 -34 17 -57q10 -13 24 -23q14 -11 33 -20q13 -6 45 -20l81 -34q51 -22 83 -44q70 -49 70 -136q0 -96 -72.5 -155.5t-189.5 -59.5q-140 0 -209 76q-25 28 -38 63q-12 35 -15 103l69 14
q-1 -11 -1 -22q0 -86 51.5 -132.5t145.5 -46.5q89 0 141.5 41t52.5 111q0 50 -35 78q-29 25 -83 48l-81 34q-55 23 -100 55q-56 42 -56 116q0 89 67 142t181 53q118 0 179 -61q34 -33 50 -83q3 -11 10 -47z" />
    <glyph glyph-name="T" unicode="T" horiz-adv-x="523" 
d="M636 706l-12 -57h-211l-149 -649h-66l151 649h-212l12 57h487z" />
    <glyph glyph-name="U" unicode="U" horiz-adv-x="687" 
d="M734 706l-103 -457q-18 -82 -52 -141q-32 -58 -93 -89.5t-139 -31.5q-107 0 -166.5 53.5t-59.5 150.5q0 58 23 159l80 356h66l-85 -376q-19 -84 -19 -140q0 -72 43 -110.5t123 -38.5q78 0 128 41q33 27 54 72.5t40 129.5l95 422h65z" />
    <glyph glyph-name="V" unicode="V" horiz-adv-x="570" 
d="M672 706l-378 -706h-68l-66 706h66l48 -623l324 623h74z" />
    <glyph glyph-name="W" unicode="W" horiz-adv-x="950" 
d="M1052 706l-357 -706h-64l-54 621l-310 -621h-65l-73 706h67l54 -618l312 618h63l55 -618l299 618h73z" />
    <glyph glyph-name="X" unicode="X" horiz-adv-x="547" 
d="M648 706l-285 -352l137 -354h-69l-116 307l-242 -307h-76l298 364l-133 342h69l110 -293l232 293h75z" />
    <glyph glyph-name="Y" unicode="Y" horiz-adv-x="562" 
d="M685 706l-346 -399l-71 -307h-65l72 315l-120 391h69l97 -335l281 335h83z" />
    <glyph glyph-name="Z" unicode="Z" horiz-adv-x="567" 
d="M625 706l-15 -60l-511 -588h441l-13 -58h-517l15 67l507 581h-381l14 58h460z" />
    <glyph glyph-name="bracketleft" unicode="[" horiz-adv-x="271" 
d="M406 779l-11 -51h-109l-190 -822h109l-12 -50h-170l213 923h170z" />
    <glyph glyph-name="backslash" unicode="\" horiz-adv-x="345" 
d="M290 -19h-60l-75 725h59z" />
    <glyph glyph-name="bracketright" unicode="]" horiz-adv-x="271" 
d="M326 779l-213 -923h-170l12 51h109l190 823h-109l11 49h170z" />
    <glyph glyph-name="asciicircum" unicode="^" horiz-adv-x="724" 
d="M620 289h-61l-86 359l-252 -359h-70l296 417h68z" />
    <glyph glyph-name="underscore" unicode="_" horiz-adv-x="500" 
d="M437 -206h-520l14 59h520z" />
    <glyph glyph-name="grave" unicode="`" horiz-adv-x="225" 
d="M184 531h-44l-99 152h91z" />
    <glyph glyph-name="a" unicode="a" horiz-adv-x="492" 
d="M460 367q0 -32 -12 -81l-40 -168q-8 -35 -8 -47q0 -25 24 -25q12 0 29 7l-11 -50q-16 -5 -30 -5q-63 0 -63 60q0 6 1 12q-53 -80 -165 -80q-67 0 -104 30.5t-37 86.5q0 42 22.5 77t61.5 53q30 13 57 19q47 10 202 31l4 16q8 29 8 52q0 77 -103 77q-110 0 -129 -102l-62 4
q37 148 199 148q72 0 114 -31t42 -84zM377 240q-153 -16 -211 -43.5t-58 -83.5q0 -37 24 -57t69 -20q73 0 118 46q21 23 30 47q9 22 16 55z" />
    <glyph glyph-name="b" unicode="b" horiz-adv-x="517" 
d="M501 287q0 -115 -55 -196q-66 -100 -183 -100q-115 0 -142 96l-20 -87h-56l160 706h59l-70 -305q53 79 155 79q71 0 111.5 -51t40.5 -142zM440 284q0 145 -112 145q-64 0 -106 -47q-31 -34 -50.5 -94t-19.5 -121q0 -59 30.5 -93.5t82.5 -34.5q71 0 114 56q27 36 44 87.5
t17 101.5z" />
    <glyph glyph-name="c" unicode="c" horiz-adv-x="491" 
d="M491 340l-58 -14q-9 58 -38 84.5t-83 26.5q-79 0 -132 -71.5t-53 -176.5q0 -71 36.5 -112.5t97.5 -41.5q51 0 89.5 30t59.5 85l59 -8q-63 -154 -213 -154q-89 0 -139 52t-50 144q0 127 72 213t178 86q74 0 120.5 -38t53.5 -105z" />
    <glyph glyph-name="d" unicode="d" horiz-adv-x="517" 
d="M578 706l-159 -706h-59l17 78q-54 -87 -158 -87q-73 0 -112.5 49.5t-39.5 141.5q0 126 66.5 212t164.5 86q116 0 146 -108l75 334h59zM419 293q0 65 -31 101.5t-86 36.5q-74 0 -124 -71.5t-50 -177.5q0 -67 28.5 -103.5t79.5 -36.5q69 0 116 56q29 34 48 89.5t19 105.5z
" />
    <glyph glyph-name="e" unicode="e" horiz-adv-x="501" 
d="M486 294q0 -29 -4 -59h-350q-4 -32 -4 -49q0 -68 35.5 -108.5t95.5 -40.5q51 0 91.5 28.5t60.5 78.5l56 -12q-8 -20 -19 -38q-29 -49 -81.5 -77.5t-114.5 -28.5q-86 0 -135.5 53t-49.5 145q0 125 72 211t178 86q80 0 124.5 -49.5t44.5 -139.5zM427 313q0 57 -30.5 90.5
t-82.5 33.5q-61 0 -105.5 -40.5t-67.5 -115.5h284q2 15 2 32z" />
    <glyph glyph-name="f" unicode="f" horiz-adv-x="262" 
d="M361 705l-11 -49q-18 8 -36 8q-19 0 -29 -11q-14 -14 -29 -80l-23 -102h82l-12 -50h-81l-97 -421h-57l95 421h-70l12 50h69l27 118q13 56 30 82q29 45 79 45q20 0 51 -11z" />
    <glyph glyph-name="g" unicode="g" horiz-adv-x="514" 
d="M520 471l-100 -445q-25 -108 -50 -152q-52 -94 -179 -94q-79 0 -127 39.5t-48 104.5q0 8 3 33l61 6q-3 -21 -3 -30q0 -103 120 -103q101 0 137 93q16 41 38 145q-56 -77 -146 -77q-73 0 -117.5 52t-44.5 137q0 58 21 118t56 105q60 77 159 77q104 0 142 -98l19 89h59z
M415 299q0 64 -30.5 99t-85.5 35q-73 0 -122.5 -69.5t-49.5 -171.5q0 -71 32 -112t88 -41q61 0 108 59q22 26 37 76q23 72 23 125z" />
    <glyph glyph-name="h" unicode="h" horiz-adv-x="515" 
d="M490 364q0 -37 -13 -92l-62 -272h-58l62 271q13 61 13 86q0 36 -23 55.5t-66 19.5q-84 0 -138 -72q-17 -23 -26.5 -48t-22.5 -80l-53 -232h-58l160 706h59l-69 -304q68 81 163 81q61 0 96.5 -32t35.5 -87z" />
    <glyph glyph-name="i" unicode="i" horiz-adv-x="203" 
d="M264 706l-21 -90h-59l21 90h59zM210 471l-106 -471h-59l106 471h59z" />
    <glyph glyph-name="j" unicode="j" horiz-adv-x="208" 
d="M269 706l-21 -90h-59l20 90h60zM214 471l-132 -587q-14 -59 -42 -85.5t-80 -26.5q-21 0 -49 4l13 55q5 -1 11 -1q24 -2 25 -2q28 0 42 12q7 5 12 16q8 18 19 67l123 548h58z" />
    <glyph glyph-name="k" unicode="k" horiz-adv-x="463" 
d="M495 471l-232 -188l172 -283h-69l-148 245l-70 -56l-44 -189h-59l160 706h59l-101 -445l255 210h77z" />
    <glyph glyph-name="l" unicode="l" horiz-adv-x="203" 
d="M264 706l-160 -706h-59l160 706h59z" />
    <glyph glyph-name="m" unicode="m" horiz-adv-x="773" 
d="M749 364q0 -33 -14 -92l-62 -272h-57l61 271q14 65 14 86q0 35 -21 55.5t-57 20.5q-73 0 -123 -71q-11 -15 -24 -42q-11 -27 -25 -88l-53 -232h-58l62 271q13 61 13 84q0 37 -20 57.5t-57 20.5q-74 0 -124 -71q-27 -37 -48 -130l-53 -232h-58l107 471h58l-16 -70
q67 82 146 82q50 0 82.5 -26.5t39.5 -72.5q66 99 164 99q55 0 89 -33t34 -86z" />
    <glyph glyph-name="n" unicode="n" horiz-adv-x="515" 
d="M490 364q0 -37 -13 -92l-62 -272h-58l62 271q13 61 13 86q0 36 -23 55.5t-66 19.5q-84 0 -138 -72q-17 -23 -26.5 -48t-22.5 -80l-53 -232h-58l107 471h58l-16 -70q70 82 164 82q61 0 96.5 -32t35.5 -87z" />
    <glyph glyph-name="o" unicode="o" horiz-adv-x="521" 
d="M506 276q0 -120 -73.5 -204t-177.5 -84q-85 0 -136.5 56t-51.5 149q0 123 73 206.5t180 83.5q60 0 103.5 -28t64.5 -76q18 -42 18 -103zM445 284q0 45 -9 69q-27 82 -118 82q-82 0 -136.5 -69.5t-54.5 -173.5q0 -71 35 -112.5t96 -41.5q77 0 132 72t55 174z" />
    <glyph glyph-name="p" unicode="p" horiz-adv-x="520" 
d="M504 289q0 -127 -66.5 -212.5t-164.5 -85.5q-117 0 -147 108l-70 -315h-59l155 687h58l-16 -78q54 87 157 87q73 0 113 -49.5t40 -141.5zM442 289q0 66 -28.5 103t-79.5 37q-68 0 -116 -56q-29 -35 -48 -90.5t-19 -105.5q0 -64 31 -100.5t87 -36.5q74 0 123.5 71
t49.5 178z" />
    <glyph glyph-name="q" unicode="q" horiz-adv-x="517" 
d="M522 471l-156 -686h-59l67 285q-54 -79 -156 -79q-71 0 -111 51t-40 142q0 113 54 196q67 100 184 100q115 0 142 -96l20 87h55zM415 303q0 59 -30 93.5t-82 34.5q-72 0 -114 -56q-61 -80 -61 -195q0 -66 29.5 -102.5t82.5 -36.5q61 0 106 48q30 33 49.5 93.5t19.5 120.5
z" />
    <glyph glyph-name="r" unicode="r" horiz-adv-x="291" 
d="M350 479l-14 -60q-10 1 -22 1q-58 0 -99 -48q-24 -26 -40 -70q-6 -16 -18 -66l-53 -236h-59l106 471h59l-19 -84q25 44 61 68.5t77 24.5h15z" />
    <glyph glyph-name="s" unicode="s" horiz-adv-x="452" 
d="M443 359q0 -9 -1 -18l-53 -10q1 10 1 19q0 87 -107 87q-53 0 -84.5 -22t-31.5 -60q0 -39 43 -57l116 -48q6 -2 28 -15q12 -7 21 -14q42 -31 42 -89q0 -65 -51 -104.5t-136 -39.5q-83 0 -128 37t-45 106q0 17 3 31l59 12q-4 -21 -4 -36q0 -103 120 -103q57 0 91.5 25
t34.5 66q0 29 -17 45.5t-68 37.5l-78 32q-88 37 -88 110q0 59 50 95.5t129 36.5q73 0 113.5 -32.5t40.5 -91.5z" />
    <glyph glyph-name="t" unicode="t" horiz-adv-x="271" 
d="M319 471l-10 -49h-82l-65 -281q-4 -20 -6 -28q-5 -27 -5 -33q0 -29 35 -29q16 0 51 8l-11 -48q-32 -14 -68 -14q-32 0 -49.5 17.5t-17.5 49.5q0 21 7 50l70 308h-74l11 49h74l33 150h59l-34 -150h82z" />
    <glyph glyph-name="u" unicode="u" horiz-adv-x="515" 
d="M519 471l-107 -471h-58l16 69q-71 -81 -164 -81q-61 0 -96.5 32t-35.5 87q0 36 13 92l62 272h58l-62 -271q-2 -9 -4 -17.5t-3 -13.5t-1 -6q-5 -30 -5 -49q0 -36 23 -55.5t66 -19.5q85 0 138 71q18 24 27 48t22 81l53 232h58z" />
    <glyph glyph-name="v" unicode="v" horiz-adv-x="434" 
d="M491 471l-287 -471h-68l-45 471h63l33 -404l236 404h68z" />
    <glyph glyph-name="w" unicode="w" horiz-adv-x="719" 
d="M766 471l-261 -471h-67l-30 393l-204 -393h-66l-46 471h63l33 -404l203 404h63l31 -404l214 404h67z" />
    <glyph glyph-name="x" unicode="x" horiz-adv-x="411" 
d="M486 471l-216 -237l76 -234h-60l-58 194l-174 -194h-74l224 242l-75 229h60l57 -189l169 189h71z" />
    <glyph glyph-name="y" unicode="y" horiz-adv-x="422" 
d="M485 471l-343 -594q-43 -74 -75 -92q-26 -16 -71 -16q-28 0 -49 5l12 52q29 -6 43 -6q24 0 37 9q11 6 18 18q13 16 39 62l52 93l-49 469h62l35 -400l221 400h68z" />
    <glyph glyph-name="z" unicode="z" horiz-adv-x="433" 
d="M457 471l-14 -55l-358 -363h306l-13 -53h-383l12 52l363 366h-267l11 53h343z" />
    <glyph glyph-name="braceleft" unicode="{" horiz-adv-x="268" 
d="M402 783l-11 -49h-18q-45 0 -61 -16q-8 -7 -15 -22q-10 -21 -21 -70l-40 -176q-15 -65 -39.5 -95t-73.5 -40q58 -20 58 -79q0 -26 -7 -55l-40 -172q-12 -50 -12 -63q0 -24 14 -34.5t45 -10.5h18l-12 -49l-29 1q-45 2 -70.5 24.5t-25.5 64.5q0 28 12 78l39 166q8 34 8 51
q0 26 -15 38.5t-53 16.5l12 51q35 1 58 12q20 10 30.5 29t20.5 65l38 167q14 62 26 91q10 25 30 45q20 18 41 24.5t64 6.5h29z" />
    <glyph glyph-name="bar" unicode="|" horiz-adv-x="229" 
d="M293 778l-213 -921h-62l213 921h62z" />
    <glyph glyph-name="braceright" unicode="}" horiz-adv-x="268" 
d="M295 343l-12 -51q-35 -1 -58 -12q-20 -10 -30.5 -29t-20.5 -65l-38 -167q-14 -62 -26 -91q-10 -26 -30 -45q-19 -18 -40.5 -24.5t-64.5 -6.5h-29l11 49h18q45 0 61 16q8 7 15 22q10 19 21 70l41 176q15 65 39.5 95t72.5 40q-58 21 -58 79q0 21 8 55l39 171q12 52 12 64
q0 24 -14 34.5t-45 10.5h-17l11 49l29 -1q46 -2 71.5 -25t25.5 -64q0 -24 -13 -78l-39 -166q-8 -34 -8 -51q0 -26 15 -38.5t53 -16.5z" />
    <glyph glyph-name="asciitilde" unicode="~" horiz-adv-x="724" 
d="M700 319q-49 -48 -87 -70q-51 -29 -97 -29q-44 0 -115 38l-31 17q-58 31 -96 31q-20 0 -36 -6q-31 -11 -82 -62l-12 -12l-40 44q35 38 67 62q52 38 112 38q22 0 40 -5q21 -6 68 -29l57 -28q50 -25 74 -25q35 0 71 22q25 17 68 56z" />
    <glyph glyph-name="exclamdown" unicode="&#xa1;" horiz-adv-x="253" 
d="M273 706l-25 -110h-78l26 110h77zM205 480l-44 -259l-51 -221h-68l54 233l73 247h36z" />
    <glyph glyph-name="cent" unicode="&#xa2;" horiz-adv-x="488" 
d="M500 340l-57 -14q-8 48 -30 72q-21 21 -52 28l-90 -388h6q100 0 142 112l60 -8q-63 -154 -212 -154h-7l-24 -102h-50l25 108q-67 16 -102.5 65.5t-35.5 126.5q0 68 25 132.5t68 104.5q62 58 159 61l21 95h50l-23 -100q39 -8 62 -24q57 -37 65 -115zM312 431
q-30 -2 -55 -13q-54 -23 -87 -86t-33 -142q0 -58 20.5 -92t65.5 -51z" />
    <glyph glyph-name="sterling" unicode="&#xa3;" horiz-adv-x="614" 
d="M708 540l-67 -13v2q0 127 -120 127q-56 0 -97 -33q-23 -18 -35 -43q-21 -42 -37 -141q-2 -15 -4.5 -28t-4 -21.5t-1.5 -9.5q-3 -10 -6 -32h173l-10 -51h-171q-12 -55 -23 -92q-14 -49 -34 -87l20 -11q52 -29 65 -34q44 -19 68 -19q33 0 58 27.5t35 75.5l64 -7
q-18 -76 -60 -116t-104 -40q-52 0 -89 22l-90 52q-59 -74 -136 -74q-47 0 -75.5 23.5t-28.5 62.5q0 41 33 67.5t85 26.5q46 0 104 -27q20 46 37 123l6 27h-146l11 51h143q10 58 11 68q2 15 4.5 29.5t4 25.5t2.5 15q13 67 32 103q29 57 85.5 89t128.5 32q78 0 121.5 -43
t47.5 -127zM192 101q-48 24 -83 24q-26 0 -42 -11.5t-16 -30.5q0 -16 13 -26.5t33 -10.5q47 0 95 55z" />
    <glyph glyph-name="currency" unicode="&#xa4;" horiz-adv-x="667" 
d="M683 558l-76 -66q37 -55 37 -123q0 -116 -79 -201l64 -75l-44 -39l-64 75q-75 -46 -161 -46q-94 0 -159 59l-79 -67l-38 45l78 66q-39 67 -39 131q0 59 22 110q18 45 57 85l-64 76l45 40l62 -74q18 10 20 11q63 33 137 33q100 0 166 -58l77 65zM582 361q0 80 -50 129.5
t-132 49.5q-91 0 -152 -62.5t-61 -157.5q0 -79 49 -129.5t124 -50.5q94 0 158 63.5t64 157.5z" />
    <glyph glyph-name="yen" unicode="&#xa5;" horiz-adv-x="573" 
d="M677 706l-256 -309h130l-13 -54h-161l-31 -36l-5 -17h184l-12 -55h-184l-54 -235h-62l53 235h-186l12 54h186l6 24l-8 29h-172l13 54h144l-89 310h69l87 -338l268 338h81z" />
    <glyph glyph-name="brokenbar" unicode="&#xa6;" horiz-adv-x="229" 
d="M294 778l-91 -395h-62l92 395h61zM173 253l-92 -396h-61l91 396h62z" />
    <glyph glyph-name="section" unicode="&#xa7;" horiz-adv-x="560" 
d="M546 279q0 -121 -132 -156q51 -44 51 -111q0 -71 -48 -114.5t-126 -43.5q-57 0 -115 23q-42 16 -105 58l-9 6l17 67q32 -28 77 -55q72 -42 140 -42q51 0 79.5 23t28.5 65q0 38 -22 63t-82 56l-95 49q-48 24 -71 61q-22 34 -22 79q0 55 34 94.5t96 59.5q-54 42 -54 106
q0 65 47.5 108t119.5 43q99 0 182 -63l-13 -63q-96 71 -170 71q-46 0 -73.5 -24.5t-27.5 -65.5q0 -62 60 -90l31 -14l90 -43q112 -53 112 -147zM485 267q0 66 -89 109l-104 50q-53 -4 -85.5 -32.5t-32.5 -72.5q0 -36 20.5 -62t70.5 -52l93 -49q57 1 92 31t35 78z" />
    <glyph glyph-name="dieresis" unicode="&#xa8;" horiz-adv-x="225" 
d="M247 674l-22 -92h-63l22 92h63zM63 674l-21 -92h-64l23 92h62z" />
    <glyph glyph-name="copyright" unicode="&#xa9;" horiz-adv-x="833" 
d="M820 358q0 -152 -103 -256.5t-253 -104.5t-253 103t-103 253q0 151 103 253.5t254 102.5q147 0 251 -103t104 -248zM787 352q0 137 -92.5 231t-228.5 94q-137 0 -231.5 -94.5t-94.5 -230.5q0 -134 94.5 -228.5t229.5 -94.5q134 0 228.5 94.5t94.5 228.5zM655 449l-50 -10
q-26 102 -124 102q-71 0 -115 -59.5t-44 -156.5q0 -73 35 -115.5t96 -42.5q47 0 84 30t57 86l51 -5q-23 -74 -76 -116t-124 -42q-79 0 -129 58t-50 149q0 111 63.5 185t158.5 74q78 0 123 -47q29 -30 44 -90z" />
    <glyph glyph-name="ordfeminine" unicode="&#xaa;" horiz-adv-x="357" 
d="M420 636q0 -11 -2 -27q-6 -24 -8 -33l-27 -121l-4 -18q-2 -12 -2 -17q0 -18 19 -18q7 0 20 4l-10 -42q-13 -4 -26 -4q-48 0 -48 40v11q-38 -57 -123 -57q-53 0 -82.5 23t-29.5 66q0 46 30 73q37 35 149 49l86 11l3 12q5 20 5 41q0 52 -74 52q-44 0 -67 -17.5t-30 -56.5
l-55 5q30 111 155 111q55 0 88 -23.5t33 -63.5zM355 537q-118 -11 -161 -29.5t-43 -57.5q0 -54 71 -54q55 0 89 32q14 13 23 32q7 15 12 39z" />
    <glyph glyph-name="guillemotleft" unicode="&#xab;" horiz-adv-x="383" 
d="M407 471l-17 -77l-102 -72l68 -75l-15 -66l-106 121l12 54zM247 471l-17 -77l-101 -72l67 -75l-15 -66l-106 121l12 54z" />
    <glyph glyph-name="logicalnot" unicode="&#xac;" horiz-adv-x="724" 
d="M678 323l-74 -323h-61l61 264h-506l14 59h566z" />
    <glyph glyph-name="registered" unicode="&#xae;" horiz-adv-x="833" 
d="M820 358q0 -152 -103 -256.5t-253 -104.5t-253 103t-103 253q0 151 103 253.5t254 102.5q147 0 251 -103t104 -248zM787 352q0 137 -92.5 231t-228.5 94q-137 0 -231.5 -94.5t-94.5 -230.5q0 -134 94.5 -228.5t229.5 -94.5q134 0 228.5 94.5t94.5 228.5zM626 467
q0 -55 -29 -90.5t-82 -44.5l75 -204h-55l-72 198h-83l-37 -198h-53l84 450h121q61 0 87 -17q44 -28 44 -94zM571 462q0 32 -18 50q-16 17 -69 17h-65l-29 -156h81q38 0 64 14q36 21 36 75z" />
    <glyph glyph-name="macron" unicode="&#xaf;" horiz-adv-x="225" 
d="M266 628l-14 -61h-293l14 61h293z" />
    <glyph glyph-name="degree" unicode="&#xb0;" horiz-adv-x="354" 
d="M428 601q0 -61 -43.5 -104t-104.5 -43t-103.5 43t-42.5 104q0 60 43 103.5t103 43.5q62 0 105 -43t43 -104zM369 601q0 38 -25.5 64.5t-62.5 26.5t-63.5 -27t-26.5 -65t26.5 -64t63.5 -26t62.5 26.5t25.5 64.5z" />
    <glyph glyph-name="plusminus" unicode="&#xb1;" horiz-adv-x="724" 
d="M724 408l-14 -59h-238l-53 -230h-60l53 230h-238l14 59h238l53 228h60l-53 -228h238zM644 58l-14 -58h-536l14 58h536z" />
    <glyph glyph-name="twosuperior" unicode="&#xb2;" horiz-adv-x="375" 
d="M418 601q0 -95 -97 -180q-47 -41 -104 -80q-24 -16 -49 -31l208 2l-9 -46h-284l10 48q14 7 40 21q56 32 108 73q127 101 127 187q0 35 -20 56.5t-54 21.5q-44 0 -68.5 -30.5t-24.5 -84.5q0 -13 1 -22l-48 10q0 36 5 58q10 51 48 81t91 30q55 0 87.5 -31t32.5 -83z" />
    <glyph glyph-name="threesuperior" unicode="&#xb3;" horiz-adv-x="375" 
d="M421 603q0 -45 -30.5 -76t-80.5 -35q22 -4 37 -12q52 -25 52 -90q0 -59 -43.5 -96.5t-113.5 -37.5q-68 0 -106.5 36.5t-42.5 104.5l52 5q5 -106 103 -106q45 0 74 25.5t29 64.5q0 51 -39 69q-16 8 -45 11q-21 3 -63 4l11 45q12 -1 24 -1q66 0 101 23t35 65q0 32 -22 52
t-57 20q-39 0 -64 -26t-32 -74l-51 7q28 133 148 133q56 0 90 -30.5t34 -80.5z" />
    <glyph glyph-name="acute" unicode="&#xb4;" horiz-adv-x="225" 
d="M207 683l-143 -150h-46l93 150h96z" />
    <glyph glyph-name="mu" unicode="&#xb5;" horiz-adv-x="515" 
d="M518 471l-86 -383q-3 -12 -3 -22q0 -25 24 -25q11 0 29 7l-11 -50q-23 -6 -35 -6q-62 0 -62 54q0 14 3 27q-36 -46 -72 -65.5t-83 -19.5q-73 0 -102 56l-57 -260h-59l155 687h57l-58 -253q-14 -60 -14 -91q0 -42 23.5 -66t64.5 -24q73 0 127 71q28 38 49 129l54 234h56z
" />
    <glyph glyph-name="paragraph" unicode="&#xb6;" horiz-adv-x="643" 
d="M645 706l-10 -44h-33l-191 -829h-46l191 829h-157l-191 -829h-46l115 498q-56 17 -87.5 61t-31.5 105q0 49 22 93t61 72q34 25 73 34.5t110 9.5h221z" />
    <glyph glyph-name="periodcentered" unicode="&#xb7;" horiz-adv-x="187" 
d="M172 344l-23 -108h-81l24 108h80z" />
    <glyph glyph-name="cedilla" unicode="&#xb8;" horiz-adv-x="225" 
d="M187 -105q0 -38 -32 -63t-81 -25q-10 0 -36 3l13 25q10 -1 20 -1q23 0 37 11.5t14 30.5q0 37 -55 40l61 84h33l-32 -45q28 -1 43 -17t15 -43z" />
    <glyph glyph-name="onesuperior" unicode="&#xb9;" horiz-adv-x="375" 
d="M362 706l-105 -443h-49l82 340q-37 -20 -92 -20q-6 0 -32 2l10 42q10 -1 22 -1q49 0 76 18.5t40 61.5h48z" />
    <glyph glyph-name="ordmasculine" unicode="&#xba;" horiz-adv-x="395" 
d="M458 568q0 -90 -56.5 -153t-137.5 -63q-66 0 -105.5 42t-39.5 112q0 92 56.5 154.5t138.5 62.5q66 0 105 -40.5t39 -110.5v-4zM406 573q0 7 -1 10q-2 46 -27.5 72.5t-66.5 26.5q-60 0 -100 -50t-40 -126q0 -52 26 -82t70 -30q58 0 98.5 52.5t40.5 126.5z" />
    <glyph glyph-name="guillemotright" unicode="&#xbb;" horiz-adv-x="383" 
d="M396 350l-12 -54l-160 -115l17 77l101 72l-67 75l15 66zM236 350l-12 -54l-160 -115l17 77l102 72l-68 75l15 66z" />
    <glyph glyph-name="onequarter" unicode="&#xbc;" horiz-adv-x="875" 
d="M836 162l-10 -42h-66l-27 -120h-49l28 121h-206l9 40l267 281h49l-61 -280h66zM718 723l-437 -763l-38 22l435 764zM349 706l-105 -443h-49l82 340q-37 -20 -92 -20q-5 0 -31 2l9 42q11 -1 22 -1q49 0 76 18.5t40 61.5h48zM772 374l-195 -209h144z" />
    <glyph glyph-name="onehalf" unicode="&#xbd;" horiz-adv-x="875" 
d="M844 335q0 -95 -96 -180q-55 -48 -104 -81q-16 -11 -50 -30l208 2l-9 -46h-284l10 48q34 17 41 21q58 34 107 73q128 102 128 187q0 35 -20.5 56t-54.5 21q-44 0 -68.5 -30t-24.5 -84q0 -13 1 -22l-48 10q0 31 6 58q10 50 47.5 80t90.5 30q55 0 87.5 -30.5t32.5 -82.5z
M694 723l-438 -763l-38 22l435 764zM345 707l-105 -443h-49l82 340q-37 -20 -92 -20q-5 0 -31 2l9 42q11 -1 22 -1q49 0 76 18.5t40 61.5h48z" />
    <glyph glyph-name="threequarters" unicode="&#xbe;" horiz-adv-x="875" 
d="M844 162l-10 -42h-66l-27 -120h-49l28 121h-206l9 40l267 281h49l-61 -280h66zM738 724l-437 -763l-38 22l435 764zM422 603q0 -45 -30.5 -76t-80.5 -35q22 -5 37 -12q51 -26 51 -90q0 -59 -43.5 -96.5t-112.5 -37.5q-68 0 -106.5 36.5t-42.5 104.5l52 5q3 -106 103 -106
q44 0 73.5 25.5t29.5 64.5q0 51 -39 69q-16 8 -45 11q-21 3 -63 4l11 45q12 -1 24 -1q65 0 100.5 23t35.5 65q0 32 -22 52t-58 20q-38 0 -63 -26t-32 -74l-51 7q28 133 148 133q56 0 90 -30.5t34 -80.5zM780 374l-195 -209h144z" />
    <glyph glyph-name="questiondown" unicode="&#xbf;" horiz-adv-x="509" 
d="M378 706l-26 -112h-74l25 112h75zM477 211q-10 -103 -70 -160.5t-158 -57.5q-91 0 -148 52.5t-57 135.5q0 84 51.5 137t140.5 61l34 151h60l-49 -208h-16q-72 0 -114 -38t-42 -103q0 -59 38 -96.5t99 -37.5q73 0 117 47t47 128z" />
    <glyph glyph-name="Agrave" unicode="&#xc0;" horiz-adv-x="634" 
d="M493 768h-51l-82 127h86zM571 0h-68l-29 227h-276l-125 -227h-74l398 706h80zM468 288l-42 360l-194 -360h236z" />
    <glyph glyph-name="Aacute" unicode="&#xc1;" horiz-adv-x="634" 
d="M581 896l-152 -127h-50l98 127h104zM571 0h-68l-29 227h-276l-125 -227h-74l398 706h80zM468 288l-42 360l-194 -360h236z" />
    <glyph glyph-name="Acircumflex" unicode="&#xc2;" horiz-adv-x="634" 
d="M563 772h-49l-62 63l-101 -63h-52l149 125h42zM571 0h-68l-29 227h-276l-125 -227h-74l398 706h80zM468 288l-42 360l-194 -360h236z" />
    <glyph glyph-name="Atilde" unicode="&#xc3;" horiz-adv-x="634" 
d="M600 861q-44 -92 -101 -92q-11 0 -22 4q-16 4 -56 28q-42 26 -59 26q-28 0 -56 -54l-36 16q47 98 104 98q24 0 81 -34q37 -23 53 -23t28 11t29 39zM571 0h-68l-29 227h-276l-125 -227h-74l398 706h80zM468 288l-42 360l-194 -360h236z" />
    <glyph glyph-name="Adieresis" unicode="&#xc4;" horiz-adv-x="634" 
d="M585 876l-21 -97h-68l21 97h68zM403 876l-22 -97h-68l22 97h68zM571 0h-68l-29 227h-276l-125 -227h-74l398 706h80zM468 288l-42 360l-194 -360h236z" />
    <glyph glyph-name="Aring" unicode="&#xc5;" horiz-adv-x="634" 
d="M527 828q0 -32 -23 -55t-56 -23q-32 0 -55 23t-23 55t22.5 55t54.5 23q34 0 57 -22.5t23 -55.5zM571 0h-68l-29 227h-276l-125 -227h-74l398 706h80zM490 828q0 18 -12 31t-29 13t-29 -12.5t-12 -31.5q0 -18 12 -30.5t29 -12.5t29 12.5t12 30.5zM468 288l-42 360
l-194 -360h236z" />
    <glyph glyph-name="AE" unicode="&#xc6;" horiz-adv-x="1009" 
d="M1017 706l-13 -58h-333l-58 -257l321 1l-13 -58h-322l-65 -276h412l-13 -58h-475l53 233h-245l-202 -233h-84l618 706h419zM609 634l-291 -344h206z" />
    <glyph glyph-name="Ccedilla" unicode="&#xc7;" horiz-adv-x="745" 
d="M752 505l-66 -13q-9 34 -18 53t-28 42q-63 80 -180 80q-131 0 -209 -99q-85 -107 -85 -257q0 -126 63.5 -198.5t173.5 -72.5q91 0 160 53.5t103 149.5l66 -9q-39 -114 -129 -180.5t-205 -66.5h-13l-21 -29q62 -6 62 -64q0 -40 -34 -65.5t-87 -25.5q-11 0 -36 3l12 26
q7 -1 17 -1q63 0 63 45q0 39 -61 43l52 70l-7 2q-105 15 -165 78q-83 87 -83 238q0 121 53 222q101 191 321 191q129 0 206 -75q28 -27 43.5 -55.5t31.5 -84.5z" />
    <glyph glyph-name="Egrave" unicode="&#xc8;" horiz-adv-x="590" 
d="M501 768h-51l-82 127h86zM640 706l-13 -58h-363l-60 -256h333l-14 -58h-332l-64 -276h413l-13 -58h-477l162 706h428z" />
    <glyph glyph-name="Eacute" unicode="&#xc9;" horiz-adv-x="590" 
d="M609 895l-152 -127h-50l99 127h103zM640 706l-13 -58h-363l-60 -256h333l-14 -58h-332l-64 -276h413l-13 -58h-477l162 706h428z" />
    <glyph glyph-name="Ecircumflex" unicode="&#xca;" horiz-adv-x="590" 
d="M561 772h-49l-62 63l-101 -63h-53l150 125h42zM640 706l-13 -58h-363l-60 -256h333l-14 -58h-332l-64 -276h413l-13 -58h-477l162 706h428z" />
    <glyph glyph-name="Edieresis" unicode="&#xcb;" horiz-adv-x="590" 
d="M587 876l-21 -97h-68l21 97h68zM405 876l-22 -97h-68l22 97h68zM640 706l-13 -58h-363l-60 -256h333l-14 -58h-332l-64 -276h413l-13 -58h-477l162 706h428z" />
    <glyph glyph-name="Igrave" unicode="&#xcc;" horiz-adv-x="233" 
d="M306 768h-51l-82 127h86zM277 706l-163 -706h-64l162 706h65z" />
    <glyph glyph-name="Iacute" unicode="&#xcd;" horiz-adv-x="233" 
d="M405 895l-151 -127h-50l98 127h103zM277 706l-163 -706h-64l162 706h65z" />
    <glyph glyph-name="Icircumflex" unicode="&#xce;" horiz-adv-x="233" 
d="M384 772h-49l-62 63l-101 -63h-52l149 125h42zM277 706l-163 -706h-64l162 706h65z" />
    <glyph glyph-name="Idieresis" unicode="&#xcf;" horiz-adv-x="233" 
d="M404 876l-21 -97h-68l21 97h68zM222 876l-22 -97h-68l22 97h68zM277 706l-163 -706h-64l162 706h65z" />
    <glyph glyph-name="Eth" unicode="&#xd0;" horiz-adv-x="684" 
d="M691 433q0 -97 -34 -187.5t-94 -151.5q-65 -67 -165 -85q-46 -9 -123 -9h-225l80 352h-87l12 54h87l70 300h157q41 0 49 -1q89 -2 142 -26q62 -28 96.5 -92.5t34.5 -153.5zM626 436q0 89 -40 144q-27 37 -72.5 52.5t-126.5 15.5h-124l-56 -242h252l-12 -54h-253l-67 -294
h147q72 0 109 6q63 11 109 47q59 46 96.5 137t37.5 188z" />
    <glyph glyph-name="Ntilde" unicode="&#xd1;" horiz-adv-x="671" 
d="M642 861q-44 -92 -101 -92q-11 0 -22 4q-20 5 -56 28q-43 26 -59 26q-28 0 -55 -54l-36 16q45 98 103 98q24 0 81 -34q38 -23 53 -23q29 0 57 50zM715 706l-163 -706h-69l-233 617l-137 -617h-63l162 706h71l230 -616l137 616h65z" />
    <glyph glyph-name="Ograve" unicode="&#xd2;" horiz-adv-x="757" 
d="M523 768h-51l-82 127h86zM764 393q0 -75 -28.5 -153t-74.5 -132q-104 -121 -267 -121q-137 0 -217.5 86.5t-80.5 233.5q0 180 104 296.5t265 116.5q147 0 223 -89t76 -238zM698 402q0 124 -61.5 193.5t-171.5 69.5q-133 0 -215 -102q-39 -49 -62.5 -119t-23.5 -139
q0 -118 64.5 -191t167.5 -73q127 0 214.5 104.5t87.5 256.5z" />
    <glyph glyph-name="Oacute" unicode="&#xd3;" horiz-adv-x="757" 
d="M620 895l-152 -127h-50l98 127h104zM764 393q0 -75 -28.5 -153t-74.5 -132q-104 -121 -267 -121q-137 0 -217.5 86.5t-80.5 233.5q0 180 104 296.5t265 116.5q147 0 223 -89t76 -238zM698 402q0 124 -61.5 193.5t-171.5 69.5q-133 0 -215 -102q-39 -49 -62.5 -119
t-23.5 -139q0 -118 64.5 -191t167.5 -73q127 0 214.5 104.5t87.5 256.5z" />
    <glyph glyph-name="Ocircumflex" unicode="&#xd4;" horiz-adv-x="757" 
d="M598 772h-49l-62 63l-101 -63h-53l150 125h42zM764 393q0 -75 -28.5 -153t-74.5 -132q-104 -121 -267 -121q-137 0 -217.5 86.5t-80.5 233.5q0 180 104 296.5t265 116.5q147 0 223 -89t76 -238zM698 402q0 124 -61.5 193.5t-171.5 69.5q-133 0 -215 -102
q-39 -49 -62.5 -119t-23.5 -139q0 -118 64.5 -191t167.5 -73q127 0 214.5 104.5t87.5 256.5z" />
    <glyph glyph-name="Otilde" unicode="&#xd5;" horiz-adv-x="757" 
d="M652 861q-44 -92 -101 -92q-11 0 -22 4q-20 5 -56 28q-43 26 -59 26q-28 0 -55 -54l-36 16q45 98 103 98q24 0 81 -34q38 -23 53 -23q29 0 57 50zM764 393q0 -75 -28.5 -153t-74.5 -132q-104 -121 -267 -121q-137 0 -217.5 86.5t-80.5 233.5q0 180 104 296.5t265 116.5
q147 0 223 -89t76 -238zM698 402q0 124 -61.5 193.5t-171.5 69.5q-133 0 -215 -102q-39 -49 -62.5 -119t-23.5 -139q0 -118 64.5 -191t167.5 -73q127 0 214.5 104.5t87.5 256.5z" />
    <glyph glyph-name="Odieresis" unicode="&#xd6;" horiz-adv-x="757" 
d="M616 876l-21 -97h-68l21 97h68zM434 876l-22 -97h-68l22 97h68zM764 393q0 -75 -28.5 -153t-74.5 -132q-104 -121 -267 -121q-137 0 -217.5 86.5t-80.5 233.5q0 180 104 296.5t265 116.5q147 0 223 -89t76 -238zM698 402q0 124 -61.5 193.5t-171.5 69.5q-133 0 -215 -102
q-39 -49 -62.5 -119t-23.5 -139q0 -118 64.5 -191t167.5 -73q127 0 214.5 104.5t87.5 256.5z" />
    <glyph glyph-name="multiply" unicode="&#xd7;" horiz-adv-x="724" 
d="M655 466l-217 -177l150 -188l-47 -39l-150 189l-214 -174l-36 44l214 175l-150 188l48 38l150 -188l216 176z" />
    <glyph glyph-name="Oslash" unicode="&#xd8;" horiz-adv-x="757" 
d="M764 400q0 -176 -106 -294.5t-264 -118.5q-120 0 -198 68l-60 -66l-40 31l65 73q-65 84 -65 214q0 129 61 236q103 177 308 177q122 0 198 -67l56 64l39 -35l-59 -65l7 -10q22 -31 38 -78q20 -60 20 -129zM624 611q-64 54 -161 54q-130 0 -214.5 -102t-84.5 -258
q0 -86 42 -162zM698 406q0 104 -40 164l-421 -469q42 -34 76 -46.5t82 -12.5q130 0 216.5 103.5t86.5 260.5z" />
    <glyph glyph-name="Ugrave" unicode="&#xd9;" horiz-adv-x="687" 
d="M526 768h-51l-82 127h86zM734 706l-103 -457q-18 -82 -52 -141q-32 -58 -93 -89.5t-139 -31.5q-107 0 -166.5 53.5t-59.5 150.5q0 58 23 159l80 356h66l-85 -376q-19 -84 -19 -140q0 -72 43 -110.5t123 -38.5q78 0 128 41q33 27 54 72.5t40 129.5l95 422h65z" />
    <glyph glyph-name="Uacute" unicode="&#xda;" horiz-adv-x="687" 
d="M628 895l-152 -127h-50l98 127h104zM734 706l-103 -457q-18 -82 -52 -141q-32 -58 -93 -89.5t-139 -31.5q-107 0 -166.5 53.5t-59.5 150.5q0 58 23 159l80 356h66l-85 -376q-19 -84 -19 -140q0 -72 43 -110.5t123 -38.5q78 0 128 41q33 27 54 72.5t40 129.5l95 422h65z
" />
    <glyph glyph-name="Ucircumflex" unicode="&#xdb;" horiz-adv-x="687" 
d="M615 772h-49l-63 63l-100 -63h-53l149 125h42zM734 706l-103 -457q-18 -82 -52 -141q-32 -58 -93 -89.5t-139 -31.5q-107 0 -166.5 53.5t-59.5 150.5q0 58 23 159l80 356h66l-85 -376q-19 -84 -19 -140q0 -72 43 -110.5t123 -38.5q78 0 128 41q33 27 54 72.5t40 129.5
l95 422h65z" />
    <glyph glyph-name="Udieresis" unicode="&#xdc;" horiz-adv-x="687" 
d="M630 876l-21 -97h-68l21 97h68zM448 876l-22 -97h-68l22 97h68zM734 706l-103 -457q-18 -82 -52 -141q-32 -58 -93 -89.5t-139 -31.5q-107 0 -166.5 53.5t-59.5 150.5q0 58 23 159l80 356h66l-85 -376q-19 -84 -19 -140q0 -72 43 -110.5t123 -38.5q78 0 128 41
q33 27 54 72.5t40 129.5l95 422h65z" />
    <glyph glyph-name="Yacute" unicode="&#xdd;" horiz-adv-x="562" 
d="M571 896l-152 -127h-50l98 127h104zM685 706l-346 -399l-71 -307h-65l72 315l-120 391h69l97 -335l281 335h83z" />
    <glyph glyph-name="Thorn" unicode="&#xde;" horiz-adv-x="607" 
d="M620 384q0 -108 -82 -170q-69 -52 -216 -52h-171l-37 -162h-64l162 706h65l-34 -148h160q95 0 138 -22q37 -19 58 -60t21 -92zM553 387q0 40 -16 68q-16 26 -43.5 35.5t-87.5 9.5h-177l-65 -280h154q84 0 127 12.5t71 44.5q37 43 37 110z" />
    <glyph glyph-name="germandbls" unicode="&#xdf;" horiz-adv-x="517" 
d="M537 569q0 -51 -23.5 -89.5t-66.5 -57.5q-27 -12 -73 -15q40 -9 61 -22q28 -18 44.5 -53.5t16.5 -78.5q0 -56 -18.5 -111t-48.5 -87q-60 -64 -181 -64q-43 0 -81 9l13 55q52 -12 87 -12q72 0 110 36q27 26 43.5 71t16.5 93q0 73 -40 103q-13 8 -29 15q-26 9 -84 16l14 63
q71 0 107 14q35 13 55 43.5t20 71.5q0 46 -29 71.5t-79 25.5q-58 0 -94.5 -37.5t-53.5 -116.5l-15 -67l-101 -445h-58l111 493q14 62 32 105q51 117 181 117q76 0 119.5 -39t43.5 -107z" />
    <glyph glyph-name="agrave" unicode="&#xe0;" horiz-adv-x="492" 
d="M363 531h-44l-98 152h91zM460 367q0 -32 -12 -81l-40 -168q-8 -35 -8 -47q0 -25 24 -25q12 0 29 7l-11 -50q-16 -5 -30 -5q-63 0 -63 60q0 6 1 12q-53 -80 -165 -80q-67 0 -104 30.5t-37 86.5q0 42 22.5 77t61.5 53q30 13 57 19q47 10 202 31l4 16q8 29 8 52
q0 77 -103 77q-110 0 -129 -102l-62 4q37 148 199 148q72 0 114 -31t42 -84zM377 240q-153 -16 -211 -43.5t-58 -83.5q0 -37 24 -57t69 -20q73 0 118 46q21 23 30 47q9 22 16 55z" />
    <glyph glyph-name="aacute" unicode="&#xe1;" horiz-adv-x="492" 
d="M456 683l-143 -150h-45l93 150h95zM460 367q0 -32 -12 -81l-40 -168q-8 -35 -8 -47q0 -25 24 -25q12 0 29 7l-11 -50q-16 -5 -30 -5q-63 0 -63 60q0 6 1 12q-53 -80 -165 -80q-67 0 -104 30.5t-37 86.5q0 42 22.5 77t61.5 53q30 13 57 19q47 10 202 31l4 16q8 29 8 52
q0 77 -103 77q-110 0 -129 -102l-62 4q37 148 199 148q72 0 114 -31t42 -84zM377 240q-153 -16 -211 -43.5t-58 -83.5q0 -37 24 -57t69 -20q73 0 118 46q21 23 30 47q9 22 16 55z" />
    <glyph glyph-name="acircumflex" unicode="&#xe2;" horiz-adv-x="492" 
d="M445 531h-45l-65 85l-104 -85h-50l147 151h42zM460 367q0 -32 -12 -81l-40 -168q-8 -35 -8 -47q0 -25 24 -25q12 0 29 7l-11 -50q-16 -5 -30 -5q-63 0 -63 60q0 6 1 12q-53 -80 -165 -80q-67 0 -104 30.5t-37 86.5q0 42 22.5 77t61.5 53q30 13 57 19q47 10 202 31l4 16
q8 29 8 52q0 77 -103 77q-110 0 -129 -102l-62 4q37 148 199 148q72 0 114 -31t42 -84zM377 240q-153 -16 -211 -43.5t-58 -83.5q0 -37 24 -57t69 -20q73 0 118 46q21 23 30 47q9 22 16 55z" />
    <glyph glyph-name="atilde" unicode="&#xe3;" horiz-adv-x="492" 
d="M486 644q-42 -89 -95 -89q-9 0 -21 3q-18 5 -52 27q-39 25 -55 25q-27 0 -52 -52l-34 16q23 50 46 72t51 22q25 0 76 -33q36 -22 50 -22q26 0 53 49zM460 367q0 -32 -12 -81l-40 -168q-8 -35 -8 -47q0 -25 24 -25q12 0 29 7l-11 -50q-16 -5 -30 -5q-63 0 -63 60q0 6 1 12
q-53 -80 -165 -80q-67 0 -104 30.5t-37 86.5q0 42 22.5 77t61.5 53q30 13 57 19q47 10 202 31l4 16q8 29 8 52q0 77 -103 77q-110 0 -129 -102l-62 4q37 148 199 148q72 0 114 -31t42 -84zM377 240q-153 -16 -211 -43.5t-58 -83.5q0 -37 24 -57t69 -20q73 0 118 46
q21 23 30 47q9 22 16 55z" />
    <glyph glyph-name="adieresis" unicode="&#xe4;" horiz-adv-x="492" 
d="M463 674l-22 -92h-62l22 92h62zM280 674l-22 -92h-63l23 92h62zM460 367q0 -32 -12 -81l-40 -168q-8 -35 -8 -47q0 -25 24 -25q12 0 29 7l-11 -50q-16 -5 -30 -5q-63 0 -63 60q0 6 1 12q-53 -80 -165 -80q-67 0 -104 30.5t-37 86.5q0 42 22.5 77t61.5 53q30 13 57 19
q47 10 202 31l4 16q8 29 8 52q0 77 -103 77q-110 0 -129 -102l-62 4q37 148 199 148q72 0 114 -31t42 -84zM377 240q-153 -16 -211 -43.5t-58 -83.5q0 -37 24 -57t69 -20q73 0 118 46q21 23 30 47q9 22 16 55z" />
    <glyph glyph-name="aring" unicode="&#xe5;" horiz-adv-x="492" 
d="M407 614q0 -32 -23 -55t-56 -23q-32 0 -55 23t-23 55t22.5 55t54.5 23q34 0 57 -22.5t23 -55.5zM460 367q0 -32 -12 -81l-40 -168q-8 -35 -8 -47q0 -25 24 -25q12 0 29 7l-11 -50q-16 -5 -30 -5q-63 0 -63 60q0 6 1 12q-53 -80 -165 -80q-67 0 -104 30.5t-37 86.5
q0 42 22.5 77t61.5 53q30 13 57 19q47 10 202 31l4 16q8 29 8 52q0 77 -103 77q-110 0 -129 -102l-62 4q37 148 199 148q72 0 114 -31t42 -84zM370 614q0 18 -12 31t-29 13t-29 -12.5t-12 -31.5q0 -18 12 -30.5t29 -12.5t29 12.5t12 30.5zM377 240q-153 -16 -211 -43.5
t-58 -83.5q0 -37 24 -57t69 -20q73 0 118 46q21 23 30 47q9 22 16 55z" />
    <glyph glyph-name="ae" unicode="&#xe6;" horiz-adv-x="802" 
d="M788 294q0 -22 -5 -59h-348q-4 -33 -4 -50q0 -68 35.5 -108t95.5 -40q107 0 148 107l58 -12q-11 -26 -18 -38q-30 -49 -82 -77.5t-114 -28.5q-117 0 -165 102q-21 -27 -44 -46q-68 -56 -167 -56q-62 0 -98 31.5t-36 86.5q0 43 23 78.5t61 52.5q23 11 57 19q61 15 202 30
q12 55 12 69q0 78 -103 78q-56 0 -86 -24.5t-41 -79.5l-64 5q37 148 199 148q113 0 148 -77q62 78 166 78q81 0 125.5 -49.5t44.5 -139.5zM728 313q0 57 -30 89.5t-83 32.5q-60 0 -104 -40t-67 -114h281q3 24 3 32zM377 240q-153 -16 -211 -43.5t-58 -83.5q0 -36 24 -56.5
t66 -20.5q55 0 97 31q20 14 39 39q22 32 35 94z" />
    <glyph glyph-name="ccedilla" unicode="&#xe7;" horiz-adv-x="491" 
d="M491 340l-58 -14q-9 58 -38 84.5t-83 26.5q-79 0 -132 -71.5t-53 -176.5q0 -71 36.5 -112.5t97.5 -41.5q51 0 89.5 30t59.5 85l59 -8q-29 -74 -83 -114t-124 -40h-9l-23 -33q27 -2 42 -17.5t15 -42.5q0 -38 -32 -63t-80 -25q-11 0 -37 3l13 25q10 -1 20 -1q23 0 37 11.5
t14 30.5q0 37 -55 40l54 74q-154 27 -154 194q0 127 72 213t178 86q74 0 120.5 -38t53.5 -105z" />
    <glyph glyph-name="egrave" unicode="&#xe8;" horiz-adv-x="501" 
d="M362 531h-44l-98 152h91zM486 294q0 -29 -4 -59h-350q-4 -32 -4 -49q0 -68 35.5 -108.5t95.5 -40.5q51 0 91.5 28.5t60.5 78.5l56 -12q-8 -20 -19 -38q-29 -49 -81.5 -77.5t-114.5 -28.5q-86 0 -135.5 53t-49.5 145q0 125 72 211t178 86q80 0 124.5 -49.5t44.5 -139.5z
M427 313q0 57 -30.5 90.5t-82.5 33.5q-61 0 -105.5 -40.5t-67.5 -115.5h284q2 15 2 32z" />
    <glyph glyph-name="eacute" unicode="&#xe9;" horiz-adv-x="501" 
d="M458 683l-143 -150h-45l93 150h95zM486 294q0 -29 -4 -59h-350q-4 -32 -4 -49q0 -68 35.5 -108.5t95.5 -40.5q51 0 91.5 28.5t60.5 78.5l56 -12q-8 -20 -19 -38q-29 -49 -81.5 -77.5t-114.5 -28.5q-86 0 -135.5 53t-49.5 145q0 125 72 211t178 86q80 0 124.5 -49.5
t44.5 -139.5zM427 313q0 57 -30.5 90.5t-82.5 33.5q-61 0 -105.5 -40.5t-67.5 -115.5h284q2 15 2 32z" />
    <glyph glyph-name="ecircumflex" unicode="&#xea;" horiz-adv-x="501" 
d="M449 531h-45l-65 85l-104 -85h-50l147 151h42zM486 294q0 -29 -4 -59h-350q-4 -32 -4 -49q0 -68 35.5 -108.5t95.5 -40.5q51 0 91.5 28.5t60.5 78.5l56 -12q-8 -20 -19 -38q-29 -49 -81.5 -77.5t-114.5 -28.5q-86 0 -135.5 53t-49.5 145q0 125 72 211t178 86
q80 0 124.5 -49.5t44.5 -139.5zM427 313q0 57 -30.5 90.5t-82.5 33.5q-61 0 -105.5 -40.5t-67.5 -115.5h284q2 15 2 32z" />
    <glyph glyph-name="edieresis" unicode="&#xeb;" horiz-adv-x="501" 
d="M471 674l-22 -92h-62l22 92h62zM288 674l-22 -92h-63l23 92h62zM486 294q0 -29 -4 -59h-350q-4 -32 -4 -49q0 -68 35.5 -108.5t95.5 -40.5q51 0 91.5 28.5t60.5 78.5l56 -12q-8 -20 -19 -38q-29 -49 -81.5 -77.5t-114.5 -28.5q-86 0 -135.5 53t-49.5 145q0 125 72 211
t178 86q80 0 124.5 -49.5t44.5 -139.5zM427 313q0 57 -30.5 90.5t-82.5 33.5q-61 0 -105.5 -40.5t-67.5 -115.5h284q2 15 2 32z" />
    <glyph glyph-name="igrave" unicode="&#xec;" horiz-adv-x="203" 
d="M234 531h-44l-98 152h91zM210 471l-106 -471h-59l106 471h59z" />
    <glyph glyph-name="iacute" unicode="&#xed;" horiz-adv-x="203" 
d="M327 683l-143 -150h-45l93 150h95zM210 471l-106 -471h-59l106 471h59z" />
    <glyph glyph-name="icircumflex" unicode="&#xee;" horiz-adv-x="203" 
d="M310 531h-45l-65 85l-104 -85h-50l147 151h42zM210 471l-106 -471h-59l106 471h59z" />
    <glyph glyph-name="idieresis" unicode="&#xef;" horiz-adv-x="203" 
d="M343 674l-22 -92h-62l22 92h62zM160 674l-22 -92h-63l23 92h62zM210 471l-106 -471h-59l106 471h59z" />
    <glyph glyph-name="eth" unicode="&#xf0;" horiz-adv-x="521" 
d="M507 296q0 -134 -71.5 -221t-180.5 -87q-85 0 -136.5 56t-51.5 148q0 123 71.5 208t175.5 85q76 0 120 -57q-12 46 -34 89q-20 39 -42 66l-151 -48l-16 37l140 43q-8 9 -32 35q-21 21 -49 43l43 26q36 -30 52 -46q17 -17 36 -40l94 29l15 -38l-81 -25q41 -55 61 -109
q37 -97 37 -194zM445 284v14q0 66 -36.5 103.5t-95.5 37.5q-80 0 -133 -70t-53 -175q0 -73 35 -114.5t96 -41.5q77 0 132 72t55 174z" />
    <glyph glyph-name="ntilde" unicode="&#xf1;" horiz-adv-x="515" 
d="M498 645q-42 -89 -95 -89q-9 0 -21 3q-18 5 -52 27q-39 25 -55 25q-27 0 -52 -52l-34 16q23 50 46 72t51 22q25 0 76 -33q36 -22 50 -22q26 0 53 49zM490 364q0 -37 -13 -92l-62 -272h-58l62 271q13 61 13 86q0 36 -23 55.5t-66 19.5q-84 0 -138 -72q-17 -23 -26.5 -48
t-22.5 -80l-53 -232h-58l107 471h58l-16 -70q70 82 164 82q61 0 96.5 -32t35.5 -87z" />
    <glyph glyph-name="ograve" unicode="&#xf2;" horiz-adv-x="521" 
d="M370 531h-44l-98 152h91zM506 276q0 -120 -73.5 -204t-177.5 -84q-85 0 -136.5 56t-51.5 149q0 123 73 206.5t180 83.5q60 0 103.5 -28t64.5 -76q18 -42 18 -103zM445 284q0 45 -9 69q-27 82 -118 82q-82 0 -136.5 -69.5t-54.5 -173.5q0 -71 35 -112.5t96 -41.5
q77 0 132 72t55 174z" />
    <glyph glyph-name="oacute" unicode="&#xf3;" horiz-adv-x="521" 
d="M469 683l-143 -150h-45l93 150h95zM506 276q0 -120 -73.5 -204t-177.5 -84q-85 0 -136.5 56t-51.5 149q0 123 73 206.5t180 83.5q60 0 103.5 -28t64.5 -76q18 -42 18 -103zM445 284q0 45 -9 69q-27 82 -118 82q-82 0 -136.5 -69.5t-54.5 -173.5q0 -71 35 -112.5t96 -41.5
q77 0 132 72t55 174z" />
    <glyph glyph-name="ocircumflex" unicode="&#xf4;" horiz-adv-x="521" 
d="M452 531h-45l-65 85l-104 -85h-50l147 151h42zM506 276q0 -120 -73.5 -204t-177.5 -84q-85 0 -136.5 56t-51.5 149q0 123 73 206.5t180 83.5q60 0 103.5 -28t64.5 -76q18 -42 18 -103zM445 284q0 45 -9 69q-27 82 -118 82q-82 0 -136.5 -69.5t-54.5 -173.5
q0 -71 35 -112.5t96 -41.5q77 0 132 72t55 174z" />
    <glyph glyph-name="otilde" unicode="&#xf5;" horiz-adv-x="521" 
d="M489 644q-42 -89 -95 -89q-9 0 -21 3q-18 5 -52 27q-39 25 -55 25q-27 0 -52 -52l-34 16q23 50 46 72t51 22q25 0 76 -33q36 -22 50 -22q26 0 53 49zM506 276q0 -120 -73.5 -204t-177.5 -84q-85 0 -136.5 56t-51.5 149q0 123 73 206.5t180 83.5q60 0 103.5 -28t64.5 -76
q18 -42 18 -103zM445 284q0 45 -9 69q-27 82 -118 82q-82 0 -136.5 -69.5t-54.5 -173.5q0 -71 35 -112.5t96 -41.5q77 0 132 72t55 174z" />
    <glyph glyph-name="odieresis" unicode="&#xf6;" horiz-adv-x="521" 
d="M471 674l-22 -92h-62l22 92h62zM288 674l-22 -92h-63l23 92h62zM506 276q0 -120 -73.5 -204t-177.5 -84q-85 0 -136.5 56t-51.5 149q0 123 73 206.5t180 83.5q60 0 103.5 -28t64.5 -76q18 -42 18 -103zM445 284q0 45 -9 69q-27 82 -118 82q-82 0 -136.5 -69.5
t-54.5 -173.5q0 -71 35 -112.5t96 -41.5q77 0 132 72t55 174z" />
    <glyph glyph-name="divide" unicode="&#xf7;" horiz-adv-x="724" 
d="M488 477l-19 -82h-83l19 82h83zM689 322l-14 -58h-565l13 58h566zM422 188l-18 -82h-83l18 82h83z" />
    <glyph glyph-name="oslash" unicode="&#xf8;" horiz-adv-x="521" 
d="M536 454l-58 -58q28 -48 28 -122q0 -119 -73.5 -202.5t-177.5 -83.5q-78 0 -132 51l-50 -49l-29 28l53 54q-30 51 -30 122q0 122 73.5 205.5t179.5 83.5q28 0 57 -8q27 -7 40 -14t35 -29l2 -2l51 52zM414 390q-36 45 -96 45q-82 0 -137 -69t-55 -172q0 -43 14 -79z
M446 279q0 45 -11 73l-273 -273q35 -41 95 -41q78 0 133.5 71t55.5 170z" />
    <glyph glyph-name="ugrave" unicode="&#xf9;" horiz-adv-x="515" 
d="M379 531h-44l-98 152h91zM519 471l-107 -471h-58l16 69q-71 -81 -164 -81q-61 0 -96.5 32t-35.5 87q0 36 13 92l62 272h58l-62 -271q-2 -9 -4 -17.5t-3 -13.5t-1 -6q-5 -30 -5 -49q0 -36 23 -55.5t66 -19.5q85 0 138 71q18 24 27 48t22 81l53 232h58z" />
    <glyph glyph-name="uacute" unicode="&#xfa;" horiz-adv-x="515" 
d="M489 683l-143 -150h-45l93 150h95zM519 471l-107 -471h-58l16 69q-71 -81 -164 -81q-61 0 -96.5 32t-35.5 87q0 36 13 92l62 272h58l-62 -271q-2 -9 -4 -17.5t-3 -13.5t-1 -6q-5 -30 -5 -49q0 -36 23 -55.5t66 -19.5q85 0 138 71q18 24 27 48t22 81l53 232h58z" />
    <glyph glyph-name="ucircumflex" unicode="&#xfb;" horiz-adv-x="515" 
d="M464 531h-45l-65 85l-104 -85h-50l147 151h42zM519 471l-107 -471h-58l16 69q-71 -81 -164 -81q-61 0 -96.5 32t-35.5 87q0 36 13 92l62 272h58l-62 -271q-2 -9 -4 -17.5t-3 -13.5t-1 -6q-5 -30 -5 -49q0 -36 23 -55.5t66 -19.5q85 0 138 71q18 24 27 48t22 81l53 232h58
z" />
    <glyph glyph-name="udieresis" unicode="&#xfc;" horiz-adv-x="515" 
d="M493 674l-22 -92h-62l22 92h62zM310 674l-22 -92h-63l23 92h62zM519 471l-107 -471h-58l16 69q-71 -81 -164 -81q-61 0 -96.5 32t-35.5 87q0 36 13 92l62 272h58l-62 -271q-2 -9 -4 -17.5t-3 -13.5t-1 -6q-5 -30 -5 -49q0 -36 23 -55.5t66 -19.5q85 0 138 71q18 24 27 48
t22 81l53 232h58z" />
    <glyph glyph-name="yacute" unicode="&#xfd;" horiz-adv-x="422" 
d="M436 683l-143 -150h-46l93 150h96zM485 471l-343 -594q-43 -74 -75 -92q-26 -16 -71 -16q-28 0 -49 5l12 52q29 -6 43 -6q24 0 37 9q11 6 18 18q13 16 39 62l52 93l-49 469h62l35 -400l221 400h68z" />
    <glyph glyph-name="thorn" unicode="&#xfe;" horiz-adv-x="520" 
d="M504 289q0 -127 -66.5 -212.5t-164.5 -85.5q-117 0 -147 108l-70 -315h-59l208 922h58l-71 -316q56 90 159 90q73 0 113 -49.5t40 -141.5zM442 289q0 66 -28.5 103t-79.5 37q-68 0 -116 -56q-29 -35 -48 -90.5t-19 -105.5q0 -64 31 -100.5t87 -36.5q74 0 123.5 71
t49.5 178z" />
    <glyph glyph-name="ydieresis" unicode="&#xff;" horiz-adv-x="422" 
d="M453 674l-22 -92h-62l22 92h62zM270 674l-22 -92h-63l23 92h62zM485 471l-343 -594q-43 -74 -75 -92q-26 -16 -71 -16q-28 0 -49 5l12 52q29 -6 43 -6q24 0 37 9q11 6 18 18q13 16 39 62l52 93l-49 469h62l35 -400l221 400h68z" />
    <glyph glyph-name="OE" unicode="&#x152;" horiz-adv-x="1042" 
d="M1082 706l-9 -58h-323l-57 -256h312l-16 -58h-311l-59 -276h384l-16 -58h-446l26 103q-22 -27 -46 -49q-72 -63 -172 -63q-112 0 -182 84t-70 218q0 179 103.5 300.5t255.5 121.5q96 0 154 -53q37 -33 59 -98l32 142h381zM626 460q0 94 -47 146.5t-130 52.5
q-121 0 -201.5 -103t-80.5 -258q0 -115 52.5 -183t141.5 -68q70 0 127 43t89 121q29 68 41 152q8 51 8 97z" />
    <glyph glyph-name="oe" unicode="&#x153;" horiz-adv-x="854" 
d="M840 294q0 -22 -5 -59h-348q-4 -32 -4 -48q0 -68 35.5 -108.5t95.5 -40.5q107 0 148 106l58 -12q-11 -26 -18 -38q-30 -50 -82.5 -78t-114.5 -28q-131 0 -166 111q-76 -111 -189 -111q-84 0 -133.5 55.5t-49.5 149.5q0 124 71 207t176 83q59 0 101 -29t61 -83
q70 112 194 112q81 0 125.5 -49.5t44.5 -139.5zM779 313q0 58 -29.5 90.5t-82.5 32.5q-60 0 -104.5 -40.5t-66.5 -114.5h281q2 16 2 32zM434 284q0 2 -0.5 7t-0.5 7q-4 65 -36 101t-85 36q-79 0 -131.5 -69t-52.5 -173q0 -73 33.5 -114.5t92.5 -41.5q75 0 127.5 72t52.5 175
z" />
    <glyph glyph-name="Scaron" unicode="&#x160;" horiz-adv-x="617" 
d="M607 897l-149 -125h-42l-74 125h49l62 -63l101 63h53zM651 529l-63 -15q-6 42 -22 73q-43 79 -159 79q-80 0 -128 -35.5t-48 -94.5q0 -34 17 -57q10 -13 24 -23q14 -11 33 -20q13 -6 45 -20l81 -34q51 -22 83 -44q70 -49 70 -136q0 -96 -72.5 -155.5t-189.5 -59.5
q-140 0 -209 76q-25 28 -38 63q-12 35 -15 103l69 14q-1 -11 -1 -22q0 -86 51.5 -132.5t145.5 -46.5q89 0 141.5 41t52.5 111q0 50 -35 78q-29 25 -83 48l-81 34q-55 23 -100 55q-56 42 -56 116q0 89 67 142t181 53q118 0 179 -61q34 -33 50 -83q3 -11 10 -47z" />
    <glyph glyph-name="scaron" unicode="&#x161;" horiz-adv-x="452" 
d="M464 682l-147 -151h-42l-76 151h46l64 -85l105 85h50zM443 359q0 -9 -1 -18l-53 -10q1 10 1 19q0 87 -107 87q-53 0 -84.5 -22t-31.5 -60q0 -39 43 -57l116 -48q6 -2 28 -15q12 -7 21 -14q42 -31 42 -89q0 -65 -51 -104.5t-136 -39.5q-83 0 -128 37t-45 106q0 17 3 31
l59 12q-4 -21 -4 -36q0 -103 120 -103q57 0 91.5 25t34.5 66q0 29 -17 45.5t-68 37.5l-78 32q-88 37 -88 110q0 59 50 95.5t129 36.5q73 0 113.5 -32.5t40.5 -91.5z" />
    <glyph glyph-name="Ydieresis" unicode="&#x178;" horiz-adv-x="562" 
d="M565 876l-21 -97h-68l21 97h68zM383 876l-22 -97h-68l22 97h68zM685 706l-346 -399l-71 -307h-65l72 315l-120 391h69l97 -335l281 335h83z" />
    <glyph glyph-name="florin" unicode="&#x192;" horiz-adv-x="341" 
d="M400 707l-14 -57l-7 2q-16 4 -25 4q-14 0 -22 -4q-5 -2 -12 -9q-11 -12 -24 -65l-26 -108h85l-11 -45h-84l-139 -569q-11 -46 -38.5 -71.5t-64.5 -25.5q-24 0 -51 12l15 55q23 -8 35 -8q18 0 30 15q10 12 20 54l131 538h-73l11 45h72l34 136q15 60 39.5 85.5t66.5 25.5
q18 0 52 -10z" />
    <glyph glyph-name="circumflex" unicode="&#x2c6;" horiz-adv-x="225" 
d="M245 531h-45l-65 85l-104 -85h-51l147 151h42z" />
    <glyph glyph-name="tilde" unicode="&#x2dc;" horiz-adv-x="225" 
d="M267 644q-42 -89 -95 -89q-9 0 -21 3q-18 5 -52 27q-39 25 -55 25q-27 0 -52 -52l-34 16q23 50 46 72t51 22q25 0 76 -33q36 -22 50 -22q26 0 53 49z" />
    <glyph glyph-name="endash" unicode="&#x2013;" horiz-adv-x="565" 
d="M565 323l-14 -60h-489l14 60h489z" />
    <glyph glyph-name="emdash" unicode="&#x2014;" horiz-adv-x="843" 
d="M849 324l-14 -60h-767l14 60h767z" />
    <glyph glyph-name="quoteleft" unicode="&#x2018;" horiz-adv-x="184" 
d="M267 706q-19 -30 -34 -66q-5 -13 -15 -37q-9 -24 -14 -51h35l-24 -110h-87q2 13 5.5 30t4.5 22q13 57 27 94q11 30 30 71q13 26 26 47h46z" />
    <glyph glyph-name="quoteright" unicode="&#x2019;" horiz-adv-x="184" 
d="M271 706q-2 -14 -6 -32t-4 -20q-12 -56 -26 -94q-18 -45 -30 -71q-9 -18 -27 -47h-45q18 28 33 65q10 24 15 37q9 25 15 52h-36l25 110h86z" />
    <glyph glyph-name="quotesinglbase" unicode="&#x201a;" horiz-adv-x="184" 
d="M145 110q-2 -12 -5.5 -29.5l-4.5 -22.5q-11 -52 -27 -94q-12 -34 -30 -71q-10 -21 -26 -47h-46q16 25 34 66q5 13 15 37q9 24 14 51h-35l24 110h87z" />
    <glyph glyph-name="quotedblleft" unicode="&#x201c;" horiz-adv-x="331" 
d="M414 706q-14 -22 -34 -66q-7 -16 -15 -37q-9 -24 -14 -51h35l-24 -110h-87q2 12 5.5 29.5l4.5 22.5q13 60 27 94q15 40 30 71q10 21 26 47h46zM267 706q-19 -30 -34 -66q-5 -13 -15 -37q-9 -24 -14 -51h35l-24 -110h-87q2 13 5.5 30t4.5 22q13 57 27 94q11 30 30 71
q13 26 26 47h46z" />
    <glyph glyph-name="quotedblright" unicode="&#x201d;" horiz-adv-x="331" 
d="M418 706q-7 -39 -10 -52q-12 -56 -26 -94q-16 -41 -31 -71q-12 -26 -26 -47h-45q18 30 33 65q3 8 8.5 21t6.5 16q9 25 15 52h-36l24 110h87zM271 706q-2 -14 -6 -32t-4 -20q-12 -56 -26 -94q-18 -45 -30 -71q-9 -18 -27 -47h-45q18 28 33 65q10 24 15 37q9 25 15 52h-36
l25 110h86z" />
    <glyph glyph-name="quotedblbase" unicode="&#x201e;" horiz-adv-x="331" 
d="M288 110q-2 -12 -5.5 -29.5l-4.5 -22.5q-11 -53 -26 -94q-11 -30 -30 -71q-6 -12 -26 -47h-46q15 25 33 66q10 21 15 37q8 22 15 51h-36l25 110h86zM142 110q-6 -26 -10 -52q-11 -52 -27 -94q-12 -34 -30 -71q-18 -35 -26 -47h-46q20 33 33 66q10 21 15 37q11 29 15 51
h-36l25 110h87z" />
    <glyph glyph-name="dagger" unicode="&#x2020;" horiz-adv-x="460" 
d="M503 498l-12 -53h-162l-102 -445h-60l103 445h-159l12 53h159l47 208h60l-48 -208h162z" />
    <glyph glyph-name="daggerdbl" unicode="&#x2021;" horiz-adv-x="460" 
d="M506 513l-14 -54h-165l-38 -172h165l-13 -53h-165l-53 -234h-58l54 234h-158l13 53h159l38 172h-159l13 54h159l44 193h57l-45 -193h166z" />
    <glyph glyph-name="bullet" unicode="&#x2022;" horiz-adv-x="333" 
d="M349 464l-48 -218h-220l49 218h219z" />
    <glyph glyph-name="ellipsis" unicode="&#x2026;" horiz-adv-x="1000" 
d="M858 82l-18 -82h-83l19 82h82zM524 82l-19 -82h-82l18 82h83zM191 82l-19 -82h-83l19 82h83z" />
    <glyph glyph-name="perthousand" unicode="&#x2030;" horiz-adv-x="1251" 
d="M1239 261q0 -115 -56.5 -194t-134.5 -79q-64 0 -99 44.5t-35 125.5q0 121 56.5 204t139.5 83q60 0 94.5 -46t34.5 -126v-12zM863 261q0 -115 -56.5 -194t-134.5 -79q-64 0 -99 44.5t-35 125.5q0 121 56.5 204t139.5 83q60 0 94.5 -46t34.5 -126v-12zM722 724l-437 -763
l-38 22l435 764zM426 531q0 -115 -56.5 -194t-134.5 -79q-64 0 -99 44.5t-35 125.5q0 121 56.5 204t139.5 83q60 0 94.5 -46t34.5 -126v-12zM1190 272q0 128 -86 128q-58 0 -98.5 -69t-40.5 -167q0 -129 84 -129q39 0 68 26q32 30 52.5 89.5t20.5 121.5zM814 271
q0 129 -87 129q-57 0 -97.5 -69.5t-40.5 -166.5q0 -129 84 -129q41 0 68 26q32 30 52.5 89.5t20.5 120.5zM377 542q0 128 -86 128q-57 0 -98 -69.5t-41 -166.5q0 -129 84 -129q41 0 68 26q32 30 52.5 89.5t20.5 121.5z" />
    <glyph glyph-name="guilsinglleft" unicode="&#x2039;" horiz-adv-x="224" 
d="M247 471l-17 -77l-101 -72l67 -75l-15 -66l-106 121l12 54z" />
    <glyph glyph-name="guilsinglright" unicode="&#x203a;" horiz-adv-x="224" 
d="M236 350l-12 -54l-160 -115l17 77l102 72l-68 75l15 66z" />
    <glyph glyph-name="Euro" unicode="&#x20ac;" horiz-adv-x="654" 
d="M713 600l-33 -61q-23 41 -46 62q-53 51 -143 51q-127 0 -200 -93q-23 -30 -33.5 -52.5t-23.5 -68.5h395l-29 -53h-376q-7 -27 -9 -60h353l-31 -52h-323q4 -107 62.5 -169.5t155.5 -62.5q57 0 112 22q42 17 91 63l-22 -89q-48 -29 -80 -38q-49 -15 -105 -15
q-127 0 -200.5 75.5t-79.5 212.5h-82l32 54h51q1 19 8 59h-72l30 52h51q34 131 119.5 201t211.5 70q97 0 160 -48q26 -20 56 -60z" />
    <glyph glyph-name="trademark" unicode="&#x2122;" horiz-adv-x="685" 
d="M723 706l-77 -332h-41l68 285l-156 -285h-36l-24 284l-63 -284h-41l77 332h60l23 -276l149 276h61zM399 706l-9 -39h-105l-68 -293h-43l67 293h-108l9 39h257z" />
    </font>
</defs>
</svg>
