<?xml version="1.0" encoding="utf-8"?>
<!-- Generator: Adobe Illustrator 22.1.0, SVG Export Plug-In . SVG Version: 6.00 Build 0)  -->
<svg version="1.1" id="Capa_1" xmlns="http://www.w3.org/2000/svg" xmlns:xlink="http://www.w3.org/1999/xlink" x="0px" y="0px"
	 viewBox="0 0 156 164" style="enable-background:new 0 0 156 164;" xml:space="preserve">
<style type="text/css">
	.st0{fill:#005476;}
	.st1{fill:#FFFFFF;}
	.st2{fill:#FFDA0E;}
	.st3{fill:#FFC100;}
</style>
<circle class="st0" cx="75.6" cy="93.9" r="70.1"/>
<ellipse transform="matrix(0.2422 -0.9702 0.9702 0.2422 -33.8039 144.4325)" class="st1" cx="75.6" cy="93.9" rx="64.3" ry="64.3"/>
<circle class="st2" cx="75.6" cy="93.9" r="60.9"/>
<path class="st3" d="M122.8,55.4c9.6,13.9,13.7,22,13.7,38.5c0,33.6-27.3,60.9-60.9,60.9c-23.8,0-44.5-13.7-54.5-33.6l3.4-5.2
	l39.9-6.3l36.9-49L122.8,55.4z"/>
<g>
	<path class="st2" d="M113.7,128c-1.7,0-3.4-0.7-5.3-2.1l-28.6-20.8c-2-1.5-6.2-1.5-8.2,0l-28.6,20.8c-1.9,1.4-3.7,2.1-5.4,2.1
		c-1.7,0-3.3-0.8-4.3-2.2c-1.3-1.8-1.4-4.2-0.5-7.3l10.9-33.7c0.8-2.5-0.4-6.2-2.5-7.8L12.5,56.3c-4.4-3.2-4.2-6.2-3.7-7.8
		c0.5-1.5,2.1-4.1,7.5-4.1h35.4c2.7,0,5.8-2.3,6.6-4.8L69.3,5.9C71,0.8,73.9,0,75.6,0c1.6,0,4.6,0.8,6.3,5.9l10.9,33.7
		c0.8,2.5,4,4.8,6.6,4.8h35.4c5.4,0,7,2.6,7.5,4.1c0.5,1.5,0.7,4.6-3.7,7.8L110,77.1c-2.2,1.6-3.4,5.3-2.5,7.8l10.9,33.7
		c1,3.1,0.8,5.5-0.5,7.3C117,127.2,115.4,128,113.7,128z M75.6,96c3.3,0,6.4,1,8.8,2.7l25.2,18.3l-9.6-29.6
		c-1.9-5.8,0.5-13.1,5.4-16.7l25.2-18.3H99.4c-6.1,0-12.3-4.5-14.2-10.3l-9.6-29.6L65.9,42c-1.9,5.8-8.1,10.3-14.2,10.3H20.6
		l25.2,18.3c4.9,3.6,7.3,10.9,5.4,16.7l-9.6,29.6l25.2-18.3C69.2,96.9,72.3,96,75.6,96z"/>
	<path class="st1" d="M113,124.9c-1.2,0-2.6-0.5-4.1-1.7l-28.1-20.5c-2.7-1.9-7.7-1.9-10.4,0l-28.1,20.5c-3,2.2-5.5,2.1-6.8,0.4
		c-0.9-1.2-0.9-3-0.2-5.4L46,85.1c1.1-3.3-0.4-7.8-3.2-9.9L14.7,54.8c-3.1-2.3-3.3-4.2-2.9-5.4c0.4-1.2,1.7-2.7,5.5-2.7h34.8
		c3.5,0,7.3-2.8,8.4-6.1L71.3,7.5c1.2-3.7,3-4.4,4.3-4.4c1.3,0,3.1,0.8,4.3,4.4l10.7,33.1c1.1,3.3,4.9,6.1,8.4,6.1h34.8
		c3.8,0,5.1,1.5,5.5,2.7c0.4,1.2,0.2,3.2-2.9,5.4l-28.1,20.5c-2.8,2-4.3,6.6-3.2,9.9l10.7,33.1c0.8,2.4,0.7,4.2-0.2,5.4
		C115,124.5,114.1,124.9,113,124.9z M75.6,97.4c2.8,0,5.5,0.8,7.5,2.3l28.1,20.5c0.5,0.4,0.9,0.6,1.2,0.7c0-0.3-0.1-0.8-0.3-1.4
		l-10.7-33.1c-1.6-4.9,0.4-11.2,4.6-14.2l28.1-20.5c0.5-0.4,0.9-0.7,1.1-0.9c-0.3-0.1-0.8-0.1-1.4-0.1H99c-5.2,0-10.5-3.9-12.1-8.8
		L76.1,8.7c-0.2-0.6-0.4-1-0.6-1.3c-0.2,0.3-0.4,0.7-0.6,1.3L64.2,41.8c-1.6,4.9-6.9,8.8-12.1,8.8H17.3c-0.6,0-1.1,0.1-1.4,0.1
		c0.2,0.2,0.6,0.6,1.1,0.9l28.1,20.5c4.2,3.1,6.2,9.3,4.6,14.2L39,119.4c-0.2,0.6-0.3,1.1-0.3,1.4c0.3-0.1,0.7-0.4,1.2-0.7
		l28.1-20.5C70.1,98.2,72.7,97.4,75.6,97.4z"/>
	<path class="st0" d="M73.1,8.1C74.5,4,76.6,4,78,8.1l10.7,33.1c1.3,4.1,5.9,7.4,10.3,7.4h34.8c4.3,0,5,2.1,1.5,4.6l-28.1,20.5
		c-3.5,2.5-5.2,8-3.9,12l10.7,33.1c1.3,4.1-0.4,5.4-3.9,2.8l-28.1-20.5c-3.5-2.5-9.2-2.5-12.7,0l-28.1,20.5
		c-3.5,2.5-5.2,1.3-3.9-2.8l10.7-33.1c1.3-4.1-0.4-9.5-3.9-12L15.8,53.2c-3.5-2.5-2.8-4.6,1.5-4.6h34.8c4.3,0,8.9-3.3,10.3-7.4
		L73.1,8.1z"/>
</g>
<g>
	<g>
		<path class="st1" d="M24.7,129.7c-2.1,2.6-5.2,2.6-8.3,2.6h-3.6v11.8H3.6v-32.8h14c2.9,0,5.8,0.3,7.5,3c1.1,1.8,1.3,4.2,1.3,8.6
			C26.4,126.6,25.9,128.2,24.7,129.7z M17.5,120c0-1.7-0.6-2.4-2.3-2.4h-2.3v8.4h2.3c2,0,2.3-0.8,2.3-2.6V120z"/>
		<path class="st1" d="M12.8,147.8H3.6c-2,0-3.6-1.6-3.6-3.6v-32.8c0-2,1.6-3.6,3.6-3.6h14c2.5,0,7.7,0,10.6,4.7
			c1.7,2.7,1.8,5.9,1.8,10.5c0,3.7-0.4,6.6-2.5,9.1c-3.2,3.9-7.7,3.9-11.1,3.9v8.2C16.5,146.1,14.8,147.8,12.8,147.8z M7.3,140.5
			h1.9v-8.2c0-1.3,0.7-2.5,1.8-3.1c-1.1-0.6-1.8-1.8-1.8-3.1v-8.4c0-1,0.4-2,1.1-2.6h-3V140.5z M18.9,115c1.4,1,2.2,2.7,2.2,5v3.4
			c0,2.7-0.9,4.3-2.2,5.2c1.5-0.1,2.3-0.4,3-1.2c0.4-0.5,0.8-1,0.8-4.5c0-3-0.1-5.6-0.7-6.6C21.6,115.5,20.9,115.1,18.9,115z"/>
	</g>
	<g>
		<path class="st1" d="M48.1,143c-1.6,0.9-3.9,1.5-7.9,1.5c-3.7,0-8.8-0.6-10.7-4.2c-0.6-1.1-0.8-2.1-0.8-4.6v-24.5h9.2v24.1
			c0,0.7,0,2.6,2.4,2.6c2.4,0,2.3-1.9,2.3-2.6v-24.1h9.2v23.9C51.7,138.6,51.5,141.1,48.1,143z"/>
		<path class="st1" d="M40.2,148.2c-7.1,0-11.8-2.1-14-6.2c-0.9-1.7-1.2-3.3-1.2-6.2v-24.5c0-2,1.6-3.6,3.6-3.6h9.2
			c0.9,0,1.7,0.3,2.3,0.9c0.6-0.5,1.5-0.9,2.3-0.9h9.2c2,0,3.6,1.6,3.6,3.6v23.9c0,3.1,0,7.8-5.4,11
			C47.5,147.6,44.5,148.2,40.2,148.2z M46.1,115v20.5c0,0.8,0,3-1.7,4.6c-0.2,0.2-0.5,0.4-0.8,0.6c1.4-0.2,2.1-0.5,2.6-0.8
			c1.6-0.9,1.8-1.5,1.8-4.6V115H46.1z M32.3,115v20.8c0,2.1,0.2,2.4,0.4,2.8c0.5,1,1.9,1.7,4,2.1c-1.4-1-2.4-2.6-2.4-5.2V115H32.3z"
			/>
	</g>
	<g>
		<path class="st1" d="M69,144.1l-6.3-19.2v19.2h-7.7v-32.8h8.5L70,131l0-19.6h7.7v32.8H69z"/>
		<path class="st1" d="M77.6,147.8H69c-1.3,0-2.5-0.7-3.2-1.8c-0.6,1.1-1.8,1.8-3.2,1.8h-7.7c-2,0-3.6-1.6-3.6-3.6v-32.8
			c0-2,1.6-3.6,3.6-3.6h8.5c1.4,0,2.6,0.8,3.3,2c0.2-0.3,0.4-0.7,0.7-0.9c0.7-0.7,1.6-1.1,2.6-1.1h7.7c2,0,3.6,1.6,3.6,3.6v32.8
			C81.3,146.1,79.7,147.8,77.6,147.8z M71.6,140.5H74V115h-0.4l0,16c0,1.8-1.3,3.3-3.1,3.6c-0.3,0-0.6,0.1-0.9,0L71.6,140.5z
			 M58.6,140.5H59v-15.6c0-1.8,1.3-3.3,3.1-3.6c0.3,0,0.6-0.1,0.8,0l-2.1-6.3h-2.2V140.5z"/>
	</g>
	<g>
		<path class="st1" d="M95.5,117.6v26.5h-9.2v-26.5h-7v-6.3h23.2v6.3H95.5z"/>
		<path class="st1" d="M95.5,147.8h-9.2c-2,0-3.6-1.6-3.6-3.6v-22.9h-3.3c-2,0-3.6-1.6-3.6-3.6v-6.3c0-2,1.6-3.6,3.6-3.6h23.2
			c2,0,3.6,1.6,3.6,3.6v6.3c0,2-1.6,3.6-3.6,3.6h-3.3v22.9C99.2,146.1,97.5,147.8,95.5,147.8z M89.9,140.5h2v-22.9
			c0-1,0.4-2,1.1-2.6h-4.2c0.7,0.7,1.1,1.6,1.1,2.6V140.5z"/>
	</g>
	<g>
		<path class="st1" d="M125,141.7c-2.4,2.3-5.9,2.9-9.1,2.9c-6,0-9.5-1.8-10.9-4.3c-1.1-2-1.2-4.1-1.2-6.3v-12.3
			c0-3.4,0-6.5,3.2-8.7c1.6-1.1,4.1-2.1,8.5-2.1c0.4,0,8.6-0.3,10.9,4.7c0.9,1.9,0.8,3.9,0.8,5.9V134
			C127.2,136.9,127.2,139.6,125,141.7z M117.9,119.5c0-1.1,0-2.4-2.5-2.4c-2.3,0-2.4,1.5-2.4,2.5v16.3c0,0.9,0,2.5,2.4,2.5
			c2.5,0,2.4-1.5,2.4-2.5V119.5z"/>
		<path class="st1" d="M115.9,148.2c-9.2,0-12.7-3.8-14-6.1c-1.6-2.9-1.6-5.9-1.6-8.1v-12.3c0-3.5,0-8.4,4.7-11.7
			c2.6-1.8,6.1-2.7,10.6-2.7l0.3,0c3.2,0,11,0.7,13.9,6.8c1.2,2.5,1.2,5.1,1.2,7.1V134c0,3,0,7.1-3.4,10.3
			C124.8,146.9,120.9,148.2,115.9,148.2z M119.9,115c0.9,0.9,1.6,2.3,1.6,4.5v16.3c0,0.8,0,2.2-0.8,3.6c-0.2,0.3-0.5,0.7-0.9,1.1
			c1-0.3,1.9-0.7,2.6-1.4c1-1,1.2-2.4,1.2-5v-12.8c0-1.6,0-3-0.5-4.1C122.6,116.2,121.4,115.5,119.9,115z M111.2,115
			c-0.8,0.2-1.6,0.5-2.1,0.9c-1.4,1-1.6,2.2-1.6,5.8V134c0,1.9,0,3.4,0.7,4.5c0.4,0.7,1.4,1.4,3,1.9c-1-1-1.7-2.4-1.7-4.5v-16.3
			C109.5,117.4,110.2,116,111.2,115z"/>
	</g>
	<g>
		<path class="st1" d="M150.9,140.5c-1.9,3.4-6.5,4.1-10,4.1c-0.8,0-2.5,0-4.6-0.4c-0.9-0.1-4.4-0.7-6-3.6c-1-1.8-1-3.8-1-5.8v-1.3
			h9v2.2c0,1.5,0.6,2.6,2.3,2.6c0.4,0,0.8-0.1,1.2-0.3c0.7-0.4,0.9-1,0.9-2.4c0-1.7-0.6-2.1-2.7-3.7l-5.8-4.1c-4-2.9-4.3-5-4.3-7.8
			c0-2.3,0.3-3.6,0.8-4.6c1.8-3.9,6.4-4.7,10.2-4.7c0.9,0,5.3,0,8.2,2.5c0.3,0.3,1.2,1.1,1.7,2.3c0.6,1.3,0.7,2.5,0.7,4.6v1.6H143
			v-2.2c0-0.7,0-0.7-0.1-1.1c-0.3-0.9-1.1-1.3-2-1.3c-1.9,0-2,1.5-2,2.1c0,0.5,0.1,0.8,0.4,1.3c0.4,0.7,1.6,1.3,3.1,2.5l4.5,3.4
			c0.8,0.6,1.6,1.3,2.3,1.9c1.5,1.4,2.8,3,2.8,7.2C152,137.1,151.8,139,150.9,140.5z"/>
		<path class="st1" d="M140.9,148.3c-0.8,0-2.8,0-5.2-0.4c-3.8-0.6-6.9-2.5-8.5-5.4c-1.4-2.6-1.4-5.2-1.4-7.6v-1.3
			c0-2,1.6-3.6,3.6-3.6h1.7c-4.3-3.5-4.7-6.7-4.7-9.9c0-2.6,0.4-4.5,1.1-6.1c1.4-3.1,4.9-6.8,13.5-6.8c4.4,0,8,1.2,10.6,3.3
			c0.5,0.5,1.9,1.7,2.7,3.6c0.8,1.9,1,3.7,1,6.1v1.6c0,2-1.6,3.6-3.6,3.6h-0.3c0.1,0.1,0.2,0.1,0.3,0.2c2.2,2,4.1,4.6,4.1,9.9
			c0,1.8-0.2,4.4-1.6,6.8C151.9,146.1,147.2,148.3,140.9,148.3z M133.1,137.2c0.1,0.6,0.2,1.2,0.4,1.7c0.6,1.1,2,1.6,3.1,1.7
			c-0.9-0.8-1.6-2-1.8-3.4H133.1z M137,114.9c-1.5,0.4-2.5,1.1-2.9,2.1c-0.2,0.5-0.5,1.2-0.5,3c0,2,0,2.9,2.8,4.8l5.8,4.1
			c2.3,1.7,4.3,3.1,4.3,6.7c0,0.9,0,3.3-1.9,4.9c1.6-0.4,2.7-1,3.2-1.9c0.5-0.9,0.6-2.3,0.6-3.2c0-3-0.8-3.7-1.7-4.5
			c-0.6-0.5-1.3-1.1-2-1.7l-4.5-3.4c-0.4-0.3-0.8-0.6-1.2-0.9c-1.1-0.8-2.1-1.5-2.8-2.6c-0.6-1-0.9-2-0.9-3.2
			C135.2,117.4,135.9,115.9,137,114.9z M146.5,118h1.3c-0.1-0.5-0.2-0.8-0.3-1.1c-0.2-0.4-0.5-0.8-0.8-1c-0.5-0.4-1.2-0.8-2-1.1
			c0.7,0.6,1.2,1.4,1.5,2.3C146.4,117.6,146.5,117.8,146.5,118z"/>
	</g>
</g>
<g>
	<path class="st0" d="M24.7,129.7c-2.1,2.6-5.2,2.6-8.3,2.6h-3.6v11.8H3.6v-32.8h14c2.9,0,5.8,0.3,7.5,3c1.1,1.8,1.3,4.2,1.3,8.6
		C26.4,126.6,25.9,128.2,24.7,129.7z M17.5,120c0-1.7-0.6-2.4-2.3-2.4h-2.3v8.4h2.3c2,0,2.3-0.8,2.3-2.6V120z"/>
	<path class="st0" d="M48.1,143c-1.6,0.9-3.9,1.5-7.9,1.5c-3.7,0-8.8-0.6-10.7-4.2c-0.6-1.1-0.8-2.1-0.8-4.6v-24.5h9.2v24.1
		c0,0.7,0,2.6,2.4,2.6c2.4,0,2.3-1.9,2.3-2.6v-24.1h9.2v23.9C51.7,138.6,51.5,141.1,48.1,143z"/>
	<path class="st0" d="M69,144.1l-6.3-19.2v19.2h-7.7v-32.8h8.5L70,131l0-19.6h7.7v32.8H69z"/>
	<path class="st0" d="M95.5,117.6v26.5h-9.2v-26.5h-7v-6.3h23.2v6.3H95.5z"/>
	<path class="st0" d="M125,141.7c-2.4,2.3-5.9,2.9-9.1,2.9c-6,0-9.5-1.8-10.9-4.3c-1.1-2-1.2-4.1-1.2-6.3v-12.3c0-3.4,0-6.5,3.2-8.7
		c1.6-1.1,4.1-2.1,8.5-2.1c0.4,0,8.6-0.3,10.9,4.7c0.9,1.9,0.8,3.9,0.8,5.9V134C127.2,136.9,127.2,139.6,125,141.7z M117.9,119.5
		c0-1.1,0-2.4-2.5-2.4c-2.3,0-2.4,1.5-2.4,2.5v16.3c0,0.9,0,2.5,2.4,2.5c2.5,0,2.4-1.5,2.4-2.5V119.5z"/>
	<path class="st0" d="M150.9,140.5c-1.9,3.4-6.5,4.1-10,4.1c-0.8,0-2.5,0-4.6-0.4c-0.9-0.1-4.4-0.7-6-3.6c-1-1.8-1-3.8-1-5.8v-1.3h9
		v2.2c0,1.5,0.6,2.6,2.3,2.6c0.4,0,0.8-0.1,1.2-0.3c0.7-0.4,0.9-1,0.9-2.4c0-1.7-0.6-2.1-2.7-3.7l-5.8-4.1c-4-2.9-4.3-5-4.3-7.8
		c0-2.3,0.3-3.6,0.8-4.6c1.8-3.9,6.4-4.7,10.2-4.7c0.9,0,5.3,0,8.2,2.5c0.3,0.3,1.2,1.1,1.7,2.3c0.6,1.3,0.7,2.5,0.7,4.6v1.6H143
		v-2.2c0-0.7,0-0.7-0.1-1.1c-0.3-0.9-1.1-1.3-2-1.3c-1.9,0-2,1.5-2,2.1c0,0.5,0.1,0.8,0.4,1.3c0.4,0.7,1.6,1.3,3.1,2.5l4.5,3.4
		c0.8,0.6,1.6,1.3,2.3,1.9c1.5,1.4,2.8,3,2.8,7.2C152,137.1,151.8,139,150.9,140.5z"/>
</g>
</svg>
