<?xml version="1.0" encoding="utf-8"?>
<!-- Generator: Adobe Illustrator 22.1.0, SVG Export Plug-In . SVG Version: 6.00 Build 0)  -->
<svg version="1.1" id="Capa_1" xmlns="http://www.w3.org/2000/svg" xmlns:xlink="http://www.w3.org/1999/xlink" x="0px" y="0px"
	 viewBox="0 0 300 300" style="enable-background:new 0 0 300 300;" xml:space="preserve">
<style type="text/css">
	.st0{fill:#FFFFFF;}
	.st1{fill:#005476;}
</style>
<rect class="st0" width="300" height="300"/>
<path class="st1" d="M151.4,12.1c21.2-1.9,44.3,28.7,51.2,39.3c6.9,11.2,3.1,51.8,3.7,51.8c0.6,0,4.4,0,4.4,7.5
	c0,7.5-5.6,33.1-14.4,35.6c0,8.1-1.2,14.4-5,22.5c-3.7,8.1-3.1,45,13.1,52.4c36.2,16.9,77.4,35.6,84.3,42.5
	c8.1,9.4,11.2,36.2,11.2,36.2H0.3c0,0-3.1-21.2,11.2-37.5c6.9-6.2,48.7-26.2,81.8-40.6c20-9.4,14.4-48.7,11.2-54.9
	c-3.1-6.2-3.7-12.5-5-21.2c-0.6-4.4-5.6-2.5-8.1-6.9c-1.9-3.1-8.7-34.3-2.5-34.3c5.6,0,3.7-10.6,3.7-12.5c0-22.5,3.1-46.2,3.1-46.2
	s11.2-16.2,32.5-21.2C142.7,21.4,140.2,19.6,151.4,12.1z"/>
</svg>
