<?xml version="1.0" encoding="utf-8"?>
<!-- Generator: Adobe Illustrator 22.1.0, SVG Export Plug-In . SVG Version: 6.00 Build 0)  -->
<svg version="1.1" id="Capa_1" xmlns="http://www.w3.org/2000/svg" xmlns:xlink="http://www.w3.org/1999/xlink" x="0px" y="0px"
	 viewBox="0 0 48 48" style="enable-background:new 0 0 48 48;" xml:space="preserve">
<style type="text/css">
	.st0{fill:#FFFFFF;}
</style>
<path class="st0" d="M43.8,18.7H21.4c-1.9-3.6-5.7-6-10-6C5.1,12.6,0,17.7,0,24s5.1,11.4,11.4,11.4c4.7,0,8.8-2.9,10.5-7h1.5
	l2.1-1.4l2.3,1.7l2-2.3l1.9,0.9l1.8-1.6l2.7,1.7l1.7-1.2l2.1,0.7l1.9-1.2l1.8,1.1L48,23L43.8,18.7z M6.4,26.9
	c-1.6,0-2.9-1.3-2.9-2.9s1.3-2.9,2.9-2.9s2.9,1.3,2.9,2.9S7.9,26.9,6.4,26.9z"/>
</svg>
