<?xml version="1.0" encoding="utf-8"?>
<!-- Generator: Adobe Illustrator 22.1.0, SVG Export Plug-In . SVG Version: 6.00 Build 0)  -->
<svg version="1.1" id="Capa_1" xmlns="http://www.w3.org/2000/svg" xmlns:xlink="http://www.w3.org/1999/xlink" x="0px" y="0px"
	 viewBox="0 0 48 48" style="enable-background:new 0 0 48 48;" xml:space="preserve">
<style type="text/css">
	.st0{fill:#FFFFFF;}
</style>
<g>
	<path class="st0" d="M9.2,46.6c0.5,0.3,1.1,0.4,1.6,0l12.4-8.4c0.5-0.3,1.1-0.3,1.6,0l12.4,8.4c0.5,0.3,1.1,0.3,1.6,0
		c0.5-0.3,0.7-1,0.5-1.5l-4.1-14.4c-0.2-0.5,0-1.1,0.5-1.5L47.5,20c0.5-0.4,0.6-1,0.5-1.5c-0.2-0.6-0.7-0.9-1.3-1l-15-0.5
		c-0.6,0-1.1-0.4-1.3-0.9L25.3,2c-0.2-0.5-0.7-0.9-1.3-0.9l0,0c-0.6,0-1.1,0.4-1.3,0.9l-5.1,14.1c-0.2,0.5-0.7,0.9-1.3,0.9l-15,0.5
		c-0.6,0-1.1,0.4-1.3,1c-0.2,0.6,0,1.2,0.5,1.5l11.8,9.2c0.4,0.4,0.6,0.9,0.5,1.5L8.7,45.1C8.5,45.7,8.7,46.3,9.2,46.6z"/>
</g>
</svg>
