<?xml version="1.0" encoding="utf-8"?>
<!-- Generator: Adobe Illustrator 22.1.0, SVG Export Plug-In . SVG Version: 6.00 Build 0)  -->
<svg version="1.1" id="Capa_1" xmlns="http://www.w3.org/2000/svg" xmlns:xlink="http://www.w3.org/1999/xlink" x="0px" y="0px"
	 viewBox="0 0 48 48" style="enable-background:new 0 0 48 48;" xml:space="preserve">
<style type="text/css">
	.st0{fill:#0C689C;}
</style>
<path class="st0" d="M30,21.8c-0.5-1-1.3-2-1.3-2.1c-0.1-0.1-1.1-1.4-1.1-3.4s-0.2-5.5-0.4-7.7c-0.2-2.3-0.4-4.5-0.4-4.5
	c0,0,0-0.1-0.1-0.2c-0.1,0,0.4-0.2,0.4-0.3C27,3.4,27,3,26.9,2.7c-0.1-0.3-0.2-1.2-0.2-1.2c0.1,0,0.3,0,0.4,0c0,0,0.1-0.5-0.1-0.9
	C26.7,0.1,26.2,0,25.7,0c-0.4,0-1.3,0-1.5,0c0,0,0,0,0,0c-0.2,0-1,0-1.5,0c-0.5,0-0.9,0.1-1.2,0.6c-0.2,0.4-0.1,0.9-0.1,0.9
	c0,0,0.3,0,0.4,0c0,0-0.1,0.9-0.2,1.2c-0.1,0.3-0.2,0.7-0.2,0.8c0,0.2,0.5,0.3,0.4,0.3c-0.1,0-0.1,0.2-0.1,0.2c0,0-0.2,2.3-0.4,4.5
	c-0.2,2.3-0.4,5.7-0.4,7.7s-1,3.3-1.1,3.4c-0.1,0.1-0.9,1.1-1.3,2.1c-0.5,1-0.4,2.5-0.4,2.5s0.2,16.2,0.2,16.8c0,0.7,0,1.3-0.1,2.3
	c-0.1,2.3,0.2,3.4,0.9,3.8c1.3,0.9,4.8,0.7,5.1,0.7c0.3,0,3.8,0.1,5.1-0.7c0.7-0.4,0.9-1.6,0.9-3.8c0-1-0.1-1.6-0.1-2.3
	c0-0.7,0.2-16.8,0.2-16.8S30.5,22.8,30,21.8z"/>
</svg>
