<?xml version="1.0" encoding="utf-8"?>
<!-- Generator: Adobe Illustrator 22.1.0, SVG Export Plug-In . SVG Version: 6.00 Build 0)  -->
<svg version="1.1" id="Capa_1" xmlns="http://www.w3.org/2000/svg" xmlns:xlink="http://www.w3.org/1999/xlink" x="0px" y="0px"
	 viewBox="0 0 48 48" style="enable-background:new 0 0 48 48;" xml:space="preserve">
<style type="text/css">
	.st0{fill:#FFFFFF;}
</style>
<path class="st0" d="M24.2,0.9c3.4-0.3,7.1,4.6,8.2,6.3c1.1,1.8,0.5,8.3,0.6,8.3s0.7,0,0.7,1.2c0,1.2-0.9,5.3-2.3,5.7
	c0,1.3-0.2,2.3-0.8,3.6s-0.5,7.2,2.1,8.4c5.8,2.7,12.4,5.7,13.5,6.8c1.3,1.5,1.8,5.8,1.8,5.8H0c0,0-0.5-3.4,1.8-6
	c1.1-1,7.8-4.2,13.1-6.5c3.2-1.5,2.3-7.8,1.8-8.8c-0.5-1-0.6-2-0.8-3.4c-0.1-0.7-0.9-0.4-1.3-1.1c-0.3-0.5-1.4-5.5-0.4-5.5
	c0.9,0,0.6-1.7,0.6-2c0-3.6,0.5-7.4,0.5-7.4s1.8-2.6,5.2-3.4C22.8,2.4,22.4,2.1,24.2,0.9z"/>
</svg>
