<?xml version="1.0" standalone="no"?>
<!DOCTYPE svg PUBLIC "-//W3C//DTD SVG 1.1//EN" "http://www.w3.org/Graphics/SVG/1.1/DTD/svg11.dtd" >
<svg xmlns="http://www.w3.org/2000/svg" xmlns:xlink="http://www.w3.org/1999/xlink" version="1.1">
<metadata></metadata>
<defs>
<font id="astoriaw00-boldregular" horiz-adv-x="1038" >
<font-face units-per-em="2048" ascent="1638" descent="-410" />
<missing-glyph horiz-adv-x="405" />
<glyph horiz-adv-x="0" />
<glyph horiz-adv-x="682" />
<glyph unicode=" "  horiz-adv-x="405" />
<glyph unicode="&#x09;" horiz-adv-x="405" />
<glyph unicode="&#xa0;" horiz-adv-x="405" />
<glyph unicode="!" horiz-adv-x="663" d="M162 1232h340l-46 -874h-250zM178 131q0 62 44.5 106.5t108.5 44.5q62 0 106.5 -44.5t44.5 -106.5q0 -64 -44.5 -109t-106.5 -45q-64 0 -108.5 45t-44.5 109z" />
<glyph unicode="&#x22;" horiz-adv-x="908" d="M126 1111q0 59 43 101t100 42q94 0 134 -83q18 -38 18 -95q0 -72 -31 -145q-57 -123 -184 -186l-56 79q100 52 116 152h-12q-127 0 -128 135zM488 1111q0 59 42.5 101t99.5 42q94 0 135 -83q17 -38 17 -95q0 -72 -32 -145q-57 -123 -183 -186l-56 79q100 52 116 152h-12 q-127 0 -127 135z" />
<glyph unicode="#" horiz-adv-x="1137" d="M14 304l43 202h183l39 186h-184l43 201h183l63 302h224l-64 -302h173l63 302h224l-61 -302h181l-43 -201h-181l-41 -186h183l-42 -202h-183l-63 -304h-224l63 304h-172l-65 -304h-222l63 304h-183zM464 506h172l40 186h-174z" />
<glyph unicode="$" horiz-adv-x="908" d="M74 879q0 250 269 317v153h235v-142q131 -18 204 -74v-245q-116 105 -276 105q-145 0 -145 -99q0 -37 34 -68q28 -26 111 -74q65 -36 176 -100q153 -101 153 -280q0 -122 -69 -207.5t-188 -118.5v-182h-235v166q-166 16 -255 78v267q49 -54 140 -96t174 -42 q149 0 149 119q0 51 -62 98q-26 22 -107 65q-51 29 -142 81q-166 104 -166 279z" />
<glyph unicode="%" horiz-adv-x="1531" d="M40 886q0 166 86 267t227 101q139 0 225 -101t86 -267q0 -164 -86.5 -265.5t-224.5 -101.5q-141 0 -227 101.5t-86 265.5zM243 886q0 -97 30 -154.5t80 -57.5q49 0 79 57.5t30 154.5q0 99 -30 156t-79 57t-79.5 -57t-30.5 -156zM314 0l706 1233h202l-706 -1233h-202z M872 347q0 166 85 267t226 101q140 0 226.5 -101t86.5 -267q0 -164 -86.5 -265.5t-226.5 -101.5q-141 0 -226 101.5t-85 265.5zM1074 347q0 -98 29.5 -154.5t79.5 -56.5q49 0 79.5 56.5t30.5 154.5t-30 155.5t-80 57.5t-79.5 -57.5t-29.5 -155.5z" />
<glyph unicode="&#x26;" horiz-adv-x="1255" d="M47 353q0 216 232 336q-88 121 -89 244q0 162 113 252q99 77 245 77q144 0 237 -66q111 -77 111 -228q0 -176 -230 -304l223 -249q32 74 32 166q0 74 -19 148h262q11 -72 11 -139q0 -213 -118 -361l204 -229h-357l-62 72q-141 -91 -365 -92q-166 0 -282 77 q-148 99 -148 296zM359 386q0 -82 53 -135.5t134 -55.5h14h5q65 0 122 27l-270 303q-58 -55 -58 -139zM462 958q0 -64 72 -146q113 61 113 156q0 39 -23.5 70t-65.5 31t-69 -31t-27 -80z" />
<glyph unicode="'" horiz-adv-x="477" d="M91 1111q0 59 42.5 101t100.5 42q94 0 134 -83q18 -38 18 -95q0 -72 -32 -145q-56 -123 -183 -186l-57 79q101 52 116 152h-12q-126 0 -127 135z" />
<glyph unicode="(" horiz-adv-x="521" d="M25 634q0 234 95 453q91 213 246 353h212q-256 -343 -256 -806q0 -464 256 -807h-212q-154 141 -247.5 357t-93.5 450z" />
<glyph unicode=")" horiz-adv-x="521" d="M-65 -173q255 343 255 807q0 463 -255 806h213q155 -141 247 -353q93 -219 93 -453t-92.5 -450t-247.5 -357h-213z" />
<glyph unicode="*" horiz-adv-x="739" d="M74 881l146 62l-146 61l94 167q79 -63 135 -111q-9 32 -32 172h196q-12 -101 -25 -172q23 22 129 111l95 -167q-94 -39 -159 -61q28 -10 159 -62l-95 -168q-79 64 -129 111q5 -32 25 -170h-196q14 100 32 170q-25 -22 -135 -111z" />
<glyph unicode="+" horiz-adv-x="978" d="M39 356v200h339v353h222v-353h341v-200h-341v-356h-222v356h-339z" />
<glyph unicode="," horiz-adv-x="492" d="M91 131q0 62 45 105.5t106 43.5q99 0 140 -86q20 -44 20 -99q0 -73 -39 -149q-60 -116 -194 -141l-51 94q99 22 118 92h-7h-4q-134 0 -134 140z" />
<glyph unicode="-" horiz-adv-x="637" d="M74 444v236h489v-236h-489z" />
<glyph unicode="." horiz-adv-x="487" d="M91 129q0 64 45 108.5t107 44.5q64 0 108.5 -44.5t44.5 -108.5q0 -62 -45 -107t-108 -45q-62 0 -107 45t-45 107z" />
<glyph unicode="/" horiz-adv-x="529" d="M-54 -39l466 1307h199l-467 -1307h-198z" />
<glyph unicode="0" horiz-adv-x="1130" d="M39 615q0 289 145 466.5t381 177.5t381.5 -177.5t145.5 -466.5t-145 -467t-382 -178q-236 0 -381 178t-145 467zM359 615q0 -187 54 -295t152 -108q99 0 152 108t53 295t-53 296t-152 109t-152.5 -109t-53.5 -296z" />
<glyph unicode="1" horiz-adv-x="734" d="M47 884v217l398 131h145v-1232h-306v958z" />
<glyph unicode="2" horiz-adv-x="915" d="M22 0v118q274 269 390 479q76 136 76 241q0 83 -49 131t-135 48q-146 0 -264 -123l-18 240q139 123 373 123q197 0 306 -104.5t109 -291.5q0 -148 -81 -296t-265 -341h378v-224h-820z" />
<glyph unicode="3" horiz-adv-x="889" d="M30 54l19 245q120 -95 270 -94q84 0 134.5 44.5t50.5 116.5q0 164 -238 164h-76v213h97q199 0 199 148q0 138 -165 138q-118 0 -240 -85l-27 226q134 87 349 87q157 0 261 -74q125 -87 125 -255q0 -116 -65 -197q-45 -57 -107 -81q198 -69 198 -289q0 -146 -111 -257 q-129 -131 -351 -131q-210 0 -323 81z" />
<glyph unicode="4" horiz-adv-x="931" d="M-14 317v184l495 731h292v-701h146v-214h-146v-317h-306v317h-481zM273 526h209v312z" />
<glyph unicode="5" horiz-adv-x="904" d="M65 47l24 245q94 -77 221 -77q97 0 153 51t56 132q0 91 -77 141q-64 41 -153 41q-95 0 -178 -24l33 676h633v-222h-367l-10 -193h28q177 0 291 -98q121 -105 121 -300q0 -190 -137.5 -315.5t-339.5 -125.5q-173 0 -298 69z" />
<glyph unicode="6" horiz-adv-x="987" d="M57 482q0 325 207 545q185 193 446 235l112 -203q-173 -30 -283.5 -125.5t-143.5 -237.5q72 65 200 65q146 0 245 -90q109 -102 109 -278q0 -188 -135 -309q-123 -109 -296 -109q-205 0 -326 126q-136 139 -135 381zM372 439q0 -242 144 -242q132 0 132 166 q0 168 -135 167q-71 0 -141 -63v-28z" />
<glyph unicode="7" horiz-adv-x="792" d="M12 1010v222h786v-160l-445 -1123q-157 42 -282 83l391 978h-450zM12 1010v222h786v-160l-445 -1123q-157 42 -282 83l391 978h-450zM12 1010v222h786v-160l-445 -1123q-157 42 -282 83l391 978h-450z" />
<glyph unicode="8" horiz-adv-x="1019" d="M65 347q0 116 64 197q58 74 151 101q-68 21 -122 83q-63 75 -63 183q0 155 122 253q116 94 294 93q176 0 292 -93q121 -98 121 -253q0 -108 -63 -183q-51 -62 -121 -83q93 -27 151 -101q64 -81 64 -197q0 -145 -99 -248q-120 -125 -345 -126q-225 0 -348 126 q-99 104 -98 248zM372 351q0 -72 40 -118t102 -46t101.5 46t39.5 118t-39.5 117.5t-101.5 45.5t-102 -45.5t-40 -117.5zM382 896q0 -65 36 -106.5t91 -41.5q54 0 89.5 41.5t35.5 106.5q0 67 -35.5 109t-89.5 42t-90.5 -42t-36.5 -109z" />
<glyph unicode="9" horiz-adv-x="956" d="M15 861q0 178 138 292q129 106 299 106q199 0 323.5 -123.5t124.5 -358.5q0 -340 -190 -559q-180 -204 -470 -245l-108 200q205 32 320 144q106 104 122 256q-72 -66 -208 -66q-144 0 -241 88q-110 97 -110 266zM314 889q0 -160 133 -160q71 0 140 62q1 18 1 35 q0 222 -132 222q-71 0 -109 -51q-34 -44 -33 -108z" />
<glyph unicode=":" horiz-adv-x="415" d="M51 131q0 62 45 106.5t107 44.5q64 0 108.5 -44.5t44.5 -106.5q0 -64 -45 -109t-108 -45q-62 0 -107 45t-45 109zM51 553q0 62 45 106.5t107 44.5q64 0 108.5 -44.5t44.5 -106.5q0 -64 -45 -108.5t-108 -44.5q-62 0 -107 44.5t-45 108.5z" />
<glyph unicode=";" horiz-adv-x="420" d="M51 131q0 62 45 105.5t107 43.5q97 0 138 -86q20 -44 20 -99q0 -73 -39 -149q-60 -116 -193 -141l-52 94q101 22 118 92h-7h-3q-134 0 -134 140zM51 553q0 62 45 106.5t107 44.5q64 0 108.5 -44.5t44.5 -106.5q0 -64 -45 -108.5t-108 -44.5q-62 0 -107 44.5t-45 108.5z " />
<glyph unicode="&#x3c;" horiz-adv-x="922" d="M39 386v118l845 371v-176l-588 -254l588 -253v-178z" />
<glyph unicode="=" horiz-adv-x="980" d="M39 190v201h904v-201h-904zM39 519v202h904v-202h-904z" />
<glyph unicode="&#x3e;" horiz-adv-x="922" d="M39 14v178l588 253l-588 254v176l845 -371v-118z" />
<glyph unicode="?" horiz-adv-x="688" d="M40 1150q123 102 313 102q156 0 247.5 -84t91.5 -219q0 -116 -56 -213q-22 -39 -117 -155q-47 -56 -61 -87q-20 -40 -19 -94q0 -20 1 -44h-246q-9 49 -9 93q0 153 111 273q88 96 88 174q0 57 -36.5 90.5t-95.5 33.5q-95 0 -188 -83zM175 129q0 64 44.5 108.5t108.5 44.5 q63 0 107 -44.5t44 -108.5t-44 -108t-107 -44q-64 0 -108.5 44t-44.5 108z" />
<glyph unicode="@" horiz-adv-x="1308" d="M39 553q0 57 8 114q37 244 226 409q195 169 458 169q254 0 403 -156q136 -145 136 -356q0 -171 -83 -303q-99 -153 -261 -157h-7h-3q-136 0 -160 113q-65 -102 -212 -102q-107 0 -167.5 72t-60.5 183q0 32 5 65q26 185 161 284q105 75 214 75q89 0 136 -44l29 39h150 l-97 -433q-5 -27 -5 -44q0 -51 44 -51q42 0 82 46q53 60 73 181q7 46 7 88q0 160 -92 255q-100 109 -294 109q-234 0 -380 -172q-137 -161 -137 -398q0 -178 99 -285q113 -122 330 -122q179 0 314 55l35 -141q-150 -62 -354 -61q-284 0 -446 165q-151 154 -151 403zM511 551 q0 -107 89 -107q110 0 140 123l47 201q-25 34 -81 34q-141 0 -185 -173q-10 -42 -10 -78z" />
<glyph unicode="A" horiz-adv-x="1276" d="M-25 0l492 1232h328l506 -1232h-345l-102 264h-477l-95 -264h-307zM452 472h323l-138 356q-15 44 -26 103h-3q-7 -45 -27 -103z" />
<glyph unicode="B" horiz-adv-x="1174" d="M22 1192v40h645q196 0 298 -105q86 -86 87 -218q0 -83 -41 -147.5t-105 -94.5q230 -64 230 -306q0 -141 -107 -247q-120 -114 -314 -114h-577v939q0 215 -116 253zM462 199h153q114 0 165 68q34 44 34 106t-34 108q-51 67 -165 67h-153v-349zM462 731h125q91 0 134 58 q27 41 27 93q0 53 -27 94q-41 58 -131 58h-3h-125v-303z" />
<glyph unicode="C" horiz-adv-x="1223" d="M42 615q0 294 207 474q197 172 501 172h4q242 0 384 -98v-263q-136 122 -336 122q-182 0 -302 -113t-120 -294q0 -180 120 -293.5t302 -113.5q200 0 336 121v-260q-143 -101 -384 -101q-306 0 -505 175q-207 178 -207 472z" />
<glyph unicode="D" horiz-adv-x="1345" d="M22 1192v40h660q296 0 466 -188q156 -170 156 -427q0 -258 -156 -429q-173 -188 -466 -188h-544v939q0 215 -116 253zM456 232h125q201 0 300 122q82 101 82 263q0 166 -82 265q-99 123 -300 123h-125v-773z" />
<glyph unicode="E" d="M22 1192v40h908v-222h-474v-277h458v-217h-458v-294h488v-222h-806v939q0 215 -116 253z" />
<glyph unicode="F" horiz-adv-x="968" d="M22 1192v40h882v-221h-448v-278h432v-217h-432v-516h-318v939q0 215 -116 253z" />
<glyph unicode="G" horiz-adv-x="1309" d="M42 615q0 291 208 472q200 175 501 175h3q293 0 426 -92v-263q-134 116 -373 116q-182 0 -304.5 -113.5t-122.5 -294.5q0 -180 120 -293.5t302 -113.5q60 0 119 10v207h-188v214h494v-568q-188 -103 -473 -103q-315 0 -507 163q-205 173 -205 484z" />
<glyph unicode="H" horiz-adv-x="1406" d="M25 1192v40h435v-496h498v496h319v-1232h-319v513h-498v-513h-319v939q0 215 -116 253z" />
<glyph unicode="I" horiz-adv-x="582" d="M22 1195v37h434v-1232h-318v939q0 215 -116 256z" />
<glyph unicode="J" horiz-adv-x="706" d="M22 166q35 -10 80 -11q55 0 86 14q74 32 74 164v606q0 215 -116 256v37h434v-860q0 -131 -22 -206q-25 -83 -88 -144q-97 -99 -290 -99q-66 0 -126 13z" />
<glyph unicode="K" horiz-adv-x="1290" d="M22 1192v40h434v-526l433 526h351l-477 -552l538 -680h-405l-440 574v-574h-318v939q0 215 -116 253z" />
<glyph unicode="L" horiz-adv-x="934" d="M22 1192v40h434v-1010h475v-222h-793v939q0 215 -116 253z" />
<glyph unicode="M" horiz-adv-x="1612" d="M22 1192v40h413l387 -524l383 524h282v-1232h-307v748l-323 -449l-96 2l-317 440v-741h-306v939q0 215 -116 253z" />
<glyph unicode="N" horiz-adv-x="1452" d="M22 1192v40h397l608 -723l-2 723h301v-1232h-252l-635 756v-756h-301v939q0 215 -116 253z" />
<glyph unicode="O" horiz-adv-x="1491" d="M42 615q0 282 198.5 464.5t504.5 182.5q311 0 508 -180t197 -467q0 -261 -171 -442q-195 -207 -538 -207q-304 0 -501.5 183.5t-197.5 465.5zM382 615q0 -173 102.5 -287.5t260.5 -114.5q161 0 262 113t101 289t-100.5 289t-262.5 113t-262.5 -113t-100.5 -289z" />
<glyph unicode="P" horiz-adv-x="1128" d="M22 1192v40h625q198 0 320.5 -105t122.5 -280q0 -173 -122.5 -278t-320.5 -105h-191v-464h-318v939q0 215 -116 253zM456 676h125q86 0 135 44.5t49 123.5t-49 123t-135 44h-125v-335z" />
<glyph unicode="Q" horiz-adv-x="1491" d="M42 615q0 282 198.5 464.5t504.5 182.5q311 0 508 -180t197 -467q0 -195 -108 -346q-119 -163 -340 -220q224 -57 440 -64l-32 -244q-848 101 -1143 368q-225 205 -225 506zM382 615q0 -173 102.5 -287.5t260.5 -114.5q161 0 262 113t101 289t-100.5 289t-262.5 113 t-262.5 -113t-100.5 -289z" />
<glyph unicode="R" horiz-adv-x="1216" d="M22 1192v40h610q187 0 299.5 -98.5t112.5 -264.5q0 -90 -50 -167.5t-135 -113.5q64 -42 176 -225l43 -69l171 -294h-340l-148 255q-95 164 -155 215q-40 34 -95 34h-55v-504h-318v939q0 215 -116 253zM456 701h94q80 0 126 42t46 116q0 76 -46 118.5t-126 42.5h-94v-319z " />
<glyph unicode="S" horiz-adv-x="975" d="M76 902q0 17 1 33q11 160 150 248q125 79 314 79q211 0 328 -86v-265q-131 116 -309 116q-162 0 -162 -97q0 -79 160 -169q71 -39 192 -109q171 -108 171 -305q0 -185 -144 -285q-127 -90 -319 -90q-233 0 -367 90v289q54 -60 153 -104t193 -44q167 0 167 125 q0 80 -155 163q-123 67 -188 106q-185 111 -185 305z" />
<glyph unicode="T" horiz-adv-x="1003" d="M-28 1010v222h1060v-222h-375v-1010h-319v1010h-366z" />
<glyph unicode="U" horiz-adv-x="1400" d="M17 1192v40h435v-741q0 -111 55 -183q67 -90 201 -90q118 0 187.5 71.5t69.5 201.5v741h312v-733q0 -254 -150.5 -390.5t-420.5 -136.5q-269 0 -420.5 136.5t-151.5 390.5v440q0 215 -117 253z" />
<glyph unicode="V" horiz-adv-x="1361" d="M-58 1192v40h436l309 -817q16 -43 26 -101h4q7 44 26 103v-2l286 817h325l-500 -1232h-310l-398 939q-51 118 -82 164q-49 68 -122 89z" />
<glyph unicode="W" horiz-adv-x="2094" d="M-58 1192v40h449l219 -723q10 -33 26 -102h3q7 45 27 102l285 723h256l277 -723q16 -42 27 -102h3q7 45 27 102l225 723h321l-445 -1232h-277l-308 775l-305 -775h-287l-326 937q-40 113 -75 164q-48 69 -122 91z" />
<glyph unicode="X" horiz-adv-x="1351" d="M-20 0l496 669l-199 268q-94 127 -131 164q-69 70 -146 91v40h452l235 -328l229 328h351l-418 -556l487 -676h-385l-301 425l-303 -425h-367z" />
<glyph unicode="Y" horiz-adv-x="1292" d="M-58 1192v40h430l294 -447l282 447h338l-490 -706v-526h-317v518l-284 419q-89 135 -119 169q-62 69 -134 86z" />
<glyph unicode="Z" horiz-adv-x="1067" d="M15 0v120l548 890h-529v222h966v-117l-546 -891h563v-224h-1002z" />
<glyph unicode="[" horiz-adv-x="558" d="M109 -199v1633h429v-185h-163v-1264h163v-185z" />
<glyph unicode="\" horiz-adv-x="556" d="M-54 1268h198l467 -1307h-199z" />
<glyph unicode="]" horiz-adv-x="558" d="M22 -15h161v1264h-161v185h427v-1633l-427 -1v185z" />
<glyph unicode="^" horiz-adv-x="1056" d="M91 563l351 669h168l355 -669h-207l-232 434l-234 -434h-201z" />
<glyph unicode="_" horiz-adv-x="899" d="M0 -123h900v-122h-900v122z" />
<glyph unicode="`" horiz-adv-x="588" d="M91 1238h270l136 -297h-166z" />
<glyph unicode="a" horiz-adv-x="906" d="M30 225q0 155 153 240q131 73 328 78v37q0 96 -119 96h-2q-155 0 -295 -107v227q148 92 365 92q157 0 237 -62q108 -80 108 -280v-319q0 -51 39 -51h3q29 0 57 19v-160q-83 -57 -196 -57q-125 0 -162 93q-37 -44 -111 -71q-62 -22 -119 -22q-118 0 -195 52 q-91 64 -91 195zM317 266q0 -86 88 -86q77 0 106 54v161q-194 -2 -194 -129z" />
<glyph unicode="b" horiz-adv-x="1012" d="M-23 1192v40h405v-399q98 56 214 56h4q152 0 254 -91q129 -117 129 -351q0 -232 -164 -361q-138 -109 -326 -109q-245 0 -405 99v868q0 103 -14 150q-23 81 -97 98zM382 624l2 -421q45 -17 105 -18q86 0 140 55q67 69 67 193q0 110 -48 174t-129 64q-82 0 -137 -47z" />
<glyph unicode="c" horiz-adv-x="829" d="M163 758q140 131 362 131h3q151 0 245 -61v-231q-82 74 -206 74q-99 0 -164 -64t-65 -174q0 -109 65.5 -173.5t163.5 -64.5q123 0 206 74v-230q-94 -62 -245 -62q-224 0 -365 131q-133 125 -133 322q0 202 133 328z" />
<glyph unicode="d" horiz-adv-x="1035" d="M30 432q0 203 143 338q125 116 316 116q99 0 163 -42v100q0 103 -15 148q-23 81 -96 100v40h405v-961q0 -183 34 -271h-304q-5 28 -12 76q-91 -99 -236 -99q-174 0 -271 95q-127 127 -127 360zM336 425q0 -101 37 -164q46 -76 140 -76q92 0 139 70v369q-46 43 -129 43 t-135 -66.5t-52 -173.5v-2z" />
<glyph unicode="e" horiz-adv-x="983" d="M30 433q0 214 138 338q132 118 346 118q205 0 314 -121t109 -335q0 -31 -4 -61h-593q26 -160 179 -180q36 -4 69 -4q148 0 277 86l41 -190q-143 -107 -392 -107q-213 0 -345 118q-139 125 -139 338zM335 531h317q-9 177 -151 177t-166 -177z" />
<glyph unicode="f" horiz-adv-x="596" d="M3 657v210h110q0 199 127 301q94 74 244 74q99 0 153 -37v-208q-38 28 -106 28q-123 0 -123 -136v-22h184v-210h-184v-657h-295v657h-110z" />
<glyph unicode="g" horiz-adv-x="959" d="M-5 -125q0 74 47 134q57 72 163 93q-101 25 -101 101q0 39 37 72t86 41q-160 65 -160 247q0 136 111 220t276 84h479v-210h-66q-64 0 -87 5q76 -40 76 -146q0 -210 -300 -254q-114 -15 -144 -21.5t-30 -32.5q0 -27 31.5 -31t243.5 -27q136 -14 209 -77.5t73 -158.5 q0 -158 -169 -245q-134 -67 -306 -67q-231 0 -350 73t-119 200zM277 -116q0 -97 187 -97q87 0 139 26.5t52 70.5t-52 70t-139 26q-187 0 -187 -96zM345 551q0 -60 31.5 -97t85.5 -37t86 37t32 97t-32 97t-86 37q-53 0 -85 -37t-32 -97z" />
<glyph unicode="h" horiz-adv-x="1024" d="M-23 1192v40h407v-462q84 116 255 116q294 0 294 -340v-546h-296v546q0 65 -33 99q-26 26 -71 26h-3q-96 0 -146 -95v-576h-296v944q0 103 -14 148q-23 81 -97 100z" />
<glyph unicode="i" horiz-adv-x="508" d="M12 828v39h405v-867h-294v580q0 102 -14 148q-23 82 -97 100zM102 1097q0 64 45 109.5t110 45.5q64 0 109.5 -45.5t45.5 -109.5q0 -65 -45.5 -110.5t-109.5 -45.5q-65 0 -110 45.5t-45 110.5z" />
<glyph unicode="j" horiz-adv-x="524" d="M-49 -215q107 10 148 71q30 45 30 141v583q0 102 -13 148q-25 80 -96 100v39h405v-860q0 -365 -330 -410zM108 1097q0 64 45.5 109.5t110.5 45.5q64 0 109.5 -45.5t45.5 -109.5q0 -65 -45.5 -110.5t-109.5 -45.5q-65 0 -110.5 45.5t-45.5 110.5z" />
<glyph unicode="k" horiz-adv-x="995" d="M-23 1192v40h405v-674l265 309h348l-350 -379l373 -490h-370l-266 390v-390h-294v946q0 103 -14 148q-23 81 -97 100z" />
<glyph unicode="l" horiz-adv-x="473" d="M-23 1192v40h405v-1234h-294v946q0 103 -14 150q-25 81 -97 98z" />
<glyph unicode="m" horiz-adv-x="1579" d="M12 828v39h378l10 -115q81 136 257 136q200 0 264 -155q88 155 271 155q296 0 297 -340v-548h-297v550q0 65 -28 94t-75 29q-86 0 -136 -93v-32v-548h-296v550q0 65 -28.5 94t-75.5 29q-84 0 -134 -92v-581h-296v580q0 102 -14 148q-23 80 -97 100z" />
<glyph unicode="n" horiz-adv-x="1061" d="M12 828v39h378l10 -126q81 148 274 148q296 0 296 -339v-550h-296v544q0 64 -33 97q-27 26 -74 26q-97 0 -150 -96v-571h-296v580q0 102 -12 148q-25 80 -97 100z" />
<glyph unicode="o" d="M30 433q0 205 139 333q138 123 350 123q215 0 351 -121q140 -126 140 -335q0 -191 -126 -319q-136 -137 -368 -137q-212 0 -349 126t-137 330zM336 433q0 -100 51.5 -165t131.5 -65q81 0 132.5 65t51.5 165q0 103 -51.5 167t-132.5 64q-80 0 -131.5 -64t-51.5 -167z" />
<glyph unicode="p" horiz-adv-x="1047" d="M12 828v39h378l5 -71q105 93 257 93h3q147 0 249 -109q114 -125 114 -347q0 -188 -112 -319q-118 -137 -306 -137q-100 0 -183 38v-397h-296v962q0 102 -12 148q-23 80 -97 100zM417 217q53 -23 106 -23q97 0 146 73q42 64 42 166q0 234 -167 234q-63 0 -127 -45v-405z " />
<glyph unicode="q" horiz-adv-x="1047" d="M39 415q0 215 146 356q125 117 312 117q131 0 209 -80l15 59h235v-1249h-296v433q-93 -74 -223 -74q-173 0 -274 94q-124 117 -124 344zM345 428q0 -243 173 -243h1q89 2 141 64v366q-49 54 -126 54q-84 0 -136.5 -65t-52.5 -176z" />
<glyph unicode="r" horiz-adv-x="771" d="M12 828v39h378l8 -101q71 120 210 120h3q103 0 166 -58l-58 -220q-49 42 -126 42q-87 0 -133 -63q-42 -57 -43 -150v-437h-296v580q0 102 -12 148q-23 80 -97 100z" />
<glyph unicode="s" horiz-adv-x="737" d="M42 610q0 25 4 50q19 111 125 175q97 54 229 54q174 0 257 -54v-225q-94 65 -212 68h-6h-6q-102 0 -102 -56q0 -34 97 -72q67 -27 141 -61q127 -60 127 -215q0 -144 -115 -225q-100 -72 -252 -72q-178 0 -280 67v257q129 -107 265 -107q94 0 94 63v2v2q0 42 -92 79 q-53 19 -148 62q-125 67 -126 208z" />
<glyph unicode="t" horiz-adv-x="714" d="M3 657v86l411 379v-255h252v-210h-252v-343q0 -94 79 -106q20 -2 38 -2q85 0 154 49v-213q-93 -59 -247 -59h-5q-147 0 -231 77.5t-84 219.5l2 377h-117z" />
<glyph unicode="u" horiz-adv-x="1059" d="M12 828v39h407v-541q0 -64 33 -97q26 -26 71 -26h3q98 0 148 96v568h296v-596q0 -183 34 -271h-305l-8 97q-113 -114 -279 -114q-289 0 -289 341v256q0 102 -14 148q-23 80 -97 100z" />
<glyph unicode="v" horiz-adv-x="950" d="M-58 828v39h384l151 -442q25 -72 32 -141q4 52 32 143l133 440h300l-319 -867h-301l-234 580q-92 227 -178 248z" />
<glyph unicode="w" horiz-adv-x="1464" d="M-58 828v39h384l113 -428q28 -104 31 -145q6 67 32 146l141 427h246l128 -428q26 -86 31 -147q6 48 33 148l119 427h289l-307 -867h-280l-120 378q-27 81 -34 150q-3 -60 -31 -151l-115 -377h-274l-208 580q-80 223 -178 248z" />
<glyph unicode="x" horiz-adv-x="998" d="M-40 828v39h413l143 -212l132 212h335l-303 -411l324 -456h-365l-162 242l-158 -242h-353l333 456l-89 124q-166 228 -250 248z" />
<glyph unicode="y" horiz-adv-x="1017" d="M-58 830v37h393l147 -373q25 -61 49 -156q20 81 50 156l141 373h310l-521 -1245h-328l187 418l-244 540q-100 227 -184 250z" />
<glyph unicode="z" horiz-adv-x="810" d="M22 0v101l331 556h-318v210h726v-102l-328 -553h347v-212h-758z" />
<glyph unicode="{" horiz-adv-x="591" d="M17 536v158q78 0 114 32q28 23 40 76q7 31 7 91q0 33 -3.5 112.5t-3.5 121.5v7q-2 184 121 261q67 42 159 45q13 2 28 2q59 0 118 -15v-182q-23 5 -47 5q-61 0 -88 -38q-23 -32 -23 -111q0 -34 2.5 -100t2.5 -99q0 -254 -141 -287q141 -34 141 -287q0 -34 -2.5 -100 t-2.5 -99q0 -86 27.5 -118.5t83.5 -32.5q24 0 47 8v-183q-60 -15 -118 -16q-14 0 -28 1q-92 4 -159 46q-123 77 -121 261v7q0 42 3.5 121.5t3.5 112.5q0 60 -7 92q-12 53 -40 76q-36 32 -114 32z" />
<glyph unicode="|" horiz-adv-x="360" d="M65 -22v1345h231v-1345h-231z" />
<glyph unicode="}" horiz-adv-x="591" d="M-5 -14q23 -7 47 -8q60 0 89 39q23 32 22 112q0 34 -2.5 99.5t-2.5 99.5q0 253 141 287q-141 33 -141 287q0 34 2.5 99.5t2.5 99.5q0 86 -28 117.5t-83 31.5q-25 0 -47 -5v182q60 15 118 15q13 0 28 -2q91 -3 158 -45q123 -77 122 -261v-7q0 -42 -3.5 -121.5t-3.5 -112.5 q0 -61 7 -91q12 -53 39 -76q37 -32 114 -32v-158q-77 0 -114 -32q-27 -23 -39 -76q-7 -32 -7 -92q0 -33 3.5 -112.5t3.5 -121.5v-7q1 -183 -122 -261q-67 -42 -158 -46q-14 -1 -28 -1q-59 0 -118 16v183z" />
<glyph unicode="~" horiz-adv-x="864" d="M91 481q0 250 213 250q76 0 212 -57q23 -8 42 -8q46 0 46 47q0 9 -2 18h169q2 -28 2 -55q0 -250 -213 -249q-76 0 -211 55q-23 9 -43 9q-45 0 -45 -47q0 -9 1 -17h-167q-3 28 -4 54z" />
<glyph unicode="&#xa1;" horiz-adv-x="663" d="M162 -345l46 875h250l44 -875h-340zM181 758q0 63 45 107t109 44q61 0 106 -44t45 -107q0 -64 -45 -109t-106 -45q-64 0 -109 45t-45 109z" />
<glyph unicode="&#xa2;" horiz-adv-x="830" d="M30 432q0 198 133 326q90 84 212 112v172h235v-160q99 -12 165 -56v-231q-84 74 -208 74q-99 0 -164 -64t-65 -173q0 -110 65.5 -174t163.5 -64q123 0 208 73v-230q-67 -44 -165 -57v-151h-235v164q-121 29 -212 113q-134 126 -133 326z" />
<glyph unicode="&#xa3;" horiz-adv-x="1030" d="M54 0v143q88 30 144.5 114t56.5 199q0 20 -1 43h-192v216h153q-15 81 -16 162q0 146 112 256q129 121 339 121q199 0 303 -83l-37 -223q-106 82 -208 82q-86 0 -141.5 -48.5t-55.5 -134.5q0 -52 19 -132h317v-216h-285q-2 -170 -102 -277h496v-222h-902z" />
<glyph unicode="&#xa4;" horiz-adv-x="1197" d="M-14 386v167h145q-2 35 -2 69v6v6h-143v168h164q54 218 228.5 339t424.5 121q207 0 338 -82l-82 -210q-91 53 -210 53q-271 0 -365 -221h508l-64 -168h-477q0 -2 -2 -7v-5q0 -32 5 -69h442l-64 -167h-319q105 -168 336 -168q125 0 223 53v-246q-111 -46 -269 -47 q-232 0 -401.5 107t-235.5 301h-180z" />
<glyph unicode="&#xa5;" horiz-adv-x="1301" d="M22 1232h369l271 -406l279 406h340l-338 -447h216v-179h-352v-97h352v-180h-352v-329h-313v329h-344v180h344v97h-344v179h209z" />
<glyph unicode="&#xa6;" horiz-adv-x="358" d="M74 -22v498h212v-498h-212zM74 824v497h212v-497h-212z" />
<glyph unicode="&#xa7;" horiz-adv-x="874" d="M91 548v5v10q2 81 57 141q46 48 106 64q-127 67 -128 212q0 141 123 216q95 59 216 58q162 0 246 -64v-216q-94 88 -218 88q-115 0 -115 -84q0 -62 87 -94q64 -25 153 -60q166 -76 165 -220v-5v-11q-1 -82 -55 -144q-48 -53 -108 -69q129 -67 128 -212q0 -142 -118 -215 q-95 -61 -227 -61q-167 0 -252 64v218q96 -89 224 -90q121 0 122 87q0 60 -87 93q-63 25 -153 60q-166 76 -166 229zM317 581q0 -62 97 -97q13 -5 56 -19q86 17 88 88v5v4q0 60 -96 95q-14 5 -57 21q-84 -18 -86 -88l-2 -7v-2z" />
<glyph unicode="&#xa8;" horiz-adv-x="20192" />
<glyph unicode="&#xa9;" horiz-adv-x="1405" d="M52 615q0 266 190.5 454t460.5 188q269 0 459.5 -188t190.5 -454q0 -268 -190.5 -456.5t-459.5 -188.5q-270 0 -460.5 188.5t-190.5 456.5zM188 615q0 -219 150.5 -373t364.5 -154q213 0 363.5 154t150.5 373q0 217 -150.5 371t-363.5 154q-214 0 -364.5 -154 t-150.5 -371zM328 625q0 175 119 279q115 102 293 101q141 0 223 -59v-155q-79 72 -195 72q-106 0 -175.5 -66t-69.5 -172q0 -107 69.5 -173t175.5 -66q116 0 195 72v-155q-82 -59 -223 -58q-178 0 -293 100q-119 106 -119 280z" />
<glyph unicode="&#xaa;" horiz-adv-x="619" d="M3 766q0 113 110 175q93 52 236 56v26q0 73 -90 73q-108 0 -208 -79v163q107 69 259 69q252 0 252 -251v-230q0 -39 28 -39q24 0 44 14v-116q-59 -40 -143 -40q-91 0 -118 67q-52 -67 -161 -67q-209 0 -209 179zM215 795q0 -62 62 -62q51 0 72 40v116h-4 q-53 0 -91.5 -25.5t-38.5 -68.5z" />
<glyph unicode="&#xab;" horiz-adv-x="1007" d="M39 414l248 414h256l-224 -414l224 -414h-256zM430 414l250 414h253l-223 -414l223 -414h-253z" />
<glyph unicode="&#xac;" horiz-adv-x="983" d="M39 507v208h907v-560h-227v352h-680z" />
<glyph unicode="&#xad;" horiz-adv-x="978" d="M39 356v200h902v-200h-902z" />
<glyph unicode="&#xae;" horiz-adv-x="1405" d="M52 617q0 265 190.5 453.5t460.5 188.5q269 0 459.5 -188.5t190.5 -453.5q0 -268 -190.5 -456.5t-459.5 -188.5q-270 0 -460.5 188.5t-190.5 456.5zM188 617q0 -219 150.5 -373.5t364.5 -154.5q213 0 363.5 154.5t150.5 373.5q0 216 -150.5 370t-363.5 154 q-214 0 -364.5 -154t-150.5 -370zM402 965v23h331q105 0 169.5 -58t64.5 -157q0 -125 -113 -165q46 -32 90 -134q54 -121 78 -215h-182q-21 70 -55 151q-40 97 -70 128q-22 19 -53 18h-15v-297h-178v555q0 129 -67 151zM647 674h44q98 0 98 94q0 95 -98 95h-44v-189z" />
<glyph unicode="&#xaf;" horiz-adv-x="660" d="M91 997v161h478v-161h-478z" />
<glyph unicode="&#xb0;" horiz-adv-x="679" d="M39 968q0 122 85.5 205t215.5 83q129 0 215 -83t86 -205q0 -123 -86 -204.5t-215 -81.5q-131 0 -216 81.5t-85 204.5zM212 968q0 -60 37 -98t91 -38q52 0 89.5 38t37.5 98q0 59 -37 97.5t-90 38.5q-54 0 -91 -38.5t-37 -97.5z" />
<glyph unicode="&#xb1;" horiz-adv-x="978" d="M39 0v203h902v-203h-902zM39 560v201h339v352h222v-352h341v-201h-341v-276h-222v276h-339z" />
<glyph unicode="&#xb2;" horiz-adv-x="529" d="M9 526v80q160 153 227 268q42 74 43 131q0 91 -99 92l-5 2h-2q-79 0 -151 -82l-13 156q87 76 221 76q117 0 182 -57q70 -62 70 -175q0 -148 -191 -346h210v-145h-492z" />
<glyph unicode="&#xb3;" horiz-adv-x="494" d="M9 558l14 164q69 -63 153 -63q44 0 71 22.5t27 58.5q0 82 -126 82h-46v138h49q115 0 115 70q0 71 -90 71q-65 0 -134 -54l-19 145q78 54 204 55q94 0 155 -44q76 -51 76 -149q0 -106 -88 -156q104 -46 104 -160q0 -83 -64 -148q-75 -79 -213 -79q-118 0 -188 47z" />
<glyph unicode="&#xb4;" horiz-adv-x="20192" />
<glyph unicode="&#xb5;" horiz-adv-x="1121" d="M30 828v39h407v-543q0 -63 33 -99q27 -26 74 -26q98 0 150 99v569h296v-596q0 -183 32 -271h-305l-9 94q-88 -111 -224 -111q-35 0 -67 8l15 -285h-291v875q0 103 -15 148q-23 79 -96 99z" />
<glyph unicode="&#xb6;" horiz-adv-x="860" d="M-14 845q0 168 104.5 277.5t267.5 109.5h429v-1309h-188v1136h-130v-1136h-189v546q-132 25 -213 127.5t-81 248.5z" />
<glyph unicode="&#xb7;" horiz-adv-x="443" d="M69 624q0 63 44.5 108t108.5 45t108.5 -45t44.5 -108q0 -64 -44.5 -109t-108.5 -45t-108.5 45t-44.5 109z" />
<glyph unicode="&#xb8;" horiz-adv-x="494" d="M91 -178q41 -30 90 -30q57 0 56 40q0 36 -49 36q-21 0 -40 -9l-25 25l57 126h136l-37 -75q124 -7 124 -113q0 -74 -63 -113q-51 -33 -130 -33q-69 0 -119 25v121z" />
<glyph unicode="&#xb9;" horiz-adv-x="395" d="M9 1015v140l238 77h93v-707h-196v532z" />
<glyph unicode="&#xba;" horiz-adv-x="691" d="M-10 914q0 150 100 241.5t255 91.5q156 0 257 -90.5t101 -242.5q0 -139 -92 -232q-98 -99 -268 -99q-153 0 -253 91.5t-100 239.5zM218 914q0 -70 35.5 -115t91.5 -45q57 0 93 45t36 115q0 72 -36 117t-93 45t-92 -45t-35 -117z" />
<glyph unicode="&#xbb;" horiz-adv-x="1007" d="M74 0l222 414l-222 414h254l250 -414l-250 -414h-254zM465 0l224 414l-224 414h256l247 -414l-247 -414h-256z" />
<glyph unicode="&#xbc;" horiz-adv-x="1190" d="M9 1017v141l238 75h93v-707h-196v533zM101 -2l711 1234h203l-712 -1234h-202zM606 178v108l288 420h190v-389h86v-139h-86v-180h-191v180h-287zM778 308h128v132q0 34 3 59q-9 -23 -25 -47q-74 -105 -81 -112q-14 -20 -25 -32z" />
<glyph unicode="&#xbd;" horiz-adv-x="1264" d="M9 1015v140l238 77h93v-707h-196v532zM102 0l710 1232h203l-711 -1232h-202zM743 0v79q162 153 227 268q42 74 43 132q0 89 -99 92h-3h-4q-79 0 -149 -83l-15 159q88 75 222 75q116 0 184 -59t68 -174q0 -148 -192 -346h210v-143h-492z" />
<glyph unicode="&#xbe;" horiz-adv-x="1225" d="M9 558l14 164q69 -63 153 -63q44 0 71 22.5t27 58.5q0 82 -126 82h-46v138h49q115 0 115 70q0 71 -90 71q-65 0 -134 -54l-19 145q78 54 204 55q94 0 155 -44q76 -51 76 -149q0 -106 -88 -156q104 -46 104 -160q0 -83 -64 -148q-75 -79 -213 -79q-118 0 -188 47zM158 0 l711 1232h202l-708 -1232h-205zM641 178v108l289 420h188v-389h87v-139h-87v-180h-190v180h-287zM814 308h127v132q0 34 3 59q-8 -23 -25 -47q-74 -105 -81 -112q-13 -20 -24 -32z" />
<glyph unicode="&#xbf;" horiz-adv-x="760" d="M28 -64q0 116 56 214q22 37 116 153q48 58 62 88q20 39 20 95q0 20 -2 42h246q9 -49 10 -93q0 -151 -111 -272q-88 -97 -89 -173q0 -59 36 -91.5t97 -32.5q95 0 188 82l23 -214q-123 -102 -312 -102q-156 0 -248 84.5t-92 219.5zM242 756q0 64 43.5 108.5t107.5 44.5 t108.5 -44.5t44.5 -108.5t-45 -108t-108 -44q-64 0 -107.5 44t-43.5 108z" />
<glyph unicode="&#xc0;" horiz-adv-x="1308" d="M-9 0l491 1232h328l508 -1232h-346l-102 264h-477l-95 -264h-307zM304 1608h283l144 -314h-176zM469 472h322l-137 356q-16 44 -27 103h-3q-7 -45 -27 -103z" />
<glyph unicode="&#xc1;" horiz-adv-x="1290" d="M-17 0l491 1232h328l507 -1232h-346l-102 264h-477l-95 -264h-306zM460 472h322l-137 356q-15 44 -27 103h-3q-7 -45 -27 -103zM553 1294l143 314h284l-252 -314h-175z" />
<glyph unicode="&#xc2;" horiz-adv-x="1290" d="M-17 0l491 1232h328l507 -1232h-346l-102 264h-477l-95 -264h-306zM356 1304l211 291h141l218 -291h-178l-112 116l-108 -116h-172zM460 472h322l-137 356q-15 44 -27 103h-3q-7 -45 -27 -103z" />
<glyph unicode="&#xc3;" horiz-adv-x="1308" d="M-9 0l491 1232h328l508 -1232h-346l-102 264h-477l-95 -264h-307zM366 1367q0 208 177 208q62 0 174 -46q20 -9 35 -9q37 0 37 41v14h137q4 -23 4 -46q0 -206 -176 -206q-63 0 -176 45q-17 9 -34 10q-38 0 -38 -42q0 -6 1 -13h-139q-2 23 -2 44zM469 472h322l-137 356 q-16 44 -27 103h-3q-7 -45 -27 -103z" />
<glyph unicode="&#xc4;" horiz-adv-x="1276" d="M-22 0l492 1232h328l507 -1232h-345l-103 264h-477l-94 -264h-308zM322 1447q0 51 37 88.5t90 37.5q51 0 88 -37.5t37 -88.5q0 -52 -36.5 -89t-88.5 -37q-53 0 -90 37t-37 89zM456 472h322l-137 356q-16 44 -26 103h-4q-6 -45 -26 -103zM691 1447q0 51 37 88.5t89 37.5 t89 -37.5t37 -88.5q0 -52 -36.5 -89t-89.5 -37q-52 0 -89 37t-37 89z" />
<glyph unicode="&#xc5;" horiz-adv-x="1276" d="M-25 2l492 1231h328l506 -1231h-345l-102 264h-477l-95 -264h-307zM451 1459q0 74 53.5 125t131.5 51q77 0 130.5 -51t53.5 -125t-53.5 -125.5t-130.5 -51.5q-78 0 -131.5 51.5t-53.5 125.5zM452 474h323l-138 356q-15 42 -26 101h-3q-7 -43 -27 -101zM578 1459 q0 -25 16.5 -43.5t41.5 -18.5q24 0 41 18.5t17 43.5t-17 43t-41 18q-25 0 -41.5 -18.5t-16.5 -42.5z" />
<glyph unicode="&#xc6;" horiz-adv-x="1660" d="M-35 -2l727 1234h859v-222h-448v-277h433v-217h-433v-294h463v-222h-783v274h-334l-150 -274zM562 482h221v242q1 102 10 202l-4 2q-19 -59 -92 -194z" />
<glyph unicode="&#xc7;" horiz-adv-x="1223" d="M42 620q0 294 207 472q196 170 505 169q242 0 384 -98v-263q-136 122 -336 122q-184 0 -303 -111t-119 -291t119 -291.5t303 -111.5q200 0 336 121v-261q-129 -89 -338 -99l-34 -69q123 -7 123 -114q0 -74 -61 -112q-52 -34 -131 -34q-70 0 -119 25v123q40 -32 91 -31 q54 0 55 40q0 36 -50 36q-20 0 -38 -10l-26 25l56 126q-275 26 -446 192q-178 174 -178 445z" />
<glyph unicode="&#xc8;" d="M25 1192v40h908v-222h-473v-277h458v-217h-458v-294h488v-222h-807v939q0 215 -116 253zM210 1608h283l143 -314h-174z" />
<glyph unicode="&#xc9;" d="M25 1192v40h908v-222h-473v-277h458v-217h-458v-294h488v-222h-807v939q0 215 -116 253zM227 1608h284l143 -314h-175z" />
<glyph unicode="&#xca;" d="M25 1192v40h908v-222h-473v-277h458v-217h-458v-294h488v-222h-807v939q0 215 -116 253zM232 1304l212 291h143l216 -291h-178l-111 116l-107 -116h-175z" />
<glyph unicode="&#xcb;" d="M25 1192v40h908v-222h-473v-277h458v-217h-458v-294h488v-222h-807v939q0 215 -116 253zM200 1447q0 51 37 88.5t91 37.5q50 0 87 -37.5t37 -88.5q0 -52 -37 -89t-87 -37q-53 0 -90.5 37t-37.5 89zM569 1447q0 51 37 88.5t90 37.5q52 0 89 -37.5t37 -88.5q0 -52 -37 -89 t-89 -37q-53 0 -90 37t-37 89z" />
<glyph unicode="&#xcc;" horiz-adv-x="667" d="M22 1608h282l143 -314h-174zM109 1195v37h435v-1232h-319v939q0 215 -116 256z" />
<glyph unicode="&#xcd;" horiz-adv-x="719" d="M25 1195v37h435v-1232h-319v939q0 215 -116 256zM168 1294l143 314h282l-250 -314h-175z" />
<glyph unicode="&#xce;" horiz-adv-x="718" d="M46 1304l211 291h143l217 -291h-177l-112 116l-108 -116h-174zM89 1195v37h436v-1232h-319v939q0 215 -117 256z" />
<glyph unicode="&#xcf;" horiz-adv-x="767" d="M22 1447q0 51 36.5 88.5t89.5 37.5q51 0 88 -37.5t37 -88.5q0 -52 -37 -89t-88 -37q-53 0 -89.5 37t-36.5 89zM97 1195v37h434v-1232h-318v939q0 215 -116 256zM390 1447q0 51 37 88.5t89 37.5t88.5 -37.5t36.5 -88.5q0 -52 -36 -89t-89 -37q-52 0 -89 37t-37 89z" />
<glyph unicode="&#xd0;" horiz-adv-x="1400" d="M65 507v189h130v243q0 213 -116 253l-2 40h661q297 0 469 -190q154 -168 154 -427q0 -257 -154 -427q-172 -186 -469 -186l-543 -2v507h-130zM513 230h124q201 0 302 123q81 100 81 264q0 163 -81 265q-101 123 -302 123h-124v-309h243v-189h-243v-277z" />
<glyph unicode="&#xd1;" horiz-adv-x="1452" d="M25 1192v40h398l607 -723l-1 723h301v-1232h-252l-636 756v-756h-301v939q0 215 -116 253zM396 1367q0 208 177 208q63 0 175 -46q17 -9 34 -9q38 0 38 41q0 5 -1 14h139q2 -23 2 -46q0 -206 -177 -206q-61 0 -173 45q-20 9 -36 10q-36 0 -36 -42q0 -6 1 -13h-139 q-4 23 -4 44z" />
<glyph unicode="&#xd2;" horiz-adv-x="1491" d="M42 615q0 282 198.5 464.5t504.5 182.5q311 0 508 -180t197 -467q0 -261 -171 -442q-195 -207 -538 -207q-304 0 -501.5 183.5t-197.5 465.5zM382 615q0 -173 102.5 -287.5t260.5 -114.5q161 0 262 113t101 289t-100.5 289t-262.5 113t-262.5 -113t-100.5 -289zM400 1608 h284l142 -314h-174z" />
<glyph unicode="&#xd3;" horiz-adv-x="1491" d="M42 615q0 282 198.5 464.5t504.5 182.5q311 0 508 -180t197 -467q0 -261 -171 -442q-195 -207 -538 -207q-304 0 -501.5 183.5t-197.5 465.5zM382 615q0 -173 102.5 -287.5t260.5 -114.5q161 0 262 113t101 289t-100.5 289t-262.5 113t-262.5 -113t-100.5 -289zM660 1294 l143 314h284l-252 -314h-175z" />
<glyph unicode="&#xd4;" horiz-adv-x="1491" d="M42 615q0 282 198.5 464.5t504.5 182.5q311 0 508 -180t197 -467q0 -261 -171 -442q-195 -207 -538 -207q-304 0 -501.5 183.5t-197.5 465.5zM382 615q0 -173 102.5 -287.5t260.5 -114.5q161 0 262 113t101 289t-100.5 289t-262.5 113t-262.5 -113t-100.5 -289zM456 1304 l211 291h141l219 -291h-178l-113 116l-106 -116h-174z" />
<glyph unicode="&#xd5;" horiz-adv-x="1491" d="M42 615q0 282 198.5 464.5t504.5 182.5q311 0 508 -180t197 -467q0 -261 -171 -442q-195 -207 -538 -207q-304 0 -501.5 183.5t-197.5 465.5zM382 615q0 -173 102.5 -287.5t260.5 -114.5q161 0 262 113t101 289t-100.5 289t-262.5 113t-262.5 -113t-100.5 -289zM447 1349 q0 208 177 208q63 0 176 -46q17 -9 35 -9q37 0 37 41q0 5 -2 14h140q1 -23 1 -46q0 -206 -174 -206q-64 0 -177 46q-17 9 -35 9q-37 0 -37 -41q0 -7 2 -14h-139q-4 24 -4 44z" />
<glyph unicode="&#xd6;" horiz-adv-x="1491" d="M46 615q0 282 198 464.5t504 182.5q312 0 508.5 -180t196.5 -467q0 -261 -171 -442q-195 -207 -537 -207q-305 0 -502 183.5t-197 465.5zM386 615q0 -173 102 -287.5t260 -114.5q162 0 262.5 113t100.5 289t-100 289t-263 113q-161 0 -261.5 -113t-100.5 -289zM437 1447 q0 51 37 88.5t89 37.5q51 0 88.5 -37.5t37.5 -88.5q0 -52 -37 -89t-89 -37t-89 37t-37 89zM805 1447q0 51 37 88.5t89 37.5q51 0 88.5 -37.5t37.5 -88.5q0 -52 -37 -89t-89 -37t-89 37t-37 89z" />
<glyph unicode="&#xd7;" horiz-adv-x="1098" d="M74 134l319 322l-319 322l151 161l325 -326l324 326l151 -161l-321 -322l321 -322l-151 -161l-324 326l-325 -326z" />
<glyph unicode="&#xd8;" horiz-adv-x="1491" d="M42 617q0 282 198.5 464.5t504.5 182.5q188 0 344 -69l93 114l154 -117l-86 -105q200 -181 200 -470q0 -261 -171 -442q-195 -207 -538 -207q-185 0 -338 72l-107 -131l-155 116l101 123q-199 185 -200 469zM382 617q0 -125 57 -224l473 585q-75 40 -167 40 q-160 0 -261.5 -112.5t-101.5 -288.5zM578 255q77 -40 167 -40q161 0 262.5 112.5t101.5 289.5q0 129 -55 225z" />
<glyph unicode="&#xd9;" horiz-adv-x="1400" d="M17 1192v40h434v-741q0 -111 55 -183q67 -90 202 -90q118 0 187.5 71.5t69.5 201.5v741h312v-733q0 -254 -150.5 -390.5t-420.5 -136.5q-271 0 -421.5 136.5t-150.5 390.5v440q0 215 -117 253zM372 1608h283l143 -314h-174z" />
<glyph unicode="&#xda;" horiz-adv-x="1400" d="M17 1192v40h435v-741q0 -111 55 -183q67 -90 201 -90q118 0 187.5 71.5t69.5 201.5v741h312v-733q0 -254 -150.5 -390.5t-420.5 -136.5q-269 0 -420.5 136.5t-151.5 390.5v440q0 215 -117 253zM587 1294l142 314h284l-252 -314h-174z" />
<glyph unicode="&#xdb;" horiz-adv-x="1400" d="M17 1192v40h435v-741q0 -111 55 -183q67 -90 201 -90q118 0 187.5 71.5t69.5 201.5v741h312v-733q0 -254 -150.5 -390.5t-420.5 -136.5q-269 0 -420.5 136.5t-151.5 390.5v440q0 215 -117 253zM419 1304l210 291h142l217 -291h-176l-113 116l-107 -116h-173z" />
<glyph unicode="&#xdc;" horiz-adv-x="1400" d="M22 1192v40h434v-741q0 -111 55 -183q67 -90 200 -90q118 0 187.5 71.5t69.5 201.5v741h313v-733q0 -254 -150.5 -390.5t-420.5 -136.5t-421 136.5t-151 390.5v440q0 215 -116 253zM384 1447q0 51 37 88.5t88 37.5q53 0 90 -37.5t37 -88.5q0 -52 -37 -89t-90 -37 q-51 0 -88 37t-37 89zM752 1447q0 51 37 88.5t90 37.5q51 0 88 -37.5t37 -88.5q0 -52 -37 -89t-88 -37q-53 0 -90 37t-37 89z" />
<glyph unicode="&#xdd;" horiz-adv-x="1313" d="M-89 1192v40h429l294 -447l282 447h338l-489 -706v-526h-318v518l-284 419q-89 135 -119 169q-62 69 -133 86zM509 1294l145 314h281l-250 -314h-176z" />
<glyph unicode="&#xde;" horiz-adv-x="1198" d="M83 1195v37h435v1v-186h190q200 0 322 -105t122 -280q0 -173 -121.5 -278t-322.5 -105h-190v-279h-319v939q0 215 -116 256zM518 491h125q86 0 134.5 44.5t48.5 123.5t-48.5 123t-134.5 44h-125v-335z" />
<glyph unicode="&#xdf;" horiz-adv-x="1065" d="M101 0v889q0 168 133 266q121 89 304 90q184 0 299 -77q131 -88 130 -256q0 -181 -137 -238q197 -72 197 -304q0 -166 -111 -275.5t-277 -109.5q-94 0 -165 20v208q39 -13 81 -14q75 0 120.5 47.5t45.5 128.5q0 88 -52 135.5t-160 47.5q-17 0 -35 -2v209h23 q83 0 121.5 34t38.5 101q0 64 -34.5 100.5t-91.5 36.5q-135 0 -135 -160v-877h-295z" />
<glyph unicode="&#xe0;" horiz-adv-x="906" d="M30 225q0 155 153 240q131 73 328 78v37q0 97 -121 96q-155 0 -295 -107v227q148 92 365 92q157 0 237 -62q108 -80 108 -280v-319q0 -51 39 -51q31 -1 60 19v-160q-83 -57 -196 -57q-125 0 -162 93q-37 -44 -111 -71q-62 -22 -119 -22q-118 0 -195 52q-91 64 -91 195z M129 1238h269l136 -297h-166zM317 266q0 -86 88 -86q77 0 106 54v161q-194 -2 -194 -129z" />
<glyph unicode="&#xe1;" horiz-adv-x="906" d="M30 225q0 155 153 240q131 73 328 78v37q0 97 -121 96q-155 0 -295 -107v227q148 92 365 92q157 0 237 -62q108 -80 108 -280v-319q0 -51 39 -51q31 -1 60 19v-160q-83 -57 -196 -57q-125 0 -162 93q-37 -44 -111 -71q-62 -22 -119 -22q-118 0 -195 52q-91 64 -91 195z M317 266q0 -86 88 -86q77 0 106 54v161q-194 -2 -194 -129zM359 941l138 297h268l-239 -297h-167z" />
<glyph unicode="&#xe2;" horiz-adv-x="906" d="M30 225q0 155 153 240q131 73 328 78v37q0 97 -121 96q-155 0 -295 -107v227q148 92 365 92q157 0 237 -62q108 -80 108 -280v-319q0 -51 39 -51q31 -1 60 19v-160q-83 -57 -196 -57q-125 0 -162 93q-37 -44 -111 -71q-62 -22 -119 -22q-118 0 -195 52q-91 64 -91 195z M181 948l201 278h136l206 -278h-169l-106 112l-102 -112h-166zM317 266q0 -86 88 -86q77 0 106 54v161q-194 -2 -194 -129z" />
<glyph unicode="&#xe3;" horiz-adv-x="906" d="M30 225q0 155 153 240q131 73 328 78v37q0 97 -121 96q-155 0 -295 -107v227q148 92 365 92q157 0 237 -62q108 -80 108 -280v-319q0 -51 39 -51q31 -1 60 19v-160q-83 -57 -196 -57q-125 0 -162 93q-37 -44 -111 -71q-62 -22 -119 -22q-118 0 -195 52q-91 64 -91 195z M171 1010q0 193 158 197h9h3q57 0 165 -44q17 -7 32 -8q35 0 35 37v15h131q2 -21 2 -43q0 -193 -158 -197h-9h-3q-57 0 -163 44q-17 7 -33 7q-36 0 -36 -37v-14h-131q-2 23 -2 43zM317 266q0 -86 88 -86q77 0 106 54v161q-194 -2 -194 -129z" />
<glyph unicode="&#xe4;" horiz-adv-x="906" d="M30 225q0 155 153 240q131 73 328 78v37q0 97 -121 96q-155 0 -295 -107v227q148 92 365 92q157 0 237 -62q108 -80 108 -280v-319q0 -51 39 -51q31 -1 60 19v-160q-83 -57 -196 -57q-125 0 -162 93q-37 -44 -111 -71q-62 -22 -119 -22q-118 0 -195 52q-91 64 -91 195z M151 1085q0 51 34.5 85.5t85.5 34.5q49 0 84.5 -34.5t35.5 -85.5q0 -49 -35 -84.5t-85 -35.5q-51 0 -85.5 35t-34.5 85zM317 266q0 -86 88 -86q77 0 106 54v161q-194 -2 -194 -129zM501 1085q0 51 35 85.5t84 34.5q51 0 85.5 -34.5t34.5 -85.5q0 -49 -34.5 -84.5 t-85.5 -35.5q-49 0 -84 35t-35 85z" />
<glyph unicode="&#xe5;" horiz-adv-x="906" d="M30 225q0 155 153 240q131 73 328 78v37q0 97 -121 96q-155 0 -295 -107v227q148 92 365 92q157 0 237 -62q108 -80 108 -280v-319q0 -51 39 -51q31 -1 60 19v-160q-83 -57 -196 -57q-125 0 -162 93q-37 -44 -111 -71q-62 -22 -119 -22q-118 0 -195 52q-91 64 -91 195z M264 1096q0 70 51 118t125 48q73 0 124 -48t51 -118q0 -69 -51 -118.5t-124 -49.5q-74 0 -125 49.5t-51 118.5zM317 266q0 -86 88 -86q77 0 106 54v161q-194 -2 -194 -129zM386 1096q0 -57 54 -57t54 57q0 58 -54 57q-54 0 -54 -57z" />
<glyph unicode="&#xe6;" horiz-adv-x="1440" d="M30 229q0 155 150 241q126 71 324 78v35q0 99 -124 99q-146 0 -285 -109v227q148 94 357 93q168 0 242 -79q106 77 276 77q205 0 314 -122t109 -336q0 -31 -3 -61h-595q8 -73 57.5 -121t121.5 -59q36 -4 70 -4q146 0 275 86l41 -190q-143 -107 -390 -107q-237 0 -352 134 q-121 -129 -302 -128q-118 0 -195 51q-91 63 -91 195zM319 269q0 -84 86 -84q77 0 111 69q-14 44 -14 116q0 14 2 28h-3q-74 0 -128 -35t-54 -94zM789 531h317q-12 177 -151 177q-138 0 -166 -177z" />
<glyph unicode="&#xe7;" horiz-adv-x="830" d="M30 432q0 198 133 324q141 132 365 132q151 0 247 -62v-231q-84 74 -208 74q-99 0 -164 -64t-65 -173q0 -110 65.5 -174t163.5 -64q123 0 208 73v-230q-86 -57 -224 -62l-28 -58q123 -8 124 -112q0 -74 -62 -115q-53 -31 -131 -31q-70 0 -118 24v122q41 -30 91 -30 q54 0 54 38q0 37 -48 37q-21 0 -40 -10l-25 24l51 119q-150 25 -256 123q-134 126 -133 326z" />
<glyph unicode="&#xe8;" horiz-adv-x="983" d="M30 433q0 214 138 338q132 118 346 118q205 0 314 -121t109 -335q0 -31 -4 -61h-593q26 -160 179 -180q36 -4 69 -4q148 0 277 86l41 -190q-143 -107 -392 -107q-213 0 -345 118q-139 125 -139 338zM171 1238h269l136 -297h-166zM335 531h317q-9 177 -151 177t-166 -177z " />
<glyph unicode="&#xe9;" horiz-adv-x="983" d="M30 433q0 214 138 338q132 118 346 118q205 0 314 -121t109 -335q0 -31 -4 -61h-593q26 -160 179 -180q36 -4 69 -4q148 0 277 86l41 -190q-143 -107 -392 -107q-213 0 -345 118q-139 125 -139 338zM335 531h317q-9 177 -151 177t-166 -177zM430 941l135 297h268 l-238 -297h-165z" />
<glyph unicode="&#xea;" horiz-adv-x="983" d="M30 433q0 214 138 338q132 118 346 118q205 0 314 -121t109 -335q0 -31 -4 -61h-593q26 -160 179 -180q36 -4 69 -4q148 0 277 86l41 -190q-143 -107 -392 -107q-213 0 -345 118q-139 125 -139 338zM243 948l201 278h134l207 -278h-168l-108 112l-101 -112h-165zM335 531 h317q-9 177 -151 177t-166 -177z" />
<glyph unicode="&#xeb;" horiz-adv-x="983" d="M30 433q0 214 138 338q132 118 346 118q205 0 314 -121t109 -335q0 -31 -4 -61h-593q26 -160 179 -180q36 -4 69 -4q148 0 277 86l41 -190q-143 -107 -392 -107q-213 0 -345 118q-139 125 -139 338zM210 1085q0 51 35 85.5t84 34.5q51 0 86.5 -34.5t35.5 -85.5 q0 -49 -35.5 -84.5t-86.5 -35.5q-49 0 -84 35t-35 85zM335 531h317q-9 177 -151 177t-166 -177zM560 1085q0 51 35 85.5t85 34.5q49 0 84.5 -34.5t35.5 -85.5q0 -49 -35.5 -84.5t-84.5 -35.5t-84.5 35t-35.5 85z" />
<glyph unicode="&#xec;" horiz-adv-x="534" d="M-52 1238h269l136 -297h-166zM30 828v39h405v-867h-294v580q0 102 -15 148q-23 82 -96 100z" />
<glyph unicode="&#xed;" horiz-adv-x="517" d="M12 828v39h405v-867h-294v580q0 102 -14 148q-23 82 -97 100zM146 941l136 297h269l-240 -297h-165z" />
<glyph unicode="&#xee;" horiz-adv-x="573" d="M20 948l200 278h136l206 -278h-169l-106 112l-102 -112h-165zM69 828v39h405v-867h-296v580q0 102 -12 148q-25 82 -97 100z" />
<glyph unicode="&#xef;" horiz-adv-x="534" d="M-42 1085q0 51 35 85.5t84 34.5t84.5 -34.5t35.5 -85.5q0 -49 -35.5 -84.5t-84.5 -35.5t-84 35t-35 85zM30 828v39h405v-867h-294v580q0 102 -15 148q-23 82 -96 100zM308 1085q0 51 35 85.5t85 34.5q49 0 84.5 -34.5t35.5 -85.5q0 -49 -35.5 -84.5t-84.5 -35.5t-84.5 35 t-35.5 85z" />
<glyph unicode="&#xf0;" horiz-adv-x="1047" d="M32 393q0 185 124 307t308 122q183 0 270 -100q-23 148 -151 233l-169 -103l-135 120l98 62q-86 17 -178 18h-5h-13l106 205q195 -5 340 -65l125 80l136 -132l-90 -53q84 -77 146 -196q73 -143 73 -326q0 -132 -39 -249q-111 -338 -469 -339q-208 0 -340 111 q-137 116 -137 305zM333 402q0 -96 49.5 -155.5t128.5 -59.5t129.5 59.5t50.5 155.5q0 95 -50.5 155t-129.5 60t-128.5 -60t-49.5 -155z" />
<glyph unicode="&#xf1;" horiz-adv-x="1061" d="M12 828v39h378l10 -126q81 148 274 148q296 0 296 -339v-550h-296v544q0 64 -33 97q-27 26 -74 26q-97 0 -150 -96v-571h-296v580q0 102 -12 148q-25 80 -97 100zM227 1010q0 193 159 197h9h5q54 0 162 -44q17 -7 31 -8q37 0 37 37q0 7 -1 15h132q2 -21 2 -43 q0 -193 -159 -197h-9h-3q-57 0 -162 44q-17 7 -34 7q-35 0 -35 -37v-14h-131q-3 23 -3 43z" />
<glyph unicode="&#xf2;" d="M30 433q0 205 139 333q138 123 350 123q215 0 351 -121q140 -126 140 -335q0 -191 -126 -319q-136 -137 -368 -137q-212 0 -349 126t-137 330zM212 1238h267l136 -297h-166zM336 433q0 -100 51.5 -165t131.5 -65q81 0 132.5 65t51.5 165q0 103 -51.5 167t-132.5 64 q-80 0 -131.5 -64t-51.5 -167z" />
<glyph unicode="&#xf3;" d="M30 433q0 205 139 333q138 123 350 123q215 0 351 -121q140 -126 140 -335q0 -191 -126 -319q-136 -137 -368 -137q-212 0 -349 126t-137 330zM336 433q0 -100 51.5 -165t131.5 -65q81 0 132.5 65t51.5 165q0 103 -51.5 167t-132.5 64q-80 0 -131.5 -64t-51.5 -167z M440 941l136 297h269l-239 -297h-166z" />
<glyph unicode="&#xf4;" d="M30 433q0 205 139 333q138 123 350 123q215 0 351 -121q140 -126 140 -335q0 -191 -126 -319q-136 -137 -368 -137q-212 0 -349 126t-137 330zM249 948l200 278h136l206 -278h-169l-108 112l-100 -112h-165zM336 433q0 -100 51.5 -165t131.5 -65q81 0 132.5 65t51.5 165 q0 103 -51.5 167t-132.5 64q-80 0 -131.5 -64t-51.5 -167z" />
<glyph unicode="&#xf5;" d="M30 433q0 205 139 333q138 123 350 123q215 0 351 -121q140 -126 140 -335q0 -191 -126 -319q-136 -137 -368 -137q-212 0 -349 126t-137 330zM230 1010q0 193 160 197h8h4q56 0 161 -44q17 -7 34 -8q35 0 35 37v15h133q1 -21 1 -43q0 -193 -158 -197h-9h-4 q-57 0 -163 44q-17 7 -32 7q-35 0 -35 -37v-14h-133q-2 23 -2 43zM336 433q0 -100 51.5 -165t131.5 -65q81 0 132.5 65t51.5 165q0 103 -51.5 167t-132.5 64q-80 0 -131.5 -64t-51.5 -167z" />
<glyph unicode="&#xf6;" d="M30 433q0 205 139 333q138 123 350 123q215 0 351 -121q140 -126 140 -335q0 -191 -126 -319q-136 -137 -368 -137q-212 0 -349 126t-137 330zM212 1085q0 51 34 85.5t85 34.5q49 0 84.5 -34.5t35.5 -85.5q0 -49 -35.5 -84.5t-84.5 -35.5q-51 0 -85 35t-34 85zM336 433 q0 -100 51.5 -165t131.5 -65q81 0 132.5 65t51.5 165q0 103 -51.5 167t-132.5 64q-80 0 -131.5 -64t-51.5 -167zM560 1085q0 51 35 85.5t85 34.5q51 0 86.5 -34.5t35.5 -85.5q0 -49 -35.5 -84.5t-86.5 -35.5q-49 0 -84.5 35t-35.5 85z" />
<glyph unicode="&#xf7;" horiz-adv-x="978" d="M39 356v202h902v-202h-902zM347 132q0 62 43 105t103 43q62 0 105 -43t43 -105q0 -60 -43 -103t-105 -43q-60 0 -103 43t-43 103zM347 780q0 60 43 103t103 43q62 0 105 -43t43 -103q0 -62 -43 -104t-105 -42q-60 0 -103 42.5t-43 103.5z" />
<glyph unicode="&#xf8;" horiz-adv-x="1020" d="M22 432q0 204 138 330t351 126q118 0 218 -41l83 102l132 -114l-67 -85q123 -125 123 -318q0 -192 -125 -319q-135 -138 -368 -138q-114 0 -215 42l-82 -103l-134 116l68 86q-122 125 -122 316zM328 432q0 -37 8 -76l237 294q-32 12 -62 12q-81 0 -132 -64t-51 -166z M447 213q32 -12 64 -13q81 0 132 64.5t51 167.5q0 38 -9 77z" />
<glyph unicode="&#xf9;" horiz-adv-x="1059" d="M12 828v39h407v-541q0 -64 33 -97q27 -27 74 -26q98 0 148 96v568h296v-596q0 -183 34 -271h-305l-8 97q-113 -114 -279 -114q-289 0 -289 341v256q0 102 -14 148q-23 80 -97 100zM210 1238h269l136 -297h-166z" />
<glyph unicode="&#xfa;" horiz-adv-x="1059" d="M12 828v39h407v-541q0 -64 33 -97q27 -27 74 -26q98 0 148 96v568h296v-596q0 -183 34 -271h-305l-8 97q-113 -114 -279 -114q-289 0 -289 341v256q0 102 -14 148q-23 80 -97 100zM423 941l135 297h268l-238 -297h-165z" />
<glyph unicode="&#xfb;" horiz-adv-x="1059" d="M12 828v39h407v-541q0 -64 33 -97q27 -27 74 -26q98 0 148 96v568h296v-596q0 -183 34 -271h-305l-8 97q-113 -114 -279 -114q-289 0 -289 341v256q0 102 -14 148q-23 80 -97 100zM250 948l201 278h136l206 -278h-169l-106 112l-103 -112h-165z" />
<glyph unicode="&#xfc;" horiz-adv-x="1059" d="M12 828v39h407v-541q0 -64 33 -97q27 -27 74 -26q98 0 148 96v568h296v-596q0 -183 34 -271h-305l-8 97q-113 -114 -279 -114q-289 0 -289 341v256q0 102 -14 148q-23 80 -97 100zM249 1085q0 51 34 85.5t85 34.5q49 0 84.5 -34.5t35.5 -85.5q0 -49 -35.5 -84.5 t-84.5 -35.5q-51 0 -85 35t-34 85zM597 1085q0 51 35 85.5t85 34.5q51 0 85.5 -34.5t34.5 -85.5q0 -49 -34.5 -84.5t-85.5 -35.5q-49 0 -84.5 35t-35.5 85z" />
<glyph unicode="&#xfd;" horiz-adv-x="1017" d="M-89 830v37h392l148 -373q25 -61 50 -156q19 81 49 156l141 373h309l-521 -1245h-328l187 418l-243 540q-100 227 -184 250zM391 941l135 297h270l-240 -297h-165z" />
<glyph unicode="&#xfe;" horiz-adv-x="1084" d="M47 1192v38h407l-2 -418q99 74 240 74q146 0 247 -108q116 -124 116 -346q0 -189 -112 -319q-120 -138 -306 -138q-100 0 -183 37v-396h-296v1328q0 103 -14 148q-23 81 -97 100zM454 215q51 -23 106 -23q97 0 146 74q42 63 42 166q0 234 -167 234q-63 0 -127 -46v-405z " />
<glyph unicode="&#xff;" horiz-adv-x="1045" d="M-44 830v37h393l148 -373q25 -61 49 -156q20 81 49 156l141 373h311l-522 -1245h-328l187 418l-243 540q-101 227 -185 250zM247 1085q0 51 34.5 85.5t84.5 34.5q49 0 84.5 -34.5t35.5 -85.5q0 -49 -35.5 -84.5t-84.5 -35.5q-50 0 -84.5 35t-34.5 85zM595 1085 q0 51 35.5 85.5t84.5 34.5q50 0 86 -34.5t36 -85.5q0 -49 -35.5 -84.5t-86.5 -35.5q-49 0 -84.5 35t-35.5 85z" />
<glyph unicode="&#x152;" horiz-adv-x="1875" d="M42 617q0 283 190.5 465t495.5 182q110 0 227 -32h810v-222h-474v-277h458v-217h-458v-294h490v-222h-825q-111 -34 -232 -34q-303 0 -492.5 183.5t-189.5 467.5zM382 617q0 -173 102.5 -287.5t260.5 -114.5q136 0 227 69v664q-94 70 -227 70q-160 0 -261.5 -112.5 t-101.5 -288.5z" />
<glyph unicode="&#x153;" horiz-adv-x="1635" d="M30 433q0 205 138 330.5t351 125.5q207 0 328 -123q127 122 319 122q205 0 313.5 -121.5t108.5 -334.5q0 -32 -3 -62h-593q23 -153 174 -180q35 -5 72 -5q157 0 278 88l41 -190q-143 -108 -374 -108q-208 0 -332 131q-122 -131 -335 -131q-212 0 -349 126t-137 332z M336 433q0 -102 51.5 -167.5t131.5 -65.5q81 0 132.5 65.5t51.5 167.5q0 101 -51.5 166t-132.5 65q-80 0 -131.5 -65t-51.5 -166zM986 530h318q-14 176 -152 176q-140 0 -166 -176z" />
<glyph unicode="&#x178;" horiz-adv-x="1292" d="M-58 1192v40h430l294 -447l282 447h338l-490 -706v-526h-317v518l-284 419q-89 135 -119 169q-62 69 -134 86zM341 1447q0 51 37 88.5t91 37.5q50 0 87 -37.5t37 -88.5q0 -52 -37 -89t-87 -37q-53 0 -90.5 37t-37.5 89zM710 1447q0 51 36.5 88.5t90.5 37.5q52 0 89 -37.5 t37 -88.5q0 -52 -37 -89t-89 -37q-53 0 -90 37t-37 89z" />
<glyph unicode="&#x2c6;" horiz-adv-x="724" d="M91 948l201 278h136l206 -278h-169l-107 112l-101 -112h-166z" />
<glyph unicode="&#x2dc;" horiz-adv-x="718" d="M91 1010q0 193 159 197h9h3q57 0 165 -44q15 -7 31 -8q35 0 35 37v15h132q2 -21 2 -43q0 -193 -158 -197h-9h-4q-57 0 -162 44q-17 7 -33 7q-36 0 -36 -37v-14h-131q-2 23 -3 43z" />
<glyph unicode="&#x2000;" horiz-adv-x="817" />
<glyph unicode="&#x2001;" horiz-adv-x="1635" />
<glyph unicode="&#x2002;" horiz-adv-x="817" />
<glyph unicode="&#x2003;" horiz-adv-x="1635" />
<glyph unicode="&#x2004;" horiz-adv-x="545" />
<glyph unicode="&#x2005;" horiz-adv-x="408" />
<glyph unicode="&#x2006;" horiz-adv-x="272" />
<glyph unicode="&#x2007;" horiz-adv-x="272" />
<glyph unicode="&#x2008;" horiz-adv-x="204" />
<glyph unicode="&#x2009;" horiz-adv-x="327" />
<glyph unicode="&#x200a;" horiz-adv-x="90" />
<glyph unicode="&#x2010;" horiz-adv-x="637" d="M74 444v236h489v-236h-489z" />
<glyph unicode="&#x2011;" horiz-adv-x="637" d="M74 444v236h489v-236h-489z" />
<glyph unicode="&#x2012;" horiz-adv-x="637" d="M74 444v236h489v-236h-489z" />
<glyph unicode="&#x2013;" horiz-adv-x="897" d="M9 395v158h880v-158h-880z" />
<glyph unicode="&#x2014;" horiz-adv-x="1778" d="M9 395v158h1761v-158h-1761z" />
<glyph unicode="&#x2018;" horiz-adv-x="413" d="M51 923q0 72 32 144q54 123 181 187l57 -79q-99 -53 -116 -152h13q127 0 127 -135q0 -59 -42 -101t-100 -42q-95 0 -134 83q-17 39 -18 95z" />
<glyph unicode="&#x2019;" horiz-adv-x="413" d="M51 1111q0 59 42.5 101t100.5 42q93 0 134 -83q17 -38 17 -95q0 -72 -31 -145q-57 -123 -183 -186l-57 79q101 52 116 152h-12q-126 0 -127 135z" />
<glyph unicode="&#x201a;" horiz-adv-x="467" d="M83 136q0 60 42.5 102t99.5 42q94 0 134 -85q18 -38 18 -94q0 -71 -32 -143q-57 -123 -183 -188l-56 79q100 54 116 153h-12q-127 0 -127 134z" />
<glyph unicode="&#x201c;" horiz-adv-x="774" d="M51 923q0 72 32 144q54 123 181 187l57 -79q-99 -53 -116 -152h13q127 0 127 -135q0 -59 -42 -101t-100 -42q-95 0 -134 83q-17 39 -18 95zM412 923q0 72 32 144q54 123 181 187l57 -79q-99 -53 -117 -152h15q126 0 126 -135q0 -59 -42 -101t-101 -42q-95 0 -133 83 q-17 39 -18 95z" />
<glyph unicode="&#x201d;" horiz-adv-x="774" d="M51 1111q0 59 42.5 101t100.5 42q93 0 134 -83q17 -38 17 -95q0 -72 -31 -145q-57 -123 -183 -186l-57 79q101 52 116 152h-12q-126 0 -127 135zM412 1111q0 59 42.5 101t100.5 42q93 0 134 -83q17 -38 17 -95q0 -72 -32 -145q-57 -123 -183 -186l-56 79q101 52 116 152 h-12q-126 0 -127 135z" />
<glyph unicode="&#x201e;" horiz-adv-x="829" d="M83 136q0 60 42.5 102t99.5 42q94 0 134 -85q18 -38 18 -94q0 -71 -32 -143q-57 -123 -183 -188l-56 79q100 54 116 153h-12q-127 0 -127 134zM444 136q0 60 42 102t101 42q93 0 134 -85q17 -38 17 -94q0 -71 -32 -143q-57 -123 -183 -188l-56 79q101 54 116 153h-12 q-126 0 -127 134z" />
<glyph unicode="&#x2022;" horiz-adv-x="610" d="M91 504q0 89 63 152t150 63q90 0 152.5 -63t62.5 -152q0 -88 -62 -150.5t-153 -62.5q-87 0 -150 62t-63 151z" />
<glyph unicode="&#x2026;" horiz-adv-x="1509" d="M91 129q0 64 45 108.5t107 44.5q64 0 108.5 -44.5t44.5 -108.5q0 -62 -45 -107t-108 -45q-62 0 -107 45t-45 107zM602 129q0 64 45 108.5t107 44.5q64 0 108.5 -44.5t44.5 -108.5q0 -62 -45 -107t-108 -45q-62 0 -107 45t-45 107zM1113 129q0 64 45 108.5t106 44.5 q64 0 109 -44.5t45 -108.5q0 -62 -45 -107t-109 -45q-62 0 -106.5 45t-44.5 107z" />
<glyph unicode="&#x202f;" horiz-adv-x="327" />
<glyph unicode="&#x2039;" horiz-adv-x="615" d="M57 414l247 414h256l-224 -414l224 -414h-256z" />
<glyph unicode="&#x203a;" horiz-adv-x="615" d="M57 0l222 414l-222 414h253l250 -414l-250 -414h-253z" />
<glyph unicode="&#x205f;" horiz-adv-x="408" />
<glyph unicode="&#x2122;" horiz-adv-x="1660" d="M39 1092v140h645v-140h-222v-618h-205v618h-218zM724 1205v27h262l227 -318q226 318 227 318h182v-758h-197v442q-95 -134 -190 -269h-60l-183 265v-438h-199v578q0 129 -69 153z" />
<glyph unicode="&#x25fc;" horiz-adv-x="862" d="M0 0v863h863v-863h-863z" />
<glyph unicode="&#xfb01;" horiz-adv-x="1112" d="M3 657v210h108q0 200 143 303q105 74 262 74q108 0 190 -48v-216q-57 45 -144 45q-155 0 -155 -136v-22h174v-210h-174v-659h-298v659h-106zM617 828v39h405v-867h-294v580q0 102 -15 148q-23 82 -96 100z" />
<glyph unicode="&#xfb02;" horiz-adv-x="1010" d="M3 657v210h108q0 200 150 301q111 76 290 76q210 0 368 -89v-1155h-292v1004q-28 21 -99 21q-121 0 -121 -134v-24h156v-210h-156v-657h-298v657h-106z" />
</font>
</defs>
</svg>
