<?xml version="1.0" standalone="no"?>
<!DOCTYPE svg PUBLIC "-//W3C//DTD SVG 1.1//EN" "http://www.w3.org/Graphics/SVG/1.1/DTD/svg11.dtd" >
<svg xmlns="http://www.w3.org/2000/svg" xmlns:xlink="http://www.w3.org/1999/xlink" version="1.1">
<metadata></metadata>
<defs>
<font id="eight-bit_madnessregular" horiz-adv-x="1157" >
<font-face units-per-em="2048" ascent="1638" descent="-410" />
<missing-glyph horiz-adv-x="433" />
<glyph horiz-adv-x="0" />
<glyph horiz-adv-x="682" />
<glyph unicode=" "  horiz-adv-x="433" />
<glyph unicode="&#x09;" horiz-adv-x="433" />
<glyph unicode="&#xa0;" horiz-adv-x="433" />
<glyph unicode="!" horiz-adv-x="578" d="M145 0v145h289v-145h-289zM145 289v723h289v-723h-289z" />
<glyph unicode="&#x22;" horiz-adv-x="1012" d="M145 579v433h289v-433h-289zM579 579v433h289v-433h-289z" />
<glyph unicode="#" horiz-adv-x="1301" d="M145 145v144h144v434h-144v145h144v144h217v-144h290v144h216v-144h145v-145h-145v-434h145v-144h-145v-145h-216v145h-290v-145h-217v145h-144zM506 289h290v434h-290v-434z" />
<glyph unicode="$" d="M145 145v144h144v-144h-144zM145 579v289h144v144h145v217h289v-217h145v-144h-434v-289h434v-145h144v-289h-144v-145h-145v-217h-289v217h-145v145h434v289h-434v145h-144zM868 723v145h144v-145h-144z" />
<glyph unicode="%" d="M0 579v289h289v-289h-289zM72 0v145h73v144h144v145h145v145h145v144h144v145h217v-145h-72v-144h-145v-145h-144v-145h-145v-144h-145v-145h-217zM723 0v289h289v-289h-289z" />
<glyph unicode="&#x26;" horiz-adv-x="867" d="M0 145v289h145v145h-145v289h145v144h289v-144h145v-289h-145v-145h145v-289h-145v-145h-289v145h-145zM145 217h72v-72h145v72h72v145h-72v72h-145v-72h-72v-145zM145 651h72v-72h145v72h72v145h-72v72h-145v-72h-72v-145zM579 0v145h144v-145h-144z" />
<glyph unicode="'" horiz-adv-x="578" d="M145 579v433h289v-433h-289z" />
<glyph unicode="(" horiz-adv-x="723" d="M0 145v723h145v144h144v145h290v-145h-145v-144h-145v-723h145v-145h145v-145h-290v145h-144v145h-145z" />
<glyph unicode=")" horiz-adv-x="723" d="M0 0h145v145h144v723h-144v144h-145v145h289v-145h145v-144h145v-723h-145v-145h-145v-145h-289v145z" />
<glyph unicode="*" horiz-adv-x="723" d="M145 579v144h144v-144h-144zM145 868v144h144v-144h-144zM289 723v145h145v-145h-145zM434 579v144h145v-144h-145zM434 868v144h145v-144h-145z" />
<glyph unicode="+" horiz-adv-x="1012" d="M145 434v145h289v289h145v-289h289v-145h-289v-289h-145v289h-289z" />
<glyph unicode="," horiz-adv-x="578" d="M145 -145v434h289v-289h-145v-145h-144z" />
<glyph unicode="-" horiz-adv-x="1012" d="M145 289v145h723v-145h-723z" />
<glyph unicode="." horiz-adv-x="578" d="M145 0v289h289v-289h-289z" />
<glyph unicode="/" horiz-adv-x="1012" d="M145 145v144h144v-144h-144zM289 289v145h145v-145h-145zM434 434v145h145v-145h-145zM579 579v144h144v-144h-144zM723 723v145h145v-145h-145z" />
<glyph unicode="0" d="M145 145v723h144v144h434v-144h-289v-723h289v-145h-434v145h-144zM723 145v723h217v-723h-217z" />
<glyph unicode="1" horiz-adv-x="867" d="M145 0v145h144v578h-144v145h144v144h290v-867h144v-145h-578z" />
<glyph unicode="2" d="M145 0v145h144v144h145v145h145v145h144v289h-289v-289h-289v289h144v144h579v-144h144v-289h-144v-145h-145v-145h-144v-144h433v-145h-867z" />
<glyph unicode="3" d="M145 145v144h289v-144h289v289h-434v145h434v289h-289v-145h-289v145h144v144h579v-144h144v-289h-144v-145h144v-289h-144v-145h-579v145h-144z" />
<glyph unicode="4" d="M145 289v723h289v-578h145v578h289v-578h144v-145h-144v-289h-289v289h-434z" />
<glyph unicode="5" horiz-adv-x="1012" d="M145 0v289h289v-144h145v289h-434v578h723v-144h-434v-289h434v-579h-723z" />
<glyph unicode="6" horiz-adv-x="1012" d="M145 145v723h144v144h434v-144h145v-145h-217v145h-217v-289h289v-145h145v-289h-145v-145h-434v145h-144zM434 145h217v289h-217v-289z" />
<glyph unicode="7" d="M217 723v289h723v-433h-144v-290h-145v-289h-217v289h145v290h144v289h-289v-145h-217z" />
<glyph unicode="8" d="M217 145v289h72v145h-72v289h72v144h579v-144h72v-289h-72v-145h72v-289h-72v-145h-579v145h-72zM434 145h289v289h-289v-289zM434 579h289v289h-289v-289z" />
<glyph unicode="9" horiz-adv-x="1012" d="M72 579v289h217v-289h-217zM145 145v144h144v-144h-144zM289 0v145h290v289h-290v145h290v289h-290v144h434v-144h145v-723h-145v-145h-434z" />
<glyph unicode=":" horiz-adv-x="578" d="M145 145v289h289v-289h-289zM145 579v289h289v-289h-289z" />
<glyph unicode=";" horiz-adv-x="578" d="M145 0h144v-145h-144v145zM145 145v289h289v-434h-145v145h-144zM145 579v289h289v-289h-289z" />
<glyph unicode="&#x3c;" horiz-adv-x="867" d="M145 434v145h144v144h145v145h289v-145h-144v-144h-145v-145h145v-145h144v-144h-289v144h-145v145h-144z" />
<glyph unicode="=" d="M145 145v144h867v-144h-867zM145 434v145h867v-145h-867z" />
<glyph unicode="&#x3e;" horiz-adv-x="1012" d="M289 145v144h145v145h145v145h-145v144h-145v145h290v-145h144v-144h145v-145h-145v-145h-144v-144h-290z" />
<glyph unicode="?" d="M145 579v289h144v144h579v-144h144v-289h-144v-145h-145v-145h-289v145h145v145h144v289h-289v-289h-289zM434 0v145h289v-145h-289z" />
<glyph unicode="@" horiz-adv-x="1446" d="M72 145v723h217v-723h-217zM289 0v145h579v-145h-579zM289 868v144h723v-144h-723zM434 289v434h289v-144h-144v-145h144v145h145v-145h144v-145h-578zM1012 434v434h217v-434h-217z" />
<glyph unicode="A" d="M145 0v868h144v144h579v-144h144v-868h-289v434h-289v-434h-289zM434 579h289v289h-289v-289z" />
<glyph unicode="B" d="M145 0v1012h723v-144h144v-289h-144v-145h144v-289h-144v-145h-723zM434 145h289v289h-289v-289zM434 579h289v289h-289v-289z" />
<glyph unicode="C" d="M145 145v723h144v144h579v-144h-434v-723h434v-145h-579v145h-144zM868 145v144h144v-144h-144zM868 723v145h144v-145h-144z" />
<glyph unicode="D" d="M145 0v1012h723v-144h144v-723h-144v-145h-723zM434 145h289v723h-289v-723z" />
<glyph unicode="E" d="M145 0v1012h867v-144h-578v-289h434v-145h-434v-289h578v-145h-867z" />
<glyph unicode="F" d="M145 0v1012h867v-144h-578v-289h434v-145h-434v-434h-289z" />
<glyph unicode="G" d="M145 145v723h144v144h579v-144h-434v-723h289v289h-144v145h433v-434h-144v-145h-579v145h-144zM868 723v145h144v-145h-144z" />
<glyph unicode="H" d="M145 0v1012h289v-433h289v433h289v-1012h-289v434h-289v-434h-289z" />
<glyph unicode="I" horiz-adv-x="723" d="M0 0v145h145v723h-145v144h579v-144h-145v-723h145v-145h-579z" />
<glyph unicode="J" d="M145 145v144h144v-144h-144zM289 0v145h434v867h289v-867h-144v-145h-579z" />
<glyph unicode="K" d="M145 0v1012h289v-289h145v145h144v144h289v-144h-144v-145h-145v-144h-144v-145h144v-145h145v-144h144v-145h-289v145h-144v144h-145v-289h-289z" />
<glyph unicode="L" d="M145 0v1012h289v-795h578v-217h-867z" />
<glyph unicode="M" horiz-adv-x="1301" d="M145 0v1012h867v-144h145v-868h-289v868h-145v-579h-144v579h-145v-868h-289z" />
<glyph unicode="N" d="M145 0v1012h289v-144h145v-145h144v-144h145v433h144v-1012h-144v145h-145v144h-144v145h-145v145h-145v-579h-144z" />
<glyph unicode="O" d="M145 145v723h144v144h579v-144h144v-723h-144v-145h-579v145h-144zM434 145h289v723h-289v-723z" />
<glyph unicode="P" d="M145 0v1012h723v-144h-434v-289h434v-145h-434v-434h-289zM868 579v289h144v-289h-144z" />
<glyph unicode="Q" d="M145 145v723h144v144h579v-144h144v-723h-144v-145h144v-145h-289v145h-434v145h-144zM434 145h289v723h-289v-723z" />
<glyph unicode="R" d="M145 0v1012h723v-144h144v-289h-144v-145h144v-434h-289v434h-289v-434h-289zM434 579h289v289h-289v-289z" />
<glyph unicode="S" d="M145 145v144h144v-144h-144zM145 579v289h144v144h579v-144h-434v-289h434v-145h144v-289h-144v-145h-579v145h434v289h-434v145h-144zM868 723v145h144v-145h-144z" />
<glyph unicode="T" d="M145 868v144h867v-144h-289v-868h-289v868h-289z" />
<glyph unicode="U" d="M145 145v867h289v-867h289v867h289v-867h-144v-145h-579v145h-144z" />
<glyph unicode="V" d="M145 0v1012h289v-867h289v-145h-578zM723 145v867h289v-723h-144v-144h-145z" />
<glyph unicode="W" horiz-adv-x="1301" d="M145 0v1012h289v-867h145v506h144v-506h145v867h289v-867h-145v-145h-867z" />
<glyph unicode="X" d="M145 0v434h144v145h-144v433h289v-433h289v433h289v-433h-144v-145h144v-434h-289v434h-289v-434h-289z" />
<glyph unicode="Y" d="M145 579v433h289v-433h289v433h289v-433h-144v-145h-145v-434h-289v434h-145v145h-144z" />
<glyph unicode="Z" d="M145 0v434h144v145h145v144h145v145h-434v144h867v-289h-144v-144h-145v-145h-144v-145h-145v-144h578v-145h-867z" />
<glyph unicode="[" horiz-adv-x="578" d="M0 -145v1302h434v-145h-217v-1012h217v-145h-434z" />
<glyph unicode="\" horiz-adv-x="1012" d="M145 723v145h144v-145h-144zM289 579v144h145v-144h-145zM434 434v145h145v-145h-145zM579 289v145h144v-145h-144zM723 145v144h145v-144h-145z" />
<glyph unicode="]" horiz-adv-x="578" d="M0 0h217v1012h-217v145h434v-1302h-434v145z" />
<glyph unicode="^" horiz-adv-x="1012" d="M145 579v144h144v-144h-144zM289 723v145h145v-145h-145zM434 868v144h145v-144h-145zM579 723v145h144v-145h-144zM723 579v144h145v-144h-145z" />
<glyph unicode="_" d="M145 0v145h867v-145h-867z" />
<glyph unicode="`" horiz-adv-x="867" d="M289 868v144h290v-144h144v-145h-289v145h-145z" />
<glyph unicode="a" d="M145 145v289h144v145h434v144h-434v145h579v-145h144v-723h-723v145h-144zM145 579v144h144v-144h-144zM434 145h289v289h-289v-289z" />
<glyph unicode="b" d="M145 0v1157h289v-289h434v-145h144v-578h-144v-145h-723zM434 145h289v578h-289v-578z" />
<glyph unicode="c" d="M145 145v578h144v145h579v-145h-434v-578h434v-145h-579v145h-144zM868 145v144h144v-144h-144zM868 579v144h144v-144h-144z" />
<glyph unicode="d" d="M145 145v578h144v145h434v289h289v-1157h-723v145h-144zM434 145h289v578h-289v-578z" />
<glyph unicode="e" d="M145 145v578h144v145h579v-145h144v-289h-578v-289h434v-145h-579v145h-144zM434 579h289v144h-289v-144zM868 145v144h144v-144h-144z" />
<glyph unicode="f" d="M145 579v144h144v145h145v144h578v-144h-433v-145h289v-144h-289v-579h-290v579h-144z" />
<glyph unicode="g" d="M145 0v145h144v-145h-144zM145 289v434h144v145h723v-868h-144v-145h-579v145h434v145h-434v144h-144zM434 289h289v434h-289v-434z" />
<glyph unicode="h" d="M145 0v1157h289v-289h434v-145h144v-723h-289v723h-289v-723h-289z" />
<glyph unicode="i" horiz-adv-x="578" d="M145 0v723h289v-723h-289zM145 868v144h289v-144h-289z" />
<glyph unicode="j" horiz-adv-x="867" d="M145 0v145h144v-145h-144zM289 0h145v723h145v145h144v-868h-144v-145h-290v145z" />
<glyph unicode="k" d="M145 0v1012h289v-433h145v-145h144v-145h145v-144h144v-145h-289v145h-144v144h-145v-289h-289zM579 579v144h144v-144h-144zM723 723v145h145v-145h-145z" />
<glyph unicode="l" horiz-adv-x="867" d="M145 145v867h289v-867h289v-145h-434v145h-144z" />
<glyph unicode="m" horiz-adv-x="1301" d="M145 0v868h867v-145h145v-723h-289v723h-145v-578h-144v578h-145v-723h-289z" />
<glyph unicode="n" d="M145 0v868h723v-145h144v-723h-289v723h-289v-723h-289z" />
<glyph unicode="o" d="M145 145v578h144v145h579v-145h144v-578h-144v-145h-579v145h-144zM434 145h289v578h-289v-578z" />
<glyph unicode="p" d="M145 -145v1013h723v-145h144v-434h-144v-144h-434v-290h-289zM434 289h289v434h-289v-434z" />
<glyph unicode="q" d="M145 145v578h144v145h723v-1157h-144v144h-145v145h-434v145h-144zM434 145h289v578h-289v-578z" />
<glyph unicode="r" horiz-adv-x="1012" d="M145 0v868h289v-145h145v-144h-145v-579h-289zM579 723v145h289v-145h-289z" />
<glyph unicode="s" d="M145 145v144h144v-144h-144zM145 579v144h144v145h579v-145h-289v-144h144v-145h145v-145h144v-144h-144v-145h-579v145h290v144h-145v145h-145v145h-144zM868 579v144h144v-144h-144z" />
<glyph unicode="t" horiz-adv-x="867" d="M145 723v145h144v144h290v-144h144v-145h-144v-578h144v-145h-289v145h-145v578h-144z" />
<glyph unicode="u" d="M145 145v723h289v-723h289v723h289v-868h-723v145h-144z" />
<glyph unicode="v" d="M145 0v868h289v-723h289v-145h-578zM723 145v723h289v-579h-144v-144h-145z" />
<glyph unicode="w" horiz-adv-x="1301" d="M145 0v868h289v-723h145v361h144v-361h145v723h289v-723h-145v-145h-867z" />
<glyph unicode="x" d="M145 0v434h144v145h-144v289h289v-289h289v289h289v-289h-144v-145h144v-434h-289v434h-289v-434h-289z" />
<glyph unicode="y" d="M145 0v145h144v-145h-144zM145 434v434h289v-579h-145v145h-144zM289 0h434v145h-289v144h289v579h289v-868h-144v-145h-579v145z" />
<glyph unicode="z" d="M145 0v289h144v145h145v145h145v144h-434v145h867v-289h-144v-145h-145v-145h-144v-144h433v-145h-867z" />
<glyph unicode="{" horiz-adv-x="723" d="M-145 434v145h145v289h145v144h144v145h290v-145h-145v-144h-145v-289h-144v-145h144v-289h145v-145h145v-145h-290v145h-144v145h-145v289h-145z" />
<glyph unicode="|" horiz-adv-x="578" d="M145 -145v1302h289v-1302h-289z" />
<glyph unicode="}" horiz-adv-x="867" d="M0 0h145v145h144v289h145v145h-145v289h-144v144h-145v145h289v-145h145v-144h145v-289h144v-145h-144v-289h-145v-145h-145v-145h-289v145z" />
<glyph unicode="~" horiz-adv-x="1301" d="M145 434v145h144v-145h-144zM289 579v144h290v-144h-290zM579 434v145h144v-145h-144zM723 289v145h289v-145h-289zM1012 434v145h145v-145h-145z" />
<glyph unicode="&#xa1;" horiz-adv-x="578" d="M145 -145v724h289v-724h-289zM145 723v145h289v-145h-289z" />
<glyph unicode="&#xa2;" d="M145 145v578h144v145h290v144h144v-144h145v-145h-145v-578h145v-145h-145v-145h-144v145h-290v145h-144zM434 145h145v578h-145v-578zM868 145v144h144v-144h-144zM868 579v144h144v-144h-144z" />
<glyph unicode="&#xa3;" horiz-adv-x="1301" d="M145 0v145h144v723h145v144h578v-144h145v-145h-289v145h-289v-289h433v-145h-433v-289h578v-145h-1012z" />
<glyph unicode="&#xa4;" horiz-adv-x="1446" d="M289 145v144h145v-144h-145zM289 723v145h145v-145h-145zM434 289v434h145v-434h-145zM579 145v144h433v-144h-433zM579 723v145h433v-145h-433zM1012 289v434h145v-434h-145zM1157 145v144h145v-144h-145zM1157 723v145h145v-145h-145z" />
<glyph unicode="&#xa5;" d="M145 145v144h289v145h-289v145h144v144h-144v289h289v-289h289v289h289v-289h-144v-144h144v-145h-289v-145h289v-144h-289v-145h-289v145h-289z" />
<glyph unicode="&#xa6;" horiz-adv-x="723" d="M289 0v434h290v-434h-290zM289 579v433h290v-433h-290z" />
<glyph unicode="&#xa7;" d="M145 145v144h289v-144h289v144h-289v145h289v145h145v-145h144v-289h-144v-145h-579v145h-144zM145 579v289h144v144h579v-144h144v-145h-289v145h-289v-145h289v-144h-289v-145h-145v145h-144z" />
<glyph unicode="&#xa9;" horiz-adv-x="1301" d="M145 145v434h144v-434h-144zM289 0v145h145v-145h-145zM289 579v144h145v-144h-145zM434 0h434v-145h-434v145zM434 289v145h145v-145h-145zM434 723v145h434v-145h-434zM579 145v144h289v-144h-289zM579 434v145h289v-145h-289zM868 0v145h144v-145h-144zM868 579v144 h144v-144h-144zM1012 145v434h145v-434h-145z" />
<glyph unicode="&#xab;" horiz-adv-x="1446" d="M145 434v145h144v144h145v145h289v-145h-144v-144h-145v-145h145v-145h144v-144h-289v144h-145v145h-144zM723 434v145h145v144h144v145h290v-145h-145v-144h-145v-145h145v-145h145v-144h-290v144h-144v145h-145z" />
<glyph unicode="&#xad;" horiz-adv-x="1012" d="M145 289v145h723v-145h-723z" />
<glyph unicode="&#xb0;" horiz-adv-x="867" d="M289 723v145h145v-145h-145zM434 579v144h145v-144h-145zM434 868v144h145v-144h-145zM579 723v145h144v-145h-144z" />
<glyph unicode="&#xb1;" horiz-adv-x="1012" d="M145 0v145h723v-145h-723zM145 579v144h289v289h145v-289h289v-144h-289v-290h-145v290h-289z" />
<glyph unicode="&#xb4;" horiz-adv-x="1012" d="M434 723v145h72v72h73v72h289v-144h-72v-72h-73v-73h-289z" />
<glyph unicode="&#xb5;" d="M145 145v723h289v-723h289v723h289v-868h-578v-145h-145v290h-144z" />
<glyph unicode="&#xb7;" horiz-adv-x="723" d="M289 434v289h290v-289h-290z" />
<glyph unicode="&#xba;" horiz-adv-x="867" d="M289 723v145h145v-145h-145zM434 579v144h145v-144h-145zM434 868v144h145v-144h-145zM579 723v145h144v-145h-144z" />
<glyph unicode="&#xbb;" horiz-adv-x="1591" d="M289 145v144h145v145h145v145h-145v144h-145v145h290v-145h144v-144h145v-145h-145v-145h-144v-144h-290zM868 145v144h144v145h145v145h-145v144h-144v145h289v-145h145v-144h144v-145h-144v-145h-145v-144h-289z" />
<glyph unicode="&#xbf;" d="M145 0v289h144v145h145v145h289v-145h-144v-145h-145v-289h289v289h289v-289h-144v-145h-579v145h-144zM434 723v145h289v-145h-289z" />
<glyph unicode="&#xd7;" horiz-adv-x="1012" d="M145 0v145h144v-145h-144zM145 579v144h144v-144h-144zM289 145v144h145v-144h-145zM289 434v145h145v-145h-145zM434 289v145h145v-145h-145zM579 145v144h144v-144h-144zM579 434v145h144v-145h-144zM723 0v145h145v-145h-145zM723 579v144h145v-144h-145z" />
<glyph unicode="&#xf7;" horiz-adv-x="1012" d="M145 289v145h723v-145h-723zM434 0v145h145v-145h-145zM434 579v144h145v-144h-145z" />
<glyph unicode="&#x2000;" horiz-adv-x="682" />
<glyph unicode="&#x2001;" horiz-adv-x="1365" />
<glyph unicode="&#x2002;" horiz-adv-x="682" />
<glyph unicode="&#x2003;" horiz-adv-x="1365" />
<glyph unicode="&#x2004;" horiz-adv-x="455" />
<glyph unicode="&#x2005;" horiz-adv-x="341" />
<glyph unicode="&#x2006;" horiz-adv-x="227" />
<glyph unicode="&#x2007;" horiz-adv-x="227" />
<glyph unicode="&#x2008;" horiz-adv-x="170" />
<glyph unicode="&#x2009;" horiz-adv-x="273" />
<glyph unicode="&#x200a;" horiz-adv-x="75" />
<glyph unicode="&#x2010;" horiz-adv-x="1012" d="M145 289v145h723v-145h-723z" />
<glyph unicode="&#x2011;" horiz-adv-x="1012" d="M145 289v145h723v-145h-723z" />
<glyph unicode="&#x2012;" horiz-adv-x="1012" d="M145 289v145h723v-145h-723z" />
<glyph unicode="&#x2013;" horiz-adv-x="1313" d="M145 289v145h1024v-145h-1024z" />
<glyph unicode="&#x2014;" horiz-adv-x="2337" d="M145 289v145h2048v-145h-2048z" />
<glyph unicode="&#x2018;" horiz-adv-x="578" d="M145 579v433h144v-144h145v-289h-289z" />
<glyph unicode="&#x2019;" horiz-adv-x="578" d="M145 723v289h289v-433h-145v144h-144z" />
<glyph unicode="&#x201c;" horiz-adv-x="1012" d="M145 579v433h144v-144h145v-289h-289zM579 579v433h144v-144h145v-289h-289z" />
<glyph unicode="&#x201d;" horiz-adv-x="1012" d="M145 723v289h289v-433h-145v144h-144zM579 723v289h289v-433h-145v144h-144z" />
<glyph unicode="&#x2022;" horiz-adv-x="867" d="M289 434v145h73v72h72v72h145v-72h72v-72h72v-145h-72v-72h-72v-73h-145v73h-72v72h-73z" />
<glyph unicode="&#x202f;" horiz-adv-x="273" />
<glyph unicode="&#x205f;" horiz-adv-x="341" />
<glyph unicode="&#x2122;" horiz-adv-x="1880" d="M579 1012v145h506v-145h-217v-289h-145v289h-144zM1157 723v434h506v-145h73v-289h-145v289h-72v-289h-145v289h-72v-289h-145z" />
<glyph unicode="&#x25fc;" horiz-adv-x="870" d="M0 0v870h870v-870h-870z" />
</font>
</defs>
</svg>
